<svg xmlns="http://www.w3.org/2000/svg" xmlns:xlink="http://www.w3.org/1999/xlink" width="1200" height="628" viewBox="0 0 1200 628"><defs><clipPath id="b"><rect width="1200" height="628"/></clipPath></defs><g id="a" clip-path="url(#b)"><rect width="1200" height="628" fill="#fff"/><rect width="1201" height="628" transform="translate(-1)" fill="#093ad6"/><g transform="translate(-340.24 302.502)"><path d="M-258.06-5.61h2.805V0h2.805V-5.61h-2.805v-8.415h-2.805V-22.44h-2.8v8.415h2.8Zm11.22,0h2.8V0h2.805V-5.61h-2.805v-8.415h-2.8V-22.44h-2.805v8.415h2.805Zm11.22-16.83h-2.805v8.415h2.805Zm-14.025,8.415h-2.8V-5.61h2.8Zm11.22,0h-2.8V-5.61h2.8Zm11.22,2.805h2.8v-2.805h-2.8V-22.44h-2.805V0h2.805ZM-218.79,0h2.805V-14.025h-2.805v-2.8h-5.61v2.8h5.61Zm8.415-11.22h2.805v2.805h8.415v2.8h-2.8v2.805h2.8V0h5.61V-2.805h-2.8v-11.22h-2.805v-2.8h-8.415v2.8h-2.805Zm0,8.415h2.805V0h5.61V-2.805h-5.61v-5.61h-2.805Zm2.805-11.22h8.415v2.805h-8.415Zm25.245-2.8h-2.805v-5.61h-2.8v5.61h-2.805v2.8h2.805V0h5.61V-2.805h-2.805v-11.22h2.805ZM-168.3,0h2.805V-16.83H-168.3Zm0-19.635h2.805V-22.44H-168.3Zm16.83,2.805h-2.805v-2.805h2.805V-22.44h-5.61v5.61h-2.805v2.8h2.805V0h2.8V-14.025h2.805Zm28.05-5.61h-2.805v8.415h-2.805v-2.8h-5.61v2.8h5.61v2.805h2.805v5.61h-2.805v2.805h2.805V0h2.805Zm-5.61,19.635h-5.61v-11.22h-2.805v11.22h2.805V0h5.61Zm25.245-11.22h-2.805v-2.8H-115v2.8h8.415v2.805H-115v-2.805h-2.805v11.22H-115V0h8.415V-2.805H-115v-5.61h11.22Zm0,8.415h-2.805v2.805h2.805ZM-92.565,0h2.805V-5.61h-2.805v-5.61H-95.37v-5.61h-2.805v5.61h2.805v5.61h2.805Zm8.415-16.83h-2.805v5.61h2.805Zm-2.805,5.61H-89.76v5.61h2.805ZM-78.54,0h2.805V-16.83H-78.54Zm0-19.635h2.805V-22.44H-78.54Zm8.415,16.83h2.805V0H-58.9V-2.805H-67.32v-11.22h-2.805ZM-56.1-14.025H-58.9v-2.8H-67.32v2.8H-58.9v2.805H-56.1Zm0,8.415H-58.9v2.805H-56.1Zm19.635-8.415H-39.27v-2.8h-8.415v2.8h8.415v2.805h-8.415v-2.805H-50.49v11.22h2.805V0h8.415V-2.805h-8.415v-5.61h11.22Zm0,8.415H-39.27v2.805h2.805Zm8.415-2.8h5.61v2.8h2.805v2.805h2.8V-5.61h-2.8v-2.8H-22.44V-11.22h-5.61v-2.805h-2.805v2.805h2.805Zm11.22-5.61h-2.8v-2.8H-28.05v2.8h8.415v2.805h2.8ZM-30.855-2.805h2.805V0h8.415V-2.805H-28.05V-5.61h-2.805Zm42.075,0h2.805V0H16.83V-2.805H14.025V-11.22H11.22v-5.61h-2.8v5.61h2.8ZM2.805,0H5.61V-2.805H2.805V-11.22H0v-5.61H-2.8v5.61H0v8.415h2.8Zm5.61-11.22H5.61v8.415H8.415Zm11.22,0h-2.8v8.415h2.8Zm2.805-5.61H19.635v5.61H22.44Zm19.635,2.8H39.27v-2.8H30.855v2.8H39.27v2.805H30.855v-2.805H28.05v11.22h2.805V0H39.27V-2.805H30.855v-5.61h11.22Zm0,8.415H39.27v2.805h2.805ZM47.685,0H50.49V-14.025H56.1v-2.8H47.685ZM72.93-14.025H70.125v-2.8H61.71v2.8h8.415v2.805H61.71v-2.805H58.905v11.22H61.71V0h8.415V-2.805H61.71v-5.61H72.93Zm0,8.415H70.125v2.805H72.93ZM86.955-2.805H89.76V0h8.415V-2.805H89.76v-11.22H86.955Zm14.025-11.22H98.175v-2.8H89.76v2.8h8.415v2.805h2.805Zm0,8.415H98.175v2.805h2.805Zm5.61,2.805H109.4V0h8.415V-2.805H109.4v-11.22H106.59Zm2.805-11.22h8.415v11.22h2.805v-11.22H117.81v-2.8H109.4ZM129.03-11.22h2.8v-2.805h-2.8v-2.8h-2.805V0h2.805ZM137.445,0h2.805V-14.025h-2.805v-2.8h-5.61v2.8h5.61Zm11.22-8.415h5.61v2.8h2.8v2.805h2.805V-5.61H157.08v-2.8h-2.8V-11.22h-5.61v-2.805H145.86v2.805h2.805Zm11.22-5.61H157.08v-2.8h-8.415v2.8h8.415v2.805h2.805ZM145.86-2.805h2.805V0h8.415V-2.805h-8.415V-5.61H145.86ZM171.105-16.83H168.3v-5.61h-2.8v5.61H162.69v2.8H165.5V0h5.61V-2.805H168.3v-11.22h2.805Zm5.61,5.61h2.805v2.805h8.415v2.8h-2.8v2.805h2.8V0h5.61V-2.805h-2.8v-11.22h-2.805v-2.8H179.52v2.8h-2.805Zm0,8.415h2.805V0h5.61V-2.805h-5.61v-5.61h-2.805Zm2.805-11.22h8.415v2.805H179.52Zm19.635,2.805h2.8v-2.805h-2.8v-2.8H196.35V0h2.805ZM207.57,0h2.805V-14.025H207.57v-2.8h-5.61v2.8h5.61ZM224.4-16.83H221.6v-5.61h-2.8v5.61h-2.805v2.8h2.805V0h5.61V-2.805H221.6v-11.22H224.4ZM230.01,0h2.805V-22.44H230.01Zm16.83-2.805h-2.805V-11.22h-2.8v-5.61h-2.805v5.61h2.805v8.415h2.8v5.61h-5.61V5.61h8.415Zm2.8-8.415h-2.8v8.415h2.8Zm0,0h2.805v-5.61h-2.805Zm-562.4,40.8h5.61V32.39h2.8v2.805h2.8V32.39h-2.8V29.585h-2.8V26.78h-5.61V23.975h-2.8V26.78h2.8Zm11.22-5.61h-2.8v-2.8h-8.415v2.8h8.415V26.78h2.8Zm-14.025,11.22h2.8V38h8.415V35.195h-8.415V32.39h-2.8Zm19.635,0h2.8V38h8.415V35.195h-8.415V23.975h-2.8Zm14.025-11.22h-2.8v-2.8h-8.415v2.8h8.415V26.78h2.8Zm0,8.415h-2.8v2.805h2.8Zm5.61,5.61h2.8V23.975h5.61v-2.8h-8.415Zm25.245-14.025h-2.805v-2.8h-8.415v2.8h8.415V26.78h-8.415V23.975h-2.8v11.22h2.8V38h8.415V35.195h-8.415v-5.61h11.22Zm0,8.415h-2.805v2.805h2.805Zm5.61-5.61h2.805v2.805h8.415V32.39h-2.8v2.805h2.8V38h5.61V35.195h-2.8V23.975h-2.805v-2.8h-8.415v2.8h-2.805Zm0,8.415h2.805V38h5.61V35.195h-5.61v-5.61h-2.805Zm2.805-11.22h8.415V26.78h-8.415ZM-223,26.78h2.8V23.975H-223v-2.8H-225.8V38H-223Zm5.61,11.22h2.8V26.78h2.805V23.975h-5.61v-2.8h-2.805v2.8h2.805Zm11.22-14.025h-2.805v-2.8h-2.8v2.8h2.8V38h2.805ZM-200.557,38h2.805V21.17h-2.805Zm0-19.635h2.805V15.56h-2.805Zm11.22,8.415h2.8V23.975h-2.8v-2.8h-2.805V38h2.805ZM-180.923,38h2.805V23.975h-2.805v-2.8h-5.61v2.8h5.61Zm19.635-5.61h-2.8v2.805h2.8v5.61h2.805V21.17h-2.805v2.8h-2.8v-2.8h-5.61v2.8h5.61V26.78h2.8Zm-2.8,2.805h-5.61V23.975h-2.805v11.22h2.805V38h5.61ZM-169.7,38h-2.805v2.805h2.805V43.61h8.415V40.805H-169.7Zm25.245-2.805h2.805V38h8.415V35.195h-8.415V23.975h-2.805Zm2.805-11.22h8.415v11.22h2.805V23.975h-2.805v-2.8h-8.415Zm28.05,8.415h-2.805v2.805h2.805V38h2.805V21.17H-113.6Zm-2.805,2.805h-5.61V21.17h-2.805V35.195h2.805V38h5.61ZM-96.772,21.17h-2.805V15.56h-2.805v5.61h-2.805v2.8h2.805V38h5.61V35.195h-2.805V23.975h2.805Zm14.025,14.025h2.805V38h8.415V35.195h-8.415V23.975h-2.805Zm2.805-11.22h8.415v11.22h2.805V23.975h-2.805v-2.8h-8.415Zm28.05,8.415H-54.7v2.805h2.805V38h2.805V21.17h-2.805ZM-54.7,35.195h-5.61V21.17h-2.805V35.195h2.805V38h5.61ZM-43.478,38h2.805V23.975h5.61v-2.8h-8.415Zm19.635,5.61h2.805V35.195h2.805V38h5.61V35.195h-5.61V32.39h-2.805V26.78h2.805V23.975h-2.805v-2.8h-2.805Zm5.61-19.635h5.61v11.22h2.8V23.975h-2.8v-2.8h-5.61Zm28.05,0h-2.8v-2.8H-1.4v2.8H7.013V26.78H-1.4V23.975h-2.8v11.22h2.8V38H7.013V35.195H-1.4v-5.61H9.818Zm0,8.415h-2.8v2.805h2.8ZM15.427,38h2.805V23.975h5.61v-2.8H15.427Zm14.025-8.415h5.61V32.39h2.805v2.805h2.805V32.39H37.868V29.585H35.063V26.78h-5.61V23.975H26.647V26.78h2.805Zm11.22-5.61H37.868v-2.8H29.452v2.8h8.415V26.78h2.805ZM26.647,35.195h2.805V38h8.415V35.195H29.452V32.39H26.647Zm19.635,0h2.805V38H57.5V35.195H49.088V23.975H46.283Zm2.805-11.22H57.5v11.22h2.805V23.975H57.5v-2.8H49.088ZM68.723,26.78h2.805V23.975H68.723v-2.8H65.918V38h2.805ZM77.138,38h2.805V23.975H77.138v-2.8h-5.61v2.8h5.61Zm8.415-11.22h2.805v2.805h8.415V32.39H93.967v2.805h2.805V38h5.61V35.195H99.577V23.975H96.772v-2.8H88.357v2.8H85.552Zm0,8.415h2.805V38h5.61V35.195h-5.61v-5.61H85.552Zm2.805-11.22h8.415V26.78H88.357ZM105.188,38h2.805V15.56h-2.805Zm16.83,0h2.805V21.17h-2.805Zm0-19.635h2.805V15.56h-2.805Zm11.22,8.415h2.8V23.975h-2.8v-2.8h-2.805V38h2.805ZM141.652,38h2.805V23.975h-2.805v-2.8h-5.61v2.8h5.61Zm16.83-16.83h-2.805V18.365h2.805V15.56h-5.61v5.61h-2.805v2.8h2.805V38h2.8V23.975h2.805Zm5.61,14.025H166.9V38h8.415V35.195H166.9V23.975h-2.805Zm2.805-11.22h8.415v11.22h2.805V23.975h-2.805v-2.8H166.9ZM183.728,38h2.805V23.975h5.61v-2.8h-8.415Zm14.025-11.22h2.8V23.975h-2.8v-2.8h-2.805V38h2.805ZM203.363,38h2.8V26.78h2.805V23.975h-5.61v-2.8h-2.805v2.8h2.805Zm11.22-14.025h-2.805v-2.8h-2.8v2.8h2.8V38h2.805Zm5.61,2.805H223v2.805h8.415V32.39h-2.8v2.805h2.8V38h5.61V35.195h-2.8V23.975h-2.805v-2.8H223v2.8h-2.805Zm0,8.415H223V38h5.61V35.195H223v-5.61h-2.805ZM223,23.975h8.415V26.78H223Zm25.245-2.8h-2.805V15.56h-2.8v5.61h-2.805v2.8h2.805V38h5.61V35.195h-2.805V23.975h2.805ZM253.852,38h2.8V21.17h-2.8Zm0-19.635h2.8V15.56h-2.8Zm8.415,16.83h2.8V38h8.415V35.195h-8.415V23.975h-2.8Zm2.8-11.22h8.415v11.22h2.8V23.975h-2.8v-2.8h-8.415Zm19.635,2.805h2.805V23.975h-2.805v-2.8h-2.8V38h2.8ZM293.123,38h2.8V23.975h-2.8v-2.8h-5.61v2.8h5.61Zm19.635-22.44h-8.415v2.805h8.415v5.61h2.8v-5.61h-2.8Zm-5.61,16.83h2.8V26.78h-2.8Zm-5.61-11.22h2.8V18.365h-2.8ZM307.147,38h2.8V35.195h-2.8Zm5.61-14.025h-2.8V26.78h2.8Z" transform="translate(940 86.695)" fill="#fff"/></g><path d="M-350.413-28.9h-7.225v-7.225h-14.45v-14.45h-7.225v14.45h7.225V-28.9h14.45v7.225h7.225v14.45h7.225v-14.45h-7.225Zm7.225-21.675h-7.225V-57.8h-21.675v7.225h21.675v7.225h7.225Zm-28.9,36.125h-7.225v7.225h7.225V0h21.675V-7.225h-21.675Zm79.475,7.225h-28.9v-43.35h-7.225v43.35h7.225V0h28.9Zm7.225-43.35h-7.225V-57.8h-28.9v7.225h28.9v7.225h7.225Zm0,36.125h-7.225v7.225h7.225Zm21.675-7.225h7.225v7.225h7.225v7.225h7.225V0h7.225V-7.225h-7.225V-14.45h-7.225v-7.225h7.225V-28.9h-21.675V-50.575h21.675V-28.9h7.225V-50.575h-7.225V-57.8h-28.9V0h7.225Zm50.575-7.225h28.9v-7.225h-28.9v-14.45h28.9V-57.8h-36.125V0h36.125V-7.225h-28.9Zm50.575,14.45h36.125V0h7.225V-14.45h-7.225V-28.9h-7.225V-43.35h-7.225V-57.8h-7.225v14.45h7.225V-28.9h7.225v7.225h-21.675V-28.9h-7.225ZM-169.788,0h7.225V-14.45h-7.225Zm14.45-28.9h7.225V-43.35h-7.225Zm57.8-14.45h7.225v21.675h7.225V0h14.45V-21.675h-14.45V-43.35h-7.225V-57.8h-14.45V0h7.225ZM-46.963-57.8h-14.45v14.45h7.225V0h7.225Zm-14.45,14.45h-7.225v21.675h7.225ZM3.612-57.8h-14.45v14.45h7.225v7.225H3.612ZM-3.613-36.125h-7.225V-28.9h7.225Zm28.9-7.225h7.225V-28.9h7.225v14.45h7.225V0h14.45V-57.8H54.187v43.35H46.962V-28.9H39.737V-43.35H32.512V-57.8H18.062V0h7.225ZM148.112-28.9h-7.225v-7.225h-14.45v-14.45h-7.225v14.45h7.225V-28.9h14.45v7.225h7.225v14.45h7.225v-14.45h-7.225Zm7.225-21.675h-7.225V-57.8H126.437v7.225h21.675v7.225h7.225Zm-28.9,36.125h-7.225v7.225h7.225V0h21.675V-7.225H126.437ZM205.912,0h7.225V-57.8h-7.225v21.675h-28.9V-57.8h-7.225V0h7.225V-28.9h28.9Zm21.675-7.225h7.225V0h28.9V-7.225h-28.9v-43.35h-7.225Zm7.225-43.35h28.9v43.35h7.225v-43.35h-7.225V-57.8h-28.9Zm50.575,43.35h7.225V0h28.9V-7.225h-28.9V-57.8h-7.225Zm36.125,0h7.225V-57.8h-7.225Zm21.675-43.35h14.45V0h7.225V-50.575h14.45V-57.8H343.188Z" transform="translate(600.356 297)" fill="none" stroke="#fff" stroke-width="1.6"/></g></svg>