<svg id="Livello_2" data-name="Livello 2" xmlns="http://www.w3.org/2000/svg" viewBox="0 0 536.21 768">
  <defs>
    <style>
      .cls-1, .cls-6 {
        fill: #f4b006;
      }

      .cls-1, .cls-2, .cls-3, .cls-4, .cls-5, .cls-6, .cls-7, .cls-8 {
        stroke: #000;
      }

      .cls-1, .cls-8 {
        stroke-miterlimit: 10;
      }

      .cls-1, .cls-4, .cls-5, .cls-6, .cls-7 {
        stroke-width: 1.37px;
      }

      .cls-2, .cls-7 {
        fill: #c9283e;
      }

      .cls-2, .cls-3, .cls-4, .cls-5, .cls-6, .cls-7 {
        stroke-linejoin: round;
      }

      .cls-2, .cls-3, .cls-8 {
        stroke-width: 2.74px;
      }

      .cls-3, .cls-5, .cls-8 {
        fill: none;
      }

      .cls-3, .cls-4, .cls-5, .cls-6, .cls-7 {
        stroke-linecap: round;
      }

      .cls-4 {
        fill: #18c29c;
      }
    </style>
  </defs>
  <title>pasted-image</title>
  <g>
    <ellipse class="cls-1" cx="239.99" cy="477.93" rx="15.8" ry="8.94" transform="translate(-286.22 382.44) rotate(-53.05)"/>
    <ellipse class="cls-1" cx="263.33" cy="464.33" rx="15.8" ry="8.94" transform="translate(-266.04 395.66) rotate(-53.05)"/>
    <ellipse class="cls-1" cx="314.2" cy="435.29" rx="15.8" ry="8.94" transform="translate(-222.54 424.74) rotate(-53.05)"/>
    <ellipse class="cls-1" cx="337.54" cy="421.69" rx="15.8" ry="8.94" transform="translate(-202.36 437.96) rotate(-53.05)"/>
    <polygon class="cls-2" points="349.81 340.62 224.2 413.15 224.18 413.15 177.26 422.32 177.12 422.35 144.77 403.96 144.95 403.65 160.65 376.82 160.65 376.8 286.57 304.1 349.81 340.62"/>
    <polygon class="cls-2" points="177.12 422.35 177.12 494.76 160.94 485.42 144.77 476.06 144.77 403.96 177.12 422.35"/>
    <polygon class="cls-2" points="224.2 413.15 224.2 485.67 193.15 491.74 177.26 494.84 177.12 494.76 177.12 422.35 177.26 422.32 224.18 413.15 224.2 413.15"/>
    <polyline class="cls-3" points="263.84 299.45 251.49 292.16 276.7 324.9"/>
    <line class="cls-3" x1="289.05" y1="332.19" x2="263.84" y2="299.45"/>
    <line class="cls-3" x1="251.49" y1="287.84" x2="245.82" y2="262.96"/>
    <polyline class="cls-3" points="245.82 262.96 283.41 284.58 263.84 294.47"/>
    <g>
      <polygon class="cls-4" points="217.67 420.64 217.67 456.59 196.02 460.82 184.95 462.99 184.85 462.93 184.85 427.05 184.95 427.04 217.65 420.64 217.67 420.64"/>
      <g>
        <polygon class="cls-4" points="172.24 425.89 172.24 459.87 149.64 447.11 149.64 413.05 172.24 425.89"/>
        <polygon class="cls-5" points="172.24 443.93 149.64 430.93 149.64 413.05 172.24 425.89 172.24 443.93"/>
      </g>
      <line class="cls-5" x1="201.26" y1="423.85" x2="201.26" y2="459.8"/>
      <line class="cls-5" x1="184.95" y1="442.49" x2="217.65" y2="436.1"/>
    </g>
    <ellipse class="cls-6" cx="187.1" cy="478.06" rx="2.7" ry="2.58"/>
    <ellipse class="cls-6" cx="157.44" cy="473.84" rx="3.5" ry="4.09"/>
    <line class="cls-7" x1="236.67" y1="431.87" x2="253.33" y2="422.25"/>
    <polyline class="cls-2" points="273.15 368.89 301.17 348.8 301.17 339.35 273.15 368.89 236.17 347.54 263.67 317.32 301.17 339.35"/>
    <polyline class="cls-8" points="263.84 299.45 263.84 294.47 251.49 287.84 251.49 292.16 263.84 299.45"/>
    <polygon class="cls-2" points="349.81 412.81 224.42 485.42 224.42 413.74 349.81 341.13 349.81 412.81"/>
    <line class="cls-3" x1="349" y1="385.67" x2="224.52" y2="457.41"/>
    <line class="cls-3" x1="349.31" y1="351.49" x2="225.78" y2="422.68"/>
    <polygon class="cls-4" points="253.33 440.68 236.67 450.15 236.67 416.4 253.33 406.8 253.33 440.68"/>
    <polygon class="cls-4" points="275.21 428.23 258.56 437.71 258.56 403.96 275.21 394.36 275.21 428.23"/>
    <polygon class="cls-4" points="297.09 415.48 280.44 424.95 280.44 391.2 297.09 381.6 297.09 415.48"/>
    <polygon class="cls-4" points="318.98 402.91 302.32 412.39 302.32 378.63 318.98 369.03 318.98 402.91"/>
    <polygon class="cls-4" points="340.86 390.28 324.2 399.76 324.2 366 340.86 356.4 340.86 390.28"/>
    <line class="cls-7" x1="258.56" y1="419.37" x2="275.21" y2="409.75"/>
    <line class="cls-7" x1="280.44" y1="406.8" x2="297.09" y2="397.18"/>
    <line class="cls-7" x1="302.32" y1="394.36" x2="318.97" y2="384.74"/>
    <line class="cls-7" x1="324.2" y1="381.6" x2="340.86" y2="371.98"/>
  </g>
</svg>
