<svg xmlns="http://www.w3.org/2000/svg" viewBox="0 0 273.47 273.47">
  <defs>
    <style>
      .cls-1, .cls-3 {
        fill: #fff;
      }

      .cls-1, .cls-3, .cls-4, .cls-5 {
        stroke: #1d1d1b;
        stroke-width: 0.28px;
      }

      .cls-2, .cls-4, .cls-5 {
        fill: #1d1d1b;
      }

      .cls-3, .cls-4 {
        stroke-miterlimit: 10;
      }
    </style>
  </defs>
  <title>pretest2017</title>
  <g id="Layer_1" data-name="Layer 1">
    <g>
      <path class="cls-1" d="M85.09,143.46H107v2.3H97.77v22.09H94.31V145.76H85.09Z"/>
      <path class="cls-1" d="M83.47,142H105.4v2.3H96.14v22.09H92.69V144.28H83.47Z"/>
      <path class="cls-1" d="M81.84,140.5h21.94v2.29H94.51v22.1H91.06v-22.1H81.84Z"/>
      <path class="cls-1" d="M80.21,139h21.94v2.3H92.89v22.1H89.43v-22.1H80.21Z"/>
      <path class="cls-1" d="M78.58,137.53h21.94v2.3H91.26v22.1H87.8v-22.1H78.58Z"/>
      <path class="cls-1" d="M77,136.05H98.89v2.3H89.63v22.1H86.18v-22.1H77Z"/>
      <path class="cls-1" d="M75.33,134.57H97.27v2.3H88V159H84.55v-22.1H75.33Z"/>
      <path class="cls-1" d="M73.7,133.09H95.64v2.3H86.38v22.1H82.92v-22.1H73.7Z"/>
      <path class="cls-1" d="M72.07,131.61H94v2.3H84.75V156H81.29v-22.1H72.07Z"/>
      <path class="cls-1" d="M74.13,130.5H96.06v2.3H86.8v22.1H83.35V132.8H74.13Z"/>
      <path class="cls-1" d="M76.18,129.39H98.12v2.3H88.85v22.1H85.4v-22.1H76.18Z"/>
      <path class="cls-1" d="M78.23,128.28h21.94v2.3H90.91v22.1H87.45v-22.1H78.23Z"/>
      <path class="cls-1" d="M80.28,127.17h21.94v2.3H93v22.1H89.5v-22.1H80.28Z"/>
      <path class="cls-1" d="M82.33,126.06h21.94v2.3H95v22.1H91.55v-22.1H82.33Z"/>
      <path class="cls-1" d="M84.39,125h21.93v2.3H97.06v22.1H93.61v-22.1H84.39Z"/>
      <path class="cls-1" d="M86.44,123.84h21.94v2.3H99.11v22.1H95.66v-22.1H86.44Z"/>
      <path class="cls-1" d="M88.49,122.73h21.94V125h-9.26v22.1H97.71V125H88.49Z"/>
      <path class="cls-1" d="M90.54,121.62h21.94v2.3h-9.26V146H99.76v-22.1H90.54Z"/>
      <path class="cls-1" d="M92.6,120.51h21.93v2.3h-9.26v22.1h-3.45v-22.1H92.6Z"/>
      <path class="cls-1" d="M94.65,119.4h21.93v2.3h-9.26v22.1h-3.45V121.7H94.65Z"/>
      <path class="cls-2" d="M96.7,118.29h21.94v2.3h-9.27v22.1h-3.45v-22.1H96.7Z"/>
    </g>
    <g>
      <path class="cls-3" d="M159.72,149.76H148.59V128.44h11v2.16h-8.57v6.6h8.24v2.16h-8.24v8.24h8.66Z"/>
      <path class="cls-3" d="M160.7,148.33H149.57V127h11v2.16H152v6.6h8.24v2.16H152v8.23h8.66Z"/>
      <path class="cls-3" d="M161.68,146.91H150.54V125.6h11.05v2.16H153v6.6h8.24v2.16H153v8.23h8.66Z"/>
      <path class="cls-3" d="M162.66,145.49H151.52V124.17h11v2.16H154v6.61h8.24v2.16H154v8.23h8.66Z"/>
      <path class="cls-3" d="M163.64,144.07H152.5V122.75h11.05v2.16H155v6.61h8.24v2.16H155v8.23h8.66Z"/>
      <path class="cls-3" d="M164.62,142.65H153.48V121.33h11.05v2.16H156v6.6h8.23v2.16H156v8.24h8.66Z"/>
      <path class="cls-3" d="M165.6,141.23H154.46V119.91h11v2.16h-8.57v6.6h8.23v2.16h-8.23v8.24h8.66Z"/>
      <path class="cls-3" d="M167.09,142.65H156V121.33h11v2.16h-8.57v6.6h8.24v2.16h-8.24v8.24h8.66Z"/>
      <path class="cls-3" d="M168.59,144.07H157.45V122.75H168.5v2.16h-8.57v6.61h8.23v2.16h-8.23v8.23h8.66Z"/>
      <path class="cls-3" d="M170.08,145.49H159V124.17h11v2.16h-8.57v6.61h8.24v2.16h-8.24v8.23h8.66Z"/>
      <path class="cls-3" d="M171.58,146.91H160.44V125.6h11.05v2.16h-8.57v6.6h8.23v2.16h-8.23v8.23h8.66Z"/>
      <path class="cls-3" d="M173.07,148.33H161.94V127h11v2.16h-8.57v6.6h8.24v2.16h-8.24v8.23h8.66Z"/>
      <path class="cls-3" d="M174.57,149.76H163.43V128.44h11v2.16h-8.56v6.6h8.23v2.16h-8.23v8.24h8.66Z"/>
      <path class="cls-3" d="M175.65,148.44H164.51V127.12h11.05v2.16H167v6.6h8.24V138H167v8.24h8.66Z"/>
      <path class="cls-3" d="M176.73,147.12H165.6V125.8h11V128h-8.57v6.61h8.24v2.16h-8.24V145h8.66Z"/>
      <path class="cls-3" d="M177.82,145.8H166.68V124.48h11v2.17h-8.56v6.6h8.23v2.16h-8.23v8.23h8.66Z"/>
      <path class="cls-3" d="M178.9,144.48H167.76V123.17h11.05v2.16h-8.57v6.6h8.24v2.16h-8.24v8.23h8.66Z"/>
      <path class="cls-3" d="M180,143.17H168.85V121.85h11V124h-8.57v6.6h8.24v2.16h-8.24V141H180Z"/>
      <path class="cls-3" d="M181.07,141.85H169.93V120.53h11v2.16h-8.56v6.6h8.23v2.16h-8.23v8.24h8.66Z"/>
      <path class="cls-3" d="M182.15,140.53H171V119.21h11.05v2.16h-8.57V128h8.24v2.16h-8.24v8.23h8.66Z"/>
      <path class="cls-3" d="M181.07,139.25H169.93V117.93h11v2.16h-8.56v6.6h8.23v2.16h-8.23v8.24h8.66Z"/>
      <path class="cls-3" d="M180,138H168.85V116.64h11v2.16h-8.57v6.61h8.24v2.16h-8.24v8.23H180Z"/>
      <path class="cls-3" d="M178.9,136.68H167.76V115.36h11.05v2.16h-8.57v6.6h8.24v2.16h-8.24v8.23h8.66Z"/>
      <path class="cls-3" d="M177.82,135.39H166.68V114.07h11v2.16h-8.56v6.6h8.23V125h-8.23v8.23h8.66Z"/>
      <path class="cls-3" d="M176.73,134.1H165.6V112.79h11V115h-8.57v6.6h8.24v2.16h-8.24v8.23h8.66Z"/>
      <path class="cls-3" d="M175.65,132.82H164.51V111.5h11.05v2.16H167v6.6h8.24v2.16H167v8.24h8.66Z"/>
      <path class="cls-3" d="M174.57,131.53H163.43V110.22h11v2.16h-8.56V119h8.23v2.16h-8.23v8.23h8.66Z"/>
      <path class="cls-4" d="M173.48,130.25H162.35V108.93h11v2.16h-8.57v6.6h8.24v2.16h-8.24v8.24h8.66Z"/>
    </g>
    <g>
      <path class="cls-1" d="M132.79,153.89a11.67,11.67,0,0,0-3.72-.67,5.45,5.45,0,0,0-3.24.91,3,3,0,0,0-1.25,2.59c0,1.33,1.09,2.49,3.28,3.5,1.62.75,2.69,1.26,3.21,1.56a7.78,7.78,0,0,1,1.6,1.19,6,6,0,0,1,1.29,1.8,5.3,5.3,0,0,1,.49,2.32,6.05,6.05,0,0,1-2.15,5,7.76,7.76,0,0,1-5.08,1.77,10.61,10.61,0,0,1-5-1.12l.53-2.2a10.86,10.86,0,0,0,4.37,1.14,5.17,5.17,0,0,0,3.49-1.13,3.85,3.85,0,0,0,1.32-3.1,3.74,3.74,0,0,0-.86-2.48,9.23,9.23,0,0,0-3.16-2.08c-1.57-.72-2.59-1.22-3-1.48a6.65,6.65,0,0,1-1.38-1.1,5.18,5.18,0,0,1-1.06-1.57,4.91,4.91,0,0,1-.37-1.9,5.07,5.07,0,0,1,2-4.24,7.82,7.82,0,0,1,5-1.52,14.93,14.93,0,0,1,4.36.66Z"/>
      <path class="cls-1" d="M131.29,155.27a11.62,11.62,0,0,0-3.71-.67,5.46,5.46,0,0,0-3.25.91,3,3,0,0,0-1.25,2.59c0,1.33,1.09,2.49,3.28,3.5,1.62.75,2.69,1.26,3.21,1.55a7.85,7.85,0,0,1,1.6,1.2,6,6,0,0,1,1.3,1.8,5.44,5.44,0,0,1,.49,2.32,6.06,6.06,0,0,1-2.16,5,7.74,7.74,0,0,1-5.08,1.77,10.61,10.61,0,0,1-5-1.12l.53-2.2a10.86,10.86,0,0,0,4.37,1.14,5.17,5.17,0,0,0,3.49-1.13,3.85,3.85,0,0,0,1.32-3.1,3.72,3.72,0,0,0-.86-2.48,9.28,9.28,0,0,0-3.15-2.08c-1.58-.72-2.6-1.22-3.06-1.48a6.65,6.65,0,0,1-1.38-1.1,5,5,0,0,1-1-1.57,4.74,4.74,0,0,1-.38-1.9,5.09,5.09,0,0,1,2-4.24,7.82,7.82,0,0,1,5-1.52,14.88,14.88,0,0,1,4.36.66Z"/>
      <path class="cls-1" d="M129.79,156.65a11.35,11.35,0,0,0-3.71-.67,5.39,5.39,0,0,0-3.25.91,3,3,0,0,0-1.25,2.59c0,1.33,1.1,2.49,3.28,3.5,1.62.75,2.69,1.26,3.21,1.55a7.85,7.85,0,0,1,1.6,1.2,6,6,0,0,1,1.3,1.8,5.44,5.44,0,0,1,.49,2.32,6.06,6.06,0,0,1-2.16,5,7.74,7.74,0,0,1-5.07,1.77,10.58,10.58,0,0,1-5-1.12l.52-2.2a10.86,10.86,0,0,0,4.37,1.14,5.16,5.16,0,0,0,3.49-1.13,3.85,3.85,0,0,0,1.32-3.1,3.72,3.72,0,0,0-.86-2.48,9.28,9.28,0,0,0-3.15-2.08c-1.58-.72-2.6-1.22-3.06-1.48a6.65,6.65,0,0,1-1.38-1.1,5.27,5.27,0,0,1-1-1.57,4.74,4.74,0,0,1-.38-1.9,5.08,5.08,0,0,1,2-4.24,7.82,7.82,0,0,1,5-1.53,14.84,14.84,0,0,1,4.36.67Z"/>
      <path class="cls-1" d="M128.29,158a11.35,11.35,0,0,0-3.71-.67,5.34,5.34,0,0,0-3.24.91,3,3,0,0,0-1.26,2.59c0,1.33,1.1,2.49,3.28,3.5,1.62.75,2.69,1.26,3.22,1.55a8.09,8.09,0,0,1,1.59,1.2,6,6,0,0,1,1.3,1.8,5.44,5.44,0,0,1,.49,2.32,6.06,6.06,0,0,1-2.16,5,7.71,7.71,0,0,1-5.07,1.76,10.58,10.58,0,0,1-5-1.11l.53-2.2a10.78,10.78,0,0,0,4.37,1.14,5.19,5.19,0,0,0,3.49-1.13,3.89,3.89,0,0,0,1.31-3.1,3.72,3.72,0,0,0-.86-2.48,9.28,9.28,0,0,0-3.15-2.08c-1.58-.72-2.6-1.22-3.06-1.48a6.36,6.36,0,0,1-1.37-1.1,5.12,5.12,0,0,1-1.06-1.57,4.74,4.74,0,0,1-.37-1.9,5.05,5.05,0,0,1,2-4.24,7.79,7.79,0,0,1,5-1.53,14.83,14.83,0,0,1,4.35.67Z"/>
      <path class="cls-1" d="M126.8,159.41a11.45,11.45,0,0,0-3.72-.67,5.34,5.34,0,0,0-3.24.91,3,3,0,0,0-1.25,2.59c0,1.33,1.09,2.49,3.28,3.5,1.61.74,2.68,1.26,3.21,1.55a8.09,8.09,0,0,1,1.59,1.2,6,6,0,0,1,1.3,1.8,5.3,5.3,0,0,1,.49,2.32,6.08,6.08,0,0,1-2.15,5,7.75,7.75,0,0,1-5.08,1.76,10.46,10.46,0,0,1-5-1.12l.53-2.19a10.82,10.82,0,0,0,4.37,1.14,5.19,5.19,0,0,0,3.49-1.13,3.89,3.89,0,0,0,1.31-3.1,3.72,3.72,0,0,0-.85-2.48,9.34,9.34,0,0,0-3.16-2.08c-1.58-.72-2.59-1.22-3.06-1.48a6.36,6.36,0,0,1-1.37-1.1,5.12,5.12,0,0,1-1.06-1.57,4.74,4.74,0,0,1-.37-1.9,5.05,5.05,0,0,1,2-4.24,7.81,7.81,0,0,1,5-1.53,14.83,14.83,0,0,1,4.35.67Z"/>
      <path class="cls-1" d="M125.3,160.79a11.45,11.45,0,0,0-3.72-.67,5.34,5.34,0,0,0-3.24.91,3,3,0,0,0-1.25,2.59c0,1.33,1.09,2.49,3.28,3.5,1.61.74,2.69,1.26,3.21,1.55a8.09,8.09,0,0,1,1.59,1.2,6,6,0,0,1,1.3,1.8A5.3,5.3,0,0,1,127,174a6.08,6.08,0,0,1-2.15,5,7.75,7.75,0,0,1-5.08,1.76,10.46,10.46,0,0,1-5-1.12l.53-2.19a10.82,10.82,0,0,0,4.37,1.14,5.19,5.19,0,0,0,3.49-1.13,3.89,3.89,0,0,0,1.31-3.1,3.72,3.72,0,0,0-.85-2.48,9.23,9.23,0,0,0-3.16-2.08c-1.57-.72-2.59-1.22-3-1.48a6.4,6.4,0,0,1-1.38-1.1,5.12,5.12,0,0,1-1.06-1.57,4.74,4.74,0,0,1-.37-1.9,5.05,5.05,0,0,1,2-4.24,7.81,7.81,0,0,1,5-1.53,14.83,14.83,0,0,1,4.35.67Z"/>
      <path class="cls-1" d="M123.8,162.17a11.45,11.45,0,0,0-3.72-.67,5.34,5.34,0,0,0-3.24.91,3,3,0,0,0-1.25,2.59c0,1.33,1.09,2.49,3.28,3.5,1.62.74,2.69,1.26,3.21,1.55a8.09,8.09,0,0,1,1.59,1.2,5.84,5.84,0,0,1,1.3,1.8,5.3,5.3,0,0,1,.49,2.32,6.08,6.08,0,0,1-2.15,5,7.75,7.75,0,0,1-5.08,1.76,10.46,10.46,0,0,1-5-1.12l.53-2.19a10.86,10.86,0,0,0,4.37,1.14,5.19,5.19,0,0,0,3.49-1.13,3.86,3.86,0,0,0,1.31-3.1,3.72,3.72,0,0,0-.85-2.48,9.23,9.23,0,0,0-3.16-2.08c-1.57-.72-2.59-1.22-3-1.48a6.65,6.65,0,0,1-1.38-1.1,5.12,5.12,0,0,1-1.06-1.57,4.74,4.74,0,0,1-.37-1.9,5.05,5.05,0,0,1,2-4.24,7.82,7.82,0,0,1,5-1.53,14.83,14.83,0,0,1,4.35.67Z"/>
      <path class="cls-1" d="M122.3,163.55a11.45,11.45,0,0,0-3.72-.67,5.38,5.38,0,0,0-3.24.91,3,3,0,0,0-1.25,2.59c0,1.33,1.09,2.49,3.28,3.5,1.62.74,2.69,1.26,3.21,1.55a8.14,8.14,0,0,1,1.6,1.2,6,6,0,0,1,1.29,1.8,5.27,5.27,0,0,1,.49,2.32,6.05,6.05,0,0,1-2.15,5,7.81,7.81,0,0,1-5.08,1.76,10.49,10.49,0,0,1-5-1.12l.53-2.19a10.86,10.86,0,0,0,4.37,1.14,5.17,5.17,0,0,0,3.49-1.13,3.87,3.87,0,0,0,1.32-3.1,3.72,3.72,0,0,0-.86-2.48,9.23,9.23,0,0,0-3.16-2.08c-1.57-.73-2.59-1.22-3-1.48a6.65,6.65,0,0,1-1.38-1.1,5.3,5.3,0,0,1-1.06-1.57,4.91,4.91,0,0,1-.37-1.9,5.05,5.05,0,0,1,2-4.24,7.82,7.82,0,0,1,5-1.53,14.83,14.83,0,0,1,4.35.67Z"/>
      <path class="cls-1" d="M120.8,164.93a11.4,11.4,0,0,0-3.72-.67,5.38,5.38,0,0,0-3.24.91,3,3,0,0,0-1.25,2.59q0,2,3.28,3.5c1.62.74,2.69,1.26,3.21,1.55a7.85,7.85,0,0,1,1.6,1.2A5.89,5.89,0,0,1,122,175.8a5.34,5.34,0,0,1,.49,2.33,6.06,6.06,0,0,1-2.15,5,7.79,7.79,0,0,1-5.08,1.76,10.49,10.49,0,0,1-5-1.12l.53-2.19a10.86,10.86,0,0,0,4.37,1.14,5.17,5.17,0,0,0,3.49-1.13,3.87,3.87,0,0,0,1.32-3.1,3.7,3.7,0,0,0-.86-2.48A9.09,9.09,0,0,0,116,173.9c-1.57-.73-2.59-1.22-3-1.49a6.27,6.27,0,0,1-1.38-1.09,5.09,5.09,0,0,1-1-1.57,4.74,4.74,0,0,1-.38-1.9,5.08,5.08,0,0,1,2-4.24,7.82,7.82,0,0,1,5-1.53,14.57,14.57,0,0,1,4.36.67Z"/>
      <path class="cls-1" d="M119.3,166.31a11.35,11.35,0,0,0-3.71-.67,5.39,5.39,0,0,0-3.25.91,3,3,0,0,0-1.25,2.59c0,1.32,1.1,2.49,3.28,3.5,1.62.74,2.69,1.26,3.21,1.55a7.85,7.85,0,0,1,1.6,1.2,6,6,0,0,1,1.3,1.79,5.49,5.49,0,0,1,.49,2.33,6.07,6.07,0,0,1-2.16,5,7.78,7.78,0,0,1-5.07,1.76,10.5,10.5,0,0,1-5-1.12l.53-2.19a10.86,10.86,0,0,0,4.37,1.14,5.17,5.17,0,0,0,3.49-1.13,3.87,3.87,0,0,0,1.32-3.1,3.7,3.7,0,0,0-.86-2.48,9.13,9.13,0,0,0-3.15-2.08c-1.58-.73-2.6-1.22-3.06-1.49A6.58,6.58,0,0,1,110,172.7a5.27,5.27,0,0,1-1-1.57,4.77,4.77,0,0,1-.38-1.9,5.08,5.08,0,0,1,2-4.24,7.82,7.82,0,0,1,5-1.53,14.52,14.52,0,0,1,4.36.67Z"/>
      <path class="cls-1" d="M117.8,167.69a11.35,11.35,0,0,0-3.71-.67,5.39,5.39,0,0,0-3.25.91,3,3,0,0,0-1.25,2.59c0,1.32,1.1,2.49,3.28,3.5,1.62.74,2.69,1.26,3.22,1.55a8.09,8.09,0,0,1,1.59,1.2,6,6,0,0,1,1.3,1.79,5.49,5.49,0,0,1,.49,2.33,6.07,6.07,0,0,1-2.16,5,7.76,7.76,0,0,1-5.07,1.76,10.46,10.46,0,0,1-5-1.12l.52-2.19a10.82,10.82,0,0,0,4.37,1.13,5.2,5.2,0,0,0,3.5-1.12,3.89,3.89,0,0,0,1.31-3.1,3.75,3.75,0,0,0-.86-2.49,9.28,9.28,0,0,0-3.15-2.07c-1.58-.73-2.6-1.22-3.06-1.49a6.29,6.29,0,0,1-1.37-1.09,5.12,5.12,0,0,1-1.06-1.57,4.77,4.77,0,0,1-.38-1.9,5.11,5.11,0,0,1,2-4.25,7.88,7.88,0,0,1,5-1.52,14.52,14.52,0,0,1,4.36.67Z"/>
      <path class="cls-1" d="M116.3,169.07a11.35,11.35,0,0,0-3.71-.67,5.34,5.34,0,0,0-3.24.91,3,3,0,0,0-1.26,2.59c0,1.32,1.1,2.49,3.29,3.49q2.41,1.13,3.21,1.56a8.09,8.09,0,0,1,1.59,1.2,6,6,0,0,1,1.3,1.79,5.34,5.34,0,0,1,.49,2.33,6.09,6.09,0,0,1-2.15,5,7.81,7.81,0,0,1-5.08,1.76,10.46,10.46,0,0,1-5-1.12l.53-2.19a10.78,10.78,0,0,0,4.37,1.13,5.19,5.19,0,0,0,3.49-1.12,3.9,3.9,0,0,0,1.31-3.11,3.73,3.73,0,0,0-.85-2.48,9.34,9.34,0,0,0-3.16-2.07c-1.58-.73-2.6-1.22-3.06-1.49a6.29,6.29,0,0,1-1.37-1.09,5.12,5.12,0,0,1-1.06-1.57,4.77,4.77,0,0,1-.37-1.9,5.08,5.08,0,0,1,2-4.25,7.86,7.86,0,0,1,5-1.52,14.5,14.5,0,0,1,4.35.67Z"/>
      <path class="cls-1" d="M114.81,170.45a11.45,11.45,0,0,0-3.72-.67,5.34,5.34,0,0,0-3.24.91,3,3,0,0,0-1.25,2.59c0,1.32,1.09,2.49,3.28,3.49q2.41,1.13,3.21,1.56a8.09,8.09,0,0,1,1.59,1.2,5.85,5.85,0,0,1,1.3,1.79,5.34,5.34,0,0,1,.49,2.33,6.09,6.09,0,0,1-2.15,5,7.81,7.81,0,0,1-5.08,1.76,10.46,10.46,0,0,1-5-1.12l.53-2.19a10.78,10.78,0,0,0,4.37,1.13,5.19,5.19,0,0,0,3.49-1.12A3.91,3.91,0,0,0,114,184a3.73,3.73,0,0,0-.85-2.48,9.2,9.2,0,0,0-3.16-2.07c-1.58-.73-2.59-1.22-3.06-1.49a6.29,6.29,0,0,1-1.37-1.09,5.12,5.12,0,0,1-1.06-1.57,4.77,4.77,0,0,1-.37-1.9,5.07,5.07,0,0,1,2-4.25,7.86,7.86,0,0,1,5-1.52,14.5,14.5,0,0,1,4.35.67Z"/>
      <path class="cls-1" d="M113.31,171.83a11.45,11.45,0,0,0-3.72-.67,5.34,5.34,0,0,0-3.24.91,3,3,0,0,0-1.25,2.59c0,1.32,1.09,2.49,3.28,3.49q2.43,1.13,3.21,1.56a8.09,8.09,0,0,1,1.59,1.2,5.69,5.69,0,0,1,1.3,1.79A5.34,5.34,0,0,1,115,185a6.09,6.09,0,0,1-2.15,5,7.81,7.81,0,0,1-5.08,1.76,10.46,10.46,0,0,1-5-1.12l.53-2.19a11,11,0,0,0,4.37,1.13,5.19,5.19,0,0,0,3.49-1.12,3.88,3.88,0,0,0,1.31-3.11,3.73,3.73,0,0,0-.85-2.48,9.1,9.1,0,0,0-3.16-2.07c-1.57-.73-2.59-1.22-3-1.49a6.33,6.33,0,0,1-1.38-1.09,5.12,5.12,0,0,1-1.06-1.57,4.77,4.77,0,0,1-.37-1.9,5.07,5.07,0,0,1,2-4.25,7.86,7.86,0,0,1,5-1.52,14.5,14.5,0,0,1,4.35.67Z"/>
      <path class="cls-1" d="M111.81,173.2a11.7,11.7,0,0,0-3.72-.66,5.36,5.36,0,0,0-3.24.91A3,3,0,0,0,103.6,176q0,2,3.28,3.5,2.43,1.13,3.21,1.56a7.81,7.81,0,0,1,1.59,1.2,5.69,5.69,0,0,1,1.3,1.79,5.34,5.34,0,0,1,.49,2.33,6.06,6.06,0,0,1-2.15,5,7.76,7.76,0,0,1-5.08,1.77,10.49,10.49,0,0,1-5-1.12l.53-2.19a11,11,0,0,0,4.37,1.13,5.19,5.19,0,0,0,3.49-1.12,3.88,3.88,0,0,0,1.31-3.11,3.73,3.73,0,0,0-.85-2.48,9.1,9.1,0,0,0-3.16-2.07c-1.57-.73-2.59-1.22-3-1.49a6.58,6.58,0,0,1-1.38-1.09,5.12,5.12,0,0,1-1.06-1.57,4.8,4.8,0,0,1-.37-1.9,5.07,5.07,0,0,1,2-4.25,7.88,7.88,0,0,1,5-1.52,14.5,14.5,0,0,1,4.35.67Z"/>
      <path class="cls-1" d="M110.31,174.58a11.65,11.65,0,0,0-3.72-.66,5.38,5.38,0,0,0-3.24.91,3,3,0,0,0-1.25,2.58q0,2,3.28,3.5,2.43,1.13,3.21,1.56a7.85,7.85,0,0,1,1.6,1.2,5.82,5.82,0,0,1,1.29,1.79,5.34,5.34,0,0,1,.49,2.33,6,6,0,0,1-2.15,5,7.76,7.76,0,0,1-5.08,1.77,10.49,10.49,0,0,1-5-1.12l.53-2.19a11,11,0,0,0,4.37,1.13,5.12,5.12,0,0,0,3.49-1.13,3.85,3.85,0,0,0,1.32-3.1,3.74,3.74,0,0,0-.86-2.48,9.1,9.1,0,0,0-3.16-2.07c-1.57-.73-2.59-1.22-3-1.49A6.58,6.58,0,0,1,101,181,5.22,5.22,0,0,1,100,179.4a4.9,4.9,0,0,1-.37-1.89,5.07,5.07,0,0,1,2-4.25,7.88,7.88,0,0,1,5-1.52,14.62,14.62,0,0,1,4.36.67Z"/>
      <path class="cls-1" d="M108.81,176a11.59,11.59,0,0,0-3.71-.66,5.46,5.46,0,0,0-3.25.9,3,3,0,0,0-1.25,2.59q0,2,3.28,3.5,2.43,1.13,3.21,1.56a8.16,8.16,0,0,1,1.6,1.19,6,6,0,0,1,1.3,1.8,5.49,5.49,0,0,1,.49,2.33,6,6,0,0,1-2.16,5,7.74,7.74,0,0,1-5.08,1.77,10.49,10.49,0,0,1-5-1.12l.53-2.19a11,11,0,0,0,4.37,1.13,5.12,5.12,0,0,0,3.49-1.13,3.85,3.85,0,0,0,1.32-3.1,3.74,3.74,0,0,0-.86-2.48,9.13,9.13,0,0,0-3.15-2.07c-1.58-.73-2.6-1.22-3.06-1.49a6.33,6.33,0,0,1-1.38-1.1,5.15,5.15,0,0,1-1.05-1.57,4.73,4.73,0,0,1-.38-1.89,5.1,5.1,0,0,1,2-4.25,7.88,7.88,0,0,1,5-1.52,14.57,14.57,0,0,1,4.36.67Z"/>
      <path class="cls-1" d="M107.31,177.34a11.62,11.62,0,0,0-3.71-.67,5.46,5.46,0,0,0-3.25.91,3,3,0,0,0-1.25,2.59c0,1.33,1.1,2.5,3.28,3.5q2.43,1.13,3.21,1.56a8.16,8.16,0,0,1,1.6,1.19,6,6,0,0,1,1.3,1.8,5.46,5.46,0,0,1,.49,2.33,6,6,0,0,1-2.16,5,7.72,7.72,0,0,1-5.07,1.77,10.46,10.46,0,0,1-5-1.12l.52-2.19a11,11,0,0,0,4.37,1.13,5.11,5.11,0,0,0,3.49-1.13,3.85,3.85,0,0,0,1.32-3.1,3.74,3.74,0,0,0-.86-2.48,9.13,9.13,0,0,0-3.15-2.07c-1.58-.73-2.6-1.23-3.06-1.49a6.33,6.33,0,0,1-1.38-1.1A5.15,5.15,0,0,1,97,182.16a4.73,4.73,0,0,1-.38-1.89,5.1,5.1,0,0,1,2-4.25,7.88,7.88,0,0,1,5-1.52,14.52,14.52,0,0,1,4.36.67Z"/>
      <path class="cls-1" d="M105.81,178.72a11.62,11.62,0,0,0-3.71-.67,5.4,5.4,0,0,0-3.24.91,3,3,0,0,0-1.26,2.59c0,1.33,1.1,2.5,3.28,3.5,1.62.75,2.69,1.27,3.22,1.56a8.43,8.43,0,0,1,1.59,1.19,6,6,0,0,1,1.3,1.8,5.44,5.44,0,0,1,.49,2.32,6,6,0,0,1-2.16,5,7.72,7.72,0,0,1-5.07,1.77,10.58,10.58,0,0,1-5-1.12l.53-2.19a10.91,10.91,0,0,0,4.37,1.13,5.14,5.14,0,0,0,3.49-1.13,3.88,3.88,0,0,0,1.31-3.1,3.69,3.69,0,0,0-.86-2.48A9.13,9.13,0,0,0,101,187.7c-1.58-.73-2.6-1.23-3.06-1.49a6.07,6.07,0,0,1-1.37-1.1,5,5,0,0,1-1.06-1.57,4.72,4.72,0,0,1-.37-1.89,5.07,5.07,0,0,1,2-4.25,7.84,7.84,0,0,1,5-1.52,14.5,14.5,0,0,1,4.35.67Z"/>
      <path class="cls-4" d="M104.32,180.1a11.72,11.72,0,0,0-3.72-.67,5.4,5.4,0,0,0-3.24.91,3,3,0,0,0-1.25,2.59q0,2,3.28,3.5,2.42,1.13,3.21,1.56a8.43,8.43,0,0,1,1.59,1.19,6,6,0,0,1,1.3,1.8,5.3,5.3,0,0,1,.49,2.32,6.07,6.07,0,0,1-2.15,5A7.76,7.76,0,0,1,98.75,200a10.58,10.58,0,0,1-5-1.12l.53-2.19a11,11,0,0,0,4.37,1.13,5.19,5.19,0,0,0,3.49-1.13,3.88,3.88,0,0,0,1.31-3.1,3.73,3.73,0,0,0-.85-2.48,9.34,9.34,0,0,0-3.16-2.08c-1.58-.72-2.59-1.22-3.06-1.48a6.07,6.07,0,0,1-1.37-1.1A5,5,0,0,1,94,184.92a4.72,4.72,0,0,1-.37-1.89,5.07,5.07,0,0,1,2-4.25,7.8,7.8,0,0,1,5-1.52,14.5,14.5,0,0,1,4.35.67Z"/>
    </g>
    <g>
      <path class="cls-1" d="M178.43,166.25h19.4v2h-8.19v19.54h-3.06V168.28h-8.15Z"/>
      <path class="cls-1" d="M177.22,167.22h19.39v2h-8.19v19.54h-3V169.25h-8.15Z"/>
      <path class="cls-1" d="M176,168.19h19.4v2h-8.19v19.54h-3.05V170.23H176Z"/>
      <path class="cls-1" d="M174.79,169.17h19.4v2H186v19.54h-3.06V171.2h-8.15Z"/>
      <path class="cls-1" d="M173.58,170.14H193v2h-8.19v19.54h-3.05V172.17h-8.15Z"/>
      <path class="cls-1" d="M172.36,171.11h19.4v2h-8.19v19.54h-3.06V173.15h-8.15Z"/>
      <path class="cls-1" d="M171.15,172.09h19.39v2h-8.19v19.54h-3V174.12h-8.15Z"/>
      <path class="cls-1" d="M169.93,173.06h19.4v2h-8.19v19.54h-3V175.09h-8.16Z"/>
      <path class="cls-1" d="M168.72,174h19.4v2h-8.19V195.6h-3.06V176.06h-8.15Z"/>
      <path class="cls-1" d="M167.5,175h19.4v2h-8.19v19.54h-3.05V177H167.5Z"/>
      <path class="cls-1" d="M166.29,176h19.4v2H177.5v19.54h-3.06V178h-8.15Z"/>
      <path class="cls-1" d="M165.08,177h19.39v2h-8.19v19.54h-3.05V179h-8.15Z"/>
      <path class="cls-1" d="M163.88,176.08h19.39v2h-8.19v19.54H172V178.12h-8.15Z"/>
      <path class="cls-1" d="M162.68,175.22h19.39v2h-8.19v19.54h-3V177.25h-8.15Z"/>
      <path class="cls-1" d="M161.47,174.35h19.4v2h-8.19v19.54h-3.05V176.38h-8.16Z"/>
      <path class="cls-1" d="M160.27,173.48h19.4v2h-8.19v19.54h-3V175.52h-8.16Z"/>
      <path class="cls-1" d="M159.07,172.62h19.4v2h-8.19v19.54h-3.05V174.65h-8.16Z"/>
      <path class="cls-1" d="M157.87,171.75h19.4v2h-8.19v19.54H166V173.78h-8.16Z"/>
      <path class="cls-1" d="M156.67,170.88h19.4v2h-8.19v19.54h-3.06V172.92h-8.15Z"/>
      <path class="cls-1" d="M155.47,170h19.4v2h-8.19v19.54h-3.06V172.05h-8.15Z"/>
      <path class="cls-1" d="M154.27,169.15h19.4v2h-8.19v19.54h-3.06V171.18h-8.15Z"/>
      <path class="cls-1" d="M153.07,168.28h19.4v2h-8.19v19.54h-3.06V170.32h-8.15Z"/>
      <path class="cls-1" d="M151.87,167.42h19.4v2h-8.19V189H160V169.45h-8.15Z"/>
      <path class="cls-1" d="M150.67,166.55h19.4v2h-8.19v19.54h-3.06V168.58h-8.15Z"/>
      <path class="cls-1" d="M149.47,165.68h19.4v2h-8.19v19.54h-3.06V167.72h-8.15Z"/>
      <path class="cls-1" d="M148.27,164.82h19.4v2h-8.19v19.54h-3.06V166.85h-8.15Z"/>
      <path class="cls-1" d="M147.07,164h19.39v2h-8.19v19.54h-3.05V166h-8.15Z"/>
      <path class="cls-1" d="M145.87,163.08h19.39v2h-8.19v19.54h-3V165.12h-8.15Z"/>
      <path class="cls-5" d="M144.67,162.22h19.39v2h-8.19v19.54h-3.05V164.25h-8.15Z"/>
    </g>
    <g>
      <path class="cls-3" d="M80.17,63.39h5.57A7.6,7.6,0,0,1,90.79,65a5.36,5.36,0,0,1,1.9,4.37,5.66,5.66,0,0,1-1.89,4.47,7.17,7.17,0,0,1-5,1.67H82.72v9.85H80.17Zm2.55,9.88h2.77c3,0,4.49-1.26,4.49-3.77a3.53,3.53,0,0,0-1.22-2.81,4.56,4.56,0,0,0-3.15-1.08H82.72Z"/>
      <path class="cls-3" d="M78.78,64.31h5.57a7.62,7.62,0,0,1,5.06,1.58,5.42,5.42,0,0,1,1.9,4.38,5.69,5.69,0,0,1-1.89,4.47,7.24,7.24,0,0,1-5,1.67H81.33v9.85H78.78Zm2.55,9.88H84.1q4.5,0,4.5-3.77a3.6,3.6,0,0,0-1.22-2.82,4.64,4.64,0,0,0-3.15-1.07h-2.9Z"/>
      <path class="cls-3" d="M77.4,65.22H83a7.6,7.6,0,0,1,5,1.59,5.39,5.39,0,0,1,1.9,4.37A5.69,5.69,0,0,1,88,75.66a7.22,7.22,0,0,1-5,1.67H80v9.85H77.4ZM80,75.1h2.77c3,0,4.49-1.25,4.49-3.76A3.57,3.57,0,0,0,86,68.52a4.61,4.61,0,0,0-3.15-1.07H80Z"/>
      <path class="cls-3" d="M76,66.14h5.57a7.63,7.63,0,0,1,5.06,1.59,5.39,5.39,0,0,1,1.9,4.37,5.66,5.66,0,0,1-1.89,4.47,7.19,7.19,0,0,1-5,1.67H78.56v9.85H76ZM78.56,76h2.77q4.5,0,4.5-3.77a3.56,3.56,0,0,0-1.22-2.81,4.6,4.6,0,0,0-3.15-1.08h-2.9Z"/>
      <path class="cls-3" d="M74.63,67.06H80.2a7.6,7.6,0,0,1,5,1.58A5.39,5.39,0,0,1,87.15,73a5.69,5.69,0,0,1-1.89,4.47,7.23,7.23,0,0,1-5,1.67H77.18V89H74.63Zm2.55,9.88H80q4.48,0,4.49-3.77a3.57,3.57,0,0,0-1.22-2.82,4.61,4.61,0,0,0-3.15-1.07H77.18Z"/>
      <path class="cls-3" d="M73.24,68h5.57a7.63,7.63,0,0,1,5.06,1.59,5.42,5.42,0,0,1,1.9,4.37,5.69,5.69,0,0,1-1.89,4.48,7.24,7.24,0,0,1-5,1.67H75.79v9.85H73.24Zm2.55,9.88h2.77q4.5,0,4.5-3.76a3.6,3.6,0,0,0-1.22-2.82,4.64,4.64,0,0,0-3.15-1.07h-2.9Z"/>
      <path class="cls-3" d="M74.63,69.26H80.2a7.6,7.6,0,0,1,5,1.59,5.37,5.37,0,0,1,1.9,4.37,5.66,5.66,0,0,1-1.89,4.47,7.18,7.18,0,0,1-5,1.68H77.18v9.85H74.63Zm2.55,9.88H80q4.48,0,4.49-3.76a3.57,3.57,0,0,0-1.22-2.82,4.56,4.56,0,0,0-3.15-1.07H77.18Z"/>
      <path class="cls-3" d="M76,70.55h5.57a7.63,7.63,0,0,1,5.06,1.59,5.4,5.4,0,0,1,1.9,4.37A5.66,5.66,0,0,1,86.65,81a7.2,7.2,0,0,1-5,1.68H78.56v9.85H76Zm2.55,9.88h2.77q4.5,0,4.5-3.76a3.58,3.58,0,0,0-1.22-2.82,4.59,4.59,0,0,0-3.15-1.07h-2.9Z"/>
      <path class="cls-3" d="M77.4,71.84H83a7.6,7.6,0,0,1,5,1.59,5.37,5.37,0,0,1,1.9,4.37A5.66,5.66,0,0,1,88,82.27a7.17,7.17,0,0,1-5,1.68H80V93.8H77.4ZM80,81.72h2.77c3,0,4.49-1.25,4.49-3.76A3.55,3.55,0,0,0,86,75.14a4.56,4.56,0,0,0-3.15-1.07H80Z"/>
      <path class="cls-3" d="M78.78,73.13h5.57a7.63,7.63,0,0,1,5.06,1.59,5.4,5.4,0,0,1,1.9,4.37,5.66,5.66,0,0,1-1.89,4.47,7.2,7.2,0,0,1-5,1.68H81.33v9.85H78.78ZM81.33,83H84.1q4.5,0,4.5-3.76a3.57,3.57,0,0,0-1.22-2.82,4.59,4.59,0,0,0-3.15-1.07h-2.9Z"/>
      <path class="cls-3" d="M80.17,74.42h5.57A7.6,7.6,0,0,1,90.79,76a5.36,5.36,0,0,1,1.9,4.37,5.66,5.66,0,0,1-1.89,4.47,7.17,7.17,0,0,1-5,1.68H82.72v9.85H80.17Zm2.55,9.88h2.77c3,0,4.49-1.25,4.49-3.77a3.53,3.53,0,0,0-1.22-2.81,4.56,4.56,0,0,0-3.15-1.08H82.72Z"/>
      <path class="cls-3" d="M81.55,75.71h5.57a7.63,7.63,0,0,1,5.06,1.59,5.39,5.39,0,0,1,1.9,4.37,5.66,5.66,0,0,1-1.89,4.47,7.19,7.19,0,0,1-5,1.67H84.1v9.85H81.55Zm2.55,9.88h2.77q4.5,0,4.5-3.77A3.56,3.56,0,0,0,90.15,79,4.6,4.6,0,0,0,87,77.93H84.1Z"/>
      <path class="cls-3" d="M82.94,77h5.57a7.6,7.6,0,0,1,5,1.59A5.36,5.36,0,0,1,95.46,83a5.66,5.66,0,0,1-1.89,4.47,7.17,7.17,0,0,1-4.95,1.67H85.49V99H82.94Zm2.55,9.88h2.77c3,0,4.49-1.26,4.49-3.77a3.53,3.53,0,0,0-1.22-2.81,4.56,4.56,0,0,0-3.15-1.08H85.49Z"/>
      <path class="cls-3" d="M84.32,78.29h5.57A7.68,7.68,0,0,1,95,79.87a5.42,5.42,0,0,1,1.9,4.38A5.67,5.67,0,0,1,95,88.72a7.19,7.19,0,0,1-5,1.67H86.87v9.85H84.32Zm2.55,9.88h2.77q4.5,0,4.5-3.77a3.56,3.56,0,0,0-1.22-2.81,4.6,4.6,0,0,0-3.15-1.08h-2.9Z"/>
      <path class="cls-3" d="M85.71,79.58h5.57a7.65,7.65,0,0,1,5,1.58,5.39,5.39,0,0,1,1.9,4.38A5.67,5.67,0,0,1,96.34,90a7.17,7.17,0,0,1-5,1.67H88.26v9.85H85.71Zm2.55,9.88H91q4.5,0,4.5-3.77a3.54,3.54,0,0,0-1.23-2.81,4.56,4.56,0,0,0-3.15-1.08H88.26Z"/>
      <path class="cls-3" d="M87.09,80.87h5.57a7.68,7.68,0,0,1,5.06,1.58,5.39,5.39,0,0,1,1.9,4.38,5.69,5.69,0,0,1-1.89,4.47,7.24,7.24,0,0,1-5,1.67H89.64v9.85H87.09Zm2.55,9.88h2.77q4.5,0,4.5-3.77a3.56,3.56,0,0,0-1.22-2.81,4.6,4.6,0,0,0-3.15-1.08h-2.9Z"/>
      <path class="cls-3" d="M88.48,82.16h5.57a7.6,7.6,0,0,1,5,1.58,5.39,5.39,0,0,1,1.9,4.38,5.69,5.69,0,0,1-1.89,4.47,7.22,7.22,0,0,1-5,1.67H91v9.85H88.48ZM91,92H93.8q4.5,0,4.5-3.77a3.57,3.57,0,0,0-1.23-2.82,4.61,4.61,0,0,0-3.15-1.07H91Z"/>
      <path class="cls-3" d="M87.09,83.24h5.57a7.63,7.63,0,0,1,5.06,1.59,5.36,5.36,0,0,1,1.9,4.37,5.66,5.66,0,0,1-1.89,4.47,7.19,7.19,0,0,1-5,1.67H89.64v9.85H87.09Zm2.55,9.88h2.77q4.5,0,4.5-3.77a3.56,3.56,0,0,0-1.22-2.81,4.6,4.6,0,0,0-3.15-1.08h-2.9Z"/>
      <path class="cls-3" d="M85.71,84.32h5.57a7.6,7.6,0,0,1,5,1.59,5.37,5.37,0,0,1,1.9,4.37,5.69,5.69,0,0,1-1.89,4.48,7.22,7.22,0,0,1-5,1.67H88.26v9.85H85.71Zm2.55,9.88H91q4.5,0,4.5-3.76a3.57,3.57,0,0,0-1.23-2.82,4.61,4.61,0,0,0-3.15-1.07H88.26Z"/>
      <path class="cls-3" d="M84.32,85.41h5.57A7.62,7.62,0,0,1,95,87a5.42,5.42,0,0,1,1.9,4.37A5.69,5.69,0,0,1,95,95.84a7.24,7.24,0,0,1-5,1.67H86.87v9.85H84.32Zm2.55,9.88h2.77q4.5,0,4.5-3.77a3.6,3.6,0,0,0-1.22-2.82,4.64,4.64,0,0,0-3.15-1.07h-2.9Z"/>
      <path class="cls-3" d="M82.94,86.49h5.57a7.6,7.6,0,0,1,5,1.59,5.36,5.36,0,0,1,1.9,4.37,5.66,5.66,0,0,1-1.89,4.47,7.17,7.17,0,0,1-4.95,1.67H85.49v9.85H82.94Zm2.55,9.88h2.77c3,0,4.49-1.26,4.49-3.77a3.53,3.53,0,0,0-1.22-2.81,4.56,4.56,0,0,0-3.15-1.08H85.49Z"/>
      <path class="cls-3" d="M81.55,87.57h5.57a7.63,7.63,0,0,1,5.06,1.59,5.4,5.4,0,0,1,1.9,4.37A5.66,5.66,0,0,1,92.19,98a7.2,7.2,0,0,1-5,1.68H84.1v9.85H81.55Zm2.55,9.88h2.77q4.5,0,4.5-3.76a3.58,3.58,0,0,0-1.22-2.82A4.59,4.59,0,0,0,87,89.8H84.1Z"/>
      <path class="cls-3" d="M80.17,88.65h5.57a7.6,7.6,0,0,1,5.05,1.59,5.39,5.39,0,0,1,1.9,4.37,5.69,5.69,0,0,1-1.89,4.48,7.22,7.22,0,0,1-5,1.67H82.72v9.85H80.17Zm2.55,9.89h2.77c3,0,4.49-1.26,4.49-3.77A3.57,3.57,0,0,0,88.76,92a4.61,4.61,0,0,0-3.15-1.07H82.72Z"/>
      <path class="cls-3" d="M78.78,89.74h5.57a7.68,7.68,0,0,1,5.06,1.58,5.42,5.42,0,0,1,1.9,4.38,5.67,5.67,0,0,1-1.89,4.47,7.19,7.19,0,0,1-5,1.67H81.33v9.85H78.78Zm2.55,9.88H84.1q4.5,0,4.5-3.77A3.56,3.56,0,0,0,87.38,93,4.6,4.6,0,0,0,84.23,92h-2.9Z"/>
      <path class="cls-2" d="M77.4,90.82H83a7.6,7.6,0,0,1,5,1.59,5.37,5.37,0,0,1,1.9,4.37A5.66,5.66,0,0,1,88,101.25a7.17,7.17,0,0,1-5,1.68H80v9.85H77.4ZM80,100.7h2.77c3,0,4.49-1.25,4.49-3.76A3.55,3.55,0,0,0,86,94.12a4.56,4.56,0,0,0-3.15-1.07H80Z"/>
    </g>
    <g>
      <path class="cls-3" d="M131.42,106.29h-3.19l-6.44-10H119v10H116.4v-22h6.21a7.46,7.46,0,0,1,4.94,1.52,5.2,5.2,0,0,1,1.82,4.22A5.38,5.38,0,0,1,128,93.64a6.63,6.63,0,0,1-3.64,2.13ZM119,94.09h3.22a4.83,4.83,0,0,0,3.28-1.1,3.5,3.5,0,0,0,1.26-2.76q0-3.67-4.48-3.67H119Z"/>
      <path class="cls-3" d="M133,104.47H129.8l-6.44-10h-2.83v10H118v-22h6.21A7.48,7.48,0,0,1,129.13,84a5.2,5.2,0,0,1,1.81,4.22,5.37,5.37,0,0,1-1.32,3.57A6.66,6.66,0,0,1,126,94Zm-12.46-12.2h3.22a4.82,4.82,0,0,0,3.28-1.1,3.5,3.5,0,0,0,1.26-2.76q0-3.68-4.48-3.67h-3.28Z"/>
      <path class="cls-3" d="M134.57,102.65h-3.19l-6.44-10H122.1v10h-2.55v-22h6.21a7.46,7.46,0,0,1,4.94,1.52,5.2,5.2,0,0,1,1.81,4.22A5.41,5.41,0,0,1,131.19,90a6.62,6.62,0,0,1-3.64,2.12ZM122.1,90.45h3.23a4.83,4.83,0,0,0,3.28-1.1,3.5,3.5,0,0,0,1.26-2.76q0-3.68-4.48-3.67H122.1Z"/>
      <path class="cls-3" d="M136.14,100.83H133l-6.44-10h-2.83v10h-2.55v-22h6.21a7.48,7.48,0,0,1,4.94,1.52,5.23,5.23,0,0,1,1.81,4.23,5.41,5.41,0,0,1-1.32,3.57,6.68,6.68,0,0,1-3.65,2.12Zm-12.46-12.2h3.22a4.82,4.82,0,0,0,3.28-1.1,3.5,3.5,0,0,0,1.26-2.76q0-3.67-4.48-3.67h-3.28Z"/>
      <path class="cls-3" d="M137.72,99h-3.19l-6.44-10h-2.84V99H122.7v-22h6.21a7.48,7.48,0,0,1,4.94,1.52,5.2,5.2,0,0,1,1.81,4.23,5.41,5.41,0,0,1-1.32,3.57,6.65,6.65,0,0,1-3.64,2.12Zm-12.47-12.2h3.22a4.84,4.84,0,0,0,3.29-1.1A3.5,3.5,0,0,0,133,83c0-2.45-1.5-3.67-4.48-3.67h-3.29Z"/>
      <path class="cls-3" d="M139.29,97.19H136.1l-6.44-10h-2.83v10h-2.55v-22h6.2a7.44,7.44,0,0,1,4.94,1.51A5.21,5.21,0,0,1,137.24,81a5.33,5.33,0,0,1-1.33,3.57,6.62,6.62,0,0,1-3.64,2.12ZM126.83,85h3.22a4.77,4.77,0,0,0,3.28-1.1,3.5,3.5,0,0,0,1.26-2.76q0-3.67-4.48-3.67h-3.28Z"/>
      <path class="cls-3" d="M140.87,95.37h-3.19l-6.45-10H128.4v10h-2.55v-22h6.21A7.48,7.48,0,0,1,137,74.93a5.2,5.2,0,0,1,1.81,4.23,5.37,5.37,0,0,1-1.32,3.57,6.65,6.65,0,0,1-3.64,2.12ZM128.4,83.17h3.22a4.84,4.84,0,0,0,3.29-1.09,3.54,3.54,0,0,0,1.26-2.77c0-2.44-1.5-3.67-4.48-3.67H128.4Z"/>
      <path class="cls-3" d="M142.44,93.55h-3.19l-6.44-10H130v10h-2.56v-22h6.21a7.46,7.46,0,0,1,4.94,1.51,5.22,5.22,0,0,1,1.82,4.23,5.33,5.33,0,0,1-1.33,3.57A6.62,6.62,0,0,1,135.42,83ZM130,81.35h3.22a4.81,4.81,0,0,0,3.28-1.09,3.54,3.54,0,0,0,1.26-2.77c0-2.44-1.49-3.67-4.48-3.67H130Z"/>
      <path class="cls-3" d="M144,91.73h-3.19l-6.44-10h-2.83v10H129v-22h6.21a7.48,7.48,0,0,1,4.94,1.51A5.22,5.22,0,0,1,142,75.52a5.37,5.37,0,0,1-1.32,3.57A6.65,6.65,0,0,1,137,81.21Zm-12.46-12.2h3.22a4.81,4.81,0,0,0,3.28-1.09,3.48,3.48,0,0,0,1.27-2.76q0-3.68-4.49-3.68h-3.28Z"/>
      <path class="cls-3" d="M145.59,89.91H142.4l-6.44-10h-2.83v10h-2.56V68h6.21a7.41,7.41,0,0,1,4.94,1.52,5.2,5.2,0,0,1,1.81,4.22,5.37,5.37,0,0,1-1.32,3.57,6.69,6.69,0,0,1-3.64,2.13Zm-12.46-12.2h3.22a4.83,4.83,0,0,0,3.28-1.09,3.5,3.5,0,0,0,1.26-2.76q0-3.67-4.48-3.68h-3.28Z"/>
      <path class="cls-4" d="M147.16,88.1H144l-6.44-10H134.7v10h-2.55v-22h6.21a7.48,7.48,0,0,1,4.94,1.52,5.2,5.2,0,0,1,1.81,4.22,5.37,5.37,0,0,1-1.32,3.57,6.76,6.76,0,0,1-3.64,2.13ZM134.7,75.9h3.22a4.82,4.82,0,0,0,3.28-1.1A3.5,3.5,0,0,0,142.46,72q0-3.67-4.48-3.68H134.7Z"/>
    </g>
    <g>
      <path class="cls-3" d="M167.6,92.89H156.13v-22h11.38v2.23h-8.82V80h8.48v2.22h-8.48v8.48h8.91Z"/>
      <path class="cls-3" d="M169.22,91.89H157.75v-22h11.38v2.23h-8.82V79h8.48v2.22h-8.48v8.48h8.91Z"/>
      <path class="cls-3" d="M170.84,90.89H159.37v-22h11.38v2.22h-8.82V78h8.48v2.23h-8.48v8.48h8.91Z"/>
      <path class="cls-3" d="M172.46,89.9H161v-22h11.38v2.22h-8.82V77H172v2.23h-8.48v8.48h8.91Z"/>
      <path class="cls-3" d="M174.08,88.9H162.61v-22H174v2.23h-8.83V76h8.49v2.22h-8.49v8.48h8.92Z"/>
      <path class="cls-3" d="M175.7,87.9H164.23V66h11.38v2.22h-8.83V75h8.48V77.2h-8.48v8.48h8.92Z"/>
      <path class="cls-3" d="M177.32,86.9H165.85V65h11.38v2.22H168.4V74h8.48V76.2H168.4v8.48h8.92Z"/>
      <path class="cls-3" d="M178.94,85.91H167.47V64h11.38v2.23H170V73h8.48V75.2H170v8.48h8.92Z"/>
      <path class="cls-3" d="M180.37,86.9H168.91V65h11.37v2.22h-8.82V74h8.48V76.2h-8.48v8.48h8.91Z"/>
      <path class="cls-3" d="M181.81,87.9H170.34V66h11.37v2.22h-8.82V75h8.48V77.2h-8.48v8.48h8.92Z"/>
      <path class="cls-3" d="M183.24,88.9H171.77v-22h11.38v2.23h-8.82V76h8.48v2.22h-8.48v8.48h8.91Z"/>
      <path class="cls-3" d="M184.68,89.9H173.21v-22h11.37v2.22h-8.82V77h8.48v2.23h-8.48v8.48h8.92Z"/>
      <path class="cls-3" d="M186.11,90.89H174.64v-22H186v2.22h-8.83V78h8.48v2.23h-8.48v8.48h8.92Z"/>
      <path class="cls-3" d="M187.54,91.89H176.08v-22h11.37v2.23h-8.82V79h8.48v2.22h-8.48v8.48h8.91Z"/>
      <path class="cls-3" d="M189,92.89H177.51v-22h11.37v2.23h-8.82V80h8.48v2.22h-8.48v8.48H189Z"/>
      <path class="cls-3" d="M190.41,93.88H178.94V71.93h11.38v2.22H181.5V81H190v2.23H181.5v8.48h8.91Z"/>
      <path class="cls-3" d="M191.85,94.88H180.38V72.93h11.37v2.22h-8.82V82h8.48v2.23h-8.48v8.48h8.92Z"/>
      <path class="cls-3" d="M193.28,95.88H181.81v-22h11.38v2.23h-8.83V83h8.48v2.22h-8.48v8.48h8.92Z"/>
      <path class="cls-3" d="M194.71,96.88H183.25v-22h11.37v2.23H185.8V84h8.48v2.22H185.8v8.48h8.91Z"/>
      <path class="cls-3" d="M196.15,97.87H184.68v-22h11.37v2.22h-8.82v6.8h8.48v2.23h-8.48v8.48h8.92Z"/>
      <path class="cls-3" d="M197.58,98.87H186.11v-22h11.38v2.22h-8.82v6.8h8.48v2.23h-8.48v8.48h8.91Z"/>
      <path class="cls-4" d="M199,99.87H187.55v-22h11.37v2.23H190.1v6.8h8.48v2.22H190.1v8.48H199Z"/>
    </g>
  </g>
</svg>
