<?xml version="1.0" encoding="utf-8"?>
<!-- Generator: Adobe Illustrator 24.3.0, SVG Export Plug-In . SVG Version: 6.00 Build 0)  -->
<svg version="1.1" id="Layer_1" xmlns="http://www.w3.org/2000/svg" xmlns:xlink="http://www.w3.org/1999/xlink" x="0px" y="0px"
	 viewBox="0 0 376.7 275.8" style="enable-background:new 0 0 376.7 275.8;" xml:space="preserve">
<style type="text/css">
	.st0{fill:#73D1F5;}
	.st1{fill:#FFFFFF;}
	.st2{fill:#057860;}
	.st3{fill:url(#SVGID_1_);}
	.st4{fill:url(#SVGID_2_);}
	.st5{fill:url(#SVGID_3_);}
	.st6{fill:url(#SVGID_4_);}
	.st7{fill:url(#SVGID_5_);}
	.st8{fill:url(#SVGID_6_);}
	.st9{fill:url(#SVGID_7_);}
	.st10{fill:url(#SVGID_8_);}
	.st11{fill:url(#SVGID_9_);}
	.st12{fill:url(#SVGID_10_);}
	.st13{fill:url(#SVGID_11_);}
	.st14{fill:url(#SVGID_12_);}
	.st15{fill:url(#SVGID_13_);}
	.st16{fill:url(#SVGID_14_);}
	.st17{fill:url(#SVGID_15_);}
	.st18{fill:url(#SVGID_16_);}
	.st19{fill:url(#SVGID_17_);}
	.st20{fill:url(#SVGID_18_);}
	.st21{fill:url(#SVGID_19_);}
	.st22{fill:url(#SVGID_20_);}
	.st23{fill:url(#SVGID_21_);}
	.st24{fill:url(#SVGID_22_);}
	.st25{fill:url(#SVGID_23_);}
	.st26{fill:url(#SVGID_24_);}
</style>
<rect y="0" class="st0" width="376.7" height="275.8"/>
<g>
	<g id="Livello_2">
		<g id="Sfondo">
			<path class="st1" d="M149.3,109c0,1-0.4,2.1-1.5,5.1c-0.6,1.5-1.2,3.2-1.8,4.9l0,0c-0.2,0.8-0.5,1.6-0.8,2.5
				c-1.1,3.5-2.4,7.5-4.4,10.7c-1,1.8-2.4,3.3-4.1,4.5c-1.8,1.3-4.1,2-6.3,2c-1.6,0-3.3-0.3-4.8-1c-1.3-0.5-2.4-1.3-3.5-2.3
				c-0.8-0.8-1.6-1.7-2.1-2.7c-0.2-0.4-0.4-0.9-0.6-1.3c-0.3,0.1-0.6,0.2-0.9,0.3c-1.3,0.4-2.7,0.6-4.1,0.6h-0.3
				c-1.1,0-2.1-0.2-3.1-0.5c-1-0.3-1.9-0.7-2.8-1.2c-2.6-1.5-4.5-3.9-5.5-6.7c-0.2,0.1-0.4,0.2-0.6,0.3c-0.5,0.2-1.1,0.3-1.7,0.3
				c-0.2,0-0.4,0-0.6,0c-0.2,0-0.4,0-0.6,0c-0.2,0-0.3,0-0.4,0h0c-0.2,0-0.3,0-0.5-0.1c-0.2,0-0.3-0.1-0.6-0.1
				c-0.2,0-0.3-0.1-0.5-0.1l-0.1,0c-0.1,0-0.3-0.1-0.5-0.1l-0.5-0.2c0,0-0.1,0-0.1,0h0c-0.2-0.1-0.4-0.1-0.5-0.2h0
				c-0.7,0.6-1.6,0.9-2.5,0.9c-0.3,0-0.5,0-0.7,0c-1.7-0.1-3.4-0.7-4.8-1.7c-0.5,0.3-1,0.5-1.5,0.7c-1.5,0.6-3.2,1-4.9,1
				c-0.9,0-1.8-0.2-2.6-0.5c-0.9-0.3-1.6-0.9-2.3-1.5c-0.1-0.1-0.2-0.2-0.3-0.3c-0.1,0.2-0.2,0.5-0.4,0.7c-0.4,0.6-1,1.1-1.6,1.4
				c-0.5,0.2-1.1,0.3-1.7,0.3c-1.4,0-2.8-0.2-4.2-0.6c-0.8-0.3-1.6-0.7-2.3-1.3c-0.9-0.8-1.5-2-1.5-3.3c0-0.1,0-0.2,0-0.3
				c0-0.1,0-0.2,0-0.3c0-0.1,0-0.2,0-0.3v0c0-0.1,0-0.2,0.1-0.3v0c0-0.1,0-0.2,0.1-0.3c0-0.1,0-0.2,0.1-0.3c0-0.1,0-0.1,0.1-0.2l0,0
				l0,0c0.1-0.2,0.1-0.4,0.2-0.7c0,0,0,0,0,0c0-0.1,0-0.2,0.1-0.2c0.2-0.5,0.4-1.1,0.6-1.8c0-0.1,0-0.1,0.1-0.2c0,0,0-0.1,0.1-0.1
				c0,0,0-0.1,0-0.1c0.1-0.3,0.2-0.7,0.4-1c-0.2,0.1-0.3,0.1-0.5,0.2h0c-0.1,0-0.2,0-0.2,0.1c-0.1,0-0.2,0.1-0.2,0.1l0,0
				c-0.1,0-0.2,0.1-0.3,0.1h0c-0.3,0.1-0.7,0.2-1,0.2c-0.2,0-0.3,0.1-0.5,0.1c-0.1,0-0.1,0-0.2,0h0c0,0-0.1,0-0.1,0
				c-0.4,0-0.8,0.1-1.2,0.1c-1.8,0-3.5-0.5-5-1.3c-1,2.8-1.8,5.7-2.4,8.6c0,0,0,0,0,0.1c-0.1,0.7-0.4,1.4-0.8,2
				c-0.4,0.5-0.9,1-1.5,1.3c-0.6,0.3-1.2,0.4-1.8,0.4c-1.5,0-2.9-0.2-4.4-0.6c-0.9-0.2-1.7-0.6-2.4-1.2c-1.1-0.8-1.8-2.1-1.8-3.5
				c0.1-1.5,0.5-3,1-4.5c0.4-1.4,1-3.1,1.7-5c-1.6-0.3-3.1-1-4.4-2c-2.3-1.6-3.6-4.2-3.7-7c0-2.1,0.7-4.1,1.9-5.7
				c1.3-1.6,2.9-2.8,4.8-3.7c2-0.9,4.2-1.6,6.4-1.9c2.5-0.4,5.1-0.6,7.7-0.6c0.5,0,1,0,1.5,0c0.1,0,0.2,0,0.2,0c0.2,0,0.3,0,0.5,0
				c0.4,0,0.8,0,1.2,0.1c0.2,0,0.4,0,0.6,0.1c0.1,0,0.2,0,0.4,0.1c0,0,0,0,0.1,0l0.1,0c0.2,0,0.4,0.1,0.6,0.1
				c0.3,0.1,0.6,0.1,0.9,0.2c0.2,0,0.5,0.1,0.7,0.2c0.2,0,0.3,0.1,0.5,0.1c0.1,0,0.2,0.1,0.4,0.1c0.3,0.1,0.6,0.2,0.9,0.3
				c0.1,0,0.3,0.1,0.4,0.1c0.1,0,0.2,0.1,0.3,0.1c0.1,0,0.2,0.1,0.2,0.1l0,0c0.2,0.1,0.5,0.2,0.7,0.3c0.2,0.1,0.4,0.2,0.6,0.3
				c0.1,0.1,0.3,0.1,0.4,0.2l0.1,0.1l0.1,0c0.1,0.1,0.3,0.1,0.4,0.2c0.1,0.1,0.2,0.1,0.3,0.2c0.2,0.2,0.5,0.3,0.7,0.5
				c0.1,0.1,0.3,0.2,0.3,0.3l0,0c0.1,0.1,0.2,0.2,0.3,0.2c0.2,0.2,0.5,0.4,0.7,0.7l0,0c0.2,0.2,0.3,0.3,0.4,0.5
				c0.2,0.2,0.3,0.4,0.5,0.6c0.1,0.2,0.2,0.3,0.4,0.5c0.1,0.1,0.1,0.2,0.2,0.2c0.3-2.1,2.2-3.5,4.3-3.4c0.9,0,1.8,0.2,2.6,0.6
				c0.7,0.3,1.4,0.7,2.1,1.2c1,0.8,2.7,2.4,2.7,4.5c0,0.1,0,0.3,0,0.4c0,0.2,0,0.3-0.1,0.5c0,0,0,0.1,0,0.1c0,0.1,0,0.2-0.1,0.3
				c0,0,0,0,0,0.1v0c0,0,0,0,0,0c0,0.1,0,0.1,0,0.2c0,0.1,0,0.2-0.1,0.2c0,0,0,0.1,0,0.1l0,0c-0.2,0.8-0.6,1.8-1.2,3.2c0,0,0,0,0,0
				c0,0.1-0.1,0.1-0.1,0.2c-0.1,0.1-0.1,0.2-0.1,0.3l0,0c0,0.1-0.1,0.2-0.1,0.3c0.3-0.2,0.6-0.3,0.9-0.5c2.1-1,4.4-1.6,6.8-1.6
				c1.5,0,2.9,0.3,4.3,0.8c0.8,0.3,1.5,0.6,2.2,1.1c0.3-0.5,0.7-0.9,1.2-1.2c0.8-0.5,1.7-0.7,2.6-0.7c1.8-0.1,3.7,0.6,5.1,1.8
				c1.8-1.1,4-1.7,6.1-1.8c0.3,0,0.7,0,1,0.1c0.1,0,0.2,0,0.3,0l0.6,0.1c0.2,0,0.3,0.1,0.4,0.1c0.1,0,0.1,0,0.2,0.1l0.1,0h0
				c0.3,0.1,0.7,0.3,1,0.4l0.1,0l0,0c0.1,0,0.1,0.1,0.2,0.1c0.1,0,0.2,0.1,0.2,0.2l0,0c0.1,0.1,0.2,0.2,0.3,0.2l0,0
				c0.2-0.2,0.5-0.3,0.7-0.4c0.1,0,0.2-0.1,0.3-0.1c0.3-0.7,0.5-1.4,0.8-1.9c0.2-0.5,0.4-1.1,0.5-1.6c0-1.3,0.7-2.4,1.8-3.1
				c0.8-0.5,1.7-0.7,2.6-0.7c0.9,0,1.8,0.2,2.6,0.5c0.7,0.3,1.4,0.7,2.1,1.2c0.6,0.5,1.2,1.1,1.7,1.7c0.6,0.8,1,1.8,1,2.8
				c0,0.1,0,0.3,0,0.4c0.5-0.2,1.1-0.2,1.6-0.2c0.3,0,0.5,0,0.8,0.1c1.7,0.2,3.3,0.9,4.5,2.1l0.2,0.2c0.2-0.5,0.5-1,0.9-1.4
				c0.8-0.7,1.7-1,2.7-1c2,0,3.9,0.5,5.5,1.7c0.7,0.5,1.3,1.2,1.8,1.9C149,107.1,149.3,108.1,149.3,109z"/>
		</g>
		<g id="Livello_4">
			<g id="y">
				<path class="st2" d="M141.3,106.3c-0.4-0.1-0.8,0.2-0.8,0.6c0,0,0,0.1,0,0.1c0,3.1-1,6.2-2.8,8.8c-0.7,1-1.8,1.7-3,1.9
					c-0.4,0-0.7-0.2-0.8-0.6c0-0.1,0-0.1,0-0.2c0-2.1,2.5-4.6,2.5-7c0-1.8-2.1-3.6-4.2-3.6c-0.8,0-1.2,0.3-1.2,0.7
					c0,3.4-3.8,8.5-3.8,11.6c0,2.1,1.4,3,3.4,3c4,0,6.1-2.5,6.5-2.5c0,0,0.1,0,0.1,0.1c0,0,0,0,0,0c0,0.1-0.1,0.2-0.1,0.3
					c-1.3,3.8-3.7,10.5-10,10.5c-2.6,0-3.1-1-3.7-1c-0.3,0-0.6,0.3-0.6,0.6c0,0,0,0,0,0v0c0,1.4,2.7,5.8,8,5.8
					c7.8,0,10.1-10.3,12.4-17.2c1.4-4.1,3.1-8.1,3.1-8.9C146.2,108,144.4,106.3,141.3,106.3z"/>
			</g>
			<g id="t">
				<path class="st2" d="M129.5,106.7c0,0.2,0,0.5-0.1,0.7c0,0.1,0,0.2-0.1,0.2c0,0.1,0,0.2-0.1,0.2c0,0.1-0.1,0.2-0.1,0.2l-0.1,0.2
					c0,0-0.1,0.1-0.1,0.1c0,0-0.1,0.1-0.1,0.1c-0.1,0.1-0.1,0.1-0.2,0.2l-0.2,0.2c-0.1,0.1-0.2,0.1-0.2,0.2
					c-0.1,0.1-0.1,0.1-0.2,0.2c0,0,0,0-0.1,0c-0.1,0.1-0.2,0.1-0.2,0.2c0,0,0,0,0,0c-0.1,0-0.2,0.1-0.3,0.1
					c-0.1,0.1-0.2,0.1-0.3,0.1h0c-0.1,0-0.1,0-0.2,0.1l-0.2,0.1l-0.2,0.1c-0.1,0-0.1,0-0.2,0c-0.2,0-0.4,0.1-0.6,0.1
					c-0.1,0-0.2,0-0.3,0h0c-0.1,0-0.2,0-0.3,0c0,0,0,0-0.1,0c0,0.1-0.1,0.1-0.1,0.2c-0.2,0.3-0.3,0.8-0.5,1.2
					c-0.1,0.2-0.2,0.3-0.2,0.5c-0.1,0.2-0.2,0.3-0.2,0.5c-0.2,0.6-0.5,1.1-0.7,1.7c0,0.1-0.1,0.2-0.1,0.3c0,0.1-0.1,0.1-0.1,0.2
					c-0.4,1.1-1.2,3.2-1.6,4.6c0,0,0,0,0,0c0,0,0,0,0,0c0,0,0,0.1-0.1,0.1v0c-0.3,1.3-1.5,2.1-2.8,2.1c-0.2,0-0.4,0-0.6-0.1
					c-0.2,0-0.4-0.1-0.5-0.2c-1.1-0.4-1.7-1.4-1.8-2.6v-0.1l0,0c0-0.2,0-0.4,0.1-0.7c0.1-0.2,0.1-0.4,0.2-0.7
					c0.1-0.3,0.2-0.6,0.3-0.8c0.3-0.7,0.6-1.4,0.9-2.1c0-0.1,0-0.1,0.1-0.2c0.3-0.8,0.6-1.4,0.8-2c0.2-0.4,0.3-0.8,0.5-1.2v0
					c0.2-0.3,0.2-0.7,0.2-1.1c0,0,0-0.1-0.1-0.1c-0.4,0-1.2,0-1.2-0.6c0.2-1,0.6-1.9,1.3-2.7c0.1-0.1,0.2-0.2,0.3-0.2
					c0.1,0,0.1-0.1,0.1-0.1l0,0c0,0,0.1,0,0.1,0c0.3-0.1,0.6-0.1,0.9-0.1c0,0,0.1,0,0.1,0c0,0,0,0,0,0c1.1-2.7,2.1-5.1,2.1-6.2
					c0-0.4,0.4-0.7,1.2-0.7c1.8,0,4.2,1.9,4.2,3.1c-0.3,1.3-0.8,2.5-1.4,3.7c0,0,0,0.1,0,0.1c0,0,0,0,0,0h0.8c0.1,0,0.3,0,0.4,0
					c0.5-0.1,0.8-0.1,1-0.1h0.2C129.4,106.2,129.5,106.4,129.5,106.7z"/>
			</g>
			<g id="n">
				<path class="st2" d="M124.6,119.8c-0.1-0.3-0.5-0.5-0.8-0.3c0,0,0,0,0,0c0,0,0,0,0,0c0,0,0,0,0,0c-0.1,0-0.2,0.1-0.2,0.3
					c-0.6,2.4-2.8,4.1-5.3,4.1c-0.4,0-0.7,0-1.1-0.1c-2.6-0.5-4.5-2.8-4.5-5.4l0,0c0-0.4,0.1-0.8,0.2-1.3c0.1-0.4,0.3-0.9,0.4-1.3
					c0.6-1.6,1.5-3.2,2.1-4.6l0-0.1c0.4-0.8,0.6-1.6,0.6-2.5c0-0.1,0-0.2,0-0.3c0,0,0-0.1,0-0.1c0-0.1,0-0.2,0-0.2
					c0-0.1,0-0.2-0.1-0.2c0,0,0-0.1,0-0.1c0-0.1-0.1-0.1-0.1-0.2c0-0.1-0.1-0.2-0.1-0.2c0,0-0.1-0.1-0.1-0.1s0-0.1-0.1-0.1
					c0,0-0.1-0.1-0.1-0.1c0,0,0-0.1-0.1-0.1l-0.2-0.2c-0.1-0.1-0.1-0.1-0.2-0.2c-0.1-0.1-0.1-0.1-0.2-0.1l0,0c0,0-0.1-0.1-0.1-0.1
					c0,0,0,0,0,0c0,0,0,0,0,0c0,0-0.1,0-0.1-0.1c-0.1-0.1-0.3-0.2-0.5-0.2c0,0-0.1,0-0.1,0h0c-0.1,0-0.2-0.1-0.2-0.1
					c-0.1,0-0.2-0.1-0.3-0.1c0,0-0.1,0-0.2,0c-0.2,0-0.4-0.1-0.7-0.1c-3.9,0-6.8,3.1-6.9,3.1c-0.4-1.9-2.2-3.3-4.2-3.1
					c-0.8,0-1.2,0.3-1.2,0.7v0.2c0,0.1,0,0.1,0,0.2c0,0.1,0,0.2,0,0.2c0,0.1,0,0.1,0,0.2c0,0.3-0.1,0.7-0.2,1c0,0.2-0.1,0.3-0.1,0.5
					c-0.2,0.5-0.3,1.1-0.6,1.7c-0.1,0.2-0.2,0.5-0.3,0.8c-0.2,0.5-0.4,0.9-0.6,1.4c-0.1,0.2-0.1,0.3-0.2,0.4
					c-0.5,1.1-0.9,2.2-1.3,3.3c0,0.1,0,0.1-0.1,0.2c-0.1,0.3-0.2,0.7-0.3,1c0,0.1-0.1,0.2-0.1,0.2c0,0.1-0.1,0.3-0.1,0.4
					c0,0.1-0.1,0.2-0.1,0.4c0,0.1,0,0.3-0.1,0.4c0,0,0,0.1,0,0.1c0,0.1,0,0.2,0,0.2c0,0.1,0,0.1,0,0.2v0c0,0.1,0,0.1,0.1,0.2
					l0.1,0.2c0,0,0,0.1,0.1,0.1c0,0.1,0.1,0.1,0.2,0.2c0,0,0.1,0.1,0.2,0.1c0.1,0.1,0.3,0.2,0.4,0.3c0.1,0.1,0.2,0.1,0.3,0.1
					c0.1,0.1,0.2,0.1,0.3,0.1c0,0,0,0,0.1,0c0.1,0,0.2,0.1,0.4,0.1c0.1,0,0.2,0.1,0.3,0.1c0.1,0,0.3,0.1,0.4,0.1s0.3,0.1,0.4,0.1
					l0.4,0.1c0.1,0,0.2,0,0.3,0c0.2,0,0.3,0,0.5,0c0.2,0,0.3,0,0.4,0c0.7,0,0.8-0.4,0.8-1c0-1.9,1.8-5.6,3.3-8
					c1.3-1.9,2.7-2.9,3.3-2.9c0.3,0,0.7,0.2,0.7,0.6c0,0,0,0.1,0,0.1c0,1-1.3,2.8-2.4,5.2c-0.1,0.2-0.2,0.4-0.3,0.7c0,0,0,0.1,0,0.1
					c-2,4.7,0.2,10.2,4.9,12.2c1.1,0.5,2.2,0.7,3.4,0.7h0.2c4.1,0.1,7.9-2.5,9.3-6.3l0,0c0.1-0.3,0.2-0.7,0.2-1.1c0-0.3,0-0.6,0-0.8
					C124.8,120.5,124.8,120.1,124.6,119.8z M108.7,121.2L108.7,121.2L108.7,121.2z"/>
			</g>
			<g id="a">
				<path class="st2" d="M97.8,109.1c-0.1-0.5-0.5-1-0.9-1.3c-1.6-1.2-3.5-1.8-5.4-1.8c-3.7,0-7.2,1.7-9.6,4.4c-1.9,2-3,4.5-3.1,7.2
					v0.1c0,2.4,1.4,3.8,3.6,3.8c3.9,0,6.1-2.4,6.6-2.4c0.3,0,1.6,2.2,4.7,2.4c0.2,0,0.3,0,0.5,0c0.4,0,0.7-0.2,0.7-0.5
					c-0.2-0.6-0.3-1.3-0.3-1.9C94.4,113.7,97.8,109.9,97.8,109.1z M85.8,117.3c-0.4,0-0.7-0.3-0.8-0.7c0,0,0-0.1,0-0.1
					c0-2.8,3.5-7.7,6.1-7.7c0.3,0,0.5,0.2,0.5,0.6C91.6,110.3,88.1,117.3,85.8,117.3z"/>
			</g>
			<g id="l">
				<path class="st2" d="M82.5,98.9L82.5,98.9c0,0.1,0,0.2,0,0.2c0,0,0,0.1,0,0.1c0,0,0,0.1,0,0.2v0c0,0.1,0,0.1-0.1,0.2
					c0,0,0,0,0,0c0,0.1,0,0.2-0.1,0.3c-0.2,0.8-0.6,1.7-1.1,2.9c-0.1,0.2-0.2,0.4-0.2,0.6c-0.2,0.5-0.4,1-0.6,1.5
					c-0.1,0.2-0.2,0.3-0.2,0.5c-0.2,0.3-0.3,0.7-0.5,1.1c-0.1,0.2-0.2,0.4-0.2,0.6c-0.1,0.2-0.2,0.4-0.2,0.6
					c-0.1,0.3-0.2,0.5-0.3,0.8v0c-0.8,1.8-1.6,3.6-2.3,5.2c-0.1,0.2-0.2,0.5-0.3,0.8c-0.1,0.1-0.1,0.3-0.2,0.4
					c-0.1,0.2-0.2,0.5-0.3,0.7c-0.1,0.2-0.1,0.3-0.2,0.4c-0.1,0.2-0.2,0.4-0.2,0.6c-0.1,0.1-0.1,0.2-0.1,0.3
					c-0.3,0.8-0.5,1.6-0.8,2.4c0,0.1,0,0.1,0,0.2c0,0.1,0,0.2-0.1,0.3c0,0.1,0,0.2,0,0.2c0,0,0,0.1,0,0.1v0c0,0.1,0,0.2,0,0.2
					c0,0.6-0.1,1-0.8,1c-2,0-4.8-0.5-4.8-2.1v-0.1c0,0,0-0.1,0-0.1c0-0.1,0-0.1,0-0.2c0-0.1,0-0.1,0-0.2s0-0.1,0.1-0.2
					s0-0.2,0.1-0.2l0.1-0.2c0-0.2,0.1-0.3,0.2-0.6c0-0.1,0.1-0.2,0.1-0.2c0.2-0.5,0.3-1,0.6-1.6c0.1-0.1,0.1-0.2,0.1-0.3
					c0.2-0.4,0.3-0.9,0.5-1.3c0.1-0.2,0.2-0.4,0.2-0.6c0-0.1,0-0.1,0.1-0.1c0.2-0.4,0.3-0.8,0.5-1.3c0.1-0.3,0.2-0.6,0.3-0.8
					l3.7-8.9c0.1-0.2,0.1-0.3,0.2-0.5c0,0,0,0,0,0c0.1-0.2,0.2-0.4,0.2-0.6c0.1-0.2,0.2-0.4,0.2-0.6l0.1-0.3
					c0.1-0.1,0.1-0.2,0.1-0.4c0.3-0.8,0.5-1.5,0.7-2.1c0-0.1,0.1-0.2,0.1-0.3v0c0-0.1,0.1-0.2,0.1-0.3c0-0.1,0-0.1,0-0.2
					c0-0.2,0-0.3,0.1-0.5c0-0.4,0.4-0.7,1.2-0.7C80.1,95.7,82.5,97.7,82.5,98.9z"/>
			</g>
			<g id="P">
				<path class="st2" d="M72.6,101.9c0,0.2,0,0.4,0,0.6c0,0.1,0,0.2,0,0.3c0,0.2-0.1,0.5-0.1,0.7c0,0.1,0,0.1,0,0.1c0,0,0,0.1,0,0.1
					c0,0.1,0,0.2-0.1,0.3c-0.1,0.3-0.2,0.6-0.3,0.8c0,0.1-0.1,0.2-0.1,0.3c0,0.1-0.1,0.2-0.1,0.2c0,0,0,0.1-0.1,0.1
					c0,0.1-0.1,0.2-0.1,0.2c-0.4,0.7-0.8,1.4-1.4,2c-0.1,0.1-0.1,0.2-0.2,0.2c-0.2,0.2-0.4,0.4-0.6,0.6c-0.2,0.1-0.3,0.3-0.5,0.4
					c0,0-0.1,0.1-0.2,0.1c-0.1,0.1-0.2,0.1-0.3,0.2c0,0-0.1,0-0.1,0.1c-0.1,0.1-0.3,0.2-0.4,0.2c0,0-0.1,0.1-0.2,0.1
					c-0.1,0.1-0.3,0.2-0.4,0.2c-0.1,0.1-0.2,0.1-0.3,0.1c-0.1,0.1-0.2,0.1-0.4,0.2c0,0-0.1,0-0.1,0c-0.2,0.1-0.3,0.1-0.5,0.2
					c-0.1,0-0.2,0.1-0.2,0.1s-0.2,0.1-0.2,0.1c-0.1,0-0.2,0.1-0.2,0.1c-0.2,0.1-0.5,0.1-0.8,0.2c-0.1,0-0.3,0-0.4,0.1
					c-0.1,0-0.2,0-0.2,0c-0.3,0-0.6,0-1,0.1c-2.9,0-5-1.7-5-2.8c0-0.2,0.2-0.4,0.4-0.5c0.6,0.2,1.2,0.4,1.9,0.4c3,0,6.1-3.1,6.1-7.7
					c0-3.2-2.2-4.6-4.1-4.6c-0.6,0-1,0.6-1.6,2.1c-3,6.7-6.4,14.6-8.1,22.7c-0.2,0.8-0.3,1.3-1,1.3c-2,0-5.4-0.5-5.4-2.1
					c0-2,5.4-16.8,7.9-21.5c0.5-1,1.3-1.9,2.2-2.5c-4.1,0.5-9.5,2.9-9.5,7.5c0,2.7,1.1,3.3,1.1,3.8c0,0.2-0.2,0.4-0.7,0.4
					c-2.1,0-6.3-2-6.3-6c0-5.8,7.2-8.7,17.5-8.7c0.5,0,1,0,1.4,0c0.1,0,0.1,0,0.2,0c0.2,0,0.3,0,0.5,0c0.3,0,0.7,0.1,1.1,0.1
					c0.2,0,0.3,0,0.5,0.1c0.1,0,0.2,0,0.3,0c0.1,0,0.2,0,0.3,0c0.2,0,0.3,0.1,0.5,0.1c0.2,0,0.5,0.1,0.8,0.1c0.2,0,0.4,0.1,0.6,0.1
					c0.1,0,0.2,0,0.3,0.1l0.3,0.1c0.3,0.1,0.6,0.2,0.8,0.2c0.1,0,0.2,0.1,0.3,0.1c0.1,0,0.2,0.1,0.2,0.1l0.2,0.1
					c0.2,0.1,0.4,0.2,0.6,0.2c0.2,0.1,0.4,0.2,0.5,0.2c0.1,0,0.2,0.1,0.2,0.1c0.1,0.1,0.2,0.1,0.3,0.2c0.1,0,0.1,0.1,0.2,0.1
					c0.1,0.1,0.2,0.1,0.3,0.2c0.2,0.1,0.4,0.2,0.6,0.4c0.1,0.1,0.2,0.2,0.3,0.2c0.1,0,0.1,0.1,0.2,0.2c0.2,0.2,0.4,0.3,0.6,0.5
					c0.1,0.1,0.2,0.2,0.3,0.3c0.1,0.1,0.2,0.2,0.3,0.4c0.1,0.1,0.2,0.2,0.3,0.4c0.1,0.1,0.2,0.2,0.2,0.3c0,0,0,0.1,0.1,0.1
					c0.1,0.1,0.1,0.2,0.2,0.3c0,0.1,0.1,0.1,0.1,0.2c0.1,0.3,0.2,0.6,0.3,0.8c0,0.1,0.1,0.1,0.1,0.2c0,0.1,0.1,0.2,0.1,0.3
					c0,0.1,0.1,0.2,0.1,0.3c0,0.1,0,0.1,0,0.2c0.1,0.3,0.1,0.6,0.1,0.8c0,0.1,0,0.3,0,0.4C72.6,101.6,72.6,101.8,72.6,101.9z"/>
			</g>
		</g>
		<g id="Scritta">
			<g id="y-2">
				
					<linearGradient id="SVGID_1_" gradientUnits="userSpaceOnUse" x1="133.6687" y1="394.1931" x2="133.6687" y2="364.9397" gradientTransform="matrix(1 0 0 -1 0 499.8898)">
					<stop  offset="0.1" style="stop-color:#EAE71B"/>
					<stop  offset="0.19" style="stop-color:#E3E41F"/>
					<stop  offset="0.3" style="stop-color:#D5DF27"/>
					<stop  offset="0.44" style="stop-color:#BCD631"/>
					<stop  offset="0.58" style="stop-color:#9BCB3C"/>
					<stop  offset="0.73" style="stop-color:#73C053"/>
					<stop  offset="0.89" style="stop-color:#46B972"/>
					<stop  offset="1" style="stop-color:#09B68D"/>
				</linearGradient>
				<path class="st3" d="M140.4,105.7c-0.4-0.1-0.8,0.2-0.8,0.6c0,0,0,0.1,0,0.1c0,3.1-1,6.2-2.8,8.8c-0.7,1-1.8,1.7-3,1.9
					c-0.4,0-0.7-0.2-0.8-0.6c0-0.1,0-0.1,0-0.2c0-2.1,2.5-4.6,2.5-7c0-1.8-2.1-3.6-4.2-3.6c-0.8,0-1.2,0.3-1.2,0.7
					c0,3.4-3.8,8.5-3.8,11.6c0,2.1,1.4,3,3.4,3c4,0,6.1-2.5,6.5-2.5c0,0,0.1,0,0.1,0.1c0,0,0,0,0,0c0,0.1-0.1,0.2-0.1,0.3
					c-1.3,3.8-3.7,10.5-10,10.5c-2.6,0-3.1-1-3.7-1c-0.3,0-0.6,0.3-0.6,0.6c0,0,0,0,0,0v0c0,1.4,2.7,5.8,8,5.8
					c7.8,0,10.1-10.3,12.4-17.2c1.4-4.1,3.1-8.1,3.1-8.9C145.4,107.5,143.5,105.7,140.4,105.7z"/>
			</g>
			<g id="t-2">
				
					<linearGradient id="SVGID_2_" gradientUnits="userSpaceOnUse" x1="121.7638" y1="400.9737" x2="121.7638" y2="378.8803" gradientTransform="matrix(1 0 0 -1 0 499.8898)">
					<stop  offset="0.1" style="stop-color:#EAE71B"/>
					<stop  offset="0.25" style="stop-color:#E4E51E"/>
					<stop  offset="0.43" style="stop-color:#D9E024"/>
					<stop  offset="0.62" style="stop-color:#C2D82E"/>
					<stop  offset="0.81" style="stop-color:#A6CE38"/>
					<stop  offset="1" style="stop-color:#86C440"/>
				</linearGradient>
				<path class="st4" d="M128.7,106.1c0,0.2,0,0.5-0.1,0.7c0,0.1,0,0.2-0.1,0.2c0,0.1-0.1,0.2-0.1,0.2s-0.1,0.2-0.1,0.2l-0.1,0.2
					c0,0-0.1,0.1-0.1,0.1c0,0-0.1,0.1-0.1,0.1c-0.1,0.1-0.1,0.1-0.2,0.2l-0.2,0.2c-0.1,0.1-0.2,0.1-0.2,0.2
					c-0.1,0.1-0.1,0.1-0.2,0.2c0,0,0,0-0.1,0c-0.1,0.1-0.2,0.1-0.2,0.2c0,0,0,0,0,0c-0.1,0-0.2,0.1-0.3,0.1
					c-0.1,0.1-0.2,0.1-0.3,0.1h0c-0.1,0-0.1,0-0.2,0.1l-0.2,0.1l-0.2,0.1c-0.1,0-0.1,0-0.2,0c-0.2,0-0.4,0.1-0.6,0.1
					c-0.1,0-0.2,0-0.3,0h0c-0.1,0-0.2,0-0.3,0c0,0,0,0-0.1,0c0,0.1-0.1,0.1-0.1,0.2c-0.2,0.3-0.3,0.8-0.5,1.2
					c-0.1,0.2-0.2,0.3-0.2,0.5c-0.1,0.2-0.2,0.3-0.2,0.5c-0.2,0.6-0.5,1.1-0.7,1.7c0,0.1-0.1,0.2-0.1,0.3c0,0.1-0.1,0.1-0.1,0.2
					c-0.4,1.1-1.2,3.2-1.6,4.6c0,0,0,0,0,0c0,0,0,0,0,0c0,0,0,0.1-0.1,0.1v0c-0.3,1.3-1.5,2.1-2.8,2.1c-0.2,0-0.4,0-0.6-0.1
					c-0.2,0-0.4-0.1-0.5-0.2c-1.1-0.4-1.7-1.4-1.8-2.6v-0.1l0,0c0-0.2,0-0.4,0.1-0.7c0.1-0.2,0.1-0.4,0.2-0.7
					c0.1-0.3,0.2-0.6,0.3-0.8c0.3-0.7,0.6-1.4,0.9-2.1c0-0.1,0-0.1,0.1-0.2c0.3-0.8,0.6-1.4,0.8-2c0.2-0.4,0.3-0.8,0.5-1.2v0
					c0.2-0.3,0.3-0.7,0.2-1.1c0,0,0-0.1-0.1-0.1c-0.4,0-1.2,0-1.2-0.6c0.2-1,0.6-1.9,1.3-2.7c0.1-0.1,0.2-0.2,0.3-0.2
					c0.1,0,0.1-0.1,0.1-0.1l0,0c0,0,0.1,0,0.1,0c0.3-0.1,0.6-0.1,0.9-0.1c0,0,0.1,0,0.1,0c0,0,0,0,0,0c1.1-2.7,2.1-5.1,2.1-6.2
					c0-0.4,0.4-0.7,1.2-0.7c1.8,0,4.2,1.9,4.2,3.1c-0.3,1.3-0.8,2.5-1.4,3.7c0,0,0,0.1,0,0.1c0,0,0,0,0,0h0.8c0.1,0,0.3,0,0.4,0
					c0.5-0.1,0.8-0.1,1-0.1h0.2C128.5,105.7,128.7,105.8,128.7,106.1z"/>
			</g>
			<g id="n-2">
				
					<linearGradient id="SVGID_3_" gradientUnits="userSpaceOnUse" x1="109.8439" y1="394.5134" x2="109.8439" y2="371.3069" gradientTransform="matrix(1 0 0 -1 0 499.8898)">
					<stop  offset="0.1" style="stop-color:#EAE71B"/>
					<stop  offset="0.19" style="stop-color:#E3E41F"/>
					<stop  offset="0.3" style="stop-color:#D5DF27"/>
					<stop  offset="0.44" style="stop-color:#BCD631"/>
					<stop  offset="0.58" style="stop-color:#9BCB3C"/>
					<stop  offset="0.73" style="stop-color:#73C053"/>
					<stop  offset="0.89" style="stop-color:#46B972"/>
					<stop  offset="1" style="stop-color:#09B68D"/>
				</linearGradient>
				<path class="st5" d="M123.8,119.2c-0.1-0.3-0.5-0.5-0.8-0.3c0,0,0,0,0,0c0,0,0,0,0,0c0,0,0,0,0,0c-0.1,0-0.2,0.1-0.2,0.3
					c-0.6,2.4-2.8,4.1-5.3,4.1c-0.4,0-0.7,0-1.1-0.1c-2.6-0.5-4.5-2.8-4.5-5.4l0,0c0-0.4,0.1-0.8,0.2-1.3c0.1-0.4,0.3-0.9,0.4-1.3
					c0.6-1.6,1.5-3.2,2.1-4.6l0-0.1c0.4-0.8,0.6-1.6,0.6-2.5c0-0.1,0-0.2,0-0.3c0,0,0-0.1,0-0.1c0-0.1,0-0.2,0-0.2
					c0-0.1,0-0.2-0.1-0.2c0,0,0-0.1,0-0.1c0-0.1-0.1-0.1-0.1-0.2c0-0.1-0.1-0.2-0.1-0.2c0,0-0.1-0.1-0.1-0.1s0-0.1-0.1-0.1
					c0,0-0.1-0.1-0.1-0.1c0,0,0-0.1-0.1-0.1l-0.2-0.2c-0.1-0.1-0.1-0.1-0.2-0.2c-0.1-0.1-0.1-0.1-0.2-0.1l0,0c0,0-0.1-0.1-0.1-0.1
					c0,0,0,0,0,0c0,0,0,0,0,0c0,0-0.1,0-0.1-0.1c-0.1-0.1-0.3-0.2-0.5-0.2c0,0-0.1,0-0.1,0h0c-0.1,0-0.2-0.1-0.2-0.1
					c-0.1,0-0.2-0.1-0.3-0.1c0,0-0.1,0-0.2,0c-0.2,0-0.4-0.1-0.7-0.1c-3.9,0-6.8,3.1-6.9,3.1c-0.4-1.9-2.2-3.3-4.2-3.1
					c-0.8,0-1.2,0.3-1.2,0.7v0.2c0,0.1,0,0.1,0,0.2c0,0.1,0,0.2,0,0.2c0,0.1,0,0.1,0,0.2c0,0.3-0.1,0.7-0.2,1c0,0.2-0.1,0.3-0.1,0.5
					c-0.2,0.5-0.3,1.1-0.6,1.7c-0.1,0.2-0.2,0.5-0.3,0.8c-0.2,0.5-0.4,0.9-0.6,1.4c-0.1,0.2-0.1,0.3-0.2,0.4
					c-0.5,1.1-0.9,2.2-1.3,3.3c0,0.1,0,0.1-0.1,0.2c-0.1,0.3-0.2,0.7-0.3,1c0,0.1-0.1,0.2-0.1,0.2c0,0.1-0.1,0.3-0.1,0.4
					c0,0.1-0.1,0.2-0.1,0.4c0,0.1,0,0.3-0.1,0.4c0,0,0,0.1,0,0.1c0,0.1,0,0.2,0,0.2c0,0.1,0,0.1,0,0.2v0c0,0.1,0,0.1,0.1,0.2
					l0.1,0.2c0,0,0,0.1,0.1,0.1c0,0.1,0.1,0.1,0.2,0.2c0,0,0.1,0.1,0.2,0.1c0.1,0.1,0.3,0.2,0.4,0.3c0.1,0.1,0.2,0.1,0.3,0.1
					c0.1,0.1,0.2,0.1,0.3,0.1c0,0,0,0,0.1,0c0.1,0,0.2,0.1,0.4,0.1c0.1,0,0.2,0.1,0.3,0.1c0.1,0,0.3,0.1,0.4,0.1s0.3,0.1,0.4,0.1
					l0.4,0.1c0.1,0,0.2,0,0.3,0c0.2,0,0.3,0,0.5,0c0.2,0,0.3,0,0.4,0c0.7,0,0.8-0.4,0.8-1c0-1.9,1.8-5.6,3.3-8
					c1.3-1.9,2.7-2.9,3.3-2.9c0.3,0,0.7,0.2,0.7,0.6c0,0,0,0.1,0,0.1c0,1-1.3,2.8-2.4,5.2c-0.1,0.2-0.2,0.4-0.3,0.7c0,0,0,0.1,0,0.1
					c-2,4.7,0.2,10.2,4.9,12.2c1.1,0.5,2.2,0.7,3.4,0.7h0.2c4.1,0.1,7.9-2.5,9.3-6.3l0,0c0.1-0.3,0.2-0.7,0.2-1.1c0-0.3,0-0.6,0-0.8
					C124,120,123.9,119.6,123.8,119.2z M107.9,120.6L107.9,120.6L107.9,120.6z"/>
			</g>
			<g id="a-2">
				
					<linearGradient id="SVGID_4_" gradientUnits="userSpaceOnUse" x1="87.4549" y1="394.4879" x2="87.4549" y2="378.9787" gradientTransform="matrix(1 0 0 -1 0 499.8898)">
					<stop  offset="0.1" style="stop-color:#EAE71B"/>
					<stop  offset="0.19" style="stop-color:#E3E41F"/>
					<stop  offset="0.3" style="stop-color:#D5DF27"/>
					<stop  offset="0.44" style="stop-color:#BCD631"/>
					<stop  offset="0.58" style="stop-color:#9BCB3C"/>
					<stop  offset="0.73" style="stop-color:#73C053"/>
					<stop  offset="0.89" style="stop-color:#46B972"/>
					<stop  offset="1" style="stop-color:#09B68D"/>
				</linearGradient>
				<path class="st6" d="M97,108.5c-0.1-0.5-0.5-1-0.9-1.3c-1.6-1.2-3.5-1.8-5.4-1.8c-3.7,0-7.2,1.7-9.6,4.4c-1.9,2-3,4.5-3.1,7.2
					v0.1c0,2.4,1.4,3.8,3.6,3.8c3.9,0,6.1-2.4,6.6-2.4c0.3,0,1.6,2.2,4.7,2.4c0.2,0,0.3,0,0.5,0c0.4,0,0.7-0.2,0.7-0.5
					c-0.2-0.6-0.3-1.3-0.3-1.9C93.6,113.2,97,109.4,97,108.5z M84.9,116.8c-0.4,0-0.7-0.3-0.8-0.7c0,0,0-0.1,0-0.1
					c0-2.8,3.5-7.7,6.1-7.7c0.3,0,0.5,0.2,0.5,0.6C90.8,109.8,87.2,116.8,84.9,116.8z"/>
			</g>
			<g id="l-2">
				
					<linearGradient id="SVGID_5_" gradientUnits="userSpaceOnUse" x1="74.833" y1="404.6927" x2="74.833" y2="378.9807" gradientTransform="matrix(1 0 0 -1 0 499.8898)">
					<stop  offset="0.1" style="stop-color:#EAE71B"/>
					<stop  offset="0.19" style="stop-color:#E3E41F"/>
					<stop  offset="0.3" style="stop-color:#D5DF27"/>
					<stop  offset="0.44" style="stop-color:#BCD631"/>
					<stop  offset="0.58" style="stop-color:#9BCB3C"/>
					<stop  offset="0.73" style="stop-color:#73C053"/>
					<stop  offset="0.89" style="stop-color:#46B972"/>
					<stop  offset="1" style="stop-color:#09B68D"/>
				</linearGradient>
				<path class="st7" d="M81.7,98.3L81.7,98.3c0,0.1,0,0.2,0,0.2c0,0,0,0.1,0,0.1c0,0.1,0,0.1,0,0.2v0c0,0,0,0.1-0.1,0.2
					c0,0,0,0,0,0.1c0,0.1,0,0.2-0.1,0.3c-0.2,0.8-0.6,1.7-1.1,2.9c-0.1,0.2-0.2,0.4-0.2,0.6c-0.2,0.5-0.4,1-0.6,1.5
					c-0.1,0.2-0.2,0.3-0.2,0.5c-0.2,0.3-0.3,0.7-0.5,1.1c-0.1,0.2-0.2,0.4-0.2,0.6c-0.1,0.2-0.2,0.4-0.2,0.6
					c-0.1,0.3-0.2,0.5-0.3,0.8v0c-0.8,1.8-1.6,3.6-2.3,5.2c-0.1,0.2-0.2,0.5-0.3,0.8c-0.1,0.1-0.1,0.3-0.2,0.4
					c-0.1,0.2-0.2,0.5-0.3,0.7c-0.1,0.2-0.1,0.3-0.2,0.4c-0.1,0.2-0.2,0.4-0.2,0.6c-0.1,0.1-0.1,0.2-0.1,0.3
					c-0.3,0.8-0.5,1.6-0.8,2.4c0,0.1,0,0.1,0,0.2c0,0.1,0,0.2-0.1,0.3c0,0.1,0,0.2,0,0.2c0,0,0,0.1,0,0.1v0c0,0.1,0,0.2,0,0.2
					c0,0.6-0.1,1-0.8,1c-2,0-4.8-0.5-4.8-2.1v-0.1c0,0,0-0.1,0-0.1c0-0.1,0-0.1,0-0.2c0-0.1,0-0.1,0-0.2s0-0.1,0.1-0.2
					s0-0.2,0.1-0.2l0.1-0.2c0-0.2,0.1-0.3,0.2-0.6c0-0.1,0.1-0.2,0.1-0.2c0.2-0.5,0.3-1,0.6-1.6c0.1-0.1,0.1-0.2,0.1-0.3
					c0.2-0.4,0.3-0.9,0.5-1.3c0.1-0.2,0.2-0.4,0.2-0.6c0-0.1,0-0.1,0.1-0.1c0.2-0.4,0.3-0.8,0.5-1.3c0.1-0.3,0.2-0.6,0.3-0.8
					l3.7-8.9c0.1-0.2,0.1-0.3,0.2-0.5c0,0,0,0,0,0c0.1-0.2,0.2-0.4,0.2-0.6c0.1-0.2,0.2-0.4,0.2-0.6l0.1-0.3
					c0.1-0.1,0.1-0.2,0.1-0.4c0.3-0.8,0.5-1.5,0.7-2.1c0-0.1,0.1-0.2,0.1-0.3v0c0-0.1,0.1-0.2,0.1-0.3c0-0.1,0-0.1,0-0.2
					c0-0.2,0-0.3,0.1-0.5c0-0.4,0.4-0.7,1.2-0.7C79.3,95.2,81.7,97.1,81.7,98.3z"/>
			</g>
			<g id="P-2">
				
					<linearGradient id="SVGID_6_" gradientUnits="userSpaceOnUse" x1="55.8898" y1="407.727" x2="55.8898" y2="378.6137" gradientTransform="matrix(1 0 0 -1 0 499.8898)">
					<stop  offset="0.1" style="stop-color:#EAE71B"/>
					<stop  offset="0.19" style="stop-color:#E3E41F"/>
					<stop  offset="0.3" style="stop-color:#D5DF27"/>
					<stop  offset="0.44" style="stop-color:#BCD631"/>
					<stop  offset="0.58" style="stop-color:#9BCB3C"/>
					<stop  offset="0.73" style="stop-color:#73C053"/>
					<stop  offset="0.89" style="stop-color:#46B972"/>
					<stop  offset="1" style="stop-color:#09B68D"/>
				</linearGradient>
				<path class="st8" d="M71.7,101.4c0,0.2,0,0.4,0,0.6c0,0.1,0,0.2,0,0.3c0,0.2-0.1,0.5-0.1,0.7c0,0.1,0,0.1,0,0.1c0,0,0,0.1,0,0.1
					c0,0.1,0,0.2-0.1,0.3c-0.1,0.3-0.2,0.6-0.3,0.8c0,0.1-0.1,0.2-0.1,0.3c0,0.1-0.1,0.2-0.1,0.2c0,0,0,0.1-0.1,0.1
					c0,0.1-0.1,0.2-0.1,0.2c-0.4,0.7-0.8,1.4-1.4,2c-0.1,0.1-0.1,0.2-0.2,0.2c-0.2,0.2-0.4,0.4-0.6,0.6c-0.2,0.1-0.3,0.3-0.5,0.4
					c0,0-0.1,0.1-0.2,0.1c-0.1,0.1-0.2,0.1-0.3,0.2c0,0-0.1,0-0.1,0.1c-0.1,0.1-0.3,0.2-0.4,0.2c0,0-0.1,0.1-0.2,0.1
					c-0.1,0.1-0.3,0.2-0.4,0.2c-0.1,0.1-0.2,0.1-0.3,0.1c-0.1,0.1-0.2,0.1-0.4,0.2c0,0-0.1,0-0.1,0c-0.2,0.1-0.3,0.1-0.5,0.2
					c-0.1,0-0.2,0.1-0.2,0.1s-0.2,0.1-0.2,0.1c-0.1,0-0.2,0.1-0.2,0.1c-0.2,0.1-0.5,0.1-0.8,0.2c-0.1,0-0.3,0-0.4,0.1
					c-0.1,0-0.2,0-0.2,0c-0.3,0-0.6,0-1,0.1c-2.9,0-5-1.7-5-2.8c0-0.2,0.2-0.4,0.4-0.5c0.6,0.2,1.2,0.4,1.9,0.4c3,0,6.1-3.1,6.1-7.7
					c0-3.2-2.2-4.6-4.1-4.6c-0.6,0-1,0.6-1.6,2.1c-3,6.7-6.4,14.6-8.1,22.7c-0.2,0.8-0.3,1.3-1,1.3c-2,0-5.4-0.5-5.4-2.1
					c0-2,5.4-16.8,7.9-21.5c0.5-1,1.3-1.9,2.2-2.5c-4.1,0.6-9.5,2.9-9.5,7.5c0,2.7,1.1,3.3,1.1,3.8c0,0.2-0.2,0.4-0.7,0.4
					c-2.1,0-6.3-2-6.3-6c0-5.8,7.2-8.7,17.5-8.7c0.5,0,1,0,1.4,0c0.1,0,0.1,0,0.2,0c0.2,0,0.3,0,0.5,0c0.3,0,0.7,0,1.1,0.1
					c0.2,0,0.3,0,0.5,0.1c0.1,0,0.2,0,0.3,0c0.1,0,0.2,0,0.3,0c0.2,0,0.3,0.1,0.5,0.1c0.2,0,0.5,0.1,0.8,0.1c0.2,0,0.4,0.1,0.6,0.1
					c0.1,0,0.2,0,0.3,0.1l0.3,0.1c0.3,0.1,0.6,0.2,0.8,0.2c0.1,0,0.2,0.1,0.3,0.1c0.1,0,0.2,0.1,0.2,0.1l0.2,0.1
					c0.2,0.1,0.4,0.2,0.6,0.2s0.4,0.2,0.5,0.2c0.1,0,0.2,0.1,0.2,0.1c0.1,0,0.2,0.1,0.3,0.2c0.1,0,0.1,0.1,0.2,0.1
					c0.1,0,0.2,0.1,0.3,0.2c0.2,0.1,0.4,0.2,0.6,0.4c0.1,0.1,0.2,0.2,0.3,0.2c0.1,0.1,0.1,0.1,0.2,0.2c0.2,0.2,0.4,0.3,0.6,0.5
					c0.1,0.1,0.2,0.2,0.3,0.3c0.1,0.1,0.2,0.2,0.3,0.4c0.1,0.1,0.2,0.2,0.3,0.4c0.1,0.1,0.2,0.2,0.2,0.3c0,0,0,0.1,0.1,0.1
					c0.1,0.1,0.1,0.2,0.2,0.3c0,0.1,0.1,0.1,0.1,0.2c0.1,0.3,0.2,0.6,0.3,0.8c0,0.1,0.1,0.1,0.1,0.2c0,0.1,0.1,0.2,0.1,0.3
					c0,0.1,0.1,0.2,0.1,0.3c0,0.1,0,0.1,0,0.2c0.1,0.3,0.1,0.6,0.1,0.8c0,0.1,0,0.3,0,0.4C71.7,101.1,71.7,101.2,71.7,101.4z"/>
			</g>
		</g>
	</g>
	<g id="Livello_2-2">
		<g id="Sfondo-2">
			<path class="st1" d="M340.2,109c0,1-0.4,2.1-1.5,5.1c-0.6,1.5-1.2,3.2-1.8,4.9l0,0c-0.2,0.8-0.5,1.6-0.8,2.5
				c-1.1,3.5-2.4,7.5-4.4,10.7c-1,1.8-2.4,3.3-4.1,4.5c-1.8,1.3-4.1,2-6.3,2c-1.6,0-3.3-0.3-4.8-1c-1.3-0.5-2.4-1.3-3.5-2.3
				c-0.8-0.8-1.6-1.7-2.1-2.7c-0.2-0.4-0.4-0.9-0.6-1.3c-0.3,0.1-0.6,0.2-0.9,0.3c-1.3,0.4-2.7,0.6-4.1,0.6h-0.3
				c-1.1,0-2.1-0.2-3.1-0.5c-1-0.3-1.9-0.7-2.8-1.2c-2.6-1.5-4.5-3.9-5.5-6.7c-0.2,0.1-0.4,0.2-0.6,0.3c-0.5,0.2-1.1,0.3-1.7,0.3
				c-0.2,0-0.4,0-0.5,0c-0.2,0-0.4,0-0.6,0c-0.1,0-0.3,0-0.4,0h0c-0.1,0-0.3,0-0.5-0.1c-0.1,0-0.4-0.1-0.6-0.1
				c-0.2,0-0.3-0.1-0.5-0.1l-0.1,0c-0.1,0-0.3-0.1-0.5-0.1l-0.5-0.2c0,0-0.1,0-0.1,0h0c-0.2-0.1-0.4-0.1-0.5-0.2h0
				c-0.7,0.6-1.6,0.9-2.5,0.9c-0.3,0-0.5,0-0.7,0c-1.7-0.1-3.4-0.7-4.8-1.7c-0.5,0.3-1,0.5-1.5,0.7c-1.5,0.6-3.2,1-4.9,1
				c-0.9,0-1.8-0.2-2.6-0.5c-0.9-0.3-1.6-0.9-2.3-1.5c-0.1-0.1-0.2-0.2-0.3-0.3c-0.1,0.2-0.2,0.5-0.4,0.7c-0.4,0.6-1,1.1-1.6,1.4
				c-0.5,0.2-1.1,0.3-1.7,0.3c-1.4,0-2.8-0.2-4.2-0.6c-0.8-0.3-1.6-0.7-2.3-1.3c-0.9-0.8-1.5-2-1.5-3.3c0-0.1,0-0.2,0-0.3
				c0-0.1,0-0.2,0-0.3c0-0.1,0-0.2,0-0.3v0c0-0.1,0-0.2,0.1-0.3v0c0-0.1,0-0.2,0.1-0.3c0-0.1,0-0.2,0.1-0.3c0-0.1,0-0.1,0.1-0.2l0,0
				l0,0c0.1-0.2,0.1-0.4,0.2-0.7c0,0,0,0,0,0c0-0.1,0-0.2,0.1-0.2c0.2-0.5,0.4-1.1,0.6-1.8c0-0.1,0-0.1,0.1-0.2c0,0,0-0.1,0-0.1
				c0,0,0-0.1,0-0.1c0.1-0.3,0.2-0.7,0.4-1c-0.1,0.1-0.3,0.1-0.5,0.2h0c-0.1,0-0.2,0-0.2,0.1c-0.1,0-0.2,0.1-0.2,0.1l0,0
				c-0.1,0-0.2,0.1-0.3,0.1h0c-0.3,0.1-0.7,0.2-1,0.2c-0.2,0-0.4,0.1-0.5,0.1c-0.1,0-0.1,0-0.2,0h0c0,0-0.1,0-0.1,0
				c-0.4,0-0.8,0.1-1.2,0.1c-1.8,0-3.5-0.5-5-1.3c-1,2.8-1.8,5.7-2.4,8.6c0,0,0,0,0,0.1c-0.1,0.7-0.4,1.4-0.8,2
				c-0.4,0.5-0.9,1-1.5,1.3c-0.6,0.3-1.2,0.4-1.8,0.4c-1.5,0-2.9-0.2-4.4-0.6c-0.9-0.2-1.7-0.6-2.4-1.2c-1.1-0.8-1.8-2.1-1.8-3.5
				c0.1-1.5,0.5-3,1-4.5c0.4-1.4,1-3.1,1.7-5c-1.6-0.3-3.1-1-4.4-2c-2.3-1.6-3.6-4.2-3.7-7c0-2.1,0.7-4.1,1.9-5.7
				c1.3-1.6,2.9-2.8,4.8-3.7c2-0.9,4.2-1.6,6.4-1.9c2.5-0.4,5.1-0.6,7.7-0.6c0.6,0,1.1,0,1.5,0c0.1,0,0.2,0,0.2,0c0.1,0,0.3,0,0.4,0
				c0.4,0,0.8,0,1.2,0.1c0.2,0,0.4,0,0.6,0.1c0.1,0,0.2,0,0.4,0.1c0,0,0,0,0.1,0l0.1,0c0.2,0,0.4,0.1,0.6,0.1
				c0.3,0.1,0.6,0.1,0.9,0.2c0.2,0,0.5,0.1,0.7,0.2c0.2,0,0.3,0.1,0.5,0.1c0.1,0,0.2,0.1,0.4,0.1c0.3,0.1,0.6,0.2,1,0.3
				c0.1,0,0.3,0.1,0.4,0.1c0.1,0,0.2,0.1,0.3,0.1c0.1,0,0.2,0.1,0.2,0.1l0,0c0.2,0.1,0.5,0.2,0.7,0.3c0.2,0.1,0.4,0.2,0.6,0.3
				c0.1,0.1,0.3,0.1,0.4,0.2l0.1,0.1l0.1,0c0.1,0.1,0.3,0.1,0.4,0.2c0.1,0.1,0.2,0.1,0.3,0.2c0.2,0.2,0.5,0.3,0.7,0.5
				c0.1,0.1,0.3,0.2,0.4,0.3l0,0c0.1,0.1,0.2,0.2,0.3,0.2c0.2,0.2,0.5,0.4,0.7,0.7l0,0c0.1,0.2,0.3,0.3,0.4,0.5
				c0.2,0.2,0.3,0.4,0.5,0.6c0.1,0.2,0.2,0.3,0.4,0.5c0.1,0.1,0.1,0.2,0.2,0.2c0.3-2.1,2.2-3.5,4.3-3.4c0.9,0,1.8,0.2,2.6,0.6
				c0.7,0.3,1.4,0.7,2.1,1.2c1,0.8,2.7,2.4,2.7,4.5c0,0.1,0,0.3,0,0.4c0,0.2,0,0.3-0.1,0.5c0,0,0,0.1,0,0.1c0,0.1,0,0.2-0.1,0.3
				c0,0,0,0,0,0.1v0c0,0,0,0,0,0c0,0.1,0,0.1,0,0.2c0,0.1,0,0.2-0.1,0.2c0,0,0,0.1,0,0.1l0,0c-0.2,0.8-0.6,1.8-1.2,3.2c0,0,0,0,0,0
				c0,0.1,0,0.1-0.1,0.2c0,0.1-0.1,0.2-0.1,0.3l0,0c0,0.1-0.1,0.2-0.1,0.3c0.3-0.2,0.6-0.3,0.9-0.5c2.1-1,4.4-1.6,6.8-1.6
				c1.5,0,2.9,0.3,4.3,0.8c0.8,0.3,1.5,0.6,2.2,1.1c0.3-0.5,0.7-0.9,1.1-1.2c0.8-0.5,1.7-0.7,2.6-0.7c1.8-0.1,3.7,0.6,5.1,1.8
				c1.8-1.1,4-1.7,6.1-1.8c0.3,0,0.7,0,1,0.1c0.1,0,0.2,0,0.3,0l0.5,0.1c0.2,0,0.3,0.1,0.4,0.1c0.1,0,0.1,0,0.2,0.1l0,0h0
				c0.3,0.1,0.7,0.3,1,0.4l0,0l0,0c0.1,0,0.1,0.1,0.2,0.1c0.1,0,0.2,0.1,0.2,0.2l0,0c0.1,0.1,0.2,0.2,0.3,0.2l0,0
				c0.2-0.2,0.5-0.3,0.7-0.4c0.1,0,0.2-0.1,0.3-0.1c0.3-0.7,0.5-1.4,0.8-1.9c0.2-0.5,0.4-1.1,0.5-1.6c0-1.3,0.7-2.4,1.8-3.1
				c0.8-0.5,1.7-0.7,2.6-0.7c0.9,0,1.8,0.2,2.6,0.5c0.7,0.3,1.4,0.7,2.1,1.2c0.6,0.5,1.2,1.1,1.7,1.7c0.6,0.8,1,1.8,1,2.8
				c0,0.1,0,0.3,0,0.4c0.5-0.2,1.1-0.2,1.6-0.2c0.3,0,0.5,0,0.8,0.1c1.7,0.2,3.3,0.9,4.5,2.1l0.2,0.2c0.2-0.5,0.5-1,1-1.4
				c0.8-0.7,1.7-1,2.7-1c2,0,3.9,0.5,5.5,1.7c0.7,0.5,1.3,1.2,1.8,1.9C339.9,107.1,340.2,108.1,340.2,109z"/>
		</g>
		<g id="Livello_4-2">
			<g id="y-2-2">
				<path class="st2" d="M332.1,106.3c-0.4-0.1-0.8,0.2-0.8,0.6c0,0,0,0.1,0,0.1c0,3.1-1,6.2-2.8,8.8c-0.7,1-1.8,1.7-3,1.9
					c-0.4,0-0.7-0.2-0.8-0.6c0-0.1,0-0.1,0-0.2c0-2.1,2.5-4.6,2.5-7c0-1.8-2.1-3.6-4.2-3.6c-0.8,0-1.2,0.3-1.2,0.7
					c0,3.4-3.8,8.5-3.8,11.6c0,2.1,1.4,3,3.4,3c4,0,6.1-2.5,6.5-2.5c0,0,0.1,0,0.1,0.1c0,0,0,0,0,0c0,0.1,0,0.2,0,0.3
					c-1.3,3.8-3.7,10.5-10,10.5c-2.6,0-3.1-1-3.7-1c-0.3,0-0.6,0.3-0.6,0.6c0,0,0,0,0,0v0c0,1.4,2.7,5.8,8,5.8
					c7.8,0,10.1-10.3,12.4-17.2c1.4-4.1,3.1-8.1,3.1-8.9C337.1,108,335.2,106.3,332.1,106.3z"/>
			</g>
			<g id="t-2-2">
				<path class="st2" d="M320.4,106.7c0,0.2,0,0.5-0.1,0.7c0,0.1,0,0.2-0.1,0.2c0,0.1,0,0.2-0.1,0.2c0,0.1-0.1,0.2-0.1,0.2l-0.1,0.2
					c0,0-0.1,0.1-0.1,0.1c0,0,0,0.1-0.1,0.1c-0.1,0.1-0.1,0.1-0.2,0.2l-0.2,0.2c-0.1,0.1-0.2,0.1-0.2,0.2c-0.1,0.1-0.1,0.1-0.2,0.2
					c0,0,0,0-0.1,0c-0.1,0.1-0.2,0.1-0.2,0.2c0,0,0,0,0,0c-0.1,0-0.2,0.1-0.3,0.1c-0.1,0.1-0.2,0.1-0.3,0.1h0c0,0-0.1,0-0.2,0.1
					l-0.2,0.1l-0.2,0.1c-0.1,0-0.1,0-0.2,0c-0.2,0-0.4,0.1-0.6,0.1c-0.1,0-0.2,0-0.4,0h0c-0.1,0-0.2,0-0.4,0c0,0,0,0,0,0
					c0,0.1-0.1,0.1-0.1,0.2c-0.2,0.3-0.4,0.8-0.5,1.2c-0.1,0.2-0.1,0.3-0.2,0.5c-0.1,0.2-0.1,0.3-0.2,0.5c-0.2,0.6-0.5,1.1-0.7,1.7
					c0,0.1-0.1,0.2-0.1,0.3c0,0.1-0.1,0.1-0.1,0.2c-0.5,1.1-1.2,3.2-1.6,4.6c0,0,0,0,0,0c0,0,0,0,0,0c0,0,0,0.1,0,0.1v0
					c-0.3,1.3-1.5,2.1-2.8,2.1c-0.2,0-0.4,0-0.5-0.1c-0.2,0-0.4-0.1-0.5-0.2c-1.1-0.4-1.7-1.4-1.8-2.6v-0.1l0,0c0-0.2,0-0.4,0.1-0.7
					c0.1-0.2,0.1-0.4,0.2-0.7c0.1-0.3,0.2-0.6,0.4-0.8c0.3-0.7,0.6-1.4,0.9-2.1c0-0.1,0-0.1,0.1-0.2c0.3-0.8,0.6-1.4,0.8-2
					c0.2-0.4,0.3-0.8,0.5-1.2v0c0.2-0.3,0.3-0.7,0.2-1.1c0,0,0-0.1-0.1-0.1c-0.5,0-1.2,0-1.2-0.6c0.2-1,0.6-1.9,1.3-2.7
					c0.1-0.1,0.2-0.2,0.4-0.2c0,0,0.1-0.1,0.1-0.1l0,0c0,0,0.1,0,0.1,0c0.3-0.1,0.6-0.1,0.9-0.1c0,0,0.1,0,0.1,0c0,0,0,0,0,0
					c1.1-2.7,2.1-5.1,2.1-6.2c0-0.4,0.4-0.7,1.2-0.7c1.8,0,4.2,1.9,4.2,3.1c-0.3,1.3-0.8,2.5-1.4,3.7c0,0,0,0.1,0,0.1c0,0,0,0,0,0
					h0.9c0.1,0,0.3,0,0.5,0c0.5-0.1,0.8-0.1,1-0.1h0.2C320.2,106.2,320.4,106.4,320.4,106.7z"/>
			</g>
			<g id="n-2-2">
				<path class="st2" d="M315.5,119.8c-0.1-0.3-0.5-0.5-0.8-0.3c0,0,0,0,0,0c0,0,0,0,0,0c0,0,0,0,0,0c-0.1,0-0.1,0.1-0.2,0.3
					c-0.6,2.4-2.8,4.1-5.3,4.1c-0.4,0-0.7,0-1-0.1c-2.6-0.5-4.5-2.8-4.5-5.4l0,0c0-0.4,0.1-0.8,0.2-1.3c0.1-0.4,0.3-0.9,0.4-1.3
					c0.6-1.6,1.5-3.2,2.1-4.6l0-0.1c0.4-0.8,0.6-1.6,0.6-2.5c0-0.1,0-0.2,0-0.3c0,0,0-0.1,0-0.1c0-0.1,0-0.2,0-0.2
					c0-0.1,0-0.2,0-0.2c0,0,0-0.1,0-0.1c0-0.1,0-0.1-0.1-0.2c0-0.1-0.1-0.2-0.1-0.2c0,0,0-0.1-0.1-0.1s0-0.1,0-0.1
					c0,0-0.1-0.1-0.1-0.1c0,0,0-0.1-0.1-0.1l-0.1-0.2c-0.1-0.1-0.1-0.1-0.2-0.2c-0.1-0.1-0.1-0.1-0.2-0.1l0,0c0,0-0.1-0.1-0.1-0.1
					c0,0,0,0,0,0c0,0,0,0,0,0c0,0,0,0-0.1-0.1c-0.1-0.1-0.3-0.2-0.5-0.2c0,0-0.1,0-0.1,0h0c-0.1,0-0.2-0.1-0.2-0.1
					c-0.1,0-0.2-0.1-0.3-0.1c0,0-0.1,0-0.1,0c-0.2,0-0.4-0.1-0.7-0.1c-3.9,0-6.8,3.1-6.9,3.1c-0.4-1.9-2.2-3.3-4.2-3.1
					c-0.8,0-1.2,0.3-1.2,0.7v0.2c0,0.1,0,0.1,0,0.2c0,0.1,0,0.2,0,0.2c0,0.1,0,0.1,0,0.2c0,0.3-0.1,0.7-0.2,1c0,0.2-0.1,0.3-0.1,0.5
					c-0.1,0.5-0.3,1.1-0.5,1.7c-0.1,0.2-0.2,0.5-0.3,0.8c-0.2,0.5-0.4,0.9-0.6,1.4c-0.1,0.2-0.1,0.3-0.2,0.4
					c-0.5,1.1-0.9,2.2-1.3,3.3c0,0.1,0,0.1-0.1,0.2c-0.1,0.3-0.2,0.7-0.3,1c0,0.1,0,0.2-0.1,0.2c0,0.1-0.1,0.3-0.1,0.4
					c0,0.1-0.1,0.2-0.1,0.4c0,0.1,0,0.3,0,0.4c0,0,0,0.1,0,0.1c0,0.1,0,0.2,0,0.2c0,0.1,0,0.1,0,0.2v0c0,0.1,0,0.1,0,0.2l0.1,0.2
					c0,0,0,0.1,0.1,0.1c0,0.1,0.1,0.1,0.1,0.2c0,0,0.1,0.1,0.1,0.1c0.1,0.1,0.3,0.2,0.5,0.3c0.1,0.1,0.2,0.1,0.3,0.1
					c0.1,0.1,0.2,0.1,0.3,0.1c0,0,0,0,0,0c0.1,0,0.2,0.1,0.4,0.1c0.1,0,0.2,0.1,0.4,0.1c0.1,0,0.3,0.1,0.4,0.1s0.3,0.1,0.4,0.1
					l0.4,0.1c0.1,0,0.2,0,0.3,0c0.2,0,0.3,0,0.5,0c0.2,0,0.3,0,0.5,0c0.7,0,0.8-0.4,0.8-1c0-1.9,1.8-5.6,3.3-8
					c1.3-1.9,2.7-2.9,3.3-2.9c0.3,0,0.7,0.2,0.7,0.6c0,0,0,0.1,0,0.1c0,1-1.3,2.8-2.4,5.2c-0.1,0.2-0.2,0.4-0.3,0.7c0,0,0,0.1,0,0.1
					c-2,4.7,0.2,10.2,4.9,12.2c1.1,0.5,2.2,0.7,3.4,0.7h0.2c4.1,0.1,7.9-2.5,9.3-6.3l0,0c0.1-0.3,0.2-0.7,0.2-1.1c0-0.3,0-0.6,0-0.8
					C315.7,120.5,315.6,120.1,315.5,119.8z M299.6,121.2L299.6,121.2L299.6,121.2z"/>
			</g>
			<g id="a-2-2">
				<path class="st2" d="M288.7,109.1c-0.1-0.5-0.5-1-0.9-1.3c-1.6-1.2-3.5-1.8-5.4-1.8c-3.7,0-7.2,1.7-9.6,4.4
					c-1.9,2-3,4.5-3.1,7.2v0.1c0,2.4,1.4,3.8,3.6,3.8c3.9,0,6.1-2.4,6.6-2.4c0.3,0,1.6,2.2,4.7,2.4c0.2,0,0.3,0,0.5,0
					c0.4,0,0.6-0.2,0.6-0.5c-0.2-0.6-0.3-1.3-0.3-1.9C285.3,113.7,288.7,109.9,288.7,109.1z M276.7,117.3c-0.4,0-0.7-0.3-0.8-0.7
					c0,0,0-0.1,0-0.1c0-2.8,3.5-7.7,6.1-7.7c0.4,0,0.5,0.2,0.5,0.6C282.5,110.3,278.9,117.3,276.7,117.3z"/>
			</g>
			<g id="l-2-2">
				<path class="st2" d="M273.4,98.9L273.4,98.9c0,0.1,0,0.2,0,0.2c0,0,0,0.1,0,0.1c0,0,0,0.1,0,0.2v0c0,0.1,0,0.1,0,0.2
					c0,0,0,0,0,0c0,0.1,0,0.2-0.1,0.3c-0.2,0.8-0.6,1.7-1,2.9c-0.1,0.2-0.1,0.4-0.2,0.6c-0.2,0.5-0.4,1-0.6,1.5
					c-0.1,0.2-0.1,0.3-0.2,0.5c-0.1,0.3-0.3,0.7-0.5,1.1c-0.1,0.2-0.2,0.4-0.2,0.6c-0.1,0.2-0.2,0.4-0.2,0.6
					c-0.1,0.3-0.2,0.5-0.4,0.8v0c-0.8,1.8-1.6,3.6-2.3,5.2c-0.1,0.2-0.2,0.5-0.3,0.8c0,0.1-0.1,0.3-0.2,0.4
					c-0.1,0.2-0.2,0.5-0.3,0.7c-0.1,0.2-0.1,0.3-0.2,0.4c-0.1,0.2-0.2,0.4-0.2,0.6c0,0.1-0.1,0.2-0.1,0.3c-0.3,0.8-0.5,1.6-0.8,2.4
					c0,0.1,0,0.1,0,0.2c0,0.1,0,0.2,0,0.3c0,0.1,0,0.2,0,0.2c0,0,0,0.1,0,0.1v0c0,0.1,0,0.2,0,0.2c0,0.6-0.1,1-0.8,1
					c-2,0-4.8-0.5-4.8-2.1v-0.1c0,0,0-0.1,0-0.1c0-0.1,0-0.1,0-0.2c0-0.1,0-0.1,0-0.2s0-0.1,0-0.2s0-0.2,0-0.2l0-0.2
					c0.1-0.2,0.1-0.3,0.1-0.6c0-0.1,0-0.2,0.1-0.2c0.1-0.5,0.4-1,0.6-1.6c0-0.1,0.1-0.2,0.1-0.3c0.2-0.4,0.3-0.9,0.5-1.3
					c0.1-0.2,0.1-0.4,0.2-0.6c0-0.1,0-0.1,0-0.1c0.2-0.4,0.4-0.8,0.5-1.3c0.1-0.3,0.2-0.6,0.4-0.8l3.7-8.9c0.1-0.2,0.1-0.3,0.2-0.5
					c0,0,0,0,0,0c0.1-0.2,0.2-0.4,0.2-0.6c0.1-0.2,0.2-0.4,0.2-0.6l0.1-0.3c0-0.1,0.1-0.2,0.1-0.4c0.3-0.8,0.5-1.5,0.7-2.1
					c0-0.1,0.1-0.2,0.1-0.3v0c0-0.1,0.1-0.2,0.1-0.3c0-0.1,0-0.1,0-0.2c0-0.2,0-0.3,0-0.5c0-0.4,0.4-0.7,1.2-0.7
					C271,95.7,273.4,97.7,273.4,98.9z"/>
			</g>
			<g id="P-2-2">
				<path class="st2" d="M263.4,101.9c0,0.2,0,0.4,0,0.6c0,0.1,0,0.2,0,0.3c0,0.2-0.1,0.5-0.1,0.7c0,0.1,0,0.1,0,0.1
					c0,0,0,0.1,0,0.1c0,0.1,0,0.2-0.1,0.3c-0.1,0.3-0.2,0.6-0.3,0.8c0,0.1-0.1,0.2-0.1,0.3c0,0.1-0.1,0.2-0.1,0.2c0,0,0,0.1-0.1,0.1
					c0,0.1-0.1,0.2-0.1,0.2c-0.4,0.7-0.8,1.4-1.4,2c-0.1,0.1-0.1,0.2-0.2,0.2c-0.2,0.2-0.4,0.4-0.6,0.6c-0.2,0.1-0.3,0.3-0.5,0.4
					c0,0-0.1,0.1-0.1,0.1c-0.1,0.1-0.2,0.1-0.3,0.2c0,0-0.1,0-0.1,0.1c-0.1,0.1-0.3,0.2-0.4,0.2c0,0-0.1,0.1-0.1,0.1
					c-0.1,0.1-0.3,0.2-0.4,0.2c-0.1,0.1-0.2,0.1-0.3,0.1c-0.1,0.1-0.2,0.1-0.4,0.2c0,0-0.1,0-0.1,0c-0.2,0.1-0.3,0.1-0.5,0.2
					c-0.1,0-0.1,0.1-0.2,0.1s-0.1,0.1-0.2,0.1c-0.1,0-0.2,0.1-0.2,0.1c-0.2,0.1-0.5,0.1-0.8,0.2c-0.1,0-0.3,0-0.4,0.1
					c-0.1,0-0.1,0-0.2,0c-0.3,0-0.6,0-0.9,0.1c-2.9,0-5-1.7-5-2.8c0-0.2,0.2-0.4,0.4-0.5c0.6,0.2,1.2,0.4,1.9,0.4
					c3,0,6.1-3.1,6.1-7.7c0-3.2-2.2-4.6-4.1-4.6c-0.6,0-1,0.6-1.6,2.1c-3,6.7-6.4,14.6-8.1,22.7c-0.2,0.8-0.4,1.3-1,1.3
					c-2,0-5.4-0.5-5.4-2.1c0-2,5.4-16.8,7.9-21.5c0.5-1,1.3-1.9,2.2-2.5c-4.1,0.5-9.5,2.9-9.5,7.5c0,2.7,1.1,3.3,1.1,3.8
					c0,0.2-0.2,0.4-0.7,0.4c-2.1,0-6.3-2-6.3-6c0-5.8,7.2-8.7,17.5-8.7c0.5,0,1,0,1.4,0c0.1,0,0.1,0,0.1,0c0.1,0,0.3,0,0.4,0
					c0.4,0,0.7,0.1,1.1,0.1c0.2,0,0.4,0,0.5,0.1c0.1,0,0.2,0,0.3,0c0.1,0,0.2,0,0.3,0c0.2,0,0.3,0.1,0.5,0.1c0.2,0,0.5,0.1,0.8,0.1
					c0.2,0,0.4,0.1,0.6,0.1c0.1,0,0.2,0,0.4,0.1l0.4,0.1c0.3,0.1,0.6,0.2,0.8,0.2c0.1,0,0.2,0.1,0.3,0.1c0.1,0,0.2,0.1,0.2,0.1
					l0.2,0.1c0.2,0.1,0.4,0.2,0.5,0.2c0.2,0.1,0.4,0.2,0.5,0.2c0.1,0,0.2,0.1,0.2,0.1c0.1,0.1,0.2,0.1,0.3,0.2
					c0.1,0,0.1,0.1,0.2,0.1c0.1,0.1,0.2,0.1,0.3,0.2c0.2,0.1,0.4,0.2,0.6,0.4c0.1,0.1,0.2,0.2,0.3,0.2c0.1,0,0.1,0.1,0.2,0.2
					c0.2,0.2,0.4,0.3,0.5,0.5c0.1,0.1,0.2,0.2,0.3,0.3c0.1,0.1,0.2,0.2,0.3,0.4c0.1,0.1,0.2,0.2,0.3,0.4c0.1,0.1,0.2,0.2,0.2,0.3
					c0,0,0,0.1,0,0.1c0.1,0.1,0.1,0.2,0.2,0.3c0,0.1,0.1,0.1,0.1,0.2c0.1,0.3,0.2,0.6,0.4,0.8c0,0.1,0,0.1,0.1,0.2
					c0,0.1,0.1,0.2,0.1,0.3c0,0.1,0.1,0.2,0.1,0.3c0,0.1,0,0.1,0,0.2c0.1,0.3,0.1,0.6,0.1,0.8c0,0.1,0,0.3,0,0.4
					C263.4,101.6,263.4,101.8,263.4,101.9z"/>
			</g>
		</g>
		<g id="Scritta-2">
			<g id="y-2-3">
				
					<linearGradient id="SVGID_7_" gradientUnits="userSpaceOnUse" x1="324.5423" y1="394.1931" x2="324.5423" y2="364.9397" gradientTransform="matrix(1 0 0 -1 0 499.8898)">
					<stop  offset="0.1" style="stop-color:#EAE71B"/>
					<stop  offset="0.19" style="stop-color:#E3E41F"/>
					<stop  offset="0.3" style="stop-color:#D5DF27"/>
					<stop  offset="0.44" style="stop-color:#BCD631"/>
					<stop  offset="0.58" style="stop-color:#9BCB3C"/>
					<stop  offset="0.73" style="stop-color:#73C053"/>
					<stop  offset="0.89" style="stop-color:#46B972"/>
					<stop  offset="1" style="stop-color:#09B68D"/>
				</linearGradient>
				<path class="st9" d="M331.3,105.7c-0.4-0.1-0.8,0.2-0.8,0.6c0,0,0,0.1,0,0.1c0,3.1-1,6.2-2.8,8.8c-0.7,1-1.8,1.7-3,1.9
					c-0.4,0-0.7-0.2-0.8-0.6c0-0.1,0-0.1,0-0.2c0-2.1,2.5-4.6,2.5-7c0-1.8-2.1-3.6-4.2-3.6c-0.8,0-1.2,0.3-1.2,0.7
					c0,3.4-3.8,8.5-3.8,11.6c0,2.1,1.4,3,3.4,3c4,0,6.1-2.5,6.5-2.5c0,0,0.1,0,0.1,0.1c0,0,0,0,0,0c0,0.1,0,0.2,0,0.3
					c-1.3,3.8-3.7,10.5-10,10.5c-2.6,0-3.1-1-3.7-1c-0.3,0-0.6,0.3-0.6,0.6c0,0,0,0,0,0v0c0,1.4,2.7,5.8,8,5.8
					c7.8,0,10.1-10.3,12.4-17.2c1.4-4.1,3.1-8.1,3.1-8.9C336.2,107.5,334.4,105.7,331.3,105.7z"/>
			</g>
			<g id="t-2-3">
				
					<linearGradient id="SVGID_8_" gradientUnits="userSpaceOnUse" x1="312.6367" y1="400.9737" x2="312.6367" y2="378.8803" gradientTransform="matrix(1 0 0 -1 0 499.8898)">
					<stop  offset="0.1" style="stop-color:#EAE71B"/>
					<stop  offset="0.25" style="stop-color:#E4E51E"/>
					<stop  offset="0.43" style="stop-color:#D9E024"/>
					<stop  offset="0.62" style="stop-color:#C2D82E"/>
					<stop  offset="0.81" style="stop-color:#A6CE38"/>
					<stop  offset="1" style="stop-color:#86C440"/>
				</linearGradient>
				<path class="st10" d="M319.5,106.1c0,0.2,0,0.5-0.1,0.7c0,0.1,0,0.2-0.1,0.2c0,0.1,0,0.2-0.1,0.2s-0.1,0.2-0.1,0.2l-0.1,0.2
					c0,0-0.1,0.1-0.1,0.1c0,0,0,0.1-0.1,0.1c-0.1,0.1-0.1,0.1-0.2,0.2l-0.2,0.2c-0.1,0.1-0.2,0.1-0.2,0.2c-0.1,0.1-0.1,0.1-0.2,0.2
					c0,0,0,0-0.1,0c-0.1,0.1-0.2,0.1-0.2,0.2c0,0,0,0,0,0c-0.1,0-0.2,0.1-0.3,0.1c-0.1,0.1-0.2,0.1-0.3,0.1h0c0,0-0.1,0-0.2,0.1
					l-0.2,0.1l-0.2,0.1c-0.1,0-0.1,0-0.2,0c-0.2,0-0.4,0.1-0.6,0.1c-0.1,0-0.2,0-0.4,0h0c-0.1,0-0.2,0-0.4,0c0,0,0,0,0,0
					c0,0.1-0.1,0.1-0.1,0.2c-0.2,0.3-0.4,0.8-0.5,1.2c-0.1,0.2-0.1,0.3-0.2,0.5c-0.1,0.2-0.1,0.3-0.2,0.5c-0.2,0.6-0.5,1.1-0.7,1.7
					c0,0.1-0.1,0.2-0.1,0.3c0,0.1-0.1,0.1-0.1,0.2c-0.5,1.1-1.2,3.2-1.6,4.6c0,0,0,0,0,0c0,0,0,0,0,0c0,0,0,0.1,0,0.1v0
					c-0.3,1.3-1.5,2.1-2.8,2.1c-0.2,0-0.4,0-0.5-0.1c-0.2,0-0.4-0.1-0.5-0.2c-1.1-0.4-1.7-1.4-1.8-2.6v-0.1l0,0c0-0.2,0-0.4,0.1-0.7
					c0.1-0.2,0.1-0.4,0.2-0.7c0.1-0.3,0.2-0.6,0.4-0.8c0.3-0.7,0.6-1.4,0.9-2.1c0-0.1,0-0.1,0.1-0.2c0.3-0.8,0.6-1.4,0.8-2
					c0.2-0.4,0.3-0.8,0.5-1.2v0c0.2-0.3,0.2-0.7,0.2-1.1c0,0,0-0.1-0.1-0.1c-0.5,0-1.2,0-1.2-0.6c0.2-1,0.6-1.9,1.3-2.7
					c0.1-0.1,0.2-0.2,0.4-0.2c0,0,0.1-0.1,0.1-0.1l0,0c0,0,0.1,0,0.1,0c0.3-0.1,0.6-0.1,0.9-0.1c0,0,0.1,0,0.1,0c0,0,0,0,0,0
					c1.1-2.7,2.1-5.1,2.1-6.2c0-0.4,0.4-0.7,1.2-0.7c1.8,0,4.2,1.9,4.2,3.1c-0.3,1.3-0.8,2.5-1.4,3.7c0,0,0,0.1,0,0.1c0,0,0,0,0,0
					h0.9c0.1,0,0.3,0,0.5,0c0.5-0.1,0.8-0.1,1-0.1h0.2C319.4,105.7,319.5,105.8,319.5,106.1z"/>
			</g>
			<g id="n-2-3">
				
					<linearGradient id="SVGID_9_" gradientUnits="userSpaceOnUse" x1="300.7171" y1="394.5134" x2="300.7171" y2="371.3061" gradientTransform="matrix(1 0 0 -1 0 499.8898)">
					<stop  offset="0.1" style="stop-color:#EAE71B"/>
					<stop  offset="0.19" style="stop-color:#E3E41F"/>
					<stop  offset="0.3" style="stop-color:#D5DF27"/>
					<stop  offset="0.44" style="stop-color:#BCD631"/>
					<stop  offset="0.58" style="stop-color:#9BCB3C"/>
					<stop  offset="0.73" style="stop-color:#73C053"/>
					<stop  offset="0.89" style="stop-color:#46B972"/>
					<stop  offset="1" style="stop-color:#09B68D"/>
				</linearGradient>
				<path class="st11" d="M314.7,119.2c-0.1-0.3-0.5-0.5-0.8-0.3c0,0,0,0,0,0c0,0,0,0,0,0c0,0,0,0,0,0c-0.1,0-0.1,0.1-0.2,0.3
					c-0.6,2.4-2.8,4.1-5.3,4.1c-0.4,0-0.7,0-1-0.1c-2.6-0.5-4.5-2.8-4.5-5.4l0,0c0-0.4,0.1-0.8,0.2-1.3c0.1-0.4,0.3-0.9,0.4-1.3
					c0.6-1.6,1.5-3.2,2.1-4.6l0-0.1c0.4-0.8,0.6-1.6,0.6-2.5c0-0.1,0-0.2,0-0.3c0,0,0-0.1,0-0.1c0-0.1,0-0.2,0-0.2
					c0-0.1,0-0.2,0-0.2c0,0,0-0.1,0-0.1c0-0.1,0-0.1-0.1-0.2c0-0.1-0.1-0.2-0.1-0.2c0,0,0-0.1-0.1-0.1s0-0.1,0-0.1
					c0,0-0.1-0.1-0.1-0.1c0,0,0-0.1-0.1-0.1l-0.1-0.2c-0.1-0.1-0.1-0.1-0.2-0.2c-0.1-0.1-0.1-0.1-0.2-0.1l0,0c0,0-0.1-0.1-0.1-0.1
					c0,0,0,0,0,0c0,0,0,0,0,0c0,0,0,0-0.1-0.1c-0.1-0.1-0.3-0.2-0.5-0.2c0,0-0.1,0-0.1,0h0c-0.1,0-0.2-0.1-0.2-0.1
					c-0.1,0-0.2-0.1-0.3-0.1c0,0-0.1,0-0.1,0c-0.2,0-0.4-0.1-0.7-0.1c-3.9,0-6.8,3.1-6.9,3.1c-0.4-1.9-2.2-3.3-4.2-3.1
					c-0.8,0-1.2,0.3-1.2,0.7v0.2c0,0.1,0,0.1,0,0.2c0,0.1,0,0.2,0,0.2c0,0.1,0,0.1,0,0.2c0,0.3-0.1,0.7-0.2,1c0,0.2-0.1,0.3-0.1,0.5
					c-0.1,0.5-0.3,1.1-0.5,1.7c-0.1,0.2-0.2,0.5-0.3,0.8c-0.2,0.5-0.4,0.9-0.6,1.4c-0.1,0.2-0.1,0.3-0.2,0.4
					c-0.5,1.1-0.9,2.2-1.3,3.3c0,0.1,0,0.1-0.1,0.2c-0.1,0.3-0.2,0.7-0.3,1c0,0.1,0,0.2-0.1,0.2c0,0.1-0.1,0.3-0.1,0.4
					c0,0.1-0.1,0.2-0.1,0.4c0,0.1,0,0.3,0,0.4c0,0,0,0.1,0,0.1c0,0.1,0,0.2,0,0.2c0,0.1,0,0.1,0,0.2v0c0,0.1,0,0.1,0,0.2l0.1,0.2
					c0,0,0,0.1,0.1,0.1c0,0.1,0.1,0.1,0.1,0.2c0,0,0.1,0.1,0.1,0.1c0.1,0.1,0.3,0.2,0.5,0.3c0.1,0.1,0.2,0.1,0.3,0.1
					c0.1,0.1,0.2,0.1,0.3,0.1c0,0,0,0,0,0c0.1,0,0.2,0.1,0.4,0.1c0.1,0,0.2,0.1,0.4,0.1c0.1,0,0.3,0.1,0.4,0.1s0.3,0.1,0.4,0.1
					l0.4,0.1c0.1,0,0.2,0,0.3,0c0.2,0,0.3,0,0.5,0c0.2,0,0.3,0,0.5,0c0.7,0,0.8-0.4,0.8-1c0-1.9,1.8-5.6,3.3-8
					c1.3-1.9,2.7-2.9,3.3-2.9c0.3,0,0.7,0.2,0.7,0.6c0,0,0,0.1,0,0.1c0,1-1.3,2.8-2.4,5.2c-0.1,0.2-0.2,0.4-0.3,0.7c0,0,0,0.1,0,0.1
					c-2,4.7,0.2,10.2,4.9,12.2c1.1,0.5,2.2,0.7,3.4,0.7h0.2c4.1,0.1,7.9-2.5,9.3-6.3l0,0c0.1-0.3,0.2-0.7,0.2-1.1c0-0.3,0-0.6,0-0.8
					C314.9,120,314.8,119.6,314.7,119.2z M298.7,120.6L298.7,120.6L298.7,120.6z"/>
			</g>
			<g id="a-2-3">
				
					<linearGradient id="SVGID_10_" gradientUnits="userSpaceOnUse" x1="278.3281" y1="394.4879" x2="278.3281" y2="378.9787" gradientTransform="matrix(1 0 0 -1 0 499.8898)">
					<stop  offset="0.1" style="stop-color:#EAE71B"/>
					<stop  offset="0.19" style="stop-color:#E3E41F"/>
					<stop  offset="0.3" style="stop-color:#D5DF27"/>
					<stop  offset="0.44" style="stop-color:#BCD631"/>
					<stop  offset="0.58" style="stop-color:#9BCB3C"/>
					<stop  offset="0.73" style="stop-color:#73C053"/>
					<stop  offset="0.89" style="stop-color:#46B972"/>
					<stop  offset="1" style="stop-color:#09B68D"/>
				</linearGradient>
				<path class="st12" d="M287.8,108.5c-0.1-0.5-0.5-1-0.9-1.3c-1.6-1.2-3.5-1.8-5.4-1.8c-3.7,0-7.2,1.7-9.6,4.4
					c-1.9,2-3,4.5-3.1,7.2v0.1c0,2.4,1.4,3.8,3.6,3.8c3.9,0,6.1-2.4,6.6-2.4c0.3,0,1.6,2.2,4.7,2.4c0.2,0,0.3,0,0.5,0
					c0.4,0,0.6-0.2,0.6-0.5c-0.2-0.6-0.3-1.3-0.3-1.9C284.5,113.2,287.8,109.4,287.8,108.5z M275.8,116.8c-0.4,0-0.7-0.3-0.8-0.7
					c0,0,0-0.1,0-0.1c0-2.8,3.5-7.7,6.1-7.7c0.4,0,0.5,0.2,0.5,0.6C281.7,109.8,278.1,116.8,275.8,116.8z"/>
			</g>
			<g id="l-2-3">
				
					<linearGradient id="SVGID_11_" gradientUnits="userSpaceOnUse" x1="265.7063" y1="404.6927" x2="265.7063" y2="378.9807" gradientTransform="matrix(1 0 0 -1 0 499.8898)">
					<stop  offset="0.1" style="stop-color:#EAE71B"/>
					<stop  offset="0.19" style="stop-color:#E3E41F"/>
					<stop  offset="0.3" style="stop-color:#D5DF27"/>
					<stop  offset="0.44" style="stop-color:#BCD631"/>
					<stop  offset="0.58" style="stop-color:#9BCB3C"/>
					<stop  offset="0.73" style="stop-color:#73C053"/>
					<stop  offset="0.89" style="stop-color:#46B972"/>
					<stop  offset="1" style="stop-color:#09B68D"/>
				</linearGradient>
				<path class="st13" d="M272.6,98.3L272.6,98.3c0,0.1,0,0.2,0,0.2c0,0,0,0.1,0,0.1c0,0.1,0,0.1,0,0.2v0c0,0,0,0.1,0,0.2
					c0,0,0,0,0,0.1c0,0.1,0,0.2-0.1,0.3c-0.2,0.8-0.6,1.7-1,2.9c-0.1,0.2-0.1,0.4-0.2,0.6c-0.2,0.5-0.4,1-0.6,1.5
					c-0.1,0.2-0.1,0.3-0.2,0.5c-0.1,0.3-0.3,0.7-0.5,1.1c-0.1,0.2-0.2,0.4-0.2,0.6c-0.1,0.2-0.2,0.4-0.2,0.6
					c-0.1,0.3-0.2,0.5-0.4,0.8v0c-0.8,1.8-1.6,3.6-2.3,5.2c-0.1,0.2-0.2,0.5-0.3,0.8c0,0.1-0.1,0.3-0.2,0.4
					c-0.1,0.2-0.2,0.5-0.3,0.7c-0.1,0.2-0.1,0.3-0.2,0.4c-0.1,0.2-0.2,0.4-0.2,0.6c0,0.1-0.1,0.2-0.1,0.3c-0.3,0.8-0.5,1.6-0.8,2.4
					c0,0.1,0,0.1,0,0.2c0,0.1,0,0.2,0,0.3c0,0.1,0,0.2,0,0.2c0,0,0,0.1,0,0.1v0c0,0.1,0,0.2,0,0.2c0,0.6-0.1,1-0.8,1
					c-2,0-4.8-0.5-4.8-2.1v-0.1c0,0,0-0.1,0-0.1c0-0.1,0-0.1,0-0.2c0-0.1,0-0.1,0-0.2s0-0.1,0-0.2s0-0.2,0-0.2l0-0.2
					c0.1-0.2,0.1-0.3,0.1-0.6c0-0.1,0-0.2,0.1-0.2c0.1-0.5,0.4-1,0.6-1.6c0-0.1,0.1-0.2,0.1-0.3c0.2-0.4,0.3-0.9,0.5-1.3
					c0.1-0.2,0.1-0.4,0.2-0.6c0-0.1,0-0.1,0-0.1c0.2-0.4,0.4-0.8,0.5-1.3c0.1-0.3,0.2-0.6,0.4-0.8l3.7-8.9c0.1-0.2,0.1-0.3,0.2-0.5
					c0,0,0,0,0,0c0.1-0.2,0.2-0.4,0.2-0.6c0.1-0.2,0.2-0.4,0.2-0.6l0.1-0.3c0-0.1,0.1-0.2,0.1-0.4c0.3-0.8,0.5-1.5,0.7-2.1
					c0-0.1,0.1-0.2,0.1-0.3v0c0-0.1,0.1-0.2,0.1-0.3c0-0.1,0-0.1,0-0.2c0-0.2,0-0.3,0-0.5c0-0.4,0.4-0.7,1.2-0.7
					C270.2,95.2,272.6,97.1,272.6,98.3z"/>
			</g>
			<g id="P-2-3">
				
					<linearGradient id="SVGID_12_" gradientUnits="userSpaceOnUse" x1="246.763" y1="407.727" x2="246.763" y2="378.6137" gradientTransform="matrix(1 0 0 -1 0 499.8898)">
					<stop  offset="0.1" style="stop-color:#EAE71B"/>
					<stop  offset="0.19" style="stop-color:#E3E41F"/>
					<stop  offset="0.3" style="stop-color:#D5DF27"/>
					<stop  offset="0.44" style="stop-color:#BCD631"/>
					<stop  offset="0.58" style="stop-color:#9BCB3C"/>
					<stop  offset="0.73" style="stop-color:#73C053"/>
					<stop  offset="0.89" style="stop-color:#46B972"/>
					<stop  offset="1" style="stop-color:#09B68D"/>
				</linearGradient>
				<path class="st14" d="M262.6,101.4c0,0.2,0,0.4,0,0.6c0,0.1,0,0.2,0,0.3c0,0.2-0.1,0.5-0.1,0.7c0,0.1,0,0.1,0,0.1
					c0,0,0,0.1,0,0.1c0,0.1,0,0.2-0.1,0.3c-0.1,0.3-0.2,0.6-0.3,0.8c0,0.1-0.1,0.2-0.1,0.3c0,0.1-0.1,0.2-0.1,0.2c0,0,0,0.1-0.1,0.1
					c0,0.1-0.1,0.2-0.1,0.2c-0.4,0.7-0.8,1.4-1.4,2c-0.1,0.1-0.1,0.2-0.2,0.2c-0.2,0.2-0.4,0.4-0.6,0.6c-0.2,0.1-0.3,0.3-0.5,0.4
					c0,0-0.1,0.1-0.1,0.1c-0.1,0.1-0.2,0.1-0.3,0.2c0,0-0.1,0-0.1,0.1c-0.1,0.1-0.3,0.2-0.4,0.2c0,0-0.1,0.1-0.1,0.1
					c-0.1,0.1-0.3,0.2-0.4,0.2c-0.1,0.1-0.2,0.1-0.3,0.1c-0.1,0.1-0.2,0.1-0.4,0.2c0,0-0.1,0-0.1,0c-0.2,0.1-0.3,0.1-0.5,0.2
					c-0.1,0-0.1,0.1-0.2,0.1s-0.1,0.1-0.2,0.1c-0.1,0-0.2,0.1-0.2,0.1c-0.2,0.1-0.5,0.1-0.8,0.2c-0.1,0-0.3,0-0.4,0.1
					c-0.1,0-0.1,0-0.2,0c-0.3,0-0.6,0-1,0.1c-2.9,0-5-1.7-5-2.8c0-0.2,0.2-0.4,0.4-0.5c0.6,0.2,1.2,0.4,1.9,0.4c3,0,6.1-3.1,6.1-7.7
					c0-3.2-2.2-4.6-4.1-4.6c-0.6,0-1,0.6-1.6,2.1c-3,6.7-6.4,14.6-8.1,22.7c-0.2,0.8-0.4,1.3-1,1.3c-2,0-5.4-0.5-5.4-2.1
					c0-2,5.4-16.8,7.9-21.5c0.5-1,1.3-1.9,2.2-2.5c-4.1,0.6-9.5,2.9-9.5,7.5c0,2.7,1.1,3.3,1.1,3.8c0,0.2-0.2,0.4-0.7,0.4
					c-2.1,0-6.3-2-6.3-6c0-5.8,7.2-8.7,17.5-8.7c0.5,0,0.9,0,1.4,0c0.1,0,0.1,0,0.1,0c0.1,0,0.3,0,0.4,0c0.4,0,0.7,0,1.1,0.1
					c0.2,0,0.4,0,0.5,0.1c0.1,0,0.2,0,0.3,0c0.1,0,0.2,0,0.3,0c0.2,0,0.3,0.1,0.5,0.1c0.2,0,0.5,0.1,0.8,0.1c0.2,0,0.4,0.1,0.6,0.1
					c0.1,0,0.2,0,0.4,0.1l0.4,0.1c0.3,0.1,0.6,0.2,0.8,0.2c0.1,0,0.2,0.1,0.3,0.1c0.1,0,0.2,0.1,0.2,0.1l0.2,0.1
					c0.2,0.1,0.4,0.2,0.5,0.2s0.4,0.2,0.5,0.2c0.1,0,0.2,0.1,0.2,0.1c0.1,0,0.2,0.1,0.3,0.2c0.1,0,0.1,0.1,0.2,0.1
					c0.1,0,0.2,0.1,0.3,0.2c0.2,0.1,0.4,0.2,0.6,0.4c0.1,0.1,0.2,0.2,0.3,0.2c0.1,0.1,0.1,0.1,0.2,0.2c0.2,0.2,0.4,0.3,0.5,0.5
					c0.1,0.1,0.2,0.2,0.3,0.3c0.1,0.1,0.2,0.2,0.3,0.4c0.1,0.1,0.2,0.2,0.3,0.4c0.1,0.1,0.2,0.2,0.2,0.3c0,0,0,0.1,0,0.1
					c0.1,0.1,0.1,0.2,0.2,0.3c0,0.1,0.1,0.1,0.1,0.2c0.1,0.3,0.2,0.6,0.4,0.8c0,0.1,0,0.1,0.1,0.2c0,0.1,0.1,0.2,0.1,0.3
					c0,0.1,0.1,0.2,0.1,0.3c0,0.1,0,0.1,0,0.2c0.1,0.3,0.1,0.6,0.1,0.8c0,0.1,0,0.3,0,0.4C262.6,101.1,262.6,101.2,262.6,101.4z"/>
			</g>
		</g>
	</g>
	<g id="Livello_2-3">
		<g id="Sfondo-3">
			<path class="st1" d="M149.3,230.4c0,1-0.4,2.1-1.5,5.1c-0.6,1.5-1.2,3.2-1.8,4.9l0,0c-0.2,0.8-0.5,1.6-0.8,2.5
				c-1.1,3.5-2.4,7.5-4.4,10.7c-1,1.8-2.4,3.3-4.1,4.5c-1.8,1.3-4.1,2-6.3,2c-1.6,0-3.3-0.3-4.8-1c-1.3-0.5-2.4-1.3-3.5-2.3
				c-0.8-0.8-1.6-1.7-2.1-2.7c-0.2-0.4-0.4-0.9-0.6-1.3c-0.3,0.1-0.6,0.2-0.9,0.3c-1.3,0.4-2.7,0.6-4.1,0.6h-0.3
				c-1.1,0-2.1-0.2-3.1-0.5c-1-0.3-1.9-0.7-2.8-1.2c-2.6-1.5-4.5-3.9-5.5-6.7c-0.2,0.1-0.4,0.2-0.6,0.3c-0.5,0.2-1.1,0.3-1.7,0.3
				c-0.2,0-0.4,0-0.6,0c-0.2,0-0.4,0-0.6,0c-0.2,0-0.3,0-0.4,0h0c-0.2,0-0.3,0-0.5-0.1c-0.2,0-0.3-0.1-0.6-0.1
				c-0.2,0-0.3-0.1-0.5-0.1l-0.1,0c-0.1,0-0.3-0.1-0.5-0.1l-0.5-0.1c0,0-0.1,0-0.1,0h0c-0.2-0.1-0.4-0.1-0.5-0.2h0
				c-0.7,0.6-1.6,0.9-2.5,0.9c-0.3,0-0.5,0-0.7,0c-1.7-0.1-3.4-0.7-4.8-1.7c-0.5,0.3-1,0.5-1.5,0.7c-1.5,0.6-3.2,1-4.9,1
				c-0.9,0-1.8-0.2-2.6-0.5c-0.9-0.3-1.6-0.9-2.3-1.5c-0.1-0.1-0.2-0.2-0.3-0.3c-0.1,0.2-0.2,0.5-0.4,0.7c-0.4,0.6-1,1.1-1.6,1.4
				c-0.5,0.2-1.1,0.3-1.7,0.3c-1.4,0-2.8-0.2-4.2-0.6c-0.8-0.3-1.6-0.7-2.3-1.3c-0.9-0.8-1.5-2-1.5-3.3c0-0.1,0-0.2,0-0.3
				c0-0.1,0-0.2,0-0.3c0-0.1,0-0.2,0-0.3v0c0-0.1,0-0.2,0.1-0.4v0c0-0.1,0-0.2,0.1-0.3c0-0.1,0-0.2,0.1-0.4c0-0.1,0-0.1,0.1-0.2l0,0
				l0,0c0.1-0.2,0.1-0.4,0.2-0.7c0,0,0,0,0,0c0-0.1,0-0.2,0.1-0.2c0.2-0.5,0.4-1.1,0.6-1.8c0-0.1,0-0.1,0.1-0.2c0,0,0-0.1,0.1-0.1
				c0,0,0-0.1,0-0.1c0.1-0.3,0.2-0.7,0.4-1c-0.2,0.1-0.3,0.1-0.5,0.1h0c-0.1,0-0.2,0.1-0.2,0.1c-0.1,0-0.2,0.1-0.2,0.1l0,0
				c-0.1,0-0.2,0.1-0.3,0.1h0c-0.3,0.1-0.7,0.1-1,0.2c-0.2,0-0.3,0.1-0.5,0.1c-0.1,0-0.1,0-0.2,0h0c0,0-0.1,0-0.1,0
				c-0.4,0-0.8,0.1-1.2,0.1c-1.8,0-3.5-0.5-5-1.3c-1,2.8-1.8,5.7-2.4,8.6c0,0,0,0,0,0.1c-0.1,0.7-0.4,1.4-0.8,2
				c-0.4,0.5-0.9,1-1.5,1.3c-0.6,0.3-1.2,0.4-1.8,0.4c-1.5,0-2.9-0.2-4.4-0.6c-0.9-0.2-1.7-0.6-2.4-1.2c-1.1-0.8-1.8-2.1-1.8-3.5
				c0.1-1.5,0.5-3,1-4.5c0.4-1.4,1-3.1,1.7-5c-1.6-0.3-3.1-1-4.4-2c-2.3-1.6-3.6-4.2-3.7-7c0-2.1,0.7-4.1,1.9-5.7
				c1.3-1.6,2.9-2.8,4.8-3.7c2-0.9,4.2-1.6,6.4-1.9c2.5-0.4,5.1-0.6,7.7-0.6c0.5,0,1,0,1.5,0c0.1,0,0.2,0,0.2,0c0.2,0,0.3,0,0.5,0
				c0.4,0,0.8,0.1,1.2,0.1c0.2,0,0.4,0,0.6,0.1c0.1,0,0.2,0,0.4,0.1c0,0,0,0,0.1,0l0.1,0c0.2,0,0.4,0.1,0.6,0.1
				c0.3,0.1,0.6,0.1,0.9,0.2c0.2,0.1,0.5,0.1,0.7,0.1c0.2,0,0.3,0.1,0.5,0.1c0.1,0,0.2,0.1,0.4,0.1c0.3,0.1,0.6,0.2,0.9,0.3
				c0.1,0.1,0.3,0.1,0.4,0.1s0.2,0.1,0.3,0.1c0.1,0,0.2,0.1,0.2,0.1l0,0c0.2,0.1,0.5,0.2,0.7,0.3c0.2,0.1,0.4,0.2,0.6,0.3
				c0.1,0.1,0.3,0.1,0.4,0.2l0.1,0.1l0.1,0c0.1,0.1,0.3,0.1,0.4,0.2c0.1,0.1,0.2,0.1,0.3,0.2c0.2,0.2,0.5,0.3,0.7,0.5
				c0.1,0.1,0.3,0.2,0.3,0.3l0,0c0.1,0.1,0.2,0.2,0.3,0.2c0.2,0.2,0.5,0.4,0.7,0.7l0,0c0.2,0.1,0.3,0.3,0.4,0.5
				c0.2,0.2,0.3,0.4,0.5,0.6c0.1,0.2,0.2,0.4,0.4,0.5c0.1,0.1,0.1,0.2,0.2,0.2c0.3-2.1,2.2-3.5,4.3-3.4c0.9,0,1.8,0.2,2.6,0.6
				c0.7,0.3,1.4,0.7,2.1,1.2c1,0.8,2.7,2.4,2.7,4.5c0,0.1,0,0.3,0,0.4c0,0.2,0,0.3-0.1,0.5c0,0,0,0.1,0,0.1c0,0.1,0,0.2-0.1,0.3
				c0,0,0,0,0,0.1v0c0,0,0,0,0,0c0,0.1,0,0.1,0,0.1c0,0.1,0,0.2-0.1,0.2c0,0,0,0.1,0,0.1l0,0c-0.2,0.8-0.6,1.8-1.2,3.2c0,0,0,0,0,0
				c0,0.1-0.1,0.1-0.1,0.2c-0.1,0.1-0.1,0.2-0.1,0.3l0,0c0,0.1-0.1,0.2-0.1,0.3c0.3-0.2,0.6-0.3,0.9-0.5c2.1-1,4.4-1.6,6.8-1.6
				c1.5,0,2.9,0.3,4.3,0.8c0.8,0.3,1.5,0.6,2.2,1.1c0.3-0.5,0.7-0.9,1.2-1.2c0.8-0.5,1.7-0.7,2.6-0.7c1.8-0.1,3.7,0.6,5.1,1.8
				c1.8-1.1,4-1.7,6.1-1.8c0.3,0,0.7,0,1,0.1c0.1,0,0.2,0,0.3,0l0.6,0.1c0.2,0,0.3,0.1,0.4,0.1c0.1,0,0.1,0,0.2,0.1l0.1,0h0
				c0.3,0.1,0.7,0.3,1,0.4l0.1,0l0,0c0.1,0,0.1,0.1,0.2,0.1c0.1,0,0.2,0.1,0.2,0.2l0,0c0.1,0.1,0.2,0.2,0.3,0.2l0,0
				c0.2-0.2,0.5-0.3,0.7-0.4c0.1,0,0.2-0.1,0.3-0.1c0.3-0.7,0.5-1.4,0.8-1.9c0.2-0.5,0.4-1.1,0.5-1.6c0-1.3,0.7-2.4,1.8-3.1
				c0.8-0.5,1.7-0.7,2.6-0.7c0.9,0,1.8,0.2,2.6,0.6c0.7,0.3,1.4,0.7,2.1,1.2c0.6,0.5,1.2,1.1,1.7,1.7c0.6,0.8,1,1.8,1,2.8
				c0,0.1,0,0.3,0,0.4c0.5-0.2,1.1-0.2,1.6-0.2c0.3,0,0.5,0,0.8,0.1c1.7,0.2,3.3,0.9,4.5,2.1l0.2,0.2c0.2-0.5,0.5-1,0.9-1.4
				c0.8-0.7,1.7-1,2.7-1c2,0,3.9,0.5,5.5,1.7c0.7,0.5,1.3,1.2,1.8,1.9C149,228.5,149.3,229.5,149.3,230.4z"/>
		</g>
		<g id="Livello_4-3">
			<g id="y-3">
				<path class="st2" d="M141.3,227.6c-0.4-0.1-0.8,0.2-0.8,0.6c0,0,0,0.1,0,0.1c0,3.1-1,6.2-2.8,8.8c-0.7,1-1.8,1.7-3,1.9
					c-0.4,0-0.7-0.2-0.8-0.6c0-0.1,0-0.1,0-0.2c0-2.1,2.5-4.6,2.5-7c0-1.8-2.1-3.6-4.2-3.6c-0.8,0-1.2,0.3-1.2,0.7
					c0,3.4-3.8,8.5-3.8,11.6c0,2.1,1.4,3,3.4,3c4,0,6.1-2.5,6.5-2.5c0,0,0.1,0,0.1,0.1c0,0,0,0,0,0c0,0.1-0.1,0.2-0.1,0.3
					c-1.3,3.8-3.7,10.5-10,10.5c-2.6,0-3.1-1-3.7-1c-0.3,0-0.6,0.3-0.6,0.6c0,0,0,0,0,0v0c0,1.4,2.7,5.8,8,5.8
					c7.8,0,10.1-10.3,12.4-17.2c1.4-4.1,3.1-8.1,3.1-8.9C146.2,229.4,144.4,227.6,141.3,227.6z"/>
			</g>
			<g id="t-3">
				<path class="st2" d="M129.5,228.1c0,0.2,0,0.5-0.1,0.7c0,0.1,0,0.2-0.1,0.2c0,0.1,0,0.2-0.1,0.2c0,0.1-0.1,0.1-0.1,0.2l-0.1,0.2
					c0,0-0.1,0.1-0.1,0.1c0,0-0.1,0.1-0.1,0.1c-0.1,0.1-0.1,0.1-0.2,0.2l-0.2,0.2c-0.1,0.1-0.2,0.1-0.2,0.2
					c-0.1,0.1-0.1,0.1-0.2,0.1c0,0,0,0-0.1,0c-0.1,0.1-0.2,0.1-0.2,0.1c0,0,0,0,0,0c-0.1,0-0.2,0.1-0.3,0.1
					c-0.1,0.1-0.2,0.1-0.3,0.1h0c-0.1,0-0.1,0-0.2,0.1l-0.2,0.1l-0.2,0.1c-0.1,0-0.1,0-0.2,0c-0.2,0-0.4,0.1-0.6,0.1
					c-0.1,0-0.2,0-0.3,0h0c-0.1,0-0.2,0-0.3,0c0,0,0,0-0.1,0c0,0.1-0.1,0.1-0.1,0.2c-0.2,0.4-0.3,0.8-0.5,1.2
					c-0.1,0.2-0.2,0.4-0.2,0.5c-0.1,0.2-0.2,0.4-0.2,0.5c-0.2,0.6-0.5,1.1-0.7,1.7c0,0.1-0.1,0.2-0.1,0.3c0,0.1-0.1,0.1-0.1,0.2
					c-0.4,1.1-1.2,3.2-1.6,4.6c0,0,0,0,0,0c0,0,0,0,0,0c0,0,0,0.1-0.1,0.1v0c-0.3,1.3-1.5,2.1-2.8,2.1c-0.2,0-0.4,0-0.6-0.1
					c-0.2,0-0.4-0.1-0.5-0.2c-1.1-0.4-1.7-1.4-1.8-2.6v-0.1l0,0c0-0.2,0-0.4,0.1-0.6c0.1-0.2,0.1-0.4,0.2-0.6
					c0.1-0.3,0.2-0.6,0.3-0.8c0.3-0.7,0.6-1.4,0.9-2.1c0-0.1,0-0.1,0.1-0.1c0.3-0.8,0.6-1.4,0.8-2c0.2-0.4,0.3-0.8,0.5-1.1v0
					c0.2-0.3,0.2-0.7,0.2-1.1c0,0,0-0.1-0.1-0.1c-0.4,0-1.2,0-1.2-0.6c0.2-1,0.6-1.9,1.3-2.7c0.1-0.1,0.2-0.2,0.3-0.2
					c0.1,0,0.1-0.1,0.1-0.1l0,0c0,0,0.1,0,0.1,0c0.3-0.1,0.6-0.1,0.9-0.1c0,0,0.1,0,0.1,0c0,0,0,0,0,0c1.1-2.7,2.1-5.1,2.1-6.2
					c0-0.4,0.4-0.7,1.2-0.7c1.8,0,4.2,1.9,4.2,3.1c-0.3,1.3-0.8,2.5-1.4,3.7c0,0,0,0.1,0,0.1c0,0,0,0,0,0h0.8c0.1,0,0.3,0,0.4,0
					c0.5-0.1,0.8-0.1,1-0.1h0.2C129.4,227.6,129.5,227.8,129.5,228.1z"/>
			</g>
			<g id="n-3">
				<path class="st2" d="M124.6,241.2c-0.1-0.3-0.5-0.5-0.8-0.3c0,0,0,0,0,0c0,0,0,0,0,0c0,0,0,0,0,0c-0.1,0-0.2,0.1-0.2,0.3
					c-0.6,2.4-2.8,4.1-5.3,4.1c-0.4,0-0.7,0-1.1-0.1c-2.6-0.5-4.5-2.8-4.5-5.4l0,0c0-0.4,0.1-0.8,0.2-1.3c0.1-0.4,0.3-0.9,0.4-1.3
					c0.6-1.6,1.5-3.2,2.1-4.6l0-0.1c0.4-0.8,0.6-1.6,0.6-2.5c0-0.1,0-0.2,0-0.3c0,0,0-0.1,0-0.1c0-0.1,0-0.2,0-0.2
					c0-0.1,0-0.1-0.1-0.2c0,0,0-0.1,0-0.1c0-0.1-0.1-0.1-0.1-0.2c0-0.1-0.1-0.2-0.1-0.2c0,0-0.1-0.1-0.1-0.1s0-0.1-0.1-0.1
					c0,0-0.1-0.1-0.1-0.1c0,0,0-0.1-0.1-0.1l-0.2-0.1c-0.1-0.1-0.1-0.1-0.2-0.2c-0.1-0.1-0.1-0.1-0.2-0.1l0,0c0,0-0.1-0.1-0.1-0.1
					c0,0,0,0,0,0c0,0,0,0,0,0c0,0-0.1,0-0.1-0.1c-0.1-0.1-0.3-0.2-0.5-0.2c0,0-0.1,0-0.1,0h0c-0.1,0-0.2-0.1-0.2-0.1
					c-0.1,0-0.2-0.1-0.3-0.1c0,0-0.1,0-0.2,0c-0.2,0-0.4-0.1-0.7-0.1c-3.9,0-6.8,3.1-6.9,3.1c-0.4-1.9-2.2-3.3-4.2-3.1
					c-0.8,0-1.2,0.3-1.2,0.7v0.2c0,0.1,0,0.1,0,0.2c0,0.1,0,0.1,0,0.2c0,0.1,0,0.1,0,0.1c0,0.3-0.1,0.7-0.2,1c0,0.1-0.1,0.3-0.1,0.5
					c-0.2,0.5-0.3,1.1-0.6,1.7c-0.1,0.2-0.2,0.5-0.3,0.8c-0.2,0.5-0.4,0.9-0.6,1.4c-0.1,0.1-0.1,0.3-0.2,0.4
					c-0.5,1.1-0.9,2.2-1.3,3.3c0,0.1,0,0.1-0.1,0.2c-0.1,0.3-0.2,0.7-0.3,1c0,0.1-0.1,0.1-0.1,0.2c0,0.1-0.1,0.3-0.1,0.4
					c0,0.1-0.1,0.2-0.1,0.4c0,0.1,0,0.3-0.1,0.4c0,0,0,0.1,0,0.1c0,0.1,0,0.2,0,0.2c0,0.1,0,0.1,0,0.2v0c0,0.1,0,0.1,0.1,0.2
					l0.1,0.2c0,0,0,0.1,0.1,0.1c0,0.1,0.1,0.1,0.2,0.2c0,0,0.1,0.1,0.2,0.1c0.1,0.1,0.3,0.2,0.4,0.3c0.1,0.1,0.2,0.1,0.3,0.1
					c0.1,0.1,0.2,0.1,0.3,0.1c0,0,0,0,0.1,0c0.1,0,0.2,0.1,0.4,0.1c0.1,0,0.2,0.1,0.3,0.1c0.1,0,0.3,0.1,0.4,0.1s0.3,0.1,0.4,0.1
					l0.4,0.1c0.1,0,0.2,0,0.3,0c0.2,0,0.3,0,0.5,0c0.2,0,0.3,0,0.4,0c0.7,0,0.8-0.4,0.8-1c0-1.9,1.8-5.6,3.3-8
					c1.3-1.9,2.7-2.9,3.3-2.9c0.3,0,0.7,0.2,0.7,0.6c0,0,0,0.1,0,0.1c0,1-1.3,2.8-2.4,5.2c-0.1,0.2-0.2,0.4-0.3,0.7c0,0,0,0.1,0,0.1
					c-2,4.7,0.2,10.2,4.9,12.2c1.1,0.5,2.2,0.7,3.4,0.7h0.2c4.1,0.1,7.9-2.5,9.3-6.3l0,0c0.1-0.3,0.2-0.7,0.2-1.1c0-0.3,0-0.6,0-0.9
					C124.8,241.9,124.8,241.5,124.6,241.2z M108.7,242.6L108.7,242.6L108.7,242.6z"/>
			</g>
			<g id="a-3">
				<path class="st2" d="M97.8,230.5c-0.1-0.5-0.5-1-0.9-1.3c-1.6-1.2-3.5-1.8-5.4-1.8c-3.7,0-7.2,1.7-9.6,4.4c-1.9,2-3,4.5-3.1,7.2
					v0.1c0,2.4,1.4,3.8,3.6,3.8c3.9,0,6.1-2.4,6.6-2.4c0.3,0,1.6,2.2,4.7,2.4c0.2,0,0.3,0,0.5,0c0.4,0,0.7-0.2,0.7-0.5
					c-0.2-0.6-0.3-1.3-0.3-1.9C94.4,235.1,97.8,231.3,97.8,230.5z M85.8,238.7c-0.4,0-0.7-0.3-0.8-0.7c0,0,0-0.1,0-0.1
					c0-2.8,3.5-7.7,6.1-7.7c0.3,0,0.5,0.2,0.5,0.6C91.6,231.7,88.1,238.7,85.8,238.7z"/>
			</g>
			<g id="l-3">
				<path class="st2" d="M82.5,220.3v0.1c0,0,0,0.1,0,0.1c0,0,0,0.1,0,0.1c0,0.1,0,0.1,0,0.2v0c0,0.1,0,0.1-0.1,0.2c0,0,0,0,0,0.1
					c0,0.1,0,0.2-0.1,0.3c-0.2,0.8-0.6,1.7-1.1,2.9c-0.1,0.2-0.2,0.4-0.2,0.6c-0.2,0.5-0.4,1-0.6,1.5c-0.1,0.2-0.2,0.4-0.2,0.5
					c-0.2,0.4-0.3,0.7-0.5,1.1c-0.1,0.2-0.2,0.4-0.2,0.6c-0.1,0.2-0.2,0.4-0.2,0.6c-0.1,0.3-0.2,0.5-0.3,0.8v0
					c-0.8,1.8-1.6,3.6-2.3,5.2c-0.1,0.2-0.2,0.5-0.3,0.8c-0.1,0.1-0.1,0.3-0.2,0.4c-0.1,0.2-0.2,0.5-0.3,0.7
					c-0.1,0.1-0.1,0.3-0.2,0.4c-0.1,0.2-0.2,0.4-0.2,0.6c-0.1,0.1-0.1,0.2-0.1,0.3c-0.3,0.8-0.5,1.6-0.8,2.4c0,0.1,0,0.1,0,0.1
					c0,0.1,0,0.2-0.1,0.3c0,0.1,0,0.2,0,0.2c0,0,0,0.1,0,0.1v0c0,0.1,0,0.1,0,0.2c0,0.6-0.1,1-0.8,1c-2,0-4.8-0.5-4.8-2.1v-0.1
					c0,0,0-0.1,0-0.1c0-0.1,0-0.1,0-0.2c0-0.1,0-0.1,0-0.2s0-0.1,0.1-0.2s0-0.1,0.1-0.2l0.1-0.2c0-0.2,0.1-0.3,0.2-0.6
					c0-0.1,0.1-0.1,0.1-0.2c0.2-0.5,0.3-1,0.6-1.6c0.1-0.1,0.1-0.2,0.1-0.4c0.2-0.4,0.3-0.9,0.5-1.3c0.1-0.2,0.2-0.4,0.2-0.6
					c0-0.1,0-0.1,0.1-0.1c0.2-0.4,0.3-0.8,0.5-1.3c0.1-0.3,0.2-0.6,0.3-0.8l3.7-8.9c0.1-0.2,0.1-0.4,0.2-0.5c0,0,0,0,0,0
					c0.1-0.2,0.2-0.4,0.2-0.6c0.1-0.2,0.2-0.4,0.2-0.6l0.1-0.3c0.1-0.1,0.1-0.2,0.1-0.4c0.3-0.8,0.5-1.5,0.7-2.1
					c0-0.1,0.1-0.2,0.1-0.4v0c0-0.1,0.1-0.2,0.1-0.3c0-0.1,0-0.1,0-0.2c0-0.2,0-0.3,0.1-0.5c0-0.4,0.4-0.7,1.2-0.7
					C80.1,217.1,82.5,219.1,82.5,220.3z"/>
			</g>
			<g id="P-3">
				<path class="st2" d="M72.6,223.3c0,0.2,0,0.4,0,0.6c0,0.1,0,0.2,0,0.4c0,0.2-0.1,0.5-0.1,0.7c0,0.1,0,0.1,0,0.1c0,0,0,0.1,0,0.1
					c0,0.1,0,0.2-0.1,0.3c-0.1,0.3-0.2,0.6-0.3,0.8c0,0.1-0.1,0.2-0.1,0.3c0,0.1-0.1,0.1-0.1,0.2c0,0,0,0.1-0.1,0.1
					c0,0.1-0.1,0.2-0.1,0.2c-0.4,0.7-0.8,1.4-1.4,2c-0.1,0.1-0.1,0.1-0.2,0.2c-0.2,0.2-0.4,0.4-0.6,0.6c-0.2,0.1-0.3,0.3-0.5,0.4
					c0,0-0.1,0.1-0.2,0.1c-0.1,0.1-0.2,0.1-0.3,0.2c0,0-0.1,0-0.1,0.1c-0.1,0.1-0.3,0.2-0.4,0.2c0,0-0.1,0.1-0.2,0.1
					c-0.1,0.1-0.3,0.1-0.4,0.2c-0.1,0.1-0.2,0.1-0.3,0.1c-0.1,0.1-0.2,0.1-0.4,0.1c0,0-0.1,0-0.1,0c-0.2,0.1-0.3,0.1-0.5,0.2
					c-0.1,0-0.2,0.1-0.2,0.1s-0.2,0.1-0.2,0.1c-0.1,0-0.2,0.1-0.2,0.1c-0.2,0.1-0.5,0.1-0.8,0.1c-0.1,0-0.3,0-0.4,0.1
					c-0.1,0-0.2,0-0.2,0c-0.3,0-0.6,0-1,0.1c-2.9,0-5-1.7-5-2.8c0-0.2,0.2-0.4,0.4-0.5c0.6,0.2,1.2,0.4,1.9,0.4c3,0,6.1-3.1,6.1-7.7
					c0-3.2-2.2-4.6-4.1-4.6c-0.6,0-1,0.6-1.6,2.1c-3,6.7-6.4,14.6-8.1,22.7c-0.2,0.8-0.3,1.3-1,1.3c-2,0-5.4-0.5-5.4-2.1
					c0-2,5.4-16.8,7.9-21.5c0.5-1,1.3-1.9,2.2-2.5c-4.1,0.6-9.5,2.9-9.5,7.5c0,2.7,1.1,3.3,1.1,3.8c0,0.2-0.2,0.4-0.7,0.4
					c-2.1,0-6.3-2-6.3-6c0-5.8,7.2-8.7,17.5-8.7c0.5,0,1,0,1.4,0c0.1,0,0.1,0,0.2,0c0.2,0,0.3,0,0.5,0c0.3,0,0.7,0.1,1.1,0.1
					c0.2,0,0.3,0,0.5,0.1c0.1,0,0.2,0,0.3,0c0.1,0,0.2,0,0.3,0c0.2,0,0.3,0.1,0.5,0.1c0.2,0,0.5,0.1,0.8,0.1c0.2,0,0.4,0.1,0.6,0.1
					c0.1,0,0.2,0,0.3,0.1l0.3,0.1c0.3,0.1,0.6,0.1,0.8,0.2c0.1,0,0.2,0.1,0.3,0.1c0.1,0,0.2,0.1,0.2,0.1l0.2,0.1
					c0.2,0.1,0.4,0.1,0.6,0.2s0.4,0.2,0.5,0.2c0.1,0,0.2,0.1,0.2,0.1c0.1,0.1,0.2,0.1,0.3,0.1c0.1,0,0.1,0.1,0.2,0.1
					c0.1,0.1,0.2,0.1,0.3,0.1c0.2,0.1,0.4,0.2,0.6,0.4c0.1,0.1,0.2,0.1,0.3,0.2c0.1,0.1,0.1,0.1,0.2,0.1c0.2,0.2,0.4,0.3,0.6,0.5
					c0.1,0.1,0.2,0.2,0.3,0.4c0.1,0.1,0.2,0.2,0.3,0.4c0.1,0.1,0.2,0.2,0.3,0.4c0.1,0.1,0.2,0.2,0.2,0.4c0,0,0,0.1,0.1,0.1
					c0.1,0.1,0.1,0.2,0.2,0.3c0,0.1,0.1,0.1,0.1,0.2c0.1,0.3,0.2,0.6,0.3,0.9c0,0.1,0.1,0.1,0.1,0.2c0,0.1,0.1,0.2,0.1,0.3
					c0,0.1,0.1,0.2,0.1,0.4c0,0.1,0,0.1,0,0.2c0.1,0.3,0.1,0.6,0.1,0.8c0,0.1,0,0.3,0,0.4C72.6,223,72.6,223.2,72.6,223.3z"/>
			</g>
		</g>
		<g id="Scritta-3">
			<g id="y-2-4">
				
					<linearGradient id="SVGID_13_" gradientUnits="userSpaceOnUse" x1="133.6687" y1="272.8072" x2="133.6687" y2="243.5537" gradientTransform="matrix(1 0 0 -1 0 499.8898)">
					<stop  offset="0.1" style="stop-color:#EAE71B"/>
					<stop  offset="0.19" style="stop-color:#E3E41F"/>
					<stop  offset="0.3" style="stop-color:#D5DF27"/>
					<stop  offset="0.44" style="stop-color:#BCD631"/>
					<stop  offset="0.58" style="stop-color:#9BCB3C"/>
					<stop  offset="0.73" style="stop-color:#73C053"/>
					<stop  offset="0.89" style="stop-color:#46B972"/>
					<stop  offset="1" style="stop-color:#09B68D"/>
				</linearGradient>
				<path class="st15" d="M140.4,227.1c-0.4-0.1-0.8,0.2-0.8,0.6c0,0,0,0.1,0,0.1c0,3.1-1,6.2-2.8,8.8c-0.7,1-1.8,1.7-3,1.9
					c-0.4,0-0.7-0.2-0.8-0.6c0-0.1,0-0.1,0-0.2c0-2.1,2.5-4.6,2.5-7c0-1.8-2.1-3.6-4.2-3.6c-0.8,0-1.2,0.3-1.2,0.7
					c0,3.4-3.8,8.5-3.8,11.6c0,2.1,1.4,3,3.4,3c4,0,6.1-2.5,6.5-2.5c0,0,0.1,0,0.1,0.1c0,0,0,0,0,0c0,0.1-0.1,0.2-0.1,0.3
					c-1.3,3.8-3.7,10.5-10,10.5c-2.6,0-3.1-1-3.7-1c-0.3,0-0.6,0.3-0.6,0.6c0,0,0,0,0,0v0c0,1.4,2.7,5.8,8,5.8
					c7.8,0,10.1-10.3,12.4-17.2c1.4-4.1,3.1-8.1,3.1-8.9C145.4,228.8,143.5,227.1,140.4,227.1z"/>
			</g>
			<g id="t-2-4">
				
					<linearGradient id="SVGID_14_" gradientUnits="userSpaceOnUse" x1="121.7633" y1="279.5875" x2="121.7633" y2="257.4945" gradientTransform="matrix(1 0 0 -1 0 499.8898)">
					<stop  offset="0.1" style="stop-color:#EAE71B"/>
					<stop  offset="0.25" style="stop-color:#E4E51E"/>
					<stop  offset="0.43" style="stop-color:#D9E024"/>
					<stop  offset="0.62" style="stop-color:#C2D82E"/>
					<stop  offset="0.81" style="stop-color:#A6CE38"/>
					<stop  offset="1" style="stop-color:#86C440"/>
				</linearGradient>
				<path class="st16" d="M128.7,227.5c0,0.2,0,0.5-0.1,0.7c0,0.1,0,0.2-0.1,0.2c0,0.1-0.1,0.2-0.1,0.2s-0.1,0.1-0.1,0.2l-0.1,0.2
					c0,0-0.1,0.1-0.1,0.1c0,0-0.1,0.1-0.1,0.1c-0.1,0.1-0.1,0.1-0.2,0.2l-0.2,0.2c-0.1,0.1-0.2,0.1-0.2,0.2
					c-0.1,0.1-0.1,0.1-0.2,0.1c0,0,0,0-0.1,0c-0.1,0.1-0.2,0.1-0.2,0.1c0,0,0,0,0,0c-0.1,0-0.2,0.1-0.3,0.1
					c-0.1,0.1-0.2,0.1-0.3,0.1h0c-0.1,0-0.1,0-0.2,0.1l-0.2,0.1l-0.2,0.1c-0.1,0-0.1,0-0.2,0c-0.2,0-0.4,0.1-0.6,0.1
					c-0.1,0-0.2,0-0.3,0h0c-0.1,0-0.2,0-0.3,0c0,0,0,0-0.1,0c0,0.1-0.1,0.1-0.1,0.2c-0.2,0.4-0.3,0.8-0.5,1.2
					c-0.1,0.2-0.2,0.4-0.2,0.5c-0.1,0.2-0.2,0.4-0.2,0.5c-0.2,0.6-0.5,1.1-0.7,1.7c0,0.1-0.1,0.2-0.1,0.3c0,0.1-0.1,0.1-0.1,0.2
					c-0.4,1.1-1.2,3.2-1.6,4.6c0,0,0,0,0,0c0,0,0,0,0,0c0,0,0,0.1-0.1,0.1v0c-0.3,1.3-1.5,2.1-2.8,2.1c-0.2,0-0.4,0-0.6-0.1
					c-0.2,0-0.4-0.1-0.5-0.2c-1.1-0.4-1.7-1.4-1.8-2.6v-0.1l0,0c0-0.2,0-0.4,0.1-0.6c0.1-0.2,0.1-0.4,0.2-0.6
					c0.1-0.3,0.2-0.6,0.3-0.8c0.3-0.7,0.6-1.4,0.9-2.1c0-0.1,0-0.1,0.1-0.1c0.3-0.8,0.6-1.4,0.8-2c0.2-0.4,0.3-0.8,0.5-1.1v0
					c0.2-0.3,0.3-0.7,0.2-1.1c0,0,0-0.1-0.1-0.1c-0.4,0-1.2,0-1.2-0.6c0.2-1,0.6-1.9,1.3-2.7c0.1-0.1,0.2-0.2,0.3-0.2
					c0.1,0,0.1-0.1,0.1-0.1l0,0c0,0,0.1,0,0.1,0c0.3-0.1,0.6-0.1,0.9-0.1c0,0,0.1,0,0.1,0c0,0,0,0,0,0c1.1-2.7,2.1-5.1,2.1-6.2
					c0-0.4,0.4-0.7,1.2-0.7c1.8,0,4.2,1.9,4.2,3.1c-0.3,1.3-0.8,2.5-1.4,3.7c0,0,0,0.1,0,0.1c0,0,0,0,0,0h0.8c0.1,0,0.3,0,0.4,0
					c0.5-0.1,0.8-0.1,1-0.1h0.2C128.5,227.1,128.7,227.2,128.7,227.5z"/>
			</g>
			<g id="n-2-4">
				
					<linearGradient id="SVGID_15_" gradientUnits="userSpaceOnUse" x1="109.8439" y1="273.1277" x2="109.8439" y2="249.9207" gradientTransform="matrix(1 0 0 -1 0 499.8898)">
					<stop  offset="0.1" style="stop-color:#EAE71B"/>
					<stop  offset="0.19" style="stop-color:#E3E41F"/>
					<stop  offset="0.3" style="stop-color:#D5DF27"/>
					<stop  offset="0.44" style="stop-color:#BCD631"/>
					<stop  offset="0.58" style="stop-color:#9BCB3C"/>
					<stop  offset="0.73" style="stop-color:#73C053"/>
					<stop  offset="0.89" style="stop-color:#46B972"/>
					<stop  offset="1" style="stop-color:#09B68D"/>
				</linearGradient>
				<path class="st17" d="M123.8,240.6c-0.1-0.3-0.5-0.5-0.8-0.3c0,0,0,0,0,0c0,0,0,0,0,0c0,0,0,0,0,0c-0.1,0-0.2,0.1-0.2,0.3
					c-0.6,2.4-2.8,4.1-5.3,4.1c-0.4,0-0.7,0-1.1-0.1c-2.6-0.5-4.5-2.8-4.5-5.4l0,0c0-0.4,0.1-0.8,0.2-1.3c0.1-0.4,0.3-0.9,0.4-1.3
					c0.6-1.6,1.5-3.2,2.1-4.6l0-0.1c0.4-0.8,0.6-1.6,0.6-2.5c0-0.1,0-0.2,0-0.3c0,0,0-0.1,0-0.1c0-0.1,0-0.2,0-0.2
					c0-0.1,0-0.1-0.1-0.2c0,0,0-0.1,0-0.1c0-0.1-0.1-0.1-0.1-0.2c0-0.1-0.1-0.2-0.1-0.2c0,0-0.1-0.1-0.1-0.1s0-0.1-0.1-0.1
					c0,0-0.1-0.1-0.1-0.1c0,0,0-0.1-0.1-0.1l-0.2-0.1c-0.1-0.1-0.1-0.1-0.2-0.2c-0.1-0.1-0.1-0.1-0.2-0.1l0,0c0,0-0.1-0.1-0.1-0.1
					c0,0,0,0,0,0c0,0,0,0,0,0c0,0-0.1,0-0.1-0.1c-0.1-0.1-0.3-0.2-0.5-0.2c0,0-0.1,0-0.1,0h0c-0.1,0-0.2-0.1-0.2-0.1
					c-0.1,0-0.2-0.1-0.3-0.1c0,0-0.1,0-0.2,0c-0.2,0-0.4-0.1-0.7-0.1c-3.9,0-6.8,3.1-6.9,3.1c-0.4-1.9-2.2-3.3-4.2-3.1
					c-0.8,0-1.2,0.3-1.2,0.7v0.2c0,0.1,0,0.1,0,0.2c0,0.1,0,0.1,0,0.2c0,0.1,0,0.1,0,0.1c0,0.3-0.1,0.7-0.2,1c0,0.1-0.1,0.3-0.1,0.5
					c-0.2,0.5-0.3,1.1-0.6,1.7c-0.1,0.2-0.2,0.5-0.3,0.8c-0.2,0.5-0.4,0.9-0.6,1.4c-0.1,0.1-0.1,0.3-0.2,0.4
					c-0.5,1.1-0.9,2.2-1.3,3.3c0,0.1,0,0.1-0.1,0.2c-0.1,0.3-0.2,0.7-0.3,1c0,0.1-0.1,0.1-0.1,0.2c0,0.1-0.1,0.3-0.1,0.4
					c0,0.1-0.1,0.2-0.1,0.4c0,0.1,0,0.3-0.1,0.4c0,0,0,0.1,0,0.1c0,0.1,0,0.2,0,0.2c0,0.1,0,0.1,0,0.2v0c0,0.1,0,0.1,0.1,0.2
					l0.1,0.2c0,0,0,0.1,0.1,0.1c0,0.1,0.1,0.1,0.2,0.2c0,0,0.1,0.1,0.2,0.1c0.1,0.1,0.3,0.2,0.4,0.3c0.1,0.1,0.2,0.1,0.3,0.1
					c0.1,0.1,0.2,0.1,0.3,0.1c0,0,0,0,0.1,0c0.1,0,0.2,0.1,0.4,0.1c0.1,0,0.2,0.1,0.3,0.1c0.1,0,0.3,0.1,0.4,0.1s0.3,0.1,0.4,0.1
					l0.4,0.1c0.1,0,0.2,0,0.3,0c0.2,0,0.3,0,0.5,0c0.2,0,0.3,0,0.4,0c0.7,0,0.8-0.4,0.8-1c0-1.9,1.8-5.6,3.3-8
					c1.3-1.9,2.7-2.9,3.3-2.9c0.3,0,0.7,0.2,0.7,0.6c0,0,0,0.1,0,0.1c0,1-1.3,2.8-2.4,5.2c-0.1,0.2-0.2,0.4-0.3,0.7c0,0,0,0.1,0,0.1
					c-2,4.7,0.2,10.2,4.9,12.2c1.1,0.5,2.2,0.7,3.4,0.7h0.2c4.1,0.1,7.9-2.5,9.3-6.3l0,0c0.1-0.3,0.2-0.7,0.2-1.1c0-0.3,0-0.6,0-0.9
					C124,241.3,123.9,241,123.8,240.6z M107.9,242L107.9,242L107.9,242z"/>
			</g>
			<g id="a-2-4">
				
					<linearGradient id="SVGID_16_" gradientUnits="userSpaceOnUse" x1="87.4549" y1="273.1019" x2="87.4549" y2="257.5927" gradientTransform="matrix(1 0 0 -1 0 499.8898)">
					<stop  offset="0.1" style="stop-color:#EAE71B"/>
					<stop  offset="0.19" style="stop-color:#E3E41F"/>
					<stop  offset="0.3" style="stop-color:#D5DF27"/>
					<stop  offset="0.44" style="stop-color:#BCD631"/>
					<stop  offset="0.58" style="stop-color:#9BCB3C"/>
					<stop  offset="0.73" style="stop-color:#73C053"/>
					<stop  offset="0.89" style="stop-color:#46B972"/>
					<stop  offset="1" style="stop-color:#09B68D"/>
				</linearGradient>
				<path class="st18" d="M97,229.9c-0.1-0.5-0.5-1-0.9-1.3c-1.6-1.2-3.5-1.8-5.4-1.8c-3.7,0-7.2,1.7-9.6,4.4c-1.9,2-3,4.5-3.1,7.2
					v0.1c0,2.4,1.4,3.8,3.6,3.8c3.9,0,6.1-2.4,6.6-2.4c0.3,0,1.6,2.2,4.7,2.4c0.2,0,0.3,0,0.5,0c0.4,0,0.7-0.2,0.7-0.5
					c-0.2-0.6-0.3-1.3-0.3-1.9C93.6,234.6,97,230.7,97,229.9z M84.9,238.2c-0.4,0-0.7-0.3-0.8-0.7c0,0,0-0.1,0-0.1
					c0-2.8,3.5-7.7,6.1-7.7c0.3,0,0.5,0.2,0.5,0.6C90.8,231.2,87.2,238.2,84.9,238.2L84.9,238.2z"/>
			</g>
			<g id="l-2-4">
				
					<linearGradient id="SVGID_17_" gradientUnits="userSpaceOnUse" x1="74.833" y1="283.3057" x2="74.833" y2="257.5936" gradientTransform="matrix(1 0 0 -1 0 499.8898)">
					<stop  offset="0.1" style="stop-color:#EAE71B"/>
					<stop  offset="0.19" style="stop-color:#E3E41F"/>
					<stop  offset="0.3" style="stop-color:#D5DF27"/>
					<stop  offset="0.44" style="stop-color:#BCD631"/>
					<stop  offset="0.58" style="stop-color:#9BCB3C"/>
					<stop  offset="0.73" style="stop-color:#73C053"/>
					<stop  offset="0.89" style="stop-color:#46B972"/>
					<stop  offset="1" style="stop-color:#09B68D"/>
				</linearGradient>
				<path class="st19" d="M81.7,219.7v0.1c0,0,0,0.1,0,0.1c0,0,0,0.1,0,0.1c0,0.1,0,0.1,0,0.2v0c0,0.1,0,0.1-0.1,0.2c0,0,0,0,0,0.1
					c0,0.1,0,0.2-0.1,0.3c-0.2,0.8-0.6,1.7-1.1,2.9c-0.1,0.2-0.2,0.4-0.2,0.6c-0.2,0.5-0.4,1-0.6,1.5c-0.1,0.2-0.2,0.4-0.2,0.5
					c-0.2,0.4-0.3,0.7-0.5,1.1c-0.1,0.2-0.2,0.4-0.2,0.6c-0.1,0.2-0.2,0.4-0.2,0.6c-0.1,0.3-0.2,0.5-0.3,0.8v0
					c-0.8,1.8-1.6,3.6-2.3,5.2c-0.1,0.2-0.2,0.5-0.3,0.8c-0.1,0.1-0.1,0.3-0.2,0.4c-0.1,0.2-0.2,0.5-0.3,0.7
					c-0.1,0.1-0.1,0.3-0.2,0.4c-0.1,0.2-0.2,0.4-0.2,0.6c-0.1,0.1-0.1,0.2-0.1,0.3c-0.3,0.8-0.5,1.6-0.8,2.4c0,0.1,0,0.1,0,0.1
					c0,0.1,0,0.2-0.1,0.3c0,0.1,0,0.2,0,0.2c0,0,0,0.1,0,0.1v0c0,0.1,0,0.1,0,0.2c0,0.6-0.1,1-0.8,1c-2,0-4.8-0.5-4.8-2.1v-0.1
					c0,0,0-0.1,0-0.1c0-0.1,0-0.1,0-0.2c0-0.1,0-0.1,0-0.2s0-0.1,0.1-0.2s0-0.1,0.1-0.2l0.1-0.2c0-0.2,0.1-0.3,0.2-0.6
					c0-0.1,0.1-0.1,0.1-0.2c0.2-0.5,0.3-1,0.6-1.6c0.1-0.1,0.1-0.2,0.1-0.4c0.2-0.4,0.3-0.9,0.5-1.3c0.1-0.2,0.2-0.4,0.2-0.6
					c0-0.1,0-0.1,0.1-0.1c0.2-0.4,0.3-0.8,0.5-1.3c0.1-0.3,0.2-0.6,0.3-0.8l3.7-8.9c0.1-0.2,0.1-0.4,0.2-0.5c0,0,0,0,0,0
					c0.1-0.2,0.2-0.4,0.2-0.6c0.1-0.2,0.2-0.4,0.2-0.6l0.1-0.3c0.1-0.1,0.1-0.2,0.1-0.4c0.3-0.8,0.5-1.5,0.7-2.1
					c0-0.1,0.1-0.2,0.1-0.4v0c0-0.1,0.1-0.2,0.1-0.3c0-0.1,0-0.1,0-0.2c0-0.2,0-0.3,0.1-0.5c0-0.4,0.4-0.7,1.2-0.7
					C79.3,216.6,81.7,218.5,81.7,219.7z"/>
			</g>
			<g id="P-2-4">
				
					<linearGradient id="SVGID_18_" gradientUnits="userSpaceOnUse" x1="55.8905" y1="286.3424" x2="55.8905" y2="257.2281" gradientTransform="matrix(1 0 0 -1 0 499.8898)">
					<stop  offset="0.1" style="stop-color:#EAE71B"/>
					<stop  offset="0.19" style="stop-color:#E3E41F"/>
					<stop  offset="0.3" style="stop-color:#D5DF27"/>
					<stop  offset="0.44" style="stop-color:#BCD631"/>
					<stop  offset="0.58" style="stop-color:#9BCB3C"/>
					<stop  offset="0.73" style="stop-color:#73C053"/>
					<stop  offset="0.89" style="stop-color:#46B972"/>
					<stop  offset="1" style="stop-color:#09B68D"/>
				</linearGradient>
				<path class="st20" d="M71.7,222.8c0,0.2,0,0.4,0,0.6c0,0.1,0,0.2,0,0.4c0,0.2-0.1,0.5-0.1,0.7c0,0.1,0,0.1,0,0.1
					c0,0,0,0.1,0,0.1c0,0.1,0,0.2-0.1,0.3c-0.1,0.3-0.2,0.6-0.3,0.8c0,0.1-0.1,0.2-0.1,0.3c0,0.1-0.1,0.1-0.1,0.2c0,0,0,0.1-0.1,0.1
					c0,0.1-0.1,0.2-0.1,0.2c-0.4,0.7-0.8,1.4-1.4,2c-0.1,0.1-0.1,0.1-0.2,0.2c-0.2,0.2-0.4,0.4-0.6,0.6c-0.2,0.1-0.3,0.3-0.5,0.4
					c0,0-0.1,0.1-0.2,0.1c-0.1,0.1-0.2,0.1-0.3,0.2c0,0-0.1,0-0.1,0.1c-0.1,0.1-0.3,0.2-0.4,0.2c0,0-0.1,0.1-0.2,0.1
					c-0.1,0.1-0.3,0.1-0.4,0.2c-0.1,0.1-0.2,0.1-0.3,0.1c-0.1,0.1-0.2,0.1-0.4,0.1c0,0-0.1,0-0.1,0c-0.2,0.1-0.3,0.1-0.5,0.2
					c-0.1,0-0.2,0.1-0.2,0.1s-0.2,0.1-0.2,0.1c-0.1,0-0.2,0.1-0.2,0.1c-0.2,0.1-0.5,0.1-0.8,0.1c-0.1,0-0.3,0-0.4,0.1
					c-0.1,0-0.2,0-0.2,0c-0.3,0-0.6,0-1,0.1c-2.9,0-5-1.7-5-2.8c0-0.2,0.2-0.4,0.4-0.5c0.6,0.2,1.2,0.4,1.9,0.4c3,0,6.1-3.1,6.1-7.7
					c0-3.2-2.2-4.6-4.1-4.6c-0.6,0-1,0.6-1.6,2.1c-3,6.7-6.4,14.6-8.1,22.7c-0.2,0.8-0.3,1.2-1,1.2c-2,0-5.4-0.5-5.4-2.1
					c0-2,5.4-16.8,7.9-21.5c0.5-1,1.3-1.9,2.2-2.5c-4.1,0.6-9.5,2.9-9.5,7.5c0,2.7,1.1,3.3,1.1,3.8c0,0.2-0.2,0.4-0.7,0.4
					c-2.1,0-6.3-2-6.3-6c0-5.8,7.2-8.7,17.5-8.7c0.5,0,1,0,1.4,0c0.1,0,0.1,0,0.2,0c0.2,0,0.3,0,0.5,0c0.3,0,0.7,0.1,1.1,0.1
					c0.2,0,0.3,0,0.5,0.1c0.1,0,0.2,0,0.3,0c0.1,0,0.2,0,0.3,0c0.2,0,0.3,0.1,0.5,0.1c0.2,0,0.5,0.1,0.8,0.1c0.2,0,0.4,0.1,0.6,0.1
					c0.1,0,0.2,0,0.3,0.1l0.3,0.1c0.3,0.1,0.6,0.1,0.8,0.2c0.1,0,0.2,0.1,0.3,0.1c0.1,0,0.2,0.1,0.2,0.1l0.2,0.1
					c0.2,0.1,0.4,0.1,0.6,0.2s0.4,0.2,0.5,0.2c0.1,0,0.2,0.1,0.2,0.1c0.1,0.1,0.2,0.1,0.3,0.1c0.1,0,0.1,0.1,0.2,0.1
					c0.1,0.1,0.2,0.1,0.3,0.1c0.2,0.1,0.4,0.2,0.6,0.4c0.1,0.1,0.2,0.1,0.3,0.2c0.1,0.1,0.1,0.1,0.2,0.1c0.2,0.2,0.4,0.3,0.6,0.5
					c0.1,0.1,0.2,0.2,0.3,0.4c0.1,0.1,0.2,0.2,0.3,0.4c0.1,0.1,0.2,0.2,0.3,0.4c0.1,0.1,0.2,0.2,0.2,0.4c0,0,0,0.1,0.1,0.1
					c0.1,0.1,0.1,0.2,0.2,0.3c0,0.1,0.1,0.1,0.1,0.2c0.1,0.3,0.2,0.6,0.3,0.9c0,0.1,0.1,0.1,0.1,0.2c0,0.1,0.1,0.2,0.1,0.3
					c0,0.1,0.1,0.2,0.1,0.4c0,0.1,0,0.1,0,0.2c0.1,0.3,0.1,0.6,0.1,0.8c0,0.1,0,0.3,0,0.4C71.7,222.4,71.7,222.6,71.7,222.8z"/>
			</g>
		</g>
	</g>
	<g id="Livello_2-4">
		<g id="Sfondo-4">
			<path class="st1" d="M340.2,230.4c0,1-0.4,2.1-1.5,5.1c-0.6,1.5-1.2,3.2-1.8,4.9l0,0c-0.2,0.8-0.5,1.6-0.8,2.5
				c-1.1,3.5-2.4,7.5-4.4,10.7c-1,1.8-2.4,3.3-4.1,4.5c-1.8,1.3-4.1,2-6.3,2c-1.6,0-3.3-0.3-4.8-1c-1.3-0.5-2.4-1.3-3.5-2.3
				c-0.8-0.8-1.6-1.7-2.1-2.7c-0.2-0.4-0.4-0.9-0.6-1.3c-0.3,0.1-0.6,0.2-0.9,0.3c-1.3,0.4-2.7,0.6-4.1,0.6h-0.3
				c-1.1,0-2.1-0.2-3.1-0.5c-1-0.3-1.9-0.7-2.8-1.2c-2.6-1.5-4.5-3.9-5.5-6.7c-0.2,0.1-0.4,0.2-0.6,0.3c-0.5,0.2-1.1,0.3-1.7,0.3
				c-0.2,0-0.4,0-0.5,0c-0.2,0-0.4,0-0.6,0c-0.1,0-0.3,0-0.4,0h0c-0.1,0-0.3,0-0.5-0.1c-0.1,0-0.4-0.1-0.6-0.1
				c-0.2,0-0.3-0.1-0.5-0.1l-0.1,0c-0.1,0-0.3-0.1-0.5-0.1l-0.5-0.1c0,0-0.1,0-0.1,0h0c-0.2-0.1-0.4-0.1-0.5-0.2h0
				c-0.7,0.6-1.6,0.9-2.5,0.9c-0.3,0-0.5,0-0.7,0c-1.7-0.1-3.4-0.7-4.8-1.7c-0.5,0.3-1,0.5-1.5,0.7c-1.5,0.6-3.2,1-4.9,1
				c-0.9,0-1.8-0.2-2.6-0.5c-0.9-0.3-1.6-0.9-2.3-1.5c-0.1-0.1-0.2-0.2-0.3-0.3c-0.1,0.2-0.2,0.5-0.4,0.7c-0.4,0.6-1,1.1-1.6,1.4
				c-0.5,0.2-1.1,0.3-1.7,0.3c-1.4,0-2.8-0.2-4.2-0.6c-0.8-0.3-1.6-0.7-2.3-1.3c-0.9-0.8-1.5-2-1.5-3.3c0-0.1,0-0.2,0-0.3
				c0-0.1,0-0.2,0-0.3c0-0.1,0-0.2,0-0.3v0c0-0.1,0-0.2,0.1-0.4v0c0-0.1,0-0.2,0.1-0.3c0-0.1,0-0.2,0.1-0.4c0-0.1,0-0.1,0.1-0.2l0,0
				l0,0c0.1-0.2,0.1-0.4,0.2-0.7c0,0,0,0,0,0c0-0.1,0-0.2,0.1-0.2c0.2-0.5,0.4-1.1,0.6-1.8c0-0.1,0-0.1,0.1-0.2c0,0,0-0.1,0-0.1
				c0,0,0-0.1,0-0.1c0.1-0.3,0.2-0.7,0.4-1c-0.1,0.1-0.3,0.1-0.5,0.1h0c-0.1,0-0.1,0.1-0.2,0.1c-0.1,0-0.2,0.1-0.2,0.1l0,0
				c-0.1,0-0.2,0.1-0.3,0.1h0c-0.3,0.1-0.7,0.1-1,0.2c-0.2,0-0.4,0.1-0.5,0.1c-0.1,0-0.1,0-0.2,0h0c0,0-0.1,0-0.1,0
				c-0.4,0-0.8,0.1-1.2,0.1c-1.8,0-3.5-0.5-5-1.3c-1,2.8-1.8,5.7-2.4,8.6c0,0,0,0,0,0.1c-0.1,0.7-0.4,1.4-0.8,2
				c-0.4,0.5-0.9,1-1.5,1.3c-0.6,0.3-1.2,0.4-1.8,0.4c-1.5,0-2.9-0.2-4.4-0.6c-0.9-0.2-1.7-0.6-2.4-1.2c-1.1-0.8-1.8-2.1-1.8-3.5
				c0.1-1.5,0.5-3,1-4.5c0.4-1.4,1-3.1,1.7-5c-1.6-0.3-3.1-1-4.4-2c-2.3-1.6-3.6-4.2-3.7-7c0-2.1,0.7-4.1,1.9-5.7
				c1.3-1.6,2.9-2.8,4.8-3.7c2-0.9,4.2-1.6,6.4-1.9c2.5-0.4,5.1-0.6,7.7-0.6c0.6,0,1.1,0,1.5,0c0.1,0,0.2,0,0.2,0c0.1,0,0.3,0,0.4,0
				c0.4,0,0.8,0.1,1.2,0.1c0.2,0,0.4,0,0.6,0.1c0.1,0,0.2,0,0.4,0.1c0,0,0,0,0.1,0l0.1,0c0.2,0,0.4,0.1,0.6,0.1
				c0.3,0.1,0.6,0.1,0.9,0.2c0.2,0.1,0.5,0.1,0.7,0.1c0.2,0,0.3,0.1,0.5,0.1c0.1,0,0.2,0.1,0.4,0.1c0.3,0.1,0.6,0.2,1,0.3
				c0.1,0.1,0.3,0.1,0.4,0.1s0.2,0.1,0.3,0.1c0.1,0,0.2,0.1,0.2,0.1l0,0c0.2,0.1,0.5,0.2,0.7,0.3c0.2,0.1,0.4,0.2,0.6,0.3
				c0.1,0.1,0.3,0.1,0.4,0.2l0.1,0.1l0.1,0c0.1,0.1,0.3,0.1,0.4,0.2c0.1,0.1,0.2,0.1,0.3,0.2c0.2,0.2,0.5,0.3,0.7,0.5
				c0.1,0.1,0.3,0.2,0.4,0.3l0,0c0.1,0.1,0.2,0.2,0.3,0.2c0.2,0.2,0.5,0.4,0.7,0.7l0,0c0.1,0.1,0.3,0.3,0.4,0.5
				c0.2,0.2,0.3,0.4,0.5,0.6c0.1,0.2,0.2,0.4,0.4,0.5c0.1,0.1,0.1,0.2,0.2,0.2c0.3-2.1,2.2-3.5,4.3-3.4c0.9,0,1.8,0.2,2.6,0.6
				c0.7,0.3,1.4,0.7,2.1,1.2c1,0.8,2.7,2.4,2.7,4.5c0,0.1,0,0.3,0,0.4c0,0.2,0,0.3-0.1,0.5c0,0,0,0.1,0,0.1c0,0.1,0,0.2-0.1,0.3
				c0,0,0,0,0,0.1v0c0,0,0,0,0,0c0,0.1,0,0.1,0,0.1c0,0.1,0,0.2-0.1,0.2c0,0,0,0.1,0,0.1l0,0c-0.2,0.8-0.6,1.8-1.2,3.2c0,0,0,0,0,0
				c0,0.1,0,0.1-0.1,0.2c0,0.1-0.1,0.2-0.1,0.3l0,0c0,0.1-0.1,0.2-0.1,0.3c0.3-0.2,0.6-0.3,0.9-0.5c2.1-1,4.4-1.6,6.8-1.6
				c1.5,0,2.9,0.3,4.3,0.8c0.8,0.3,1.5,0.6,2.2,1.1c0.3-0.5,0.7-0.9,1.1-1.2c0.8-0.5,1.7-0.7,2.6-0.7c1.8-0.1,3.7,0.6,5.1,1.8
				c1.8-1.1,4-1.7,6.1-1.8c0.3,0,0.7,0,1,0.1c0.1,0,0.2,0,0.3,0l0.5,0.1c0.2,0,0.3,0.1,0.4,0.1c0.1,0,0.1,0,0.2,0.1l0,0h0
				c0.3,0.1,0.7,0.3,1,0.4l0,0l0,0c0.1,0,0.1,0.1,0.2,0.1c0.1,0,0.2,0.1,0.2,0.2l0,0c0.1,0.1,0.2,0.2,0.3,0.2l0,0
				c0.2-0.2,0.5-0.3,0.7-0.4c0.1,0,0.2-0.1,0.3-0.1c0.3-0.7,0.5-1.4,0.8-1.9c0.2-0.5,0.4-1.1,0.5-1.6c0-1.3,0.7-2.4,1.8-3.1
				c0.8-0.5,1.7-0.7,2.6-0.7c0.9,0,1.8,0.2,2.6,0.6c0.7,0.3,1.4,0.7,2.1,1.2c0.6,0.5,1.2,1.1,1.7,1.7c0.6,0.8,1,1.8,1,2.8
				c0,0.1,0,0.3,0,0.4c0.5-0.2,1.1-0.2,1.6-0.2c0.3,0,0.5,0,0.8,0.1c1.7,0.2,3.3,0.9,4.5,2.1l0.2,0.2c0.2-0.5,0.5-1,1-1.4
				c0.8-0.7,1.7-1,2.7-1c2,0,3.9,0.5,5.5,1.7c0.7,0.5,1.3,1.2,1.8,1.9C339.9,228.5,340.2,229.5,340.2,230.4z"/>
		</g>
		<g id="Livello_4-4">
			<g id="y-4">
				<path class="st2" d="M332.1,227.6c-0.4-0.1-0.8,0.2-0.8,0.6c0,0,0,0.1,0,0.1c0,3.1-1,6.2-2.8,8.8c-0.7,1-1.8,1.7-3,1.9
					c-0.4,0-0.7-0.2-0.8-0.6c0-0.1,0-0.1,0-0.2c0-2.1,2.5-4.6,2.5-7c0-1.8-2.1-3.6-4.2-3.6c-0.8,0-1.2,0.3-1.2,0.7
					c0,3.4-3.8,8.5-3.8,11.6c0,2.1,1.4,3,3.4,3c4,0,6.1-2.5,6.5-2.5c0,0,0.1,0,0.1,0.1c0,0,0,0,0,0c0,0.1,0,0.2,0,0.3
					c-1.3,3.8-3.7,10.5-10,10.5c-2.6,0-3.1-1-3.7-1c-0.3,0-0.6,0.3-0.6,0.6c0,0,0,0,0,0v0c0,1.4,2.7,5.8,8,5.8
					c7.8,0,10.1-10.3,12.4-17.2c1.4-4.1,3.1-8.1,3.1-8.9C337.1,229.4,335.2,227.6,332.1,227.6z"/>
			</g>
			<g id="t-4">
				<path class="st2" d="M320.4,228.1c0,0.2,0,0.5-0.1,0.7c0,0.1,0,0.2-0.1,0.2c0,0.1,0,0.2-0.1,0.2c0,0.1-0.1,0.1-0.1,0.2l-0.1,0.2
					c0,0-0.1,0.1-0.1,0.1c0,0,0,0.1-0.1,0.1c-0.1,0.1-0.1,0.1-0.2,0.2l-0.2,0.2c-0.1,0.1-0.2,0.1-0.2,0.2c-0.1,0.1-0.1,0.1-0.2,0.1
					c0,0,0,0-0.1,0c-0.1,0.1-0.2,0.1-0.2,0.1c0,0,0,0,0,0c-0.1,0-0.2,0.1-0.3,0.1c-0.1,0.1-0.2,0.1-0.3,0.1h0c0,0-0.1,0-0.2,0.1
					l-0.2,0.1l-0.2,0.1c-0.1,0-0.1,0-0.2,0c-0.2,0-0.4,0.1-0.6,0.1c-0.1,0-0.2,0-0.4,0h0c-0.1,0-0.2,0-0.4,0c0,0,0,0,0,0
					c0,0.1-0.1,0.1-0.1,0.2c-0.2,0.4-0.4,0.8-0.5,1.2c-0.1,0.2-0.1,0.4-0.2,0.5c-0.1,0.2-0.1,0.4-0.2,0.5c-0.2,0.6-0.5,1.1-0.7,1.7
					c0,0.1-0.1,0.2-0.1,0.3c0,0.1-0.1,0.1-0.1,0.2c-0.5,1.1-1.2,3.2-1.6,4.6c0,0,0,0,0,0c0,0,0,0,0,0c0,0,0,0.1,0,0.1v0
					c-0.3,1.3-1.5,2.1-2.8,2.1c-0.2,0-0.4,0-0.5-0.1c-0.2,0-0.4-0.1-0.5-0.2c-1.1-0.4-1.7-1.4-1.8-2.6v-0.1l0,0c0-0.2,0-0.4,0.1-0.6
					c0.1-0.2,0.1-0.4,0.2-0.6c0.1-0.3,0.2-0.6,0.4-0.8c0.3-0.7,0.6-1.4,0.9-2.1c0-0.1,0-0.1,0.1-0.1c0.3-0.8,0.6-1.4,0.8-2
					c0.2-0.4,0.3-0.8,0.5-1.1v0c0.2-0.3,0.3-0.7,0.2-1.1c0,0,0-0.1-0.1-0.1c-0.5,0-1.2,0-1.2-0.6c0.2-1,0.6-1.9,1.3-2.7
					c0.1-0.1,0.2-0.2,0.4-0.2c0,0,0.1-0.1,0.1-0.1l0,0c0,0,0.1,0,0.1,0c0.3-0.1,0.6-0.1,0.9-0.1c0,0,0.1,0,0.1,0c0,0,0,0,0,0
					c1.1-2.7,2.1-5.1,2.1-6.2c0-0.4,0.4-0.7,1.2-0.7c1.8,0,4.2,1.9,4.2,3.1c-0.3,1.3-0.8,2.5-1.4,3.7c0,0,0,0.1,0,0.1c0,0,0,0,0,0
					h0.9c0.1,0,0.3,0,0.5,0c0.5-0.1,0.8-0.1,1-0.1h0.2C320.2,227.6,320.4,227.8,320.4,228.1z"/>
			</g>
			<g id="n-4">
				<path class="st2" d="M315.5,241.2c-0.1-0.3-0.5-0.5-0.8-0.3c0,0,0,0,0,0c0,0,0,0,0,0c0,0,0,0,0,0c-0.1,0-0.1,0.1-0.2,0.3
					c-0.6,2.4-2.8,4.1-5.3,4.1c-0.4,0-0.7,0-1-0.1c-2.6-0.5-4.5-2.8-4.5-5.4l0,0c0-0.4,0.1-0.8,0.2-1.3c0.1-0.4,0.3-0.9,0.4-1.3
					c0.6-1.6,1.5-3.2,2.1-4.6l0-0.1c0.4-0.8,0.6-1.6,0.6-2.5c0-0.1,0-0.2,0-0.3c0,0,0-0.1,0-0.1c0-0.1,0-0.2,0-0.2
					c0-0.1,0-0.1,0-0.2c0,0,0-0.1,0-0.1c0-0.1,0-0.1-0.1-0.2c0-0.1-0.1-0.2-0.1-0.2c0,0,0-0.1-0.1-0.1s0-0.1,0-0.1
					c0,0-0.1-0.1-0.1-0.1c0,0,0-0.1-0.1-0.1l-0.1-0.1c-0.1-0.1-0.1-0.1-0.2-0.2c-0.1-0.1-0.1-0.1-0.2-0.1l0,0c0,0-0.1-0.1-0.1-0.1
					c0,0,0,0,0,0c0,0,0,0,0,0c0,0,0,0-0.1-0.1c-0.1-0.1-0.3-0.2-0.5-0.2c0,0-0.1,0-0.1,0h0c-0.1,0-0.2-0.1-0.2-0.1
					c-0.1,0-0.2-0.1-0.3-0.1c0,0-0.1,0-0.1,0c-0.2,0-0.4-0.1-0.7-0.1c-3.9,0-6.8,3.1-6.9,3.1c-0.4-1.9-2.2-3.3-4.2-3.1
					c-0.8,0-1.2,0.3-1.2,0.7v0.2c0,0.1,0,0.1,0,0.2c0,0.1,0,0.1,0,0.2c0,0.1,0,0.1,0,0.1c0,0.3-0.1,0.7-0.2,1c0,0.1-0.1,0.3-0.1,0.5
					c-0.1,0.5-0.3,1.1-0.5,1.7c-0.1,0.2-0.2,0.5-0.3,0.8c-0.2,0.5-0.4,0.9-0.6,1.4c-0.1,0.1-0.1,0.3-0.2,0.4
					c-0.5,1.1-0.9,2.2-1.3,3.3c0,0.1,0,0.1-0.1,0.2c-0.1,0.3-0.2,0.7-0.3,1c0,0.1,0,0.1-0.1,0.2c0,0.1-0.1,0.3-0.1,0.4
					c0,0.1-0.1,0.2-0.1,0.4c0,0.1,0,0.3,0,0.4c0,0,0,0.1,0,0.1c0,0.1,0,0.2,0,0.2c0,0.1,0,0.1,0,0.2v0c0,0.1,0,0.1,0,0.2l0.1,0.2
					c0,0,0,0.1,0.1,0.1c0,0.1,0.1,0.1,0.1,0.2c0,0,0.1,0.1,0.1,0.1c0.1,0.1,0.3,0.2,0.5,0.3c0.1,0.1,0.2,0.1,0.3,0.1
					c0.1,0.1,0.2,0.1,0.3,0.1c0,0,0,0,0,0c0.1,0,0.2,0.1,0.4,0.1c0.1,0,0.2,0.1,0.4,0.1c0.1,0,0.3,0.1,0.4,0.1s0.3,0.1,0.4,0.1
					l0.4,0.1c0.1,0,0.2,0,0.3,0c0.2,0,0.3,0,0.5,0c0.2,0,0.3,0,0.5,0c0.7,0,0.8-0.4,0.8-1c0-1.9,1.8-5.6,3.3-8
					c1.3-1.9,2.7-2.9,3.3-2.9c0.3,0,0.7,0.2,0.7,0.6c0,0,0,0.1,0,0.1c0,1-1.3,2.8-2.4,5.2c-0.1,0.2-0.2,0.4-0.3,0.7c0,0,0,0.1,0,0.1
					c-2,4.7,0.2,10.2,4.9,12.2c1.1,0.5,2.2,0.7,3.4,0.7h0.2c4.1,0.1,7.9-2.5,9.3-6.3l0,0c0.1-0.3,0.2-0.7,0.2-1.1c0-0.3,0-0.6,0-0.9
					C315.7,241.9,315.6,241.5,315.5,241.2z M299.6,242.6L299.6,242.6L299.6,242.6z"/>
			</g>
			<g id="a-4">
				<path class="st2" d="M288.7,230.5c-0.1-0.5-0.5-1-0.9-1.3c-1.6-1.2-3.5-1.8-5.4-1.8c-3.7,0-7.2,1.7-9.6,4.4
					c-1.9,2-3,4.5-3.1,7.2v0.1c0,2.4,1.4,3.8,3.6,3.8c3.9,0,6.1-2.4,6.6-2.4c0.3,0,1.6,2.2,4.7,2.4c0.2,0,0.3,0,0.5,0
					c0.4,0,0.6-0.2,0.6-0.5c-0.2-0.6-0.3-1.3-0.3-1.9C285.3,235.1,288.7,231.3,288.7,230.5z M276.7,238.7c-0.4,0-0.7-0.3-0.8-0.7
					c0,0,0-0.1,0-0.1c0-2.8,3.5-7.7,6.1-7.7c0.4,0,0.5,0.2,0.5,0.6C282.5,231.7,278.9,238.7,276.7,238.7z"/>
			</g>
			<g id="l-4">
				<path class="st2" d="M273.4,220.3v0.1c0,0,0,0.1,0,0.1c0,0,0,0.1,0,0.1c0,0.1,0,0.1,0,0.2v0c0,0.1,0,0.1,0,0.2c0,0,0,0,0,0.1
					c0,0.1,0,0.2-0.1,0.3c-0.2,0.8-0.6,1.7-1,2.9c-0.1,0.2-0.1,0.4-0.2,0.6c-0.2,0.5-0.4,1-0.6,1.5c-0.1,0.2-0.1,0.4-0.2,0.5
					c-0.1,0.4-0.3,0.7-0.5,1.1c-0.1,0.2-0.2,0.4-0.2,0.6c-0.1,0.2-0.2,0.4-0.2,0.6c-0.1,0.3-0.2,0.5-0.4,0.8v0
					c-0.8,1.8-1.6,3.6-2.3,5.2c-0.1,0.2-0.2,0.5-0.3,0.8c0,0.1-0.1,0.3-0.2,0.4c-0.1,0.2-0.2,0.5-0.3,0.7c-0.1,0.1-0.1,0.3-0.2,0.4
					c-0.1,0.2-0.2,0.4-0.2,0.6c0,0.1-0.1,0.2-0.1,0.3c-0.3,0.8-0.5,1.6-0.8,2.4c0,0.1,0,0.1,0,0.1c0,0.1,0,0.2,0,0.3
					c0,0.1,0,0.2,0,0.2c0,0,0,0.1,0,0.1v0c0,0.1,0,0.1,0,0.2c0,0.6-0.1,1-0.8,1c-2,0-4.8-0.5-4.8-2.1v-0.1c0,0,0-0.1,0-0.1
					c0-0.1,0-0.1,0-0.2c0-0.1,0-0.1,0-0.2s0-0.1,0-0.2s0-0.1,0-0.2l0-0.2c0.1-0.2,0.1-0.3,0.1-0.6c0-0.1,0-0.1,0.1-0.2
					c0.1-0.5,0.4-1,0.6-1.6c0-0.1,0.1-0.2,0.1-0.4c0.2-0.4,0.3-0.9,0.5-1.3c0.1-0.2,0.1-0.4,0.2-0.6c0-0.1,0-0.1,0-0.1
					c0.2-0.4,0.4-0.8,0.5-1.3c0.1-0.3,0.2-0.6,0.4-0.8l3.7-8.9c0.1-0.2,0.1-0.4,0.2-0.5c0,0,0,0,0,0c0.1-0.2,0.2-0.4,0.2-0.6
					c0.1-0.2,0.2-0.4,0.2-0.6l0.1-0.3c0-0.1,0.1-0.2,0.1-0.4c0.3-0.8,0.5-1.5,0.7-2.1c0-0.1,0.1-0.2,0.1-0.4v0
					c0-0.1,0.1-0.2,0.1-0.3c0-0.1,0-0.1,0-0.2c0-0.2,0-0.3,0-0.5c0-0.4,0.4-0.7,1.2-0.7C271,217.1,273.4,219.1,273.4,220.3z"/>
			</g>
			<g id="P-4">
				<path class="st2" d="M263.4,223.3c0,0.2,0,0.4,0,0.6c0,0.1,0,0.2,0,0.4c0,0.2-0.1,0.5-0.1,0.7c0,0.1,0,0.1,0,0.1
					c0,0,0,0.1,0,0.1c0,0.1,0,0.2-0.1,0.3c-0.1,0.3-0.2,0.6-0.3,0.8c0,0.1-0.1,0.2-0.1,0.3c0,0.1-0.1,0.1-0.1,0.2c0,0,0,0.1-0.1,0.1
					c0,0.1-0.1,0.2-0.1,0.2c-0.4,0.7-0.8,1.4-1.4,2c-0.1,0.1-0.1,0.1-0.2,0.2c-0.2,0.2-0.4,0.4-0.6,0.6c-0.2,0.1-0.3,0.3-0.5,0.4
					c0,0-0.1,0.1-0.1,0.1c-0.1,0.1-0.2,0.1-0.3,0.2c0,0-0.1,0-0.1,0.1c-0.1,0.1-0.3,0.2-0.4,0.2c0,0-0.1,0.1-0.1,0.1
					c-0.1,0.1-0.3,0.1-0.4,0.2c-0.1,0.1-0.2,0.1-0.3,0.1c-0.1,0.1-0.2,0.1-0.4,0.1c0,0-0.1,0-0.1,0c-0.2,0.1-0.3,0.1-0.5,0.2
					c-0.1,0-0.1,0.1-0.2,0.1s-0.1,0.1-0.2,0.1c-0.1,0-0.2,0.1-0.2,0.1c-0.2,0.1-0.5,0.1-0.8,0.1c-0.1,0-0.3,0-0.4,0.1
					c-0.1,0-0.1,0-0.2,0c-0.3,0-0.6,0-0.9,0.1c-2.9,0-5-1.7-5-2.8c0-0.2,0.2-0.4,0.4-0.5c0.6,0.2,1.2,0.4,1.9,0.4
					c3,0,6.1-3.1,6.1-7.7c0-3.2-2.2-4.6-4.1-4.6c-0.6,0-1,0.6-1.6,2.1c-3,6.7-6.4,14.6-8.1,22.7c-0.2,0.8-0.4,1.3-1,1.3
					c-2,0-5.4-0.5-5.4-2.1c0-2,5.4-16.8,7.9-21.5c0.5-1,1.3-1.9,2.2-2.5c-4.1,0.6-9.5,2.9-9.5,7.5c0,2.7,1.1,3.3,1.1,3.8
					c0,0.2-0.2,0.4-0.7,0.4c-2.1,0-6.3-2-6.3-6c0-5.8,7.2-8.7,17.5-8.7c0.5,0,1,0,1.4,0c0.1,0,0.1,0,0.1,0c0.1,0,0.3,0,0.4,0
					c0.4,0,0.7,0.1,1.1,0.1c0.2,0,0.4,0,0.5,0.1c0.1,0,0.2,0,0.3,0c0.1,0,0.2,0,0.3,0c0.2,0,0.3,0.1,0.5,0.1c0.2,0,0.5,0.1,0.8,0.1
					c0.2,0,0.4,0.1,0.6,0.1c0.1,0,0.2,0,0.4,0.1l0.4,0.1c0.3,0.1,0.5,0.1,0.8,0.2c0.1,0,0.2,0.1,0.3,0.1c0.1,0,0.2,0.1,0.2,0.1
					l0.2,0.1c0.2,0.1,0.4,0.1,0.5,0.2s0.4,0.2,0.5,0.2c0.1,0,0.2,0.1,0.2,0.1c0.1,0.1,0.2,0.1,0.3,0.1c0.1,0,0.1,0.1,0.2,0.1
					c0.1,0.1,0.2,0.1,0.3,0.1c0.2,0.1,0.4,0.2,0.6,0.4c0.1,0.1,0.2,0.1,0.3,0.2c0.1,0.1,0.1,0.1,0.2,0.1c0.2,0.2,0.4,0.3,0.5,0.5
					c0.1,0.1,0.2,0.2,0.3,0.4c0.1,0.1,0.2,0.2,0.3,0.4c0.1,0.1,0.2,0.2,0.3,0.4c0.1,0.1,0.2,0.2,0.2,0.4c0,0,0,0.1,0,0.1
					c0.1,0.1,0.1,0.2,0.2,0.3c0,0.1,0.1,0.1,0.1,0.2c0.1,0.3,0.2,0.6,0.4,0.9c0,0.1,0,0.1,0.1,0.2c0,0.1,0.1,0.2,0.1,0.3
					c0,0.1,0.1,0.2,0.1,0.4c0,0.1,0,0.1,0,0.2c0.1,0.3,0.1,0.6,0.1,0.8c0,0.1,0,0.3,0,0.4C263.4,223,263.4,223.2,263.4,223.3z"/>
			</g>
		</g>
		<g id="Scritta-4">
			<g id="y-2-5">
				
					<linearGradient id="SVGID_19_" gradientUnits="userSpaceOnUse" x1="324.5423" y1="272.8072" x2="324.5423" y2="243.5537" gradientTransform="matrix(1 0 0 -1 0 499.8898)">
					<stop  offset="0.1" style="stop-color:#EAE71B"/>
					<stop  offset="0.19" style="stop-color:#E3E41F"/>
					<stop  offset="0.3" style="stop-color:#D5DF27"/>
					<stop  offset="0.44" style="stop-color:#BCD631"/>
					<stop  offset="0.58" style="stop-color:#9BCB3C"/>
					<stop  offset="0.73" style="stop-color:#73C053"/>
					<stop  offset="0.89" style="stop-color:#46B972"/>
					<stop  offset="1" style="stop-color:#09B68D"/>
				</linearGradient>
				<path class="st21" d="M331.3,227.1c-0.4-0.1-0.8,0.2-0.8,0.6c0,0,0,0.1,0,0.1c0,3.1-1,6.2-2.8,8.8c-0.7,1-1.8,1.7-3,1.9
					c-0.4,0-0.7-0.2-0.8-0.6c0-0.1,0-0.1,0-0.2c0-2.1,2.5-4.6,2.5-7c0-1.8-2.1-3.6-4.2-3.6c-0.8,0-1.2,0.3-1.2,0.7
					c0,3.4-3.8,8.5-3.8,11.6c0,2.1,1.4,3,3.4,3c4,0,6.1-2.5,6.5-2.5c0,0,0.1,0,0.1,0.1c0,0,0,0,0,0c0,0.1,0,0.2,0,0.3
					c-1.3,3.8-3.7,10.5-10,10.5c-2.6,0-3.1-1-3.7-1c-0.3,0-0.6,0.3-0.6,0.6c0,0,0,0,0,0v0c0,1.4,2.7,5.8,8,5.8
					c7.8,0,10.1-10.3,12.4-17.2c1.4-4.1,3.1-8.1,3.1-8.9C336.2,228.8,334.4,227.1,331.3,227.1z"/>
			</g>
			<g id="t-2-5">
				
					<linearGradient id="SVGID_20_" gradientUnits="userSpaceOnUse" x1="312.6367" y1="279.5875" x2="312.6367" y2="257.4945" gradientTransform="matrix(1 0 0 -1 0 499.8898)">
					<stop  offset="0.1" style="stop-color:#EAE71B"/>
					<stop  offset="0.25" style="stop-color:#E4E51E"/>
					<stop  offset="0.43" style="stop-color:#D9E024"/>
					<stop  offset="0.62" style="stop-color:#C2D82E"/>
					<stop  offset="0.81" style="stop-color:#A6CE38"/>
					<stop  offset="1" style="stop-color:#86C440"/>
				</linearGradient>
				<path class="st22" d="M319.5,227.5c0,0.2,0,0.5-0.1,0.7c0,0.1,0,0.2-0.1,0.2c0,0.1,0,0.2-0.1,0.2s-0.1,0.1-0.1,0.2l-0.1,0.2
					c0,0-0.1,0.1-0.1,0.1c0,0,0,0.1-0.1,0.1c-0.1,0.1-0.1,0.1-0.2,0.2l-0.2,0.2c-0.1,0.1-0.2,0.1-0.2,0.2c-0.1,0.1-0.1,0.1-0.2,0.1
					c0,0,0,0-0.1,0c-0.1,0.1-0.2,0.1-0.2,0.1c0,0,0,0,0,0c-0.1,0-0.2,0.1-0.3,0.1c-0.1,0.1-0.2,0.1-0.3,0.1h0c0,0-0.1,0-0.2,0.1
					l-0.2,0.1l-0.2,0.1c-0.1,0-0.1,0-0.2,0c-0.2,0-0.4,0.1-0.6,0.1c-0.1,0-0.2,0-0.4,0h0c-0.1,0-0.2,0-0.4,0c0,0,0,0,0,0
					c0,0.1-0.1,0.1-0.1,0.2c-0.2,0.4-0.4,0.8-0.5,1.2c-0.1,0.2-0.1,0.4-0.2,0.5c-0.1,0.2-0.1,0.4-0.2,0.5c-0.2,0.6-0.5,1.1-0.7,1.7
					c0,0.1-0.1,0.2-0.1,0.3c0,0.1-0.1,0.1-0.1,0.2c-0.5,1.1-1.2,3.2-1.6,4.6c0,0,0,0,0,0c0,0,0,0,0,0c0,0,0,0.1,0,0.1v0
					c-0.3,1.3-1.5,2.1-2.8,2.1c-0.2,0-0.4,0-0.5-0.1c-0.2,0-0.4-0.1-0.5-0.2c-1.1-0.4-1.7-1.4-1.8-2.6v-0.1l0,0c0-0.2,0-0.4,0.1-0.6
					c0.1-0.2,0.1-0.4,0.2-0.6c0.1-0.3,0.2-0.6,0.4-0.8c0.3-0.7,0.6-1.4,0.9-2.1c0-0.1,0-0.1,0.1-0.1c0.3-0.8,0.6-1.4,0.8-2
					c0.2-0.4,0.3-0.8,0.5-1.1v0c0.2-0.3,0.2-0.7,0.2-1.1c0,0,0-0.1-0.1-0.1c-0.5,0-1.2,0-1.2-0.6c0.2-1,0.6-1.9,1.3-2.7
					c0.1-0.1,0.2-0.2,0.4-0.2c0,0,0.1-0.1,0.1-0.1l0,0c0,0,0.1,0,0.1,0c0.3-0.1,0.6-0.1,0.9-0.1c0,0,0.1,0,0.1,0c0,0,0,0,0,0
					c1.1-2.7,2.1-5.1,2.1-6.2c0-0.4,0.4-0.7,1.2-0.7c1.8,0,4.2,1.9,4.2,3.1c-0.3,1.3-0.8,2.5-1.4,3.7c0,0,0,0.1,0,0.1c0,0,0,0,0,0
					h0.9c0.1,0,0.3,0,0.5,0c0.5-0.1,0.8-0.1,1-0.1h0.2C319.4,227.1,319.5,227.2,319.5,227.5z"/>
			</g>
			<g id="n-2-5">
				
					<linearGradient id="SVGID_21_" gradientUnits="userSpaceOnUse" x1="300.7167" y1="273.1277" x2="300.7167" y2="249.9207" gradientTransform="matrix(1 0 0 -1 0 499.8898)">
					<stop  offset="0.1" style="stop-color:#EAE71B"/>
					<stop  offset="0.19" style="stop-color:#E3E41F"/>
					<stop  offset="0.3" style="stop-color:#D5DF27"/>
					<stop  offset="0.44" style="stop-color:#BCD631"/>
					<stop  offset="0.58" style="stop-color:#9BCB3C"/>
					<stop  offset="0.73" style="stop-color:#73C053"/>
					<stop  offset="0.89" style="stop-color:#46B972"/>
					<stop  offset="1" style="stop-color:#09B68D"/>
				</linearGradient>
				<path class="st23" d="M314.7,240.6c-0.1-0.3-0.5-0.5-0.8-0.3c0,0,0,0,0,0c0,0,0,0,0,0c0,0,0,0,0,0c-0.1,0-0.1,0.1-0.2,0.3
					c-0.6,2.4-2.8,4.1-5.3,4.1c-0.4,0-0.7,0-1-0.1c-2.6-0.5-4.5-2.8-4.5-5.4l0,0c0-0.4,0.1-0.8,0.2-1.3c0.1-0.4,0.3-0.9,0.4-1.3
					c0.6-1.6,1.5-3.2,2.1-4.6l0-0.1c0.4-0.8,0.6-1.6,0.6-2.5c0-0.1,0-0.2,0-0.3c0,0,0-0.1,0-0.1c0-0.1,0-0.2,0-0.2
					c0-0.1,0-0.1,0-0.2c0,0,0-0.1,0-0.1c0-0.1,0-0.1-0.1-0.2c0-0.1-0.1-0.2-0.1-0.2c0,0,0-0.1-0.1-0.1s0-0.1,0-0.1
					c0,0-0.1-0.1-0.1-0.1c0,0,0-0.1-0.1-0.1l-0.1-0.1c-0.1-0.1-0.1-0.1-0.2-0.2c-0.1-0.1-0.1-0.1-0.2-0.1l0,0c0,0-0.1-0.1-0.1-0.1
					c0,0,0,0,0,0c0,0,0,0,0,0c0,0,0,0-0.1-0.1c-0.1-0.1-0.3-0.2-0.5-0.2c0,0-0.1,0-0.1,0h0c-0.1,0-0.2-0.1-0.2-0.1
					c-0.1,0-0.2-0.1-0.3-0.1c0,0-0.1,0-0.1,0c-0.2,0-0.4-0.1-0.7-0.1c-3.9,0-6.8,3.1-6.9,3.1c-0.4-1.9-2.2-3.3-4.2-3.1
					c-0.8,0-1.2,0.3-1.2,0.7v0.2c0,0.1,0,0.1,0,0.2c0,0.1,0,0.1,0,0.2c0,0.1,0,0.1,0,0.1c0,0.3-0.1,0.7-0.2,1c0,0.1-0.1,0.3-0.1,0.5
					c-0.1,0.5-0.3,1.1-0.5,1.7c-0.1,0.2-0.2,0.5-0.3,0.8c-0.2,0.5-0.4,0.9-0.6,1.4c-0.1,0.1-0.1,0.3-0.2,0.4
					c-0.5,1.1-0.9,2.2-1.3,3.3c0,0.1,0,0.1-0.1,0.2c-0.1,0.3-0.2,0.7-0.3,1c0,0.1,0,0.1-0.1,0.2c0,0.1-0.1,0.3-0.1,0.4
					c0,0.1-0.1,0.2-0.1,0.4c0,0.1,0,0.3,0,0.4c0,0,0,0.1,0,0.1c0,0.1,0,0.2,0,0.2c0,0.1,0,0.1,0,0.2v0c0,0.1,0,0.1,0,0.2l0.1,0.2
					c0,0,0,0.1,0.1,0.1c0,0.1,0.1,0.1,0.1,0.2c0,0,0.1,0.1,0.1,0.1c0.1,0.1,0.3,0.2,0.5,0.3c0.1,0.1,0.2,0.1,0.3,0.1
					c0.1,0.1,0.2,0.1,0.3,0.1c0,0,0,0,0,0c0.1,0,0.2,0.1,0.4,0.1c0.1,0,0.2,0.1,0.4,0.1c0.1,0,0.3,0.1,0.4,0.1s0.3,0.1,0.4,0.1
					l0.4,0.1c0.1,0,0.2,0,0.3,0c0.2,0,0.3,0,0.5,0c0.2,0,0.3,0,0.5,0c0.7,0,0.8-0.4,0.8-1c0-1.9,1.8-5.6,3.3-8
					c1.3-1.9,2.7-2.9,3.3-2.9c0.3,0,0.7,0.2,0.7,0.6c0,0,0,0.1,0,0.1c0,1-1.3,2.8-2.4,5.2c-0.1,0.2-0.2,0.4-0.3,0.7c0,0,0,0.1,0,0.1
					c-2,4.7,0.2,10.2,4.9,12.2c1.1,0.5,2.2,0.7,3.4,0.7h0.2c4.1,0.1,7.9-2.5,9.3-6.3l0,0c0.1-0.3,0.2-0.7,0.2-1.1c0-0.3,0-0.6,0-0.9
					C314.9,241.3,314.8,241,314.7,240.6z M298.7,242L298.7,242L298.7,242z"/>
			</g>
			<g id="a-2-5">
				
					<linearGradient id="SVGID_22_" gradientUnits="userSpaceOnUse" x1="278.3281" y1="273.1019" x2="278.3281" y2="257.5927" gradientTransform="matrix(1 0 0 -1 0 499.8898)">
					<stop  offset="0.1" style="stop-color:#EAE71B"/>
					<stop  offset="0.19" style="stop-color:#E3E41F"/>
					<stop  offset="0.3" style="stop-color:#D5DF27"/>
					<stop  offset="0.44" style="stop-color:#BCD631"/>
					<stop  offset="0.58" style="stop-color:#9BCB3C"/>
					<stop  offset="0.73" style="stop-color:#73C053"/>
					<stop  offset="0.89" style="stop-color:#46B972"/>
					<stop  offset="1" style="stop-color:#09B68D"/>
				</linearGradient>
				<path class="st24" d="M287.8,229.9c-0.1-0.5-0.5-1-0.9-1.3c-1.6-1.2-3.5-1.8-5.4-1.8c-3.7,0-7.2,1.7-9.6,4.4
					c-1.9,2-3,4.5-3.1,7.2v0.1c0,2.4,1.4,3.8,3.6,3.8c3.9,0,6.1-2.4,6.6-2.4c0.3,0,1.6,2.2,4.7,2.4c0.2,0,0.3,0,0.5,0
					c0.4,0,0.6-0.2,0.6-0.5c-0.2-0.6-0.3-1.3-0.3-1.9C284.5,234.6,287.8,230.7,287.8,229.9z M275.8,238.2c-0.4,0-0.7-0.3-0.8-0.7
					c0,0,0-0.1,0-0.1c0-2.8,3.5-7.7,6.1-7.7c0.4,0,0.5,0.2,0.5,0.6C281.7,231.2,278.1,238.2,275.8,238.2L275.8,238.2z"/>
			</g>
			<g id="l-2-5">
				
					<linearGradient id="SVGID_23_" gradientUnits="userSpaceOnUse" x1="265.7063" y1="283.3057" x2="265.7063" y2="257.5936" gradientTransform="matrix(1 0 0 -1 0 499.8898)">
					<stop  offset="0.1" style="stop-color:#EAE71B"/>
					<stop  offset="0.19" style="stop-color:#E3E41F"/>
					<stop  offset="0.3" style="stop-color:#D5DF27"/>
					<stop  offset="0.44" style="stop-color:#BCD631"/>
					<stop  offset="0.58" style="stop-color:#9BCB3C"/>
					<stop  offset="0.73" style="stop-color:#73C053"/>
					<stop  offset="0.89" style="stop-color:#46B972"/>
					<stop  offset="1" style="stop-color:#09B68D"/>
				</linearGradient>
				<path class="st25" d="M272.6,219.7v0.1c0,0,0,0.1,0,0.1c0,0,0,0.1,0,0.1c0,0.1,0,0.1,0,0.2v0c0,0.1,0,0.1,0,0.2c0,0,0,0,0,0.1
					c0,0.1,0,0.2-0.1,0.3c-0.2,0.8-0.6,1.7-1,2.9c-0.1,0.2-0.1,0.4-0.2,0.6c-0.2,0.5-0.4,1-0.6,1.5c-0.1,0.2-0.1,0.4-0.2,0.5
					c-0.1,0.4-0.3,0.7-0.5,1.1c-0.1,0.2-0.2,0.4-0.2,0.6c-0.1,0.2-0.2,0.4-0.2,0.6c-0.1,0.3-0.2,0.5-0.4,0.8v0
					c-0.8,1.8-1.6,3.6-2.3,5.2c-0.1,0.2-0.2,0.5-0.3,0.8c0,0.1-0.1,0.3-0.2,0.4c-0.1,0.2-0.2,0.5-0.3,0.7c-0.1,0.1-0.1,0.3-0.2,0.4
					c-0.1,0.2-0.2,0.4-0.2,0.6c0,0.1-0.1,0.2-0.1,0.3c-0.3,0.8-0.5,1.6-0.8,2.4c0,0.1,0,0.1,0,0.1c0,0.1,0,0.2,0,0.3
					c0,0.1,0,0.2,0,0.2c0,0,0,0.1,0,0.1v0c0,0.1,0,0.1,0,0.2c0,0.6-0.1,1-0.8,1c-2,0-4.8-0.5-4.8-2.1v-0.1c0,0,0-0.1,0-0.1
					c0-0.1,0-0.1,0-0.2c0-0.1,0-0.1,0-0.2s0-0.1,0-0.2s0-0.1,0-0.2l0-0.2c0.1-0.2,0.1-0.3,0.1-0.6c0-0.1,0-0.1,0.1-0.2
					c0.1-0.5,0.4-1,0.6-1.6c0-0.1,0.1-0.2,0.1-0.4c0.2-0.4,0.3-0.9,0.5-1.3c0.1-0.2,0.1-0.4,0.2-0.6c0-0.1,0-0.1,0-0.1
					c0.2-0.4,0.4-0.8,0.5-1.3c0.1-0.3,0.2-0.6,0.4-0.8l3.7-8.9c0.1-0.2,0.1-0.4,0.2-0.5c0,0,0,0,0,0c0.1-0.2,0.2-0.4,0.2-0.6
					c0.1-0.2,0.2-0.4,0.2-0.6l0.1-0.3c0-0.1,0.1-0.2,0.1-0.4c0.3-0.8,0.5-1.5,0.7-2.1c0-0.1,0.1-0.2,0.1-0.4v0
					c0-0.1,0.1-0.2,0.1-0.3c0-0.1,0-0.1,0-0.2c0-0.2,0-0.3,0-0.5c0-0.4,0.4-0.7,1.2-0.7C270.2,216.6,272.6,218.5,272.6,219.7z"/>
			</g>
			<g id="P-2-5">
				
					<linearGradient id="SVGID_24_" gradientUnits="userSpaceOnUse" x1="246.7634" y1="286.3424" x2="246.7634" y2="257.2281" gradientTransform="matrix(1 0 0 -1 0 499.8898)">
					<stop  offset="0.1" style="stop-color:#EAE71B"/>
					<stop  offset="0.19" style="stop-color:#E3E41F"/>
					<stop  offset="0.3" style="stop-color:#D5DF27"/>
					<stop  offset="0.44" style="stop-color:#BCD631"/>
					<stop  offset="0.58" style="stop-color:#9BCB3C"/>
					<stop  offset="0.73" style="stop-color:#73C053"/>
					<stop  offset="0.89" style="stop-color:#46B972"/>
					<stop  offset="1" style="stop-color:#09B68D"/>
				</linearGradient>
				<path class="st26" d="M262.6,222.8c0,0.2,0,0.4,0,0.6c0,0.1,0,0.2,0,0.4c0,0.2-0.1,0.5-0.1,0.7c0,0.1,0,0.1,0,0.1
					c0,0,0,0.1,0,0.1c0,0.1,0,0.2-0.1,0.3c-0.1,0.3-0.2,0.6-0.3,0.8c0,0.1-0.1,0.2-0.1,0.3c0,0.1-0.1,0.1-0.1,0.2c0,0,0,0.1-0.1,0.1
					c0,0.1-0.1,0.2-0.1,0.2c-0.4,0.7-0.8,1.4-1.4,2c-0.1,0.1-0.1,0.1-0.2,0.2c-0.2,0.2-0.4,0.4-0.6,0.6c-0.2,0.1-0.3,0.3-0.5,0.4
					c0,0-0.1,0.1-0.1,0.1c-0.1,0.1-0.2,0.1-0.3,0.2c0,0-0.1,0-0.1,0.1c-0.1,0.1-0.3,0.2-0.4,0.2c0,0-0.1,0.1-0.1,0.1
					c-0.1,0.1-0.3,0.1-0.4,0.2c-0.1,0.1-0.2,0.1-0.3,0.1c-0.1,0.1-0.2,0.1-0.4,0.1c0,0-0.1,0-0.1,0c-0.2,0.1-0.3,0.1-0.5,0.2
					c-0.1,0-0.1,0.1-0.2,0.1s-0.1,0.1-0.2,0.1c-0.1,0-0.2,0.1-0.2,0.1c-0.2,0.1-0.5,0.1-0.8,0.1c-0.1,0-0.3,0-0.4,0.1
					c-0.1,0-0.1,0-0.2,0c-0.3,0-0.6,0.1-1,0.1c-2.9,0-5-1.7-5-2.8c0-0.2,0.2-0.4,0.4-0.5c0.6,0.2,1.2,0.4,1.9,0.4
					c3,0,6.1-3.1,6.1-7.7c0-3.2-2.2-4.6-4.1-4.6c-0.6,0-1,0.6-1.6,2.1c-3,6.7-6.4,14.6-8.1,22.7c-0.2,0.8-0.4,1.2-1,1.2
					c-2,0-5.4-0.5-5.4-2.1c0-2,5.4-16.8,7.9-21.5c0.5-1,1.3-1.9,2.2-2.5c-4.1,0.6-9.5,2.9-9.5,7.5c0,2.7,1.1,3.3,1.1,3.8
					c0,0.2-0.2,0.4-0.7,0.4c-2.1,0-6.3-2-6.3-6c0-5.8,7.2-8.7,17.5-8.7c0.5,0,0.9,0,1.4,0c0.1,0,0.1,0,0.1,0c0.1,0,0.3,0,0.4,0
					c0.4,0,0.7,0.1,1.1,0.1c0.2,0,0.4,0,0.5,0.1c0.1,0,0.2,0,0.3,0c0.1,0,0.2,0,0.3,0c0.2,0,0.3,0.1,0.5,0.1c0.2,0,0.5,0.1,0.8,0.1
					c0.2,0,0.4,0.1,0.6,0.1c0.1,0,0.2,0,0.4,0.1l0.4,0.1c0.3,0.1,0.6,0.1,0.8,0.2c0.1,0,0.2,0.1,0.3,0.1c0.1,0,0.2,0.1,0.2,0.1
					l0.2,0.1c0.2,0.1,0.4,0.1,0.5,0.2s0.4,0.2,0.5,0.2c0.1,0,0.2,0.1,0.2,0.1c0.1,0.1,0.2,0.1,0.3,0.1c0.1,0,0.1,0.1,0.2,0.1
					c0.1,0.1,0.2,0.1,0.3,0.1c0.2,0.1,0.4,0.2,0.6,0.4c0.1,0.1,0.2,0.1,0.3,0.2c0.1,0.1,0.1,0.1,0.2,0.1c0.2,0.2,0.4,0.3,0.5,0.5
					c0.1,0.1,0.2,0.2,0.3,0.4c0.1,0.1,0.2,0.2,0.3,0.4c0.1,0.1,0.2,0.2,0.3,0.4c0.1,0.1,0.2,0.2,0.2,0.4c0,0,0,0.1,0,0.1
					c0.1,0.1,0.1,0.2,0.2,0.3c0,0.1,0.1,0.1,0.1,0.2c0.1,0.3,0.2,0.6,0.4,0.9c0,0.1,0,0.1,0.1,0.2c0,0.1,0.1,0.2,0.1,0.3
					c0,0.1,0.1,0.2,0.1,0.4c0,0.1,0,0.1,0,0.2c0.1,0.3,0.1,0.6,0.1,0.8c0,0.1,0,0.3,0,0.4C262.6,222.4,262.6,222.6,262.6,222.8z"/>
			</g>
		</g>
	</g>
</g>
</svg>
