<svg xmlns="http://www.w3.org/2000/svg" viewBox="0 0 376.7046 275.84">
  <defs>
    <style>
      .cls-1 {
        fill: #fff;
      }

      .cls-2 {
        fill: #231f20;
      }

      .cls-3, .cls-4, .cls-5 {
        fill: #cda349;
      }

      .cls-3, .cls-5 {
        fill-rule: evenodd;
      }

      .cls-5 {
        stroke: #cda349;
        stroke-miterlimit: 22.9256;
        stroke-width: 0.216px;
      }
    </style>
  </defs>
  <g id="Layer_2" data-name="Layer 2">
    <g id="Layer_1-2" data-name="Layer 1">
      <rect class="cls-1" width="376.7046" height="275.84"/>
      <g>
        <circle class="cls-2" cx="86.9707" cy="72.8307" r="42.1882"/>
        <g>
          <g>
            <path class="cls-3" d="M86.972,118.4342a45.6035,45.6035,0,1,1,45.6023-45.6049A45.6564,45.6564,0,0,1,86.972,118.4342Zm0-86.6334A41.03,41.03,0,1,0,128,72.8293,41.0763,41.0763,0,0,0,86.972,31.8008Z"/>
            <path class="cls-4" d="M86.9721,28.1656A44.67,44.67,0,1,1,55.3893,41.249,44.37,44.37,0,0,1,86.9721,28.1656m0,86.6333a41.9743,41.9743,0,1,0-29.6755-12.294,41.6895,41.6895,0,0,0,29.6755,12.294m0-88.51a46.5418,46.5418,0,1,0,46.54,46.5405,46.5468,46.5468,0,0,0-46.54-46.5405Zm0,86.6334a40.0916,40.0916,0,1,1,40.09-40.0929,40.0978,40.0978,0,0,1-40.09,40.0929Z"/>
          </g>
          <path class="cls-5" d="M86.9714,44.1281A28.7019,28.7019,0,1,1,58.2693,72.83,28.7053,28.7053,0,0,1,86.9714,44.1281Zm0-1.0632A29.7651,29.7651,0,1,1,57.2064,72.83a29.7688,29.7688,0,0,1,29.765-29.7651Z"/>
          <path class="cls-3" d="M102.1787,66.7294l5.29,15.6557a.8861.8861,0,0,0,1.04.5705c.4082-.1348.4972-.67.3621-1.0781l-5.2587-15.811c-.4487.2953-.9768.39-1.4334.6629Zm-4.3906,1.7421,5.4489,16.8168a.792.792,0,0,0,1.0213.4378.7813.7813,0,0,0,.5327-.9263l-5.5764-16.972q-.7083.34-1.4265.6437Zm-4.5063,1.5058L96.69,80.2027a.7783.7783,0,1,0,1.4779-.4888l-3.3833-10.15q-.7476.2278-1.503.4139Zm13.3246-4.9955,3.8952,11.7263a.78.78,0,0,0,1.4844-.4822L108.09,64.2252c-.4264.3631-1.0476.4134-1.4839.7566ZM72.3752,66.54l-5.3658,16.168a.7784.7784,0,1,1-1.4781-.4888L71.018,65.6874q.6723.4425,1.3572.8525Zm4.2389,2.16-5.582,16.8166a.7783.7783,0,0,1-1.4779-.4885l5.6333-16.9719q.7081.34,1.4266.6438ZM81.12,70.2052,77.7118,80.4307a.7784.7784,0,1,1-1.4781-.4885l3.3836-10.1509q.7473.2281,1.503.4139ZM68.2512,63.6917,63.9,76.9362a.78.78,0,1,1-1.484-.4826L66.957,62.6314q.6395.5447,1.2942,1.06ZM109.2186,80.408l-4.6227-14.6048,1.2013-.48.04.0879,4.0944,12.0475a1.6634,1.6634,0,0,0,3.0406-1.1949l-5.503-17.4408c-.6761-2.2848-.6319-4.1786-3.4442-4.1786H97.9659c-.8586,0-2.3454.1714-2.3454.9771v.9773c0,1.829,2.5409,3.0638,2.5409,4.1047,0,1.7422-4.776,2.2559-6.1937-.4516-.4052-.7737-2.3295-7.5621-1.038-7.5621h.7817a10.7442,10.7442,0,0,1,1.3682.1955c0-1.5684-.3881-2.9318-1.9546-2.9318h-.7816a2.6013,2.6013,0,0,0-2.3454-1.9545H86.8253c-2.1138,0-3.02.8753-4.4968.9761-1.6747.1142-3.3214.4038-3.3214,2.1512l.0036,1.2,2.1408-.2676,1.5694.0444c.6584,0,1.368.3454,1.368.9773a2.02,2.02,0,0,1-.5864,1.3681l-2.7313.2455c.206,2.4863,2.9267,1.0077,2.9267,2.2954,0,2.0981-1.6117,5.4728-4.1044,5.4728-1.16,0-3.7138-.3531-3.7138-1.3683,0-1.0981,3.3229-2.4013,3.3229-4.3,0-1.7621-2.2455-2.15-4.1045-2.15H70.6027a2.84,2.84,0,0,0-2.84,2.2221l.0007,0-.2813.8582c-.1243.4193-.24.8434-.373,1.245-.6517,1.9732-1.2362,3.9029-1.9061,5.9123-.2049.6142-.7027,2.0272-1.2725,3.6756l-2.1558,6.5751a8.2515,8.2515,0,0,0-.3588,1.5983c0,.722.11,1.5781.9046,1.8562.8692.3032,1.8181.14,2.1-.6511l4.8137-13.5187,1.0722.7229c-1.6911,5.4484-3.6007,10.7778-5.4645,16.1673a3.5276,3.5276,0,0,0-.1716,1.9688,1.3879,1.3879,0,0,0,1.0186.8375c2.3244.5171,2.65-2.0573,3.1791-3.6443.49-1.4688,1.0244-3.0765,1.5139-4.5452l2.9566-8.966,1.0533.5315-.3243.9972c-.33,1.2331-.9694,3.0873-1.55,4.7283l-3.87,11.8015v.3142a1.4678,1.4678,0,0,0,.9525,1.4519,1.5135,1.5135,0,0,0,2.018-.8689L77.334,69.0076,78.77,69.58c-1.1292,3.5528-2.311,7.09-3.4721,10.6323a1.487,1.487,0,0,0,1.5591,1.6h.3909a1.2445,1.2445,0,0,0,1.2129-.8512l3.2727-10.0463c.461-1.4151.6023,2.0505.64,2.4866L82.33,74.19a13.7532,13.7532,0,0,1-2.1436,6.652c-1.375,2.34-3.5086,3.2972-4.3066,4.489.5574.13,1.173.3018,1.173.977,0,.41-1.151,2.15-1.7593,2.15h-.1953c-1.07,0-1.6664-.9774-2.7364-.9774-.0261,0-2.0832,1.152-2.15,1.9547l.9675-.2354c.0238.6661-.0538,1.0172.5963,1.0172h.1953c.9061,0,.5881-.3647,1.7593-.3907-.1725,2.072-3.3227,1.2222-3.3227,2.5406v1.1729c0,.7925.1807,1.0122.7818,1.1726l.2022-.9755a1.9679,1.9679,0,0,0,1.1661.3891c1.5687,0,.3118-3.0731,2.736-3.127-.04,1.7988-1.1726,2.21-1.1726,3.3226,0,.3736.6342.5063.9773.5864.0721.8658.6491,1.1522,1.5636,1.1726L76.23,94.9244c.4715-.2451.8224-.1872.8224-.7988,0-.893-.782-.6427-.782-2.3453h.5864c.051.6119.1342,1.1727.7817,1.1727h.1956c.7651,0,.0214-.2951,1.1727-.3909l.0385,1.37a1.7942,1.7942,0,0,0,.9389-1.5651l-.29-1.7476-2.2323-.8547-.2274-.0576,1.3817-2.4218.18-.1413L80.152,88.87c.5625-2.3167,2.2127-6.1742,4.3278-6.6669a4.6322,4.6322,0,0,1,.391,1.9546v1.7588c0,3.8892-1.7587,5.8551-1.9546,8.209l2.7148-.6624c.0213,1.59.5487,3.9554,1.39,4.5714.8065-.54,1.5634-2.517,1.5634-3.909v-.5862l2.9134.66c-.6953-3.1364-2.1317-4.5-2.1317-8.6736v-2.15c0-.4519.2185-1.1726.5863-1.1726,1.2722,0,3.9854,4.2352,4.1048,5.6681l.2589-.1576,1.1715-.9789.133.1592c.2384,1.0218.782.9579.782,1.9546V89.63l-2.1707.5011.15,1.2679c-.238.194-.52.2493-.52.7721v.3909a1.1367,1.1367,0,0,0,.5864,1.1729l.5468-1.3863c.3925.2542.3833.409.8214.409h.1955c.7456,0,.6122-.8357.7816-1.5638H97.77c-.1,1.2045-.9773,1.6962-.9773,2.7364v.1953c0,.65.3514.5726.9773.5864l-.2022.9755c.9832-.02,2.3523-1.1922,2.3523-1.7572,0-.9339-1.8764-2.9317-.391-2.9317,1.0614,0,1.0072,3.0917,1.9547,2.9317l1.558-.2288.0057.4241c.8834-.304.757-.7867.348-1.319l.156-1.0645c-.2331-.6446-.9852-.9537-2.028-.89l-.1576.2409-1.054-1.3059.1945-.1574c1.557,0,1.3028.5865,1.9547.5865h.1954c1.3524,0-.3913-1.1292,1.5637-1.1727-.0485-.583-.1408-.977-.7821-.977h-.5863c-.0648-.78-.3728-.9774-1.1726-.9774-.6813,0-1.6037,1.1727-2.9319,1.1727-.54,0-1.4954-2.1146-1.5636-2.9317l1.729-.6705c-1.8261-1.5295-2.6981-1.5855-4.4149-3.8753a12.6189,12.6189,0,0,1-2.2-6.2043c0-.59-.2755-4.0085.1824-4.327L95.7676,80.259a1.5872,1.5872,0,0,0,1.4165,1.1624c1.8412-.0675,2.0255-1.4944,1.6333-2.7084L95.746,69.2064l.2655-.0985c.5547-.1294.3343-.1957.7816-.1957l5.5394,16.5353c.5523,1.6489,3.6491,1.0095,3.18-1.0072L100.16,67.5441l1.1053-.4428,5.5032,15.5527c.8941,2.0332,3.3566.8608,2.7651-1.11-.1131-.3768-.1982-.7685-.3147-1.136ZM85.6523,51.1261c-.3227,0-.6338-.5613-.7815-.7819a1.2466,1.2466,0,0,1,.7815-.3909h.1958c.3774,0,.7815.3485.7815.5864,0,.3011-.6559.5864-.9773.5864Zm-9.4447,2.6281,1.171-.0149,4.1062-.3761c-.8292-.7207-2.5977-.5641-4.1124-.5786-2.4653-.0238-1.9358-1.3383-3.1194-1.7668,0,1.5049.5224,2.7364,1.9546,2.7364Z"/>
          <g>
            <path class="cls-4" d="M67.9591,40.2549l-1.8076,1.2207L67.548,43.542,69.1632,42.45l.5039.7451-1.6162,1.0918,2.0215,2.9912-1.0488.709L64.6,41.4385l2.8555-1.93Z"/>
            <path class="cls-4" d="M77.7872,43.2715a3.0569,3.0569,0,0,1-.9775.6406,2.9058,2.9058,0,0,1-2.1172.0537q-1.0518-.3735-1.9258-2.5518-.9492-2.3613-.5-3.4921a2.6986,2.6986,0,0,1,1.5547-1.5743,6.15,6.15,0,0,1,1.0684-.2949l.36.8985a2.5565,2.5565,0,0,0-.8056.17,1.6093,1.6093,0,0,0-.9473,1.0586,4.1073,4.1073,0,0,0,.4365,2.5049,9.9744,9.9744,0,0,0,.751,1.5615,1.6951,1.6951,0,0,0,.8642.7246,1.5235,1.5235,0,0,0,1.1114-.0488,2.8252,2.8252,0,0,0,.7783-.52Z"/>
            <path class="cls-4" d="M84.2189,34.22l2.0908-.0508q2.0391-.0513,2.0937,2.1885a2.3989,2.3989,0,0,1-.3261,1.4131,1.54,1.54,0,0,1-.8848.667,7.4651,7.4651,0,0,1-1.585.1846l.085,3.4667-1.28.0313Zm1.3681,3.5781a1.917,1.917,0,0,0,1.1543-.3017,1.3475,1.3475,0,0,0,.3223-1.1065,1.5773,1.5773,0,0,0-.332-1.1211,1.7746,1.7746,0,0,0-1.2129-.2675Z"/>
            <path class="cls-4" d="M91.8966,38.3545q.5566-2.5109,1.3135-3.1182a2.4183,2.4183,0,0,1,2.1142-.3057q1.5557.3457,1.8848,1.2852a6.2378,6.2378,0,0,1-.1475,3.0879,10.6828,10.6828,0,0,1-.8212,2.6182,1.9254,1.9254,0,0,1-1.0352.9189,2.9315,2.9315,0,0,1-1.6074.0117,3.0253,3.0253,0,0,1-1.4541-.6621,1.9714,1.9714,0,0,1-.5557-1.2246A8.8388,8.8388,0,0,1,91.8966,38.3545Zm3.8018.9072A7.0532,7.0532,0,0,0,95.99,36.48a1.0386,1.0386,0,0,0-.8145-.7237,1.0188,1.0188,0,0,0-1.1357.3985,5.89,5.89,0,0,0-.7334,2.03l-.0938.4238a9.6139,9.6139,0,0,0-.3125,2.4414,1.0052,1.0052,0,0,0,.8828.9863,1.1431,1.1431,0,0,0,.9678-.2295,4.5314,4.5314,0,0,0,.8848-2.2607Z"/>
            <path class="cls-4" d="M101.878,45.9531,98.7941,44.45l3.4629-7.1045,1.15.5615-3.0742,6.3066,1.9336.9424Z"/>
            <path class="cls-4" d="M108.9552,41.19l1.0322.7568-4.6758,6.3711-1.0322-.7568Z"/>
          </g>
          <g>
            <path class="cls-4" d="M55.7823,96.042a2.9647,2.9647,0,0,1-.7724-.8526,2.8194,2.8194,0,0,1-.36-2.0537q.2154-1.0839,2.2334-2.2822,2.1885-1.2993,3.3672-1.041a2.6259,2.6259,0,0,1,1.7754,1.2646,5.9041,5.9041,0,0,1,.4463.9942l-.832.4941a2.5309,2.5309,0,0,0-.2852-.7588,1.5692,1.5692,0,0,0-1.1807-.7539,4.15,4.15,0,0,0-2.4033.8223,10.2069,10.2069,0,0,0-1.43.9805,1.7017,1.7017,0,0,0-.5869.957,1.4811,1.4811,0,0,0,.209,1.0752,2.7165,2.7165,0,0,0,.625.6758Z"/>
            <path class="cls-4" d="M61.1964,102.6142l-.832-.8828.9043-1.32-1.3526-1.4365-1.375.82-.8213-.8721,7.1319-3.9541.708.751Zm.54-2.874,2.167-3.168-.02-.0214-3.2607,2.0068Z"/>
            <path class="cls-4" d="M68.3468,98.2187l1.7314,1.1084q1.689,1.081.4815,2.9668a2.436,2.436,0,0,1-1.0567.9922,1.511,1.511,0,0,1-1.0937.0654,7.1826,7.1826,0,0,1-1.3936-.7187l-1.87,2.92-1.0595-.6787Zm-.8867,3.7188a1.8579,1.8579,0,0,0,1.1084.3857q.4365-.044.8818-.7392a1.6,1.6,0,0,0,.3565-1.1123q-.0924-.4131-.8379-.8907Z"/>
            <path class="cls-4" d="M75.6613,108.3379a1.8007,1.8007,0,0,1-2.625,1.1836q-2.1709-.753-1.5264-2.61l1.9785-5.7031,1.1748.4082-1.832,5.28a2.9262,2.9262,0,0,0-.2344,1.2353q.06.3854.6406.586t.8448-.0909a3.6768,3.6768,0,0,0,.5664-1.166l1.8115-5.2217,1.1758.4082Z"/>
            <path class="cls-4" d="M83.4015,104.51l-1.4121-.208-1.02,6.9288-1.2451-.1836,1.02-6.9288-1.4043-.207.1318-.89,4.0605.5976Z"/>
            <path class="cls-4" d="M96.4054,110.9736l-1.1543.1279-1.0283-4.9726-.0293.0039-.7051,5.165-.7773.086-1.753-4.8926-.0361.0039.07,5.0791-1.1689.13.038-7.9561,1.0811-.12,1.9,5.3633.0293-.0029.708-5.6524,1.0811-.12Z"/>
            <path class="cls-4" d="M103.4132,106.7744a1.8012,1.8012,0,0,1-1.291,2.5742q-2.1606.7837-2.8311-1.0644L97.2316,102.61l1.1689-.4238,1.9072,5.2529a2.9289,2.9289,0,0,0,.5967,1.1075.82.82,0,0,0,.8672.0507c.3848-.14.585-.3408.5986-.6025a3.7061,3.7061,0,0,0-.2949-1.2627l-1.8867-5.1953,1.17-.4248Z"/>
            <path class="cls-4" d="M111.3234,104.0732l-.8077.5674-5.0634-3.0732-.0225.0185,3.1152,4.4375-.9218.6475-4.541-6.4688.82-.5761,5.0683,3.0683.0264-.0127-3.1182-4.4424.9043-.6347Z"/>
            <path class="cls-4" d="M108.3253,96.1162l1.1631-1.3926a2.5982,2.5982,0,0,1,1.9326-1.0312,4.7309,4.7309,0,0,1,2.85,1.4131,5.4583,5.4583,0,0,1,1.9532,2.48,2.7093,2.7093,0,0,1-.8106,2.3731l-1.0234,1.2246Zm1.4307-.4453,4.8271,4.0332a2.3509,2.3509,0,0,0,.5791-1.0791,1.5289,1.5289,0,0,0-.3183-1.0615,7.6009,7.6009,0,0,0-1.4268-1.4551,5.4325,5.4325,0,0,0-2.0889-1.2549,1.5255,1.5255,0,0,0-1.4648.6885Z"/>
            <path class="cls-4" d="M112.462,90.5039l.6172-1.0967,6.8887,3.8721-.6172,1.0976Z"/>
          </g>
        </g>
      </g>
      <g>
        <circle class="cls-2" cx="289.7339" cy="72.8307" r="42.1882"/>
        <g>
          <g>
            <path class="cls-3" d="M289.7351,118.4342a45.6035,45.6035,0,1,1,45.6023-45.6049A45.6564,45.6564,0,0,1,289.7351,118.4342Zm0-86.6334a41.03,41.03,0,1,0,41.0286,41.0285A41.0763,41.0763,0,0,0,289.7351,31.8008Z"/>
            <path class="cls-4" d="M289.7352,28.1656A44.67,44.67,0,1,1,258.1524,41.249a44.37,44.37,0,0,1,31.5828-13.0834m0,86.6333a41.9743,41.9743,0,1,0-29.6755-12.294,41.69,41.69,0,0,0,29.6755,12.294m0-88.51a46.5418,46.5418,0,1,0,46.54,46.5405,46.5468,46.5468,0,0,0-46.54-46.5405Zm0,86.6334a40.0916,40.0916,0,1,1,40.09-40.0929,40.0978,40.0978,0,0,1-40.09,40.0929Z"/>
          </g>
          <path class="cls-5" d="M289.7346,44.1281A28.7019,28.7019,0,1,1,261.0325,72.83a28.7052,28.7052,0,0,1,28.7021-28.7019Zm0-1.0632A29.7651,29.7651,0,1,1,259.9695,72.83a29.7689,29.7689,0,0,1,29.7651-29.7651Z"/>
          <path class="cls-3" d="M304.9419,66.7294l5.29,15.6557a.8859.8859,0,0,0,1.04.5705c.4082-.1348.4972-.67.3621-1.0781l-5.2586-15.811c-.4487.2953-.9768.39-1.4334.6629Zm-4.3906,1.7421L306,85.2883a.792.792,0,0,0,1.0213.4378.7813.7813,0,0,0,.5328-.9263l-5.5765-16.972q-.7083.34-1.4264.6437Zm-4.5064,1.5058,3.4085,10.2254a.7783.7783,0,1,0,1.4779-.4888l-3.3834-10.15q-.7475.2278-1.503.4139ZM309.37,64.9818l3.8951,11.7263a.78.78,0,0,0,1.4845-.4822l-3.8957-12.0007c-.4265.3631-1.0476.4134-1.4839.7566ZM275.1383,66.54l-5.3657,16.168a.7784.7784,0,1,1-1.4781-.4888l5.4866-16.5317q.6725.4425,1.3572.8525Zm4.2389,2.16-5.5819,16.8166a.7783.7783,0,0,1-1.4779-.4885l5.6333-16.9719q.708.34,1.4265.6438Zm4.5063,1.5055L280.475,80.4307a.7784.7784,0,1,1-1.4781-.4885L282.38,69.7913q.7473.2281,1.5031.4139Zm-12.8691-6.5135-4.351,13.2445a.78.78,0,1,1-1.4841-.4826L269.72,62.6314q.64.5447,1.2943,1.06ZM311.9817,80.408,307.359,65.8032l1.2013-.48.04.0879,4.0944,12.0475a1.6634,1.6634,0,0,0,3.0406-1.1949l-5.5031-17.4408c-.6761-2.2848-.6318-4.1786-3.4442-4.1786H300.729c-.8586,0-2.3454.1714-2.3454.9771v.9773c0,1.829,2.541,3.0638,2.541,4.1047,0,1.7422-4.776,2.2559-6.1937-.4516-.4053-.7737-2.3295-7.5621-1.0381-7.5621h.7818a10.7468,10.7468,0,0,1,1.3682.1955c0-1.5684-.3881-2.9318-1.9546-2.9318h-.7817a2.6013,2.6013,0,0,0-2.3454-1.9545h-1.1726c-2.1138,0-3.02.8753-4.4968.9761-1.6748.1142-3.3214.4038-3.3214,2.1512l.0035,1.2,2.1408-.2676,1.5694.0444c.6585,0,1.3681.3454,1.3681.9773a2.02,2.02,0,0,1-.5865,1.3681l-2.7313.2455c.2061,2.4863,2.9268,1.0077,2.9268,2.2954,0,2.0981-1.6117,5.4728-4.1045,5.4728-1.16,0-3.7137-.3531-3.7137-1.3683,0-1.0981,3.3228-2.4013,3.3228-4.3,0-1.7621-2.2455-2.15-4.1044-2.15h-4.4954a2.8406,2.8406,0,0,0-2.84,2.2221l.0008,0-.2813.8582c-.1244.4193-.24.8434-.3731,1.245-.6516,1.9732-1.2361,3.9029-1.9061,5.9123-.2048.6142-.7027,2.0272-1.2725,3.6756l-2.1557,6.5751A8.2436,8.2436,0,0,0,264.18,76.73c0,.722.11,1.5781.9046,1.8562.8691.3032,1.8181.14,2.1-.6511l4.8137-13.5187,1.0721.7229c-1.691,5.4484-3.6006,10.7778-5.4644,16.1673a3.5267,3.5267,0,0,0-.1716,1.9688,1.3875,1.3875,0,0,0,1.0185.8375c2.3245.5171,2.65-2.0573,3.1791-3.6443.49-1.4688,1.0245-3.0765,1.5139-4.5452l2.9566-8.966,1.0534.5315-.3244.9972c-.33,1.2331-.9693,3.0873-1.55,4.7283l-3.87,11.8015v.3142a1.4679,1.4679,0,0,0,.9525,1.4519,1.5135,1.5135,0,0,0,2.018-.8689l5.7155-16.9059,1.436.5722c-1.1291,3.5528-2.3109,7.09-3.4721,10.6323a1.4872,1.4872,0,0,0,1.5591,1.6h.391a1.2444,1.2444,0,0,0,1.2128-.8512l3.2727-10.0463c.4611-1.4151.6023,2.0505.64,2.4866l-.0435.7883a13.7532,13.7532,0,0,1-2.1435,6.652c-1.375,2.34-3.5086,3.2972-4.3066,4.489.5574.13,1.173.3018,1.173.977,0,.41-1.151,2.15-1.7593,2.15h-.1953c-1.07,0-1.6664-.9774-2.7364-.9774-.0261,0-2.0832,1.152-2.15,1.9547l.9675-.2354c.0238.6661-.0538,1.0172.5962,1.0172h.1953c.9062,0,.5882-.3647,1.7594-.3907-.1726,2.072-3.3227,1.2222-3.3227,2.5406v1.1729c0,.7925.1806,1.0122.7817,1.1726l.2023-.9755a1.9679,1.9679,0,0,0,1.1661.3891c1.5687,0,.3118-3.0731,2.736-3.127-.04,1.7988-1.1727,2.21-1.1727,3.3226,0,.3736.6342.5063.9774.5864.0721.8658.6491,1.1522,1.5636,1.1726l-.4315-1.1558c.4715-.2451.8225-.1872.8225-.7988,0-.893-.782-.6427-.782-2.3453h.5863c.0511.6119.1343,1.1727.7818,1.1727h.1955c.7652,0,.0215-.2951,1.1728-.3909l.0385,1.37a1.7943,1.7943,0,0,0,.9388-1.5651l-.29-1.7476-2.2323-.8547-.2274-.0576,1.3818-2.4218.18-.1413,1.3554,1.7266c.5625-2.3167,2.2126-6.1742,4.3278-6.6669a4.6338,4.6338,0,0,1,.391,1.9546v1.7588c0,3.8892-1.7587,5.8551-1.9547,8.209l2.7148-.6624c.0214,1.59.5488,3.9554,1.39,4.5714.8065-.54,1.5633-2.517,1.5633-3.909v-.5862l2.9134.66c-.6952-3.1364-2.1316-4.5-2.1316-8.6736v-2.15c0-.4519.2185-1.1726.5863-1.1726,1.2721,0,3.9854,4.2352,4.1048,5.6681l.2589-.1576,1.1714-.9789.133.1592c.2384,1.0218.782.9579.782,1.9546V89.63l-2.1706.5011.15,1.2679c-.238.194-.52.2493-.52.7721v.3909a1.1365,1.1365,0,0,0,.5864,1.1729l.5468-1.3863c.3924.2542.3833.409.8214.409h.1954c.7457,0,.6123-.8357.7817-1.5638h.9773c-.1,1.2045-.9773,1.6962-.9773,2.7364v.1953c0,.65.3513.5726.9773.5864l-.2023.9755c.9832-.02,2.3524-1.1922,2.3524-1.7572,0-.9339-1.8764-2.9317-.391-2.9317,1.0613,0,1.0071,3.0917,1.9546,2.9317l1.558-.2288.0058.4241c.8833-.304.757-.7867.3479-1.319l.1561-1.0645c-.2332-.6446-.9852-.9537-2.028-.89l-.1576.2409-1.054-1.3059.1945-.1574c1.557,0,1.3027.5865,1.9546.5865h.1955c1.3523,0-.3913-1.1292,1.5636-1.1727-.0484-.583-.1407-.977-.782-.977h-.5863c-.0648-.78-.3728-.9774-1.1726-.9774-.6814,0-1.6038,1.1727-2.9319,1.1727-.54,0-1.4954-2.1146-1.5636-2.9317l1.7289-.6705c-1.8261-1.5295-2.698-1.5855-4.4148-3.8753a12.618,12.618,0,0,1-2.2-6.2043c0-.59-.2754-4.0085.1825-4.327l3.2874,10.0056a1.5872,1.5872,0,0,0,1.4165,1.1624c1.8411-.0675,2.0254-1.4944,1.6332-2.7084l-3.0713-9.5066.2654-.0985c.5548-.1294.3344-.1957.7817-.1957l5.5394,16.5353c.5523,1.6489,3.6491,1.0095,3.18-1.0072l-5.3532-16.8962,1.1054-.4428,5.5031,15.5527c.8941,2.0332,3.3567.8608,2.7651-1.11-.1131-.3768-.1982-.7685-.3147-1.136ZM288.4155,51.1261c-.3227,0-.6339-.5613-.7815-.7819a1.2463,1.2463,0,0,1,.7815-.3909h.1958c.3774,0,.7815.3485.7815.5864,0,.3011-.656.5864-.9773.5864Zm-9.4447,2.6281,1.1709-.0149,4.1062-.3761c-.8291-.7207-2.5977-.5641-4.1123-.5786-2.4653-.0238-1.9358-1.3383-3.1194-1.7668,0,1.5049.5224,2.7364,1.9546,2.7364Z"/>
          <g>
            <path class="cls-4" d="M270.7472,40.24,268.94,41.46l1.3945,2.0674,1.6162-1.09.5029.7451-1.6162,1.0908,2.0186,2.9932-1.05.708-4.419-6.5527,2.8575-1.9268Z"/>
            <path class="cls-4" d="M280.5509,43.2715a3.058,3.058,0,0,1-.9775.6406,2.9058,2.9058,0,0,1-2.1172.0537q-1.0518-.3735-1.9258-2.5518-.9492-2.3613-.5-3.4921a2.6986,2.6986,0,0,1,1.5547-1.5743,6.1488,6.1488,0,0,1,1.0683-.2949l.36.8985a2.5577,2.5577,0,0,0-.8057.17,1.6094,1.6094,0,0,0-.9472,1.0586,4.1058,4.1058,0,0,0,.4365,2.5049,9.9744,9.9744,0,0,0,.751,1.5615,1.6947,1.6947,0,0,0,.8642.7246,1.5233,1.5233,0,0,0,1.1113-.0488,2.824,2.824,0,0,0,.7784-.52Z"/>
            <path class="cls-4" d="M286.9825,34.22l2.0909-.0508q2.039-.0513,2.0937,2.1885a2.3981,2.3981,0,0,1-.3262,1.4131,1.539,1.539,0,0,1-.8847.667,7.466,7.466,0,0,1-1.585.1846l.085,3.4667-1.28.0313Zm1.3682,3.5781a1.917,1.917,0,0,0,1.1543-.3017,1.3478,1.3478,0,0,0,.3223-1.1065,1.5773,1.5773,0,0,0-.3321-1.1211,1.7743,1.7743,0,0,0-1.2129-.2675Z"/>
            <path class="cls-4" d="M294.6593,38.3545q.5567-2.5109,1.3135-3.1182a2.42,2.42,0,0,1,2.1152-.3057q1.5541.3457,1.8838,1.2852a6.2378,6.2378,0,0,1-.1475,3.0879,10.6773,10.6773,0,0,1-.8213,2.6182,1.9249,1.9249,0,0,1-1.0351.9189,2.9315,2.9315,0,0,1-1.6074.0117,3.017,3.017,0,0,1-1.4541-.6621,1.9714,1.9714,0,0,1-.5557-1.2246A8.8388,8.8388,0,0,1,294.6593,38.3545Zm3.8018.9072a7.03,7.03,0,0,0,.2919-2.7822,1.0384,1.0384,0,0,0-.8144-.7237,1.0188,1.0188,0,0,0-1.1357.3985,5.89,5.89,0,0,0-.7334,2.03l-.0938.4238a9.6139,9.6139,0,0,0-.3125,2.4414,1.0052,1.0052,0,0,0,.8828.9863,1.1431,1.1431,0,0,0,.9678-.2295,4.5314,4.5314,0,0,0,.8848-2.2607Z"/>
            <path class="cls-4" d="M304.6407,45.9531,301.5568,44.45l3.4629-7.1045,1.15.5615-3.0742,6.3066,1.9336.9424Z"/>
            <path class="cls-4" d="M311.7189,41.19l1.0322.7568-4.6758,6.3711-1.0322-.7568Z"/>
          </g>
          <g>
            <path class="cls-4" d="M258.546,96.042a2.9647,2.9647,0,0,1-.7724-.8526,2.8194,2.8194,0,0,1-.36-2.0537q.2154-1.0839,2.2334-2.2822,2.1885-1.2993,3.3672-1.041a2.6263,2.6263,0,0,1,1.7754,1.2646,5.9121,5.9121,0,0,1,.4463.9942l-.8321.4941a2.5308,2.5308,0,0,0-.2851-.7588,1.5692,1.5692,0,0,0-1.1807-.7539,4.15,4.15,0,0,0-2.4033.8223,10.2009,10.2009,0,0,0-1.43.9805,1.7017,1.7017,0,0,0-.5869.957,1.4806,1.4806,0,0,0,.209,1.0752,2.7165,2.7165,0,0,0,.625.6758Z"/>
            <path class="cls-4" d="M263.96,102.6142l-.8321-.8828.9043-1.32L262.68,98.9746l-1.375.82-.8213-.8721,7.1319-3.9541.708.751Zm.54-2.874,2.167-3.168-.0205-.0214-3.2607,2.0068Z"/>
            <path class="cls-4" d="M271.1105,98.2187l1.7314,1.1084q1.689,1.081.4815,2.9668a2.4365,2.4365,0,0,1-1.0567.9922,1.511,1.511,0,0,1-1.0937.0654,7.18,7.18,0,0,1-1.3936-.7187l-1.87,2.92-1.06-.6787Zm-.8867,3.7188a1.8577,1.8577,0,0,0,1.1084.3857q.4365-.044.8818-.7392a1.5989,1.5989,0,0,0,.3564-1.1123q-.0923-.4131-.8379-.8907Z"/>
            <path class="cls-4" d="M278.4249,108.3379a1.8007,1.8007,0,0,1-2.625,1.1836q-2.1708-.753-1.5263-2.61l1.9785-5.7031,1.1748.4082-1.8321,5.28a2.9257,2.9257,0,0,0-.2343,1.2353q.06.3854.6406.586t.8447-.0909a3.6725,3.6725,0,0,0,.5664-1.166l1.8116-5.2217,1.1757.4082Z"/>
            <path class="cls-4" d="M286.1652,104.51l-1.4122-.208-1.02,6.9288-1.2451-.1836,1.0205-6.9288-1.4043-.207.1319-.89,4.06.5976Z"/>
            <path class="cls-4" d="M299.1691,110.9736l-1.1543.1279-1.0284-4.9726-.0292.0039-.7051,5.165-.7774.086-1.7529-4.8926-.0361.0039.07,5.0791-1.169.13.0381-7.9561,1.0811-.12,1.9,5.3633.0293-.0029.708-5.6524,1.081-.12Z"/>
            <path class="cls-4" d="M306.1769,106.7744a1.8012,1.8012,0,0,1-1.291,2.5742q-2.1608.7837-2.8311-1.0644l-2.06-5.6739,1.169-.4238,1.9072,5.2529a2.9275,2.9275,0,0,0,.5967,1.1075.82.82,0,0,0,.8672.0507c.3847-.14.5849-.3408.5986-.6025a3.7085,3.7085,0,0,0-.2949-1.2627l-1.8867-5.1953,1.17-.4248Z"/>
            <path class="cls-4" d="M314.087,104.0732l-.8076.5674-5.0635-3.0732-.0224.0185,3.1152,4.4375-.9219.6475-4.541-6.4688.82-.5761,5.0684,3.0683.0264-.0127-3.1182-4.4424.9043-.6347Z"/>
            <path class="cls-4" d="M311.089,96.1162l1.1631-1.3926a2.5982,2.5982,0,0,1,1.9326-1.0312,4.7334,4.7334,0,0,1,2.85,1.4131,5.4572,5.4572,0,0,1,1.9531,2.48,2.7071,2.7071,0,0,1-.8115,2.3731l-1.0225,1.2246Zm1.4307-.4443,4.8271,4.0322a2.3509,2.3509,0,0,0,.5791-1.0791,1.5336,1.5336,0,0,0-.3184-1.0615,7.5777,7.5777,0,0,0-1.4277-1.4551,5.4235,5.4235,0,0,0-2.0879-1.2549,1.5247,1.5247,0,0,0-1.4648.6885Z"/>
            <path class="cls-4" d="M315.2247,90.5039l.6162-1.0967,6.89,3.8721-.6172,1.0976Z"/>
          </g>
        </g>
      </g>
      <g>
        <circle class="cls-2" cx="86.9707" cy="212.6061" r="42.1882"/>
        <g>
          <g>
            <path class="cls-3" d="M86.972,258.21a45.6035,45.6035,0,1,1,45.6023-45.6049A45.6565,45.6565,0,0,1,86.972,258.21Zm0-86.6334A41.03,41.03,0,1,0,128,212.6047,41.0763,41.0763,0,0,0,86.972,171.5762Z"/>
            <path class="cls-4" d="M86.9721,167.941a44.67,44.67,0,1,1-31.5828,13.0834A44.37,44.37,0,0,1,86.9721,167.941m0,86.6333A41.9743,41.9743,0,1,0,57.2966,242.28a41.69,41.69,0,0,0,29.6755,12.294m0-88.51a46.5418,46.5418,0,1,0,46.54,46.5405,46.5467,46.5467,0,0,0-46.54-46.5405Zm0,86.6333a40.0915,40.0915,0,1,1,40.09-40.0928,40.0977,40.0977,0,0,1-40.09,40.0928Z"/>
          </g>
          <path class="cls-5" d="M86.9714,183.9035a28.7019,28.7019,0,1,1-28.7021,28.7018,28.7052,28.7052,0,0,1,28.7021-28.7018Zm0-1.0632a29.7651,29.7651,0,1,1-29.765,29.765,29.7688,29.7688,0,0,1,29.765-29.765Z"/>
          <path class="cls-3" d="M102.1787,206.5047l5.29,15.6558a.8861.8861,0,0,0,1.04.57c.4082-.1349.4972-.67.3621-1.0781l-5.2587-15.8111c-.4487.2954-.9768.39-1.4334.6629Zm-4.3906,1.7422,5.4489,16.8168a.792.792,0,0,0,1.0213.4377.7811.7811,0,0,0,.5327-.9262l-5.5764-16.972q-.7083.34-1.4265.6437Zm-4.5063,1.5058L96.69,219.9781a.7783.7783,0,1,0,1.4779-.4888l-3.3833-10.15q-.7476.2277-1.503.4139Zm13.3246-4.9955,3.8952,11.7263a.78.78,0,0,0,1.4844-.4823L108.09,204.0006c-.4264.3631-1.0476.4134-1.4839.7566Zm-34.2312,1.5581-5.3658,16.168a.7784.7784,0,1,1-1.4781-.4888l5.4867-16.5318q.6723.4426,1.3572.8526Zm4.2389,2.16-5.582,16.8166a.7783.7783,0,0,1-1.4779-.4885l5.6333-16.9719q.7081.34,1.4266.6438Zm4.5062,1.5055-3.4085,10.2255a.7784.7784,0,1,1-1.4781-.4885l3.3836-10.1509q.7473.2281,1.503.4139Zm-12.8691-6.5135L63.9,216.7115a.78.78,0,1,1-1.484-.4825l4.5408-13.8222q.6395.5447,1.2942,1.06Zm40.9674,16.7162-4.6227-14.6047,1.2013-.48.04.088,4.0944,12.0474a1.6634,1.6634,0,0,0,3.0406-1.1948l-5.503-17.4408c-.6761-2.2848-.6319-4.1786-3.4442-4.1786H97.9659c-.8586,0-2.3454.1713-2.3454.9771v.9773c0,1.829,2.5409,3.0638,2.5409,4.1047,0,1.7422-4.776,2.2559-6.1937-.4516-.4052-.7738-2.3295-7.5621-1.038-7.5621h.7817a10.7442,10.7442,0,0,1,1.3682.1955c0-1.5685-.3881-2.9318-1.9546-2.9318h-.7816a2.6012,2.6012,0,0,0-2.3454-1.9545H86.8253c-2.1138,0-3.02.8753-4.4968.9761-1.6747.1142-3.3214.4037-3.3214,2.1511l.0036,1.2,2.1408-.2675,1.5694.0443c.6584,0,1.368.3455,1.368.9774a2.02,2.02,0,0,1-.5864,1.368l-2.7313.2456c.206,2.4862,2.9267,1.0077,2.9267,2.2954,0,2.0981-1.6117,5.4728-4.1044,5.4728-1.16,0-3.7138-.3532-3.7138-1.3683,0-1.0982,3.3229-2.4013,3.3229-4.3,0-1.7621-2.2455-2.15-4.1045-2.15H70.6027a2.84,2.84,0,0,0-2.84,2.2221l.0007,0-.2813.8582c-.1243.4193-.24.8434-.373,1.245-.6517,1.9731-1.2362,3.9029-1.9061,5.9123-.2049.6142-.7027,2.0271-1.2725,3.6756l-2.1558,6.575a8.2535,8.2535,0,0,0-.3588,1.5984c0,.722.11,1.5781.9046,1.8562.8692.3031,1.8181.14,2.1-.6512l4.8137-13.5186,1.0722.7228c-1.6911,5.4485-3.6007,10.7778-5.4645,16.1674a3.5276,3.5276,0,0,0-.1716,1.9688,1.3879,1.3879,0,0,0,1.0186.8375c2.3244.5171,2.65-2.0573,3.1791-3.6444.49-1.4687,1.0244-3.0764,1.5139-4.5452l2.9566-8.966,1.0533.5315-.3243.9972c-.33,1.2332-.9694,3.0874-1.55,4.7284l-3.87,11.8015v.3141a1.4679,1.4679,0,0,0,.9525,1.452,1.5135,1.5135,0,0,0,2.018-.8689L77.334,208.783l1.4361.5721c-1.1292,3.5529-2.311,7.09-3.4721,10.6324a1.487,1.487,0,0,0,1.5591,1.6h.3909a1.2444,1.2444,0,0,0,1.2129-.8511L81.7336,210.69c.461-1.4151.6023,2.05.64,2.4866l-.0434.7883a13.7535,13.7535,0,0,1-2.1436,6.652c-1.375,2.34-3.5086,3.2972-4.3066,4.4889.5574.13,1.173.3019,1.173.9771,0,.4105-1.151,2.15-1.7593,2.15h-.1953c-1.07,0-1.6664-.9773-2.7364-.9773-.0261,0-2.0832,1.152-2.15,1.9547l.9675-.2354c.0238.6661-.0538,1.0171.5963,1.0171h.1953c.9061,0,.5881-.3647,1.7593-.3906-.1725,2.0719-3.3227,1.2221-3.3227,2.5406v1.1729c0,.7925.1807,1.0121.7818,1.1726l.2022-.9755a1.9685,1.9685,0,0,0,1.1661.3891c1.5687,0,.3118-3.0731,2.736-3.127-.04,1.7988-1.1726,2.21-1.1726,3.3225,0,.3736.6342.5064.9773.5865.0721.8658.6491,1.1522,1.5636,1.1726L76.23,234.7c.4715-.245.8224-.1871.8224-.7987,0-.893-.782-.6428-.782-2.3453h.5864c.051.6118.1342,1.1726.7817,1.1726h.1956c.7651,0,.0214-.295,1.1727-.3908l.0385,1.3695a1.7943,1.7943,0,0,0,.9389-1.5651l-.29-1.7476-2.2323-.8548-.2274-.0576,1.3817-2.4217.18-.1413,1.3554,1.7266c.5625-2.3168,2.2127-6.1742,4.3278-6.667a4.6331,4.6331,0,0,1,.391,1.9547v1.7588c0,3.8891-1.7587,5.8551-1.9546,8.209l2.7148-.6624c.0213,1.59.5487,3.9554,1.39,4.5714.8065-.54,1.5634-2.517,1.5634-3.909v-.5862l2.9134.66c-.6953-3.1364-2.1317-4.5-2.1317-8.6737v-2.15c0-.4519.2185-1.1727.5863-1.1727,1.2722,0,3.9854,4.2353,4.1048,5.6682l.2589-.1576,1.1715-.9789.133.1591c.2384,1.0219.782.958.782,1.9547v.7815l-2.1707.5011.15,1.2679c-.238.194-.52.2493-.52.7721v.3909a1.1367,1.1367,0,0,0,.5864,1.1729l.5468-1.3863c.3925.2542.3833.4089.8214.4089h.1955c.7456,0,.6122-.8357.7816-1.5637H97.77c-.1,1.2045-.9773,1.6962-.9773,2.7364v.1953c0,.65.3514.5726.9773.5864l-.2022.9755c.9832-.02,2.3523-1.1923,2.3523-1.7572,0-.9339-1.8764-2.9317-.391-2.9317,1.0614,0,1.0072,3.0916,1.9547,2.9317l1.558-.2289.0057.4242c.8834-.304.757-.7868.348-1.319l.156-1.0645c-.2331-.6446-.9852-.9538-2.028-.89l-.1576.2408-1.054-1.3059.1945-.1573c1.557,0,1.3028.5864,1.9547.5864h.1954c1.3524,0-.3913-1.1292,1.5637-1.1726-.0485-.5831-.1408-.9771-.7821-.9771h-.5863c-.0648-.78-.3728-.9773-1.1726-.9773-.6813,0-1.6037,1.1726-2.9319,1.1726-.54,0-1.4954-2.1146-1.5636-2.9317l1.729-.67c-1.8261-1.5294-2.6981-1.5855-4.4149-3.8752a12.6189,12.6189,0,0,1-2.2-6.2043c0-.59-.2755-4.0085.1824-4.327l3.2874,10.0056a1.5872,1.5872,0,0,0,1.4165,1.1624c1.8412-.0675,2.0255-1.4944,1.6333-2.7084l-3.0714-9.5066.2655-.0985c.5547-.1294.3343-.1958.7816-.1958l5.5394,16.5354c.5523,1.6488,3.6491,1.01,3.18-1.0072L100.16,207.32l1.1053-.4429,5.5032,15.5528c.8941,2.0332,3.3566.8608,2.7651-1.11-.1131-.3767-.1982-.7684-.3147-1.136ZM85.6523,190.9014c-.3227,0-.6338-.5613-.7815-.7819a1.247,1.247,0,0,1,.7815-.3908h.1958c.3774,0,.7815.3484.7815.5864,0,.3011-.6559.5863-.9773.5863ZM76.2076,193.53l1.171-.0149,4.1062-.3761c-.8292-.7208-2.5977-.5641-4.1124-.5786-2.4653-.0238-1.9358-1.3384-3.1194-1.7668,0,1.5048.5224,2.7364,1.9546,2.7364Z"/>
          <g>
            <path class="cls-4" d="M67.9581,180.03l-1.8066,1.2207,1.3955,2.0664,1.6162-1.0918.5039.7451-1.6162,1.0918,2.0215,2.9912-1.0488.709-4.4248-6.5489,2.8564-1.93Z"/>
            <path class="cls-4" d="M77.7882,183.0469a3.0669,3.0669,0,0,1-.9785.6406,2.8979,2.8979,0,0,1-2.1162.0527q-1.0518-.3735-1.9268-2.5508-.9477-2.3613-.499-3.4922a2.6943,2.6943,0,0,1,1.5537-1.5742,6.1668,6.1668,0,0,1,1.0684-.2949l.3613.8984a2.5717,2.5717,0,0,0-.8066.17,1.6033,1.6033,0,0,0-.9463,1.0586,4.0969,4.0969,0,0,0,.4355,2.5048,10.0968,10.0968,0,0,0,.752,1.5616,1.6926,1.6926,0,0,0,.8642.7236,1.5177,1.5177,0,0,0,1.1114-.0479,2.86,2.86,0,0,0,.7783-.52Z"/>
            <path class="cls-4" d="M84.2189,173.9941l2.0908-.0508q2.0391-.0511,2.0937,2.1885a2.3989,2.3989,0,0,1-.3261,1.4131,1.5391,1.5391,0,0,1-.8848.667,7.4585,7.4585,0,0,1-1.585.1846l.085,3.4668-1.28.0312Zm1.3681,3.5781a1.917,1.917,0,0,0,1.1543-.3017,1.3475,1.3475,0,0,0,.3223-1.1065,1.5768,1.5768,0,0,0-.332-1.121,1.774,1.774,0,0,0-1.2129-.2676Z"/>
            <path class="cls-4" d="M91.8966,178.1289q.5566-2.5107,1.3135-3.1182a2.418,2.418,0,0,1,2.1142-.3056q1.5557.3456,1.8848,1.2851a6.2378,6.2378,0,0,1-.1475,3.0879,10.6828,10.6828,0,0,1-.8212,2.6182,1.9254,1.9254,0,0,1-1.0352.9189,2.9315,2.9315,0,0,1-1.6074.0117,3.0253,3.0253,0,0,1-1.4541-.6621,1.9714,1.9714,0,0,1-.5557-1.2246A8.8391,8.8391,0,0,1,91.8966,178.1289Zm3.8018.9072a7.0532,7.0532,0,0,0,.292-2.7822,1.0387,1.0387,0,0,0-.8145-.7236,1.0186,1.0186,0,0,0-1.1357.3984,5.89,5.89,0,0,0-.7334,2.03l-.0938.4238a9.6139,9.6139,0,0,0-.3125,2.4414,1.0052,1.0052,0,0,0,.8828.9863,1.1427,1.1427,0,0,0,.9678-.23,4.5314,4.5314,0,0,0,.8848-2.2607Z"/>
            <path class="cls-4" d="M101.878,185.7285l-3.0839-1.5039,3.4629-7.1045,1.1513.5615-3.0752,6.3067,1.9336.9423Z"/>
            <path class="cls-4" d="M108.9552,180.9658l1.0322.7568-4.6758,6.3711-1.0322-.7568Z"/>
          </g>
          <g>
            <path class="cls-4" d="M55.7823,235.8183a2.9656,2.9656,0,0,1-.7724-.8525,2.82,2.82,0,0,1-.36-2.0537q.2154-1.084,2.2334-2.2822,2.1885-1.2993,3.3672-1.0411a2.6257,2.6257,0,0,1,1.7754,1.2647,5.9063,5.9063,0,0,1,.4463.9941l-.832.4942a2.5309,2.5309,0,0,0-.2852-.7588,1.5692,1.5692,0,0,0-1.1807-.7539,4.15,4.15,0,0,0-2.4033.8222,10.13,10.13,0,0,0-1.43.9805,1.702,1.702,0,0,0-.5869.957,1.4809,1.4809,0,0,0,.209,1.0752,2.7325,2.7325,0,0,0,.625.6758Z"/>
            <path class="cls-4" d="M61.1964,242.39l-.832-.8828.9043-1.32L59.9161,238.75l-1.375.82-.8213-.8721,7.1319-3.9541.708.751Zm.54-2.874,2.167-3.167-.02-.0224-3.2607,2.0068Z"/>
            <path class="cls-4" d="M68.3468,237.9931l1.7314,1.1084q1.689,1.0811.4815,2.9668a2.436,2.436,0,0,1-1.0567.9922,1.5167,1.5167,0,0,1-1.0937.0655,7.19,7.19,0,0,1-1.3936-.7188l-1.87,2.92-1.0595-.6787Zm-.8867,3.7188a1.8579,1.8579,0,0,0,1.1084.3857q.4365-.0439.8818-.7392a1.6047,1.6047,0,0,0,.3565-1.1123q-.0924-.4131-.8379-.8906Z"/>
            <path class="cls-4" d="M75.6613,248.1123a1.8,1.8,0,0,1-2.625,1.1836q-2.1709-.753-1.5264-2.61l1.9785-5.7031,1.1748.4082-1.832,5.28a2.9262,2.9262,0,0,0-.2344,1.2353q.06.3853.6406.5869t.8448-.0918a3.6967,3.6967,0,0,0,.5673-1.165l1.8116-5.2226,1.1748.4082Z"/>
            <path class="cls-4" d="M83.4015,244.2842l-1.4121-.208-1.02,6.9287-1.2451-.1836,1.02-6.9287-1.4043-.2071.1318-.89,4.0605.5976Z"/>
            <path class="cls-4" d="M96.4054,250.75l-1.1543.1279-1.0283-4.9726-.0293.0039-.7051,5.164-.7773.0869-1.753-4.8925-.0361.0039.07,5.0791-1.1689.13.0371-7.9561,1.082-.12,1.9,5.3633.0283-.003.708-5.6523,1.0811-.12Z"/>
            <path class="cls-4" d="M103.4132,246.55a1.8013,1.8013,0,0,1-1.291,2.5742q-2.1606.7838-2.8311-1.0644l-2.0595-5.6739,1.1689-.4238,1.9072,5.2529a2.9283,2.9283,0,0,0,.5967,1.1074.8215.8215,0,0,0,.8672.0508q.5772-.2094.5986-.6035a3.7067,3.7067,0,0,0-.2949-1.2617l-1.8867-5.1953,1.1689-.4248Z"/>
            <path class="cls-4" d="M111.3234,243.8476l-.8077.5674-5.0634-3.0732-.0225.0185,3.1152,4.4375-.9218.6475-4.541-6.4688.82-.5761,5.0683,3.0683.0264-.0127-3.1182-4.4423.9043-.6348Z"/>
            <path class="cls-4" d="M108.3253,235.8906l1.1631-1.3926a2.5982,2.5982,0,0,1,1.9326-1.0312,4.7321,4.7321,0,0,1,2.85,1.4131,5.4588,5.4588,0,0,1,1.9532,2.48,2.7093,2.7093,0,0,1-.8106,2.3731L114.39,240.958Zm1.4307-.4453,4.8271,4.0332a2.3509,2.3509,0,0,0,.5791-1.0791,1.5289,1.5289,0,0,0-.3183-1.0615,7.6009,7.6009,0,0,0-1.4268-1.4551,5.4325,5.4325,0,0,0-2.0889-1.2549,1.5255,1.5255,0,0,0-1.4648.6885Z"/>
            <path class="cls-4" d="M112.462,230.2783l.6172-1.0967,6.8887,3.8721-.6172,1.0976Z"/>
          </g>
        </g>
      </g>
      <g>
        <circle class="cls-2" cx="289.7339" cy="212.6061" r="42.1882"/>
        <g>
          <g>
            <path class="cls-3" d="M289.7351,258.21a45.6035,45.6035,0,1,1,45.6023-45.6049A45.6565,45.6565,0,0,1,289.7351,258.21Zm0-86.6334a41.03,41.03,0,1,0,41.0286,41.0285A41.0763,41.0763,0,0,0,289.7351,171.5762Z"/>
            <path class="cls-4" d="M289.7352,167.941a44.67,44.67,0,1,1-31.5828,13.0834,44.37,44.37,0,0,1,31.5828-13.0834m0,86.6333A41.9743,41.9743,0,1,0,260.06,242.28a41.69,41.69,0,0,0,29.6755,12.294m0-88.51a46.5418,46.5418,0,1,0,46.54,46.5405,46.5467,46.5467,0,0,0-46.54-46.5405Zm0,86.6333a40.0915,40.0915,0,1,1,40.09-40.0928,40.0978,40.0978,0,0,1-40.09,40.0928Z"/>
          </g>
          <path class="cls-5" d="M289.7346,183.9035a28.7019,28.7019,0,1,1-28.7021,28.7018,28.7052,28.7052,0,0,1,28.7021-28.7018Zm0-1.0632a29.7651,29.7651,0,1,1-29.7651,29.765,29.7689,29.7689,0,0,1,29.7651-29.765Z"/>
          <path class="cls-3" d="M304.9419,206.5047l5.29,15.6558a.8859.8859,0,0,0,1.04.57c.4082-.1349.4972-.67.3621-1.0781l-5.2586-15.8111c-.4487.2954-.9768.39-1.4334.6629Zm-4.3906,1.7422L306,225.0637a.792.792,0,0,0,1.0213.4377.7812.7812,0,0,0,.5328-.9262l-5.5765-16.972q-.7083.34-1.4264.6437Zm-4.5064,1.5058,3.4085,10.2254a.7783.7783,0,1,0,1.4779-.4888l-3.3834-10.15q-.7475.2277-1.503.4139Zm13.3247-4.9955,3.8951,11.7263a.78.78,0,0,0,1.4845-.4823l-3.8957-12.0006c-.4265.3631-1.0476.4134-1.4839.7566Zm-34.2313,1.5581-5.3657,16.168a.7784.7784,0,1,1-1.4781-.4888l5.4866-16.5318q.6725.4426,1.3572.8526Zm4.2389,2.16-5.5819,16.8166a.7783.7783,0,0,1-1.4779-.4885l5.6333-16.9719q.708.34,1.4265.6438Zm4.5063,1.5055-3.4085,10.2255a.7784.7784,0,1,1-1.4781-.4885l3.3835-10.1509q.7473.2281,1.5031.4139Zm-12.8691-6.5135-4.351,13.2444a.78.78,0,1,1-1.4841-.4825l4.5408-13.8222q.64.5447,1.2943,1.06Zm40.9673,16.7162-4.6227-14.6047,1.2013-.48.04.088,4.0944,12.0474a1.6634,1.6634,0,0,0,3.0406-1.1948l-5.5031-17.4408c-.6761-2.2848-.6318-4.1786-3.4442-4.1786H300.729c-.8586,0-2.3454.1713-2.3454.9771v.9773c0,1.829,2.541,3.0638,2.541,4.1047,0,1.7422-4.776,2.2559-6.1937-.4516-.4053-.7738-2.3295-7.5621-1.0381-7.5621h.7818a10.7468,10.7468,0,0,1,1.3682.1955c0-1.5685-.3881-2.9318-1.9546-2.9318h-.7817a2.6012,2.6012,0,0,0-2.3454-1.9545h-1.1726c-2.1138,0-3.02.8753-4.4968.9761-1.6748.1142-3.3214.4037-3.3214,2.1511l.0035,1.2,2.1408-.2675,1.5694.0443c.6585,0,1.3681.3455,1.3681.9774a2.02,2.02,0,0,1-.5865,1.368l-2.7313.2456c.2061,2.4862,2.9268,1.0077,2.9268,2.2954,0,2.0981-1.6117,5.4728-4.1045,5.4728-1.16,0-3.7137-.3532-3.7137-1.3683,0-1.0982,3.3228-2.4013,3.3228-4.3,0-1.7621-2.2455-2.15-4.1044-2.15h-4.4954a2.8405,2.8405,0,0,0-2.84,2.2221l.0008,0-.2813.8582c-.1244.4193-.24.8434-.3731,1.245-.6516,1.9731-1.2361,3.9029-1.9061,5.9123-.2048.6142-.7027,2.0271-1.2725,3.6756l-2.1557,6.575a8.2456,8.2456,0,0,0-.3588,1.5984c0,.722.11,1.5781.9046,1.8562.8691.3031,1.8181.14,2.1-.6512l4.8137-13.5186,1.0721.7228c-1.691,5.4485-3.6006,10.7778-5.4644,16.1674a3.5267,3.5267,0,0,0-.1716,1.9688,1.3875,1.3875,0,0,0,1.0185.8375c2.3245.5171,2.65-2.0573,3.1791-3.6444.49-1.4687,1.0245-3.0764,1.5139-4.5452l2.9566-8.966,1.0534.5315-.3244.9972c-.33,1.2332-.9693,3.0874-1.55,4.7284l-3.87,11.8015v.3141a1.468,1.468,0,0,0,.9525,1.452,1.5135,1.5135,0,0,0,2.018-.8689l5.7155-16.9059,1.436.5721c-1.1291,3.5529-2.3109,7.09-3.4721,10.6324a1.4871,1.4871,0,0,0,1.5591,1.6h.391a1.2443,1.2443,0,0,0,1.2128-.8511l3.2727-10.0463c.4611-1.4151.6023,2.05.64,2.4866l-.0435.7883a13.7535,13.7535,0,0,1-2.1435,6.652c-1.375,2.34-3.5086,3.2972-4.3066,4.4889.5574.13,1.173.3019,1.173.9771,0,.4105-1.151,2.15-1.7593,2.15h-.1953c-1.07,0-1.6664-.9773-2.7364-.9773-.0261,0-2.0832,1.152-2.15,1.9547l.9675-.2354c.0238.6661-.0538,1.0171.5962,1.0171h.1953c.9062,0,.5882-.3647,1.7594-.3906-.1726,2.0719-3.3227,1.2221-3.3227,2.5406v1.1729c0,.7925.1806,1.0121.7817,1.1726l.2023-.9755a1.9685,1.9685,0,0,0,1.1661.3891c1.5687,0,.3118-3.0731,2.736-3.127-.04,1.7988-1.1727,2.21-1.1727,3.3225,0,.3736.6342.5064.9774.5865.0721.8658.6491,1.1522,1.5636,1.1726l-.4315-1.1559c.4715-.245.8225-.1871.8225-.7987,0-.893-.782-.6428-.782-2.3453h.5863c.0511.6118.1343,1.1726.7818,1.1726h.1955c.7652,0,.0215-.295,1.1728-.3908l.0385,1.3695a1.7945,1.7945,0,0,0,.9388-1.5651l-.29-1.7476-2.2323-.8548-.2274-.0576L281.38,227.06l.18-.1413,1.3554,1.7266c.5625-2.3168,2.2126-6.1742,4.3278-6.667a4.6346,4.6346,0,0,1,.391,1.9547v1.7588c0,3.8891-1.7587,5.8551-1.9547,8.209l2.7148-.6624c.0214,1.59.5488,3.9554,1.39,4.5714.8065-.54,1.5633-2.517,1.5633-3.909v-.5862l2.9134.66c-.6952-3.1364-2.1316-4.5-2.1316-8.6737v-2.15c0-.4519.2185-1.1727.5863-1.1727,1.2721,0,3.9854,4.2353,4.1048,5.6682l.2589-.1576,1.1714-.9789.133.1591c.2384,1.0219.782.958.782,1.9547v.7815l-2.1706.5011.15,1.2679c-.238.194-.52.2493-.52.7721v.3909a1.1365,1.1365,0,0,0,.5864,1.1729l.5468-1.3863c.3924.2542.3833.4089.8214.4089h.1954c.7457,0,.6123-.8357.7817-1.5637h.9773c-.1,1.2045-.9773,1.6962-.9773,2.7364v.1953c0,.65.3513.5726.9773.5864l-.2023.9755c.9832-.02,2.3524-1.1923,2.3524-1.7572,0-.9339-1.8764-2.9317-.391-2.9317,1.0613,0,1.0071,3.0916,1.9546,2.9317l1.558-.2289.0058.4242c.8833-.304.757-.7868.3479-1.319l.1561-1.0645c-.2332-.6446-.9852-.9538-2.028-.89l-.1576.2408-1.054-1.3059.1945-.1573c1.557,0,1.3027.5864,1.9546.5864h.1955c1.3523,0-.3913-1.1292,1.5636-1.1726-.0484-.5831-.1407-.9771-.782-.9771h-.5863c-.0648-.78-.3728-.9773-1.1726-.9773-.6814,0-1.6038,1.1726-2.9319,1.1726-.54,0-1.4954-2.1146-1.5636-2.9317l1.7289-.67c-1.8261-1.5294-2.698-1.5855-4.4148-3.8752a12.618,12.618,0,0,1-2.2-6.2043c0-.59-.2754-4.0085.1825-4.327l3.2874,10.0056a1.5872,1.5872,0,0,0,1.4165,1.1624c1.8411-.0675,2.0254-1.4944,1.6332-2.7084l-3.0713-9.5066.2654-.0985c.5548-.1294.3344-.1958.7817-.1958l5.5394,16.5354c.5523,1.6488,3.6491,1.01,3.18-1.0072L302.9228,207.32l1.1054-.4429,5.5031,15.5528c.8941,2.0332,3.3567.8608,2.7651-1.11-.1131-.3767-.1982-.7684-.3147-1.136Zm-23.5662-29.2819c-.3227,0-.6339-.5613-.7815-.7819a1.2468,1.2468,0,0,1,.7815-.3908h.1958c.3774,0,.7815.3484.7815.5864,0,.3011-.656.5863-.9773.5863Zm-9.4447,2.6282,1.1709-.0149,4.1062-.3761c-.8291-.7208-2.5977-.5641-4.1123-.5786-2.4653-.0238-1.9358-1.3384-3.1194-1.7668,0,1.5048.5224,2.7364,1.9546,2.7364Z"/>
          <g>
            <path class="cls-4" d="M270.7462,180.0146l-1.8086,1.22,1.3946,2.0673,1.6171-1.09.503.7451-1.6172,1.0908,2.0195,2.9932-1.05.707-4.4189-6.5517,2.8574-1.9268Z"/>
            <path class="cls-4" d="M280.5519,183.0469a3.0691,3.0691,0,0,1-.9785.6406,2.8979,2.8979,0,0,1-2.1162.0527q-1.0518-.3735-1.9268-2.5508-.9477-2.3613-.499-3.4922a2.6943,2.6943,0,0,1,1.5537-1.5742,6.1654,6.1654,0,0,1,1.0683-.2949l.3614.8984a2.5724,2.5724,0,0,0-.8067.17,1.6038,1.6038,0,0,0-.9463,1.0586,4.0964,4.0964,0,0,0,.4356,2.5048,10.1072,10.1072,0,0,0,.7519,1.5616,1.6932,1.6932,0,0,0,.8643.7236,1.5174,1.5174,0,0,0,1.1113-.0479,2.8571,2.8571,0,0,0,.7783-.52Z"/>
            <path class="cls-4" d="M286.9825,173.9941l2.0909-.0508q2.039-.0511,2.0937,2.1885a2.3981,2.3981,0,0,1-.3262,1.4131,1.5386,1.5386,0,0,1-.8847.667,7.4594,7.4594,0,0,1-1.585.1846l.085,3.4668-1.28.0312Zm1.3682,3.5781a1.917,1.917,0,0,0,1.1543-.3017,1.3478,1.3478,0,0,0,.3223-1.1065,1.5768,1.5768,0,0,0-.3321-1.121,1.7736,1.7736,0,0,0-1.2129-.2676Z"/>
            <path class="cls-4" d="M294.6593,178.1289q.5567-2.5107,1.3135-3.1182a2.42,2.42,0,0,1,2.1152-.3056q1.5541.3456,1.8838,1.2851a6.2378,6.2378,0,0,1-.1475,3.0879,10.6773,10.6773,0,0,1-.8213,2.6182,1.9249,1.9249,0,0,1-1.0351.9189,2.9315,2.9315,0,0,1-1.6074.0117,3.0161,3.0161,0,0,1-1.4541-.6621,1.9714,1.9714,0,0,1-.5557-1.2246A8.8391,8.8391,0,0,1,294.6593,178.1289Zm3.8018.9072a7.03,7.03,0,0,0,.2919-2.7822,1.0384,1.0384,0,0,0-.8144-.7236,1.0186,1.0186,0,0,0-1.1357.3984,5.89,5.89,0,0,0-.7334,2.03l-.0938.4238a9.6139,9.6139,0,0,0-.3125,2.4414,1.0052,1.0052,0,0,0,.8828.9863,1.1427,1.1427,0,0,0,.9678-.23,4.5314,4.5314,0,0,0,.8848-2.2607Z"/>
            <path class="cls-4" d="M304.6407,185.7285l-3.0839-1.5039L305.02,177.12l1.1513.5615-3.0752,6.3067,1.9336.9423Z"/>
            <path class="cls-4" d="M311.7189,180.9658l1.0322.7568-4.6758,6.3711-1.0322-.7568Z"/>
          </g>
          <g>
            <path class="cls-4" d="M258.546,235.8183a2.9656,2.9656,0,0,1-.7724-.8525,2.82,2.82,0,0,1-.36-2.0537q.2154-1.084,2.2334-2.2822,2.1885-1.2993,3.3672-1.0411a2.6261,2.6261,0,0,1,1.7754,1.2647,5.9143,5.9143,0,0,1,.4463.9941l-.8321.4942a2.5308,2.5308,0,0,0-.2851-.7588,1.5692,1.5692,0,0,0-1.1807-.7539,4.15,4.15,0,0,0-2.4033.8222,10.124,10.124,0,0,0-1.43.9805,1.702,1.702,0,0,0-.5869.957,1.48,1.48,0,0,0,.209,1.0752,2.7325,2.7325,0,0,0,.625.6758Z"/>
            <path class="cls-4" d="M263.96,242.39l-.8321-.8828.9043-1.32L262.68,238.75l-1.375.82-.8213-.8721,7.1319-3.9541.708.751Zm.54-2.874,2.167-3.167-.0205-.0224-3.2607,2.0068Z"/>
            <path class="cls-4" d="M271.1105,237.9931l1.7314,1.1084q1.689,1.0811.4815,2.9668a2.4365,2.4365,0,0,1-1.0567.9922,1.5167,1.5167,0,0,1-1.0937.0655,7.1871,7.1871,0,0,1-1.3936-.7188l-1.87,2.92-1.06-.6787Zm-.8867,3.7188a1.8577,1.8577,0,0,0,1.1084.3857q.4365-.0439.8818-.7392a1.6039,1.6039,0,0,0,.3564-1.1123q-.0923-.4131-.8379-.8906Z"/>
            <path class="cls-4" d="M278.4249,248.1123a1.8,1.8,0,0,1-2.625,1.1836q-2.1708-.753-1.5263-2.61l1.9785-5.7031,1.1748.4082-1.8321,5.28a2.9257,2.9257,0,0,0-.2343,1.2353q.06.3853.6406.5869t.8447-.0918a3.6942,3.6942,0,0,0,.5674-1.165l1.8115-5.2226,1.1748.4082Z"/>
            <path class="cls-4" d="M286.1652,244.2842l-1.4122-.208-1.02,6.9287-1.2451-.1836,1.0205-6.9287-1.4043-.2071.1319-.89,4.06.5976Z"/>
            <path class="cls-4" d="M299.1691,250.75l-1.1543.1279-1.0284-4.9726-.0292.0039-.7051,5.164-.7774.0869-1.7529-4.8925-.0361.0039.07,5.0791-1.169.13.0371-7.9561,1.0821-.12,1.9,5.3633.0283-.003.708-5.6523,1.081-.12Z"/>
            <path class="cls-4" d="M306.1769,246.55a1.8013,1.8013,0,0,1-1.291,2.5742q-2.1608.7838-2.8311-1.0644l-2.06-5.6739,1.169-.4238,1.9072,5.2529a2.9269,2.9269,0,0,0,.5967,1.1074.8215.8215,0,0,0,.8672.0508q.577-.2094.5986-.6035a3.7091,3.7091,0,0,0-.2949-1.2617l-1.8867-5.1953,1.1689-.4248Z"/>
            <path class="cls-4" d="M314.087,243.8476l-.8076.5674-5.0635-3.0732-.0224.0185,3.1152,4.4375-.9219.6475-4.541-6.4688.82-.5761,5.0684,3.0683.0264-.0127-3.1182-4.4423.9043-.6348Z"/>
            <path class="cls-4" d="M311.089,235.8906l1.1631-1.3926a2.5982,2.5982,0,0,1,1.9326-1.0312,4.7345,4.7345,0,0,1,2.85,1.4131,5.4577,5.4577,0,0,1,1.9531,2.48,2.7071,2.7071,0,0,1-.8115,2.3731l-1.0225,1.2246Zm1.4307-.4443,4.8271,4.0322a2.3509,2.3509,0,0,0,.5791-1.0791,1.5336,1.5336,0,0,0-.3184-1.0615,7.5777,7.5777,0,0,0-1.4277-1.4551,5.4235,5.4235,0,0,0-2.0879-1.2549,1.5247,1.5247,0,0,0-1.4648.6885Z"/>
            <path class="cls-4" d="M315.2316,230.2666l.6162-1.0977,6.8906,3.87-.6162,1.0977Z"/>
          </g>
        </g>
      </g>
    </g>
  </g>
</svg>
