<svg xmlns="http://www.w3.org/2000/svg" viewBox="0 0 412.1957 242.3219">
  <defs>
    <style>
      .cls-1 {
        fill: #093ad6;
      }

      .cls-2 {
        isolation: isolate;
      }

      .cls-3 {
        fill: none;
        stroke: #fff;
        stroke-width: 0.4px;
      }
    </style>
  </defs>
  <g id="Layer_2" data-name="Layer 2">
    <g id="Layer_1-2" data-name="Layer 1">
      <rect id="Rectangle_42" data-name="Rectangle 42" class="cls-1" width="412.1957" height="242.3219"/>
      <g class="cls-2">
        <path class="cls-3" d="M19.8306,178.88088v-3.19551h1.59313v3.19551Zm0,6.3725v-1.59313h1.59313v1.59313Zm1.59313-9.568v-1.59291H26.2031v1.59291Zm0,4.78863v-1.59312H24.61V180.474Zm0,6.3725v-1.59312H26.2031v1.59312ZM24.61,182.06713V180.474H26.2031v1.59313Zm1.59312-4.77937v-1.60239h1.59313v1.60239Zm0,7.96562v-3.18625h1.59313v3.18625Z"/>
        <path class="cls-3" d="M30.98247,185.25338v-9.568H32.5756v9.568Zm1.59313-9.568v-1.59291h6.3725v1.59291Zm0,11.16113v-1.59312h6.3725v1.59312Zm6.3725-9.55874v-1.60239h1.60217v1.60239Zm0,7.96562v-1.59313h1.60217v1.59313Z"/>
        <path class="cls-3" d="M43.72747,186.8465v-12.754H50.1v1.59291H51.6931V180.474H50.1v-4.78863H45.3206V180.474H50.1v1.59313H48.50685v1.59312H50.1v1.59313H51.6931v1.59312H50.1v-1.59312H48.50685v-1.59313H46.91372v-1.59312H45.3206v4.77937Z"/>
        <path class="cls-3" d="M54.87935,186.8465v-12.754H62.845v1.59291h-6.3725v3.19551H62.845V180.474h-6.3725v4.77938H62.845v1.59312Z"/>
        <path class="cls-3" d="M66.03122,186.8465v-3.18625h1.59313v3.18625Zm1.59313-3.18625V180.474h1.59312v1.59313h4.77938V180.474H75.599v3.18625Zm1.59312-3.18625v-3.18624H70.8106V180.474Zm1.59313-3.18624v-3.1953h1.59312v3.1953Zm1.59312,3.18624v-3.18624h1.59313V180.474Zm3.1953,6.3725v-3.18625h1.59313v3.18625Z"/>
        <path class="cls-3" d="M80.36935,186.8465v-12.754H83.5556v3.1953h1.59312v4.77937H88.335v4.77937H85.14872v-4.77937H83.5556v-4.77937H81.96247v9.55874Zm7.96562-4.77937v-4.77937h1.60239v4.77937Zm1.60239-4.77937v-3.1953h3.18625v12.754H91.53027v-9.55874Z"/>
        <path class="cls-3" d="M101.08,177.28776v-3.1953h3.18625v4.78842H102.6731v-1.59312Zm0,3.18624v-1.59312h1.59313V180.474Z"/>
        <path class="cls-3" d="M107.45247,186.8465v-12.754h3.18625v3.1953h1.59313V180.474H113.825v3.18625h1.59312v-9.56779h1.60239v12.754H113.825v-3.18625h-1.59312V180.474h-1.59313v-3.18624H109.0456v9.55874Z"/>
        <path class="cls-3" d="M129.75622,178.88088v-3.19551h1.59312v3.19551Zm0,6.3725v-1.59313h1.59312v1.59313Zm1.59312-9.568v-1.59291h4.77938v1.59291Zm0,4.78863v-1.59312h3.18625V180.474Zm0,6.3725v-1.59312h4.77938v1.59312Zm3.18625-4.77937V180.474h1.59313v1.59313Zm1.59313-4.77937v-1.60239h1.59312v1.60239Zm0,7.96562v-3.18625h1.59312v3.18625Z"/>
        <path class="cls-3" d="M140.90809,186.8465v-12.754h1.59313v4.78842h6.3725v-4.78842h1.60239v12.754h-1.60239V180.474h-6.3725v6.3725Z"/>
        <path class="cls-3" d="M153.65309,185.25338v-9.568h1.59313v9.568Zm1.59313-9.568v-1.59291h6.3725v1.59291Zm0,11.16113v-1.59312h6.3725v1.59312Zm6.3725-1.59312v-9.568h1.60239v9.568Z"/>
        <path class="cls-3" d="M166.39809,185.25338V174.09246h1.59313v11.16092Zm1.59313,1.59312v-1.59312h6.3725v1.59312Zm6.3725-1.59312V174.09246h1.60238v11.16092Z"/>
        <path class="cls-3" d="M179.14309,175.68537v-1.59291h7.96563v1.59291h-3.18625V186.8465h-1.59313V175.68537Z"/>
      </g>
      <g class="cls-2">
        <path class="cls-3" d="M19.8306,114.54638v-3.19552h1.59313v3.19552Zm0,6.3725v-1.59313h1.59313v1.59313Zm1.59313-9.568V109.758H26.2031v1.59291Zm0,4.78864v-1.59312H24.61v1.59312Zm0,6.3725v-1.59312H26.2031V122.512ZM24.61,117.73263V116.1395H26.2031v1.59313Zm1.59312-4.77938v-1.60239h1.59313v1.60239Zm0,7.96563v-3.18625h1.59313v3.18625Z"/>
        <path class="cls-3" d="M30.98247,120.91888v-9.568H32.5756v9.568Zm1.59313-9.568V109.758h6.3725v1.59291Zm0,11.16114v-1.59312h6.3725V122.512Zm6.3725-9.55875v-1.60239h1.60217v1.60239Zm0,7.96563v-1.59313h1.60217v1.59313Z"/>
        <path class="cls-3" d="M43.72747,122.512V109.758H50.1v1.59291H51.6931v4.78864H50.1v-4.78864H45.3206v4.78864H50.1v1.59313H48.50685v1.59312H50.1v1.59313H51.6931V122.512H50.1v-1.59312H48.50685v-1.59313H46.91372v-1.59312H45.3206V122.512Z"/>
        <path class="cls-3" d="M54.87935,122.512V109.758H62.845v1.59291h-6.3725v3.19552H62.845v1.59312h-6.3725v4.77938H62.845V122.512Z"/>
        <path class="cls-3" d="M66.03122,122.512v-3.18625h1.59313V122.512Zm1.59313-3.18625V116.1395h1.59312v1.59313h4.77938V116.1395H75.599v3.18625Zm1.59312-3.18625v-3.18625H70.8106v3.18625Zm1.59313-3.18625V109.758h1.59312v3.1953Zm1.59312,3.18625v-3.18625h1.59313v3.18625Zm3.1953,6.3725v-3.18625h1.59313V122.512Z"/>
        <path class="cls-3" d="M80.36935,122.512V109.758H83.5556v3.1953h1.59312v4.77938H88.335V122.512H85.14872v-4.77937H83.5556v-4.77938H81.96247V122.512Zm7.96562-4.77937v-4.77938h1.60239v4.77938Zm1.60239-4.77938V109.758h3.18625V122.512H91.53027v-9.55875Z"/>
        <path class="cls-3" d="M101.08,112.95325V109.758h3.18625v4.78843H102.6731v-1.59313Zm0,3.18625v-1.59312h1.59313v1.59312Z"/>
        <path class="cls-3" d="M107.45247,122.512V109.758h3.18625v3.1953h1.59313v3.18625H113.825v3.18625h1.59312V109.758h1.60239V122.512H113.825v-3.18625h-1.59312V116.1395h-1.59313v-3.18625H109.0456V122.512Z"/>
        <path class="cls-3" d="M129.75622,114.54638v-3.19552h1.59312v3.19552Zm0,6.3725v-1.59313h1.59312v1.59313Zm1.59312-9.568V109.758h4.77938v1.59291Zm0,4.78864v-1.59312h3.18625v1.59312Zm0,6.3725v-1.59312h4.77938V122.512Zm3.18625-4.77937V116.1395h1.59313v1.59313Zm1.59313-4.77938v-1.60239h1.59312v1.60239Zm0,7.96563v-3.18625h1.59312v3.18625Z"/>
        <path class="cls-3" d="M140.90809,122.512V109.758h1.59313v4.78843h6.3725V109.758h1.60239V122.512h-1.60239v-6.3725h-6.3725v6.3725Z"/>
        <path class="cls-3" d="M153.65309,120.91888v-9.568h1.59313v9.568Zm1.59313-9.568V109.758h6.3725v1.59291Zm0,11.16114v-1.59312h6.3725V122.512Zm6.3725-1.59312v-9.568h1.60239v9.568Z"/>
        <path class="cls-3" d="M166.39809,120.91888V109.758h1.59313v11.16093Zm1.59313,1.59312v-1.59312h6.3725V122.512Zm6.3725-1.59312V109.758h1.60238v11.16093Z"/>
        <path class="cls-3" d="M179.14309,111.35086V109.758h7.96563v1.59291h-3.18625V122.512h-1.59313V111.35086Z"/>
      </g>
      <g class="cls-2">
        <path class="cls-3" d="M215.25252,114.54638v-3.19552h1.59313v3.19552Zm0,6.3725v-1.59313h1.59313v1.59313Zm1.59313-9.568V109.758H221.625v1.59291Zm0,4.78864v-1.59312h3.18625v1.59312Zm0,6.3725v-1.59312H221.625V122.512Zm3.18625-4.77937V116.1395H221.625v1.59313Zm1.59312-4.77938v-1.60239h1.59313v1.60239Zm0,7.96563v-3.18625h1.59313v3.18625Z"/>
        <path class="cls-3" d="M226.4044,120.91888v-9.568h1.59312v9.568Zm1.59312-9.568V109.758H234.37v1.59291Zm0,11.16114v-1.59312H234.37V122.512Zm6.3725-9.55875v-1.60239h1.60217v1.60239Zm0,7.96563v-1.59313h1.60217v1.59313Z"/>
        <path class="cls-3" d="M239.1494,122.512V109.758h6.37249v1.59291H247.115v4.78864h-1.59313v-4.78864h-4.77937v4.78864h4.77937v1.59313h-1.59312v1.59312h1.59312v1.59313H247.115V122.512h-1.59313v-1.59312h-1.59312v-1.59313h-1.59313v-1.59312h-1.59312V122.512Z"/>
        <path class="cls-3" d="M250.30127,122.512V109.758h7.96562v1.59291h-6.3725v3.19552h6.3725v1.59312h-6.3725v4.77938h6.3725V122.512Z"/>
        <path class="cls-3" d="M261.45314,122.512v-3.18625h1.59313V122.512Zm1.59313-3.18625V116.1395h1.59312v1.59313h4.77938V116.1395h1.60217v3.18625Zm1.59312-3.18625v-3.18625h1.59313v3.18625Zm1.59313-3.18625V109.758h1.59312v3.1953Zm1.59312,3.18625v-3.18625h1.59313v3.18625Zm3.1953,6.3725v-3.18625h1.59313V122.512Z"/>
        <path class="cls-3" d="M275.79127,122.512V109.758h3.18625v3.1953h1.59312v4.77938h3.18625V122.512h-3.18625v-4.77937h-1.59312v-4.77938h-1.59313V122.512Zm7.96562-4.77937v-4.77938h1.60239v4.77938Zm1.60239-4.77938V109.758h3.18625V122.512h-1.59334v-9.55875Z"/>
        <path class="cls-3" d="M296.50189,112.95325V109.758h3.18625v4.78843H298.095v-1.59313Zm0,3.18625v-1.59312H298.095v1.59312Z"/>
        <path class="cls-3" d="M302.87439,122.512V109.758h3.18625v3.1953h1.59313v3.18625h1.59312v3.18625H310.84V109.758h1.60238V122.512h-3.19551v-3.18625h-1.59312V116.1395h-1.59313v-3.18625h-1.59312V122.512Z"/>
        <path class="cls-3" d="M325.17814,114.54638v-3.19552h1.59312v3.19552Zm0,6.3725v-1.59313h1.59312v1.59313Zm1.59312-9.568V109.758h4.77938v1.59291Zm0,4.78864v-1.59312h3.18625v1.59312Zm0,6.3725v-1.59312h4.77938V122.512Zm3.18625-4.77937V116.1395h1.59313v1.59313Zm1.59313-4.77938v-1.60239h1.59312v1.60239Zm0,7.96563v-3.18625h1.59312v3.18625Z"/>
        <path class="cls-3" d="M336.33,122.512V109.758h1.59313v4.78843h6.3725V109.758H345.898V122.512h-1.60239v-6.3725h-6.3725v6.3725Z"/>
        <path class="cls-3" d="M349.075,120.91888v-9.568h1.59313v9.568Zm1.59313-9.568V109.758h6.3725v1.59291Zm0,11.16114v-1.59312h6.3725V122.512Zm6.3725-1.59312v-9.568H358.643v9.568Z"/>
        <path class="cls-3" d="M361.82,120.91888V109.758h1.59313v11.16093Zm1.59313,1.59312v-1.59312h6.3725V122.512Zm6.3725-1.59312V109.758H371.388v11.16093Z"/>
        <path class="cls-3" d="M374.565,111.35086V109.758h7.96563v1.59291h-3.18625V122.512h-1.59313V111.35086Z"/>
      </g>
      <g class="cls-2">
        <path class="cls-3" d="M19.8306,52.21067V49.01515h1.59313v3.19552Zm0,6.3725V56.99h1.59313v1.59313Zm1.59313-9.568V47.42224H26.2031v1.59291Zm0,4.78864V52.21067H24.61v1.59312Zm0,6.3725V58.58317H26.2031v1.59312ZM24.61,55.39692V53.80379H26.2031v1.59313Zm1.59312-4.77938V49.01515h1.59313v1.60239Zm0,7.96563V55.39692h1.59313v3.18625Z"/>
        <path class="cls-3" d="M30.98247,58.58317v-9.568H32.5756v9.568Zm1.59313-9.568V47.42224h6.3725v1.59291Zm0,11.16114V58.58317h6.3725v1.59312Zm6.3725-9.55875V49.01515h1.60217v1.60239Zm0,7.96563V56.99h1.60217v1.59313Z"/>
        <path class="cls-3" d="M43.72747,60.17629v-12.754H50.1v1.59291H51.6931v4.78864H50.1V49.01515H45.3206v4.78864H50.1v1.59313H48.50685V56.99H50.1v1.59313H51.6931v1.59312H50.1V58.58317H48.50685V56.99H46.91372V55.39692H45.3206v4.77937Z"/>
        <path class="cls-3" d="M54.87935,60.17629v-12.754H62.845v1.59291h-6.3725v3.19552H62.845v1.59312h-6.3725v4.77938H62.845v1.59312Z"/>
        <path class="cls-3" d="M66.03122,60.17629V56.99h1.59313v3.18625ZM67.62435,56.99V53.80379h1.59312v1.59313h4.77938V53.80379H75.599V56.99Zm1.59312-3.18625V50.61754H70.8106v3.18625Zm1.59313-3.18625v-3.1953h1.59312v3.1953Zm1.59312,3.18625V50.61754h1.59313v3.18625Zm3.1953,6.3725V56.99h1.59313v3.18625Z"/>
        <path class="cls-3" d="M80.36935,60.17629v-12.754H83.5556v3.1953h1.59312v4.77938H88.335v4.77937H85.14872V55.39692H83.5556V50.61754H81.96247v9.55875ZM88.335,55.39692V50.61754h1.60239v4.77938Zm1.60239-4.77938v-3.1953h3.18625V60.17629H91.53027V50.61754Z"/>
        <path class="cls-3" d="M101.08,50.61754v-3.1953h3.18625v4.78843H102.6731V50.61754Zm0,3.18625V52.21067h1.59313v1.59312Z"/>
        <path class="cls-3" d="M107.45247,60.17629v-12.754h3.18625v3.1953h1.59313v3.18625H113.825V56.99h1.59312v-9.5678h1.60239V60.17629H113.825V56.99h-1.59312V53.80379h-1.59313V50.61754H109.0456v9.55875Z"/>
        <path class="cls-3" d="M129.75622,52.21067V49.01515h1.59312v3.19552Zm0,6.3725V56.99h1.59312v1.59313Zm1.59312-9.568V47.42224h4.77938v1.59291Zm0,4.78864V52.21067h3.18625v1.59312Zm0,6.3725V58.58317h4.77938v1.59312Zm3.18625-4.77937V53.80379h1.59313v1.59313Zm1.59313-4.77938V49.01515h1.59312v1.60239Zm0,7.96563V55.39692h1.59312v3.18625Z"/>
        <path class="cls-3" d="M140.90809,60.17629v-12.754h1.59313v4.78843h6.3725V47.42224h1.60239V60.17629h-1.60239v-6.3725h-6.3725v6.3725Z"/>
        <path class="cls-3" d="M153.65309,58.58317v-9.568h1.59313v9.568Zm1.59313-9.568V47.42224h6.3725v1.59291Zm0,11.16114V58.58317h6.3725v1.59312Zm6.3725-1.59312v-9.568h1.60239v9.568Z"/>
        <path class="cls-3" d="M166.39809,58.58317V47.42224h1.59313V58.58317Zm1.59313,1.59312V58.58317h6.3725v1.59312Zm6.3725-1.59312V47.42224h1.60238V58.58317Z"/>
        <path class="cls-3" d="M179.14309,49.01515V47.42224h7.96563v1.59291h-3.18625V60.17629h-1.59313V49.01515Z"/>
      </g>
      <g class="cls-2">
        <path class="cls-3" d="M215.25252,52.21067V49.01515h1.59313v3.19552Zm0,6.3725V56.99h1.59313v1.59313Zm1.59313-9.568V47.42224H221.625v1.59291Zm0,4.78864V52.21067h3.18625v1.59312Zm0,6.3725V58.58317H221.625v1.59312Zm3.18625-4.77937V53.80379H221.625v1.59313Zm1.59312-4.77938V49.01515h1.59313v1.60239Zm0,7.96563V55.39692h1.59313v3.18625Z"/>
        <path class="cls-3" d="M226.4044,58.58317v-9.568h1.59312v9.568Zm1.59312-9.568V47.42224H234.37v1.59291Zm0,11.16114V58.58317H234.37v1.59312Zm6.3725-9.55875V49.01515h1.60217v1.60239Zm0,7.96563V56.99h1.60217v1.59313Z"/>
        <path class="cls-3" d="M239.1494,60.17629v-12.754h6.37249v1.59291H247.115v4.78864h-1.59313V49.01515h-4.77937v4.78864h4.77937v1.59313h-1.59312V56.99h1.59312v1.59313H247.115v1.59312h-1.59313V58.58317h-1.59312V56.99h-1.59313V55.39692h-1.59312v4.77937Z"/>
        <path class="cls-3" d="M250.30127,60.17629v-12.754h7.96562v1.59291h-6.3725v3.19552h6.3725v1.59312h-6.3725v4.77938h6.3725v1.59312Z"/>
        <path class="cls-3" d="M261.45314,60.17629V56.99h1.59313v3.18625ZM263.04627,56.99V53.80379h1.59312v1.59313h4.77938V53.80379h1.60217V56.99Zm1.59312-3.18625V50.61754h1.59313v3.18625Zm1.59313-3.18625v-3.1953h1.59312v3.1953Zm1.59312,3.18625V50.61754h1.59313v3.18625Zm3.1953,6.3725V56.99h1.59313v3.18625Z"/>
        <path class="cls-3" d="M275.79127,60.17629v-12.754h3.18625v3.1953h1.59312v4.77938h3.18625v4.77937h-3.18625V55.39692h-1.59312V50.61754h-1.59313v9.55875Zm7.96562-4.77937V50.61754h1.60239v4.77938Zm1.60239-4.77938v-3.1953h3.18625V60.17629h-1.59334V50.61754Z"/>
        <path class="cls-3" d="M296.50189,50.61754v-3.1953h3.18625v4.78843H298.095V50.61754Zm0,3.18625V52.21067H298.095v1.59312Z"/>
        <path class="cls-3" d="M302.87439,60.17629v-12.754h3.18625v3.1953h1.59313v3.18625h1.59312V56.99H310.84v-9.5678h1.60238V60.17629h-3.19551V56.99h-1.59312V53.80379h-1.59313V50.61754h-1.59312v9.55875Z"/>
        <path class="cls-3" d="M325.17814,52.21067V49.01515h1.59312v3.19552Zm0,6.3725V56.99h1.59312v1.59313Zm1.59312-9.568V47.42224h4.77938v1.59291Zm0,4.78864V52.21067h3.18625v1.59312Zm0,6.3725V58.58317h4.77938v1.59312Zm3.18625-4.77937V53.80379h1.59313v1.59313Zm1.59313-4.77938V49.01515h1.59312v1.60239Zm0,7.96563V55.39692h1.59312v3.18625Z"/>
        <path class="cls-3" d="M336.33,60.17629v-12.754h1.59313v4.78843h6.3725V47.42224H345.898V60.17629h-1.60239v-6.3725h-6.3725v6.3725Z"/>
        <path class="cls-3" d="M349.075,58.58317v-9.568h1.59313v9.568Zm1.59313-9.568V47.42224h6.3725v1.59291Zm0,11.16114V58.58317h6.3725v1.59312Zm6.3725-1.59312v-9.568H358.643v9.568Z"/>
        <path class="cls-3" d="M361.82,58.58317V47.42224h1.59313V58.58317Zm1.59313,1.59312V58.58317h6.3725v1.59312Zm6.3725-1.59312V47.42224H371.388V58.58317Z"/>
        <path class="cls-3" d="M374.565,49.01515V47.42224h7.96563v1.59291h-3.18625V60.17629h-1.59313V49.01515Z"/>
      </g>
      <g class="cls-2">
        <path class="cls-3" d="M215.25252,175.93235v-3.19551h1.59313v3.19551Zm0,6.3725v-1.59312h1.59313v1.59312Zm1.59313-9.568v-1.59291H221.625v1.59291Zm0,4.78864v-1.59313h3.18625v1.59313Zm0,6.3725v-1.59313H221.625V183.898Zm3.18625-4.77938v-1.59312H221.625v1.59312Zm1.59312-4.77937v-1.60239h1.59313v1.60239Zm0,7.96562V179.1186h1.59313v3.18625Z"/>
        <path class="cls-3" d="M226.4044,182.30485v-9.568h1.59312v9.568Zm1.59312-9.568v-1.59291H234.37v1.59291Zm0,11.16114v-1.59313H234.37V183.898Zm6.3725-9.55875v-1.60239h1.60217v1.60239Zm0,7.96562v-1.59312h1.60217v1.59312Z"/>
        <path class="cls-3" d="M239.1494,183.898v-12.754h6.37249v1.59291H247.115v4.78864h-1.59313v-4.78864h-4.77937v4.78864h4.77937v1.59312h-1.59312v1.59313h1.59312v1.59312H247.115V183.898h-1.59313v-1.59313h-1.59312v-1.59312h-1.59313V179.1186h-1.59312V183.898Z"/>
        <path class="cls-3" d="M250.30127,183.898v-12.754h7.96562v1.59291h-6.3725v3.19551h6.3725v1.59313h-6.3725v4.77937h6.3725V183.898Z"/>
        <path class="cls-3" d="M261.45314,183.898v-3.18625h1.59313V183.898Zm1.59313-3.18625v-3.18625h1.59312v1.59312h4.77938v-1.59312h1.60217v3.18625Zm1.59312-3.18625v-3.18625h1.59313v3.18625Zm1.59313-3.18625v-3.1953h1.59312v3.1953Zm1.59312,3.18625v-3.18625h1.59313v3.18625Zm3.1953,6.3725v-3.18625h1.59313V183.898Z"/>
        <path class="cls-3" d="M275.79127,183.898v-12.754h3.18625v3.1953h1.59312v4.77937h3.18625V183.898h-3.18625V179.1186h-1.59312v-4.77937h-1.59313V183.898Zm7.96562-4.77938v-4.77937h1.60239v4.77937Zm1.60239-4.77937v-3.1953h3.18625v12.754h-1.59334v-9.55875Z"/>
        <path class="cls-3" d="M296.50189,174.33923v-3.1953h3.18625v4.78842H298.095v-1.59312Zm0,3.18625v-1.59313H298.095v1.59313Z"/>
        <path class="cls-3" d="M302.87439,183.898v-12.754h3.18625v3.1953h1.59313v3.18625h1.59312v3.18625H310.84v-9.5678h1.60238v12.754h-3.19551v-3.18625h-1.59312v-3.18625h-1.59313v-3.18625h-1.59312V183.898Z"/>
        <path class="cls-3" d="M325.17814,175.93235v-3.19551h1.59312v3.19551Zm0,6.3725v-1.59312h1.59312v1.59312Zm1.59312-9.568v-1.59291h4.77938v1.59291Zm0,4.78864v-1.59313h3.18625v1.59313Zm0,6.3725v-1.59313h4.77938V183.898Zm3.18625-4.77938v-1.59312h1.59313v1.59312Zm1.59313-4.77937v-1.60239h1.59312v1.60239Zm0,7.96562V179.1186h1.59312v3.18625Z"/>
        <path class="cls-3" d="M336.33,183.898v-12.754h1.59313v4.78842h6.3725v-4.78842H345.898v12.754h-1.60239v-6.3725h-6.3725v6.3725Z"/>
        <path class="cls-3" d="M349.075,182.30485v-9.568h1.59313v9.568Zm1.59313-9.568v-1.59291h6.3725v1.59291Zm0,11.16114v-1.59313h6.3725V183.898Zm6.3725-1.59313v-9.568H358.643v9.568Z"/>
        <path class="cls-3" d="M361.82,182.30485V171.14393h1.59313v11.16092Zm1.59313,1.59313v-1.59313h6.3725V183.898Zm6.3725-1.59313V171.14393H371.388v11.16092Z"/>
        <path class="cls-3" d="M374.565,172.73684v-1.59291h7.96563v1.59291h-3.18625V183.898h-1.59313V172.73684Z"/>
      </g>
    </g>
  </g>
</svg>
