<svg xmlns="http://www.w3.org/2000/svg" viewBox="0 0 412.196 242.322"><defs><style>.cls-1{fill:#fff;}.cls-2{fill:none;stroke:#093ad6;stroke-miterlimit:10;}</style></defs><g id="Layer_2" data-name="Layer 2"><g id="Layer_1-2" data-name="Layer 1"><rect id="Rectangle_42" data-name="Rectangle 42" class="cls-1" width="412.196" height="242.322"/><path class="cls-2" d="M19.831,178.881v-3.2h1.593v3.2Zm0,6.372V183.66h1.593v1.593Zm1.593-9.568v-1.593H26.2v1.593Zm0,4.789v-1.593H24.61v1.593Zm0,6.373v-1.594H26.2v1.594Zm3.186-4.78v-1.593H26.2v1.593Zm1.593-4.779v-1.6H27.8v1.6Zm0,7.965v-3.186H27.8v3.186Z"/><path class="cls-2" d="M30.982,185.253v-9.568h1.594v9.568Zm1.594-9.568v-1.593h6.372v1.593Zm0,11.162v-1.594h6.372v1.594Zm6.372-9.559v-1.6h1.6v1.6Zm0,7.965V183.66h1.6v1.593Z"/><path class="cls-2" d="M43.727,186.847V174.092H50.1v1.593h1.593v4.789H50.1v-4.789H45.321v4.789H50.1v1.593H48.507v1.593H50.1v1.593h1.593v1.594H50.1v-1.594H48.507V183.66H46.914v-1.593H45.321v4.78Z"/><path class="cls-2" d="M54.879,186.847V174.092h7.966v1.593H56.472v3.2h6.373v1.593H56.472v4.779h6.373v1.594Z"/><path class="cls-2" d="M66.031,186.847V183.66h1.593v3.187Zm1.593-3.187v-3.186h1.593v1.593H74v-1.593h1.6v3.186Zm1.593-3.186v-3.186h1.594v3.186Zm1.594-3.186v-3.2H72.4v3.2Zm1.593,3.186v-3.186H74v3.186Zm3.2,6.373V183.66h1.593v3.187Z"/><path class="cls-2" d="M80.369,186.847V174.092h3.187v3.2h1.593v4.779h3.186v4.78H85.149v-4.78H83.556v-4.779H81.962v9.559Zm7.966-4.78v-4.779h1.6v4.779Zm1.6-4.779v-3.2h3.187v12.755H91.53v-9.559Z"/><path class="cls-2" d="M101.08,177.288v-3.2h3.186v4.789h-1.593v-1.593Zm0,3.186v-1.593h1.593v1.593Z"/><path class="cls-2" d="M107.452,186.847V174.092h3.187v3.2h1.593v3.186h1.593v3.186h1.593v-9.568h1.6v12.755h-3.195V183.66h-1.593v-3.186h-1.593v-3.186h-1.593v9.559Z"/><path class="cls-2" d="M129.756,178.881v-3.2h1.593v3.2Zm0,6.372V183.66h1.593v1.593Zm1.593-9.568v-1.593h4.78v1.593Zm0,4.789v-1.593h3.187v1.593Zm0,6.373v-1.594h4.78v1.594Zm3.187-4.78v-1.593h1.593v1.593Zm1.593-4.779v-1.6h1.593v1.6Zm0,7.965v-3.186h1.593v3.186Z"/><path class="cls-2" d="M140.908,186.847V174.092H142.5v4.789h6.373v-4.789h1.6v12.755h-1.6v-6.373H142.5v6.373Z"/><path class="cls-2" d="M153.653,185.253v-9.568h1.593v9.568Zm1.593-9.568v-1.593h6.373v1.593Zm0,11.162v-1.594h6.373v1.594Zm6.373-1.594v-9.568h1.6v9.568Z"/><path class="cls-2" d="M166.4,185.253V174.092h1.593v11.161Zm1.593,1.594v-1.594h6.373v1.594Zm6.373-1.594V174.092h1.6v11.161Z"/><path class="cls-2" d="M179.143,175.685v-1.593h7.966v1.593h-3.187v11.162h-1.593V175.685Z"/><path class="cls-2" d="M19.831,114.546v-3.2h1.593v3.2Zm0,6.373v-1.593h1.593v1.593Zm1.593-9.568v-1.593H26.2v1.593Zm0,4.789v-1.594H24.61v1.594Zm0,6.372v-1.593H26.2v1.593Zm3.186-4.779V116.14H26.2v1.593Zm1.593-4.78v-1.6H27.8v1.6Zm0,7.966v-3.186H27.8v3.186Z"/><path class="cls-2" d="M30.982,120.919v-9.568h1.594v9.568Zm1.594-9.568v-1.593h6.372v1.593Zm0,11.161v-1.593h6.372v1.593Zm6.372-9.559v-1.6h1.6v1.6Zm0,7.966v-1.593h1.6v1.593Z"/><path class="cls-2" d="M43.727,122.512V109.758H50.1v1.593h1.593v4.789H50.1v-4.789H45.321v4.789H50.1v1.593H48.507v1.593H50.1v1.593h1.593v1.593H50.1v-1.593H48.507v-1.593H46.914v-1.593H45.321v4.779Z"/><path class="cls-2" d="M54.879,122.512V109.758h7.966v1.593H56.472v3.2h6.373v1.594H56.472v4.779h6.373v1.593Z"/><path class="cls-2" d="M66.031,122.512v-3.186h1.593v3.186Zm1.593-3.186V116.14h1.593v1.593H74V116.14h1.6v3.186Zm1.593-3.186v-3.187h1.594v3.187Zm1.594-3.187v-3.2H72.4v3.2ZM72.4,116.14v-3.187H74v3.187Zm3.2,6.372v-3.186h1.593v3.186Z"/><path class="cls-2" d="M80.369,122.512V109.758h3.187v3.2h1.593v4.78h3.186v4.779H85.149v-4.779H83.556v-4.78H81.962v9.559Zm7.966-4.779v-4.78h1.6v4.78Zm1.6-4.78v-3.2h3.187v12.754H91.53v-9.559Z"/><path class="cls-2" d="M101.08,112.953v-3.2h3.186v4.788h-1.593v-1.593Zm0,3.187v-1.594h1.593v1.594Z"/><path class="cls-2" d="M107.452,122.512V109.758h3.187v3.2h1.593v3.187h1.593v3.186h1.593v-9.568h1.6v12.754h-3.195v-3.186h-1.593V116.14h-1.593v-3.187h-1.593v9.559Z"/><path class="cls-2" d="M129.756,114.546v-3.2h1.593v3.2Zm0,6.373v-1.593h1.593v1.593Zm1.593-9.568v-1.593h4.78v1.593Zm0,4.789v-1.594h3.187v1.594Zm0,6.372v-1.593h4.78v1.593Zm3.187-4.779V116.14h1.593v1.593Zm1.593-4.78v-1.6h1.593v1.6Zm0,7.966v-3.186h1.593v3.186Z"/><path class="cls-2" d="M140.908,122.512V109.758H142.5v4.788h6.373v-4.788h1.6v12.754h-1.6V116.14H142.5v6.372Z"/><path class="cls-2" d="M153.653,120.919v-9.568h1.593v9.568Zm1.593-9.568v-1.593h6.373v1.593Zm0,11.161v-1.593h6.373v1.593Zm6.373-1.593v-9.568h1.6v9.568Z"/><path class="cls-2" d="M166.4,120.919V109.758h1.593v11.161Zm1.593,1.593v-1.593h6.373v1.593Zm6.373-1.593V109.758h1.6v11.161Z"/><path class="cls-2" d="M179.143,111.351v-1.593h7.966v1.593h-3.187v11.161h-1.593V111.351Z"/><path class="cls-2" d="M215.253,114.546v-3.2h1.593v3.2Zm0,6.373v-1.593h1.593v1.593Zm1.593-9.568v-1.593h4.779v1.593Zm0,4.789v-1.594h3.186v1.594Zm0,6.372v-1.593h4.779v1.593Zm3.186-4.779V116.14h1.593v1.593Zm1.593-4.78v-1.6h1.593v1.6Zm0,7.966v-3.186h1.593v3.186Z"/><path class="cls-2" d="M226.4,120.919v-9.568H228v9.568ZM228,111.351v-1.593h6.372v1.593Zm0,11.161v-1.593h6.372v1.593Zm6.372-9.559v-1.6h1.6v1.6Zm0,7.966v-1.593h1.6v1.593Z"/><path class="cls-2" d="M239.149,122.512V109.758h6.373v1.593h1.593v4.789h-1.593v-4.789h-4.779v4.789h4.779v1.593h-1.593v1.593h1.593v1.593h1.593v1.593h-1.593v-1.593h-1.593v-1.593h-1.593v-1.593h-1.593v4.779Z"/><path class="cls-2" d="M250.3,122.512V109.758h7.966v1.593h-6.373v3.2h6.373v1.594h-6.373v4.779h6.373v1.593Z"/><path class="cls-2" d="M261.453,122.512v-3.186h1.593v3.186Zm1.593-3.186V116.14h1.593v1.593h4.78V116.14h1.6v3.186Zm1.593-3.186v-3.187h1.594v3.187Zm1.594-3.187v-3.2h1.593v3.2Zm1.593,3.187v-3.187h1.593v3.187Zm3.195,6.372v-3.186h1.593v3.186Z"/><path class="cls-2" d="M275.791,122.512V109.758h3.187v3.2h1.593v4.78h3.186v4.779h-3.186v-4.779h-1.593v-4.78h-1.594v9.559Zm7.966-4.779v-4.78h1.6v4.78Zm1.6-4.78v-3.2h3.187v12.754h-1.594v-9.559Z"/><path class="cls-2" d="M296.5,112.953v-3.2h3.186v4.788H298.1v-1.593Zm0,3.187v-1.594H298.1v1.594Z"/><path class="cls-2" d="M302.874,122.512V109.758h3.187v3.2h1.593v3.187h1.593v3.186h1.593v-9.568h1.6v12.754h-3.195v-3.186h-1.593V116.14h-1.593v-3.187h-1.593v9.559Z"/><path class="cls-2" d="M325.178,114.546v-3.2h1.593v3.2Zm0,6.373v-1.593h1.593v1.593Zm1.593-9.568v-1.593h4.78v1.593Zm0,4.789v-1.594h3.187v1.594Zm0,6.372v-1.593h4.78v1.593Zm3.187-4.779V116.14h1.593v1.593Zm1.593-4.78v-1.6h1.593v1.6Zm0,7.966v-3.186h1.593v3.186Z"/><path class="cls-2" d="M336.33,122.512V109.758h1.593v4.788H344.3v-4.788h1.6v12.754h-1.6V116.14h-6.373v6.372Z"/><path class="cls-2" d="M349.075,120.919v-9.568h1.593v9.568Zm1.593-9.568v-1.593h6.373v1.593Zm0,11.161v-1.593h6.373v1.593Zm6.373-1.593v-9.568h1.6v9.568Z"/><path class="cls-2" d="M361.82,120.919V109.758h1.593v11.161Zm1.593,1.593v-1.593h6.373v1.593Zm6.373-1.593V109.758h1.6v11.161Z"/><path class="cls-2" d="M374.565,111.351v-1.593h7.966v1.593h-3.187v11.161h-1.593V111.351Z"/><path class="cls-2" d="M19.831,52.211v-3.2h1.593v3.2Zm0,6.372V56.99h1.593v1.593Zm1.593-9.568V47.422H26.2v1.593Zm0,4.789V52.211H24.61V53.8Zm0,6.372V58.583H26.2v1.593ZM24.61,55.4V53.8H26.2V55.4ZM26.2,50.618v-1.6H27.8v1.6Zm0,7.965V55.4H27.8v3.186Z"/><path class="cls-2" d="M30.982,58.583V49.015h1.594v9.568Zm1.594-9.568V47.422h6.372v1.593Zm0,11.161V58.583h6.372v1.593Zm6.372-9.558v-1.6h1.6v1.6Zm0,7.965V56.99h1.6v1.593Z"/><path class="cls-2" d="M43.727,60.176V47.422H50.1v1.593h1.593V53.8H50.1V49.015H45.321V53.8H50.1V55.4H48.507V56.99H50.1v1.593h1.593v1.593H50.1V58.583H48.507V56.99H46.914V55.4H45.321v4.779Z"/><path class="cls-2" d="M54.879,60.176V47.422h7.966v1.593H56.472v3.2h6.373V53.8H56.472v4.779h6.373v1.593Z"/><path class="cls-2" d="M66.031,60.176V56.99h1.593v3.186Zm1.593-3.186V53.8h1.593V55.4H74V53.8h1.6V56.99ZM69.217,53.8V50.618h1.594V53.8Zm1.594-3.186v-3.2H72.4v3.2ZM72.4,53.8V50.618H74V53.8Zm3.2,6.372V56.99h1.593v3.186Z"/><path class="cls-2" d="M80.369,60.176V47.422h3.187v3.2h1.593V55.4h3.186v4.779H85.149V55.4H83.556V50.618H81.962v9.558ZM88.335,55.4V50.618h1.6V55.4Zm1.6-4.779v-3.2h3.187V60.176H91.53V50.618Z"/><path class="cls-2" d="M101.08,50.618v-3.2h3.186v4.789h-1.593V50.618Zm0,3.186V52.211h1.593V53.8Z"/><path class="cls-2" d="M107.452,60.176V47.422h3.187v3.2h1.593V53.8h1.593V56.99h1.593V47.422h1.6V60.176h-3.195V56.99h-1.593V53.8h-1.593V50.618h-1.593v9.558Z"/><path class="cls-2" d="M129.756,52.211v-3.2h1.593v3.2Zm0,6.372V56.99h1.593v1.593Zm1.593-9.568V47.422h4.78v1.593Zm0,4.789V52.211h3.187V53.8Zm0,6.372V58.583h4.78v1.593Zm3.187-4.779V53.8h1.593V55.4Zm1.593-4.779v-1.6h1.593v1.6Zm0,7.965V55.4h1.593v3.186Z"/><path class="cls-2" d="M140.908,60.176V47.422H142.5v4.789h6.373V47.422h1.6V60.176h-1.6V53.8H142.5v6.372Z"/><path class="cls-2" d="M153.653,58.583V49.015h1.593v9.568Zm1.593-9.568V47.422h6.373v1.593Zm0,11.161V58.583h6.373v1.593Zm6.373-1.593V49.015h1.6v9.568Z"/><path class="cls-2" d="M166.4,58.583V47.422h1.593V58.583Zm1.593,1.593V58.583h6.373v1.593Zm6.373-1.593V47.422h1.6V58.583Z"/><path class="cls-2" d="M179.143,49.015V47.422h7.966v1.593h-3.187V60.176h-1.593V49.015Z"/><path class="cls-2" d="M215.253,52.211v-3.2h1.593v3.2Zm0,6.372V56.99h1.593v1.593Zm1.593-9.568V47.422h4.779v1.593Zm0,4.789V52.211h3.186V53.8Zm0,6.372V58.583h4.779v1.593Zm3.186-4.779V53.8h1.593V55.4Zm1.593-4.779v-1.6h1.593v1.6Zm0,7.965V55.4h1.593v3.186Z"/><path class="cls-2" d="M226.4,58.583V49.015H228v9.568ZM228,49.015V47.422h6.372v1.593Zm0,11.161V58.583h6.372v1.593Zm6.372-9.558v-1.6h1.6v1.6Zm0,7.965V56.99h1.6v1.593Z"/><path class="cls-2" d="M239.149,60.176V47.422h6.373v1.593h1.593V53.8h-1.593V49.015h-4.779V53.8h4.779V55.4h-1.593V56.99h1.593v1.593h1.593v1.593h-1.593V58.583h-1.593V56.99h-1.593V55.4h-1.593v4.779Z"/><path class="cls-2" d="M250.3,60.176V47.422h7.966v1.593h-6.373v3.2h6.373V53.8h-6.373v4.779h6.373v1.593Z"/><path class="cls-2" d="M261.453,60.176V56.99h1.593v3.186Zm1.593-3.186V53.8h1.593V55.4h4.78V53.8h1.6V56.99Zm1.593-3.186V50.618h1.594V53.8Zm1.594-3.186v-3.2h1.593v3.2Zm1.593,3.186V50.618h1.593V53.8Zm3.195,6.372V56.99h1.593v3.186Z"/><path class="cls-2" d="M275.791,60.176V47.422h3.187v3.2h1.593V55.4h3.186v4.779h-3.186V55.4h-1.593V50.618h-1.594v9.558Zm7.966-4.779V50.618h1.6V55.4Zm1.6-4.779v-3.2h3.187V60.176h-1.594V50.618Z"/><path class="cls-2" d="M296.5,50.618v-3.2h3.186v4.789H298.1V50.618Zm0,3.186V52.211H298.1V53.8Z"/><path class="cls-2" d="M302.874,60.176V47.422h3.187v3.2h1.593V53.8h1.593V56.99h1.593V47.422h1.6V60.176h-3.195V56.99h-1.593V53.8h-1.593V50.618h-1.593v9.558Z"/><path class="cls-2" d="M325.178,52.211v-3.2h1.593v3.2Zm0,6.372V56.99h1.593v1.593Zm1.593-9.568V47.422h4.78v1.593Zm0,4.789V52.211h3.187V53.8Zm0,6.372V58.583h4.78v1.593Zm3.187-4.779V53.8h1.593V55.4Zm1.593-4.779v-1.6h1.593v1.6Zm0,7.965V55.4h1.593v3.186Z"/><path class="cls-2" d="M336.33,60.176V47.422h1.593v4.789H344.3V47.422h1.6V60.176h-1.6V53.8h-6.373v6.372Z"/><path class="cls-2" d="M349.075,58.583V49.015h1.593v9.568Zm1.593-9.568V47.422h6.373v1.593Zm0,11.161V58.583h6.373v1.593Zm6.373-1.593V49.015h1.6v9.568Z"/><path class="cls-2" d="M361.82,58.583V47.422h1.593V58.583Zm1.593,1.593V58.583h6.373v1.593Zm6.373-1.593V47.422h1.6V58.583Z"/><path class="cls-2" d="M374.565,49.015V47.422h7.966v1.593h-3.187V60.176h-1.593V49.015Z"/><path class="cls-2" d="M215.253,178.881v-3.2h1.593v3.2Zm0,6.372V183.66h1.593v1.593Zm1.593-9.568v-1.593h4.779v1.593Zm0,4.789v-1.593h3.186v1.593Zm0,6.373v-1.594h4.779v1.594Zm3.186-4.78v-1.593h1.593v1.593Zm1.593-4.779v-1.6h1.593v1.6Zm0,7.965v-3.186h1.593v3.186Z"/><path class="cls-2" d="M226.4,185.253v-9.568H228v9.568ZM228,175.685v-1.593h6.372v1.593Zm0,11.162v-1.594h6.372v1.594Zm6.372-9.559v-1.6h1.6v1.6Zm0,7.965V183.66h1.6v1.593Z"/><path class="cls-2" d="M239.149,186.847V174.092h6.373v1.593h1.593v4.789h-1.593v-4.789h-4.779v4.789h4.779v1.593h-1.593v1.593h1.593v1.593h1.593v1.594h-1.593v-1.594h-1.593V183.66h-1.593v-1.593h-1.593v4.78Z"/><path class="cls-2" d="M250.3,186.847V174.092h7.966v1.593h-6.373v3.2h6.373v1.593h-6.373v4.779h6.373v1.594Z"/><path class="cls-2" d="M261.453,186.847V183.66h1.593v3.187Zm1.593-3.187v-3.186h1.593v1.593h4.78v-1.593h1.6v3.186Zm1.593-3.186v-3.186h1.594v3.186Zm1.594-3.186v-3.2h1.593v3.2Zm1.593,3.186v-3.186h1.593v3.186Zm3.195,6.373V183.66h1.593v3.187Z"/><path class="cls-2" d="M275.791,186.847V174.092h3.187v3.2h1.593v4.779h3.186v4.78h-3.186v-4.78h-1.593v-4.779h-1.594v9.559Zm7.966-4.78v-4.779h1.6v4.779Zm1.6-4.779v-3.2h3.187v12.755h-1.594v-9.559Z"/><path class="cls-2" d="M296.5,177.288v-3.2h3.186v4.789H298.1v-1.593Zm0,3.186v-1.593H298.1v1.593Z"/><path class="cls-2" d="M302.874,186.847V174.092h3.187v3.2h1.593v3.186h1.593v3.186h1.593v-9.568h1.6v12.755h-3.195V183.66h-1.593v-3.186h-1.593v-3.186h-1.593v9.559Z"/><path class="cls-2" d="M325.178,178.881v-3.2h1.593v3.2Zm0,6.372V183.66h1.593v1.593Zm1.593-9.568v-1.593h4.78v1.593Zm0,4.789v-1.593h3.187v1.593Zm0,6.373v-1.594h4.78v1.594Zm3.187-4.78v-1.593h1.593v1.593Zm1.593-4.779v-1.6h1.593v1.6Zm0,7.965v-3.186h1.593v3.186Z"/><path class="cls-2" d="M336.33,186.847V174.092h1.593v4.789H344.3v-4.789h1.6v12.755h-1.6v-6.373h-6.373v6.373Z"/><path class="cls-2" d="M349.075,185.253v-9.568h1.593v9.568Zm1.593-9.568v-1.593h6.373v1.593Zm0,11.162v-1.594h6.373v1.594Zm6.373-1.594v-9.568h1.6v9.568Z"/><path class="cls-2" d="M361.82,185.253V174.092h1.593v11.161Zm1.593,1.594v-1.594h6.373v1.594Zm6.373-1.594V174.092h1.6v11.161Z"/><path class="cls-2" d="M374.565,175.685v-1.593h7.966v1.593h-3.187v11.162h-1.593V175.685Z"/></g></g></svg>