<svg xmlns="http://www.w3.org/2000/svg" viewBox="0 0 376.7046 275.84">
  <defs>
    <style>
      .cls-1 {
        fill: none;
      }

      .cls-2 {
        fill: #1d1d1b;
      }

      .cls-3 {
        fill: #fcc322;
      }

      .cls-4 {
        fill: #19181c;
      }

      .cls-5 {
        fill: #fff;
      }

      .cls-6 {
        fill: #221e20;
      }

      .cls-7 {
        fill: #010101;
      }
    </style>
  </defs>
  <g id="Layer_2" data-name="Layer 2">
    <g id="Layer_1-2" data-name="Layer 1">
      <rect class="cls-1" width="376.7046" height="275.84"/>
      <g>
        <g>
          <path class="cls-2" d="M77.7082,79.3316V86.437a3.1939,3.1939,0,0,0,.503,1.9629,2.1529,2.1529,0,0,0,1.8065.6543,6.4462,6.4462,0,0,0,.95-.0742,3.247,3.247,0,0,0,.8382-.2236l.0744,4.47a10.0918,10.0918,0,0,1-1.6016.391,11.3191,11.3191,0,0,1-1.9372.1678,9.1172,9.1172,0,0,1-3.129-.4671,4.8316,4.8316,0,0,1-2.03-1.3445,5.2706,5.2706,0,0,1-1.0989-2.091,10.1607,10.1607,0,0,1-.3354-2.708V79.3316h-2.98V74.7872h2.9429v-4.88h5.9973v4.88h4.3583v4.5444Z"/>
          <path class="cls-2" d="M92.9808,96.1319a16.2433,16.2433,0,0,1-1.248,2.5891,7.81,7.81,0,0,1-1.6389,1.9368,6.48,6.48,0,0,1-2.2351,1.2106,10.0359,10.0359,0,0,1-3.0358.41,14.6135,14.6135,0,0,1-1.7695-.1116,10.9613,10.9613,0,0,1-1.5831-.2983l.67-5.14a6.81,6.81,0,0,0,.9873.242,5.8944,5.8944,0,0,0,.987.0932,2.762,2.762,0,0,0,2.0488-.6519,5.2848,5.2848,0,0,0,1.0805-1.8437L87.84,93.04,80.0919,74.7872h6.78l4.1347,11.92h.1118l3.6877-11.92h6.4818Z"/>
          <path class="cls-2" d="M108.4021,79.3316V86.437a3.1939,3.1939,0,0,0,.503,1.9629,2.1529,2.1529,0,0,0,1.8065.6543,6.4462,6.4462,0,0,0,.95-.0742,3.247,3.247,0,0,0,.8382-.2236l.0744,4.47a10.0918,10.0918,0,0,1-1.6016.391,11.3191,11.3191,0,0,1-1.9372.1678,9.1172,9.1172,0,0,1-3.129-.4671,4.8316,4.8316,0,0,1-2.03-1.3445,5.2706,5.2706,0,0,1-1.0989-2.091,10.1607,10.1607,0,0,1-.3354-2.708V79.3316h-2.98V74.7872h2.9429v-4.88h5.9973v4.88H112.76v4.5444Z"/>
          <path class="cls-2" d="M135.2969,83.988a10.0333,10.0333,0,0,1-.82,4.1165,9.2366,9.2366,0,0,1-2.235,3.129,10.2345,10.2345,0,0,1-3.2781,1.993,11.5253,11.5253,0,0,1-7.9529,0,9.9629,9.9629,0,0,1-3.2782-1.993,9.35,9.35,0,0,1-2.2164-3.129,10.0236,10.0236,0,0,1-.82-4.1165,9.8969,9.8969,0,0,1,.82-4.0976,9.201,9.201,0,0,1,2.2164-3.0915,9.6446,9.6446,0,0,1,3.2782-1.9372,12.1282,12.1282,0,0,1,7.9529,0,9.8971,9.8971,0,0,1,3.2781,1.9372,9.0907,9.0907,0,0,1,2.235,3.0915A9.9064,9.9064,0,0,1,135.2969,83.988Zm-5.8857,0a5.3015,5.3015,0,0,0-.2978-1.7505,4.6461,4.6461,0,0,0-.8568-1.5089,4.37,4.37,0,0,0-1.3782-1.0613,4.608,4.608,0,0,0-3.8,0,4.15,4.15,0,0,0-1.36,1.0613,4.551,4.551,0,0,0-.8195,1.5089,5.6268,5.6268,0,0,0,0,3.5015,4.7877,4.7877,0,0,0,.8382,1.5458,4.1172,4.1172,0,0,0,1.3782,1.0991,4.6075,4.6075,0,0,0,3.8,0,4.1241,4.1241,0,0,0,1.3782-1.0991,4.7856,4.7856,0,0,0,.8381-1.5458A5.6115,5.6115,0,0,0,129.4112,83.988Z"/>
          <path class="cls-2" d="M145.69,90.06a3.4471,3.4471,0,0,1-1.0991,2.6076,3.6832,3.6832,0,0,1-2.626,1.0428,3.8784,3.8784,0,0,1-1.4716-.2794,3.9222,3.9222,0,0,1-1.2106-.7634,3.5349,3.5349,0,0,1-.82-1.1365,3.3988,3.3988,0,0,1-.2981-1.4338,3.4421,3.4421,0,0,1,.2981-1.4158,3.6991,3.6991,0,0,1,.82-1.1733,4.0311,4.0311,0,0,1,1.2106-.8008,3.81,3.81,0,0,1,4.0976.745A3.4471,3.4471,0,0,1,145.69,90.06Z"/>
        </g>
        <g>
          <path class="cls-3" d="M64.5976,82.68a11.5064,11.5064,0,0,1-19.4694,8.3075s-.6275-.68-.6564-.6828a11.4544,11.4544,0,0,1-2.89-7.6247,11.0171,11.0171,0,0,1,.06-1.1687c.0265-.2765.0625-.5482.1106-.815A11.5086,11.5086,0,0,1,64.5976,82.68Z"/>
          <path class="cls-4" d="M51.0746,90.3066v.68H44.5608c-2.9912,0-5.4246-1.82-5.4246-4.0588v-2.76a3.9983,3.9983,0,0,1,2.6161-3.4721c-.0481.2668-.0841.5385-.1106.815a3.1567,3.1567,0,0,0-1.8226,2.6571v2.76c0,1.8419,2.0775,3.3448,4.6527,3.376.0289.0023.06.0023.089.0023Z"/>
          <path class="cls-5" d="M61.2275,82.6786a8.1377,8.1377,0,0,1-16.2754,0c0-4.4944,4.7147-8.2369,8.1377-4.8138C56.7105,74.2441,61.2275,78.1842,61.2275,82.6786Z"/>
          <path class="cls-4" d="M52.02,83.3629a.3408.3408,0,0,1-.3036-.1855,4.16,4.16,0,0,0-3.6328-2.3864.3409.3409,0,1,1,0-.6818,4.8368,4.8368,0,0,1,4.24,2.7573.341.341,0,0,1-.3031.4964Z"/>
          <path class="cls-4" d="M52.7866,90.6468a1.8793,1.8793,0,0,1-1.9,1.6958,1.3413,1.3413,0,0,1-.3163-.0182l-.6858-.1169-.9444-.1611A1.4163,1.4163,0,0,1,47.7623,90.65h0a1.4161,1.4161,0,0,1,1.1724-1.395l.9314-.1628.7008-.1227a1.338,1.338,0,0,1,.3227-.0192A1.8786,1.8786,0,0,1,52.7866,90.6468Z"/>
          <path class="cls-4" d="M54.3,83.3629a.341.341,0,0,1-.3031-.4964,4.8369,4.8369,0,0,1,4.24-2.7573.3409.3409,0,1,1,0,.6818,4.16,4.16,0,0,0-3.6329,2.3864A.3406.3406,0,0,1,54.3,83.3629Z"/>
          <g>
            <path class="cls-6" d="M53.1905,85.5424l.7678-.5946a.24.24,0,0,1,.3092.3377l-.9692,1.6906a.24.24,0,0,1-.417,0l-.9691-1.6906a.24.24,0,0,1,.3092-.3377l.7677.5946A.24.24,0,0,0,53.1905,85.5424Z"/>
            <path class="cls-6" d="M53.09,87.1148a.2558.2558,0,0,1-.2242-.13l-.9691-1.6907a.2583.2583,0,0,1,.3324-.3629L53,85.5282a.2225.2225,0,0,0,.181-.0012l.7662-.5934a.2579.2579,0,0,1,.3357.3609l-.9691,1.6905A.2555.2555,0,0,1,53.09,87.1148Zm-.97-2.1724a.2212.2212,0,0,0-.1637.0735.2189.2189,0,0,0-.029.2607l.9692,1.6906a.2225.2225,0,0,0,.3859,0l.9691-1.69a.2224.2224,0,0,0-.2861-.3125l-.7677.5947a.2576.2576,0,0,1-.2165,0L52.21,84.962A.2164.2164,0,0,0,52.12,84.9424Zm1.07.6h0Z"/>
          </g>
        </g>
        <g>
          <path class="cls-7" d="M69.22,63.1732h.4089v1.7445H71.822V63.1732h.4089v4.023H71.822V65.2927H69.6285v1.9035H69.22Z"/>
          <path class="cls-7" d="M75.6968,65.787v.0852a.8694.8694,0,0,1-.0055.0966H73.4867a1.0365,1.0365,0,0,0,.0794.3751.944.944,0,0,0,.2046.3068.9851.9851,0,0,0,.3067.2074,1.0168,1.0168,0,0,0,.9006-.0625,1.04,1.04,0,0,0,.3325-.321l.29.2273a1.441,1.441,0,0,1-.5256.4317,1.47,1.47,0,0,1-.6166.1308,1.4161,1.4161,0,0,1-.5482-.1052,1.2862,1.2862,0,0,1-.4348-.2926,1.3844,1.3844,0,0,1-.2868-.4432,1.4512,1.4512,0,0,1-.105-.5568,1.4872,1.4872,0,0,1,.102-.5568,1.3507,1.3507,0,0,1,.2843-.4433,1.3094,1.3094,0,0,1,.426-.2926,1.3247,1.3247,0,0,1,.5284-.1051,1.357,1.357,0,0,1,.5512.1051,1.14,1.14,0,0,1,.3979.2841,1.2188,1.2188,0,0,1,.2413.4176A1.5517,1.5517,0,0,1,75.6968,65.787Zm-.3918-.125a.96.96,0,0,0-.2416-.6222.82.82,0,0,0-.6394-.2471.8923.8923,0,0,0-.3577.071.9438.9438,0,0,0-.29.1932.9556.9556,0,0,0-.1989.2785.8987.8987,0,0,0-.0854.3266Z"/>
          <path class="cls-7" d="M78.1686,65.4752a.6686.6686,0,0,0-.1818-.5133.7487.7487,0,0,0-.5284-.1692,1.1392,1.1392,0,0,0-.4433.0852,1.0616,1.0616,0,0,0-.3466.2272l-.2158-.2557a1.2766,1.2766,0,0,1,.4346-.2727,1.6364,1.6364,0,0,1,.6108-.1079,1.3291,1.3291,0,0,1,.4033.06.9581.9581,0,0,1,.33.1791.8113.8113,0,0,1,.2218.3011,1.0553,1.0553,0,0,1,.08.4261V66.6q0,.1535.0113.3182a2.2708,2.2708,0,0,0,.0339.2784h-.3466c-.0111-.0644-.0207-.1345-.0281-.21a2.1906,2.1906,0,0,1-.0116-.2216H78.18a1.1205,1.1205,0,0,1-.4121.3836,1.2156,1.2156,0,0,1-.5538.1165,1.2358,1.2358,0,0,1-.3152-.0427.88.88,0,0,1-.2956-.14.7928.7928,0,0,1-.2217-.2509.7467.7467,0,0,1-.088-.3762.7172.7172,0,0,1,.1562-.4875.9376.9376,0,0,1,.4177-.2679,2.4592,2.4592,0,0,1,.5995-.1141q.3381-.0255.7017-.0257Zm-.1135.3914q-.2388,0-.48.02a2.0991,2.0991,0,0,0-.4375.08.8275.8275,0,0,0-.3212.1733.3868.3868,0,0,0-.1249.3012.4852.4852,0,0,0,.0538.2386.4417.4417,0,0,0,.1451.1563.6133.6133,0,0,0,.2015.0852.998.998,0,0,0,.2245.0255.8831.8831,0,0,0,.3637-.0709.7707.7707,0,0,0,.2672-.1933.8583.8583,0,0,0,.1647-.2811.9967.9967,0,0,0,.0568-.3353v-.1989Z"/>
          <path class="cls-7" d="M79.5208,64.8439q-.0057-.1707-.0171-.3069h.3693q.0114.1078.017.2386t.0058.216h.0113a.94.94,0,0,1,.8524-.5228c.0491,0,.0939.002.1336.0057a.7282.7282,0,0,1,.1221.0227l-.0513.3693a.74.74,0,0,0-.1135-.0226,1.105,1.105,0,0,0-.1592-.0114.7909.7909,0,0,0-.2954.0566.6326.6326,0,0,0-.2471.1787.9349.9349,0,0,0-.17.3117,1.4021,1.4021,0,0,0-.0655.4563v1.36h-.3865v-2.074C79.5264,65.05,79.5247,64.9574,79.5208,64.8439Z"/>
          <path class="cls-7" d="M84.1915,64.8608h-.75v1.5513a.8713.8713,0,0,0,.0286.2443.3411.3411,0,0,0,.0824.15.2776.2776,0,0,0,.1276.0738.6011.6011,0,0,0,.1592.02.6774.6774,0,0,0,.1678-.0227.8551.8551,0,0,0,.1675-.0626l.0171.3353a1.1494,1.1494,0,0,1-.2132.06,1.3741,1.3741,0,0,1-.2414.02.984.984,0,0,1-.2273-.0285.5714.5714,0,0,1-.2215-.1079.59.59,0,0,1-.1678-.2159.8352.8352,0,0,1-.0653-.3579V64.8608h-.551V64.537h.551v-.75h.3863v.75h.75Z"/>
          <path class="cls-7" d="M85.2028,64.9745a.801.801,0,0,1,.3579-.3693,1.0988,1.0988,0,0,1,.5342-.1364.9347.9347,0,0,1,.7585.3011,1.1963,1.1963,0,0,1,.2527.7955v1.6308H86.72V65.7245a1.9433,1.9433,0,0,0-.0341-.3807.7935.7935,0,0,0-.1166-.2926.5566.5566,0,0,0-.2215-.19.7925.7925,0,0,0-.3494-.0681.7478.7478,0,0,0-.2983.0625.73.73,0,0,0-.2585.19.9481.9481,0,0,0-.1818.3238,1.413,1.413,0,0,0-.0683.463v1.3638H84.805V62.9005h.3863v2.074Z"/>
          <path class="cls-7" d="M90.5267,65.787v.0852a.92.92,0,0,1-.0055.0966H88.3164a1.0325,1.0325,0,0,0,.08.3751.9451.9451,0,0,0,.2044.3068.9872.9872,0,0,0,.3069.2074,1.017,1.017,0,0,0,.9007-.0625,1.0457,1.0457,0,0,0,.3325-.321l.29.2273a1.4418,1.4418,0,0,1-.5259.4317,1.4693,1.4693,0,0,1-.6163.1308,1.4166,1.4166,0,0,1-.5485-.1052,1.284,1.284,0,0,1-.4345-.2926,1.3847,1.3847,0,0,1-.2869-.4432,1.4476,1.4476,0,0,1-.1052-.5568,1.4833,1.4833,0,0,1,.1023-.5568,1.3457,1.3457,0,0,1,.2842-.4433,1.3062,1.3062,0,0,1,.426-.2926,1.3233,1.3233,0,0,1,.5284-.1051,1.3562,1.3562,0,0,1,.5511.1051,1.1357,1.1357,0,0,1,.3978.2841,1.2243,1.2243,0,0,1,.2416.4176A1.56,1.56,0,0,1,90.5267,65.787Zm-.392-.125a.9594.9594,0,0,0-.2414-.6222.82.82,0,0,0-.6394-.2471.8933.8933,0,0,0-.3579.071.95.95,0,0,0-.29.1932.9612.9612,0,0,0-.1989.2785.8944.8944,0,0,0-.0852.3266Z"/>
          <path class="cls-7" d="M93.2482,63.5143a.251.251,0,0,1-.0851.1959.2675.2675,0,0,1-.375,0,.2676.2676,0,0,1,0-.392.2675.2675,0,0,1,.375,0A.2514.2514,0,0,1,93.2482,63.5143Zm-.0793,3.6819h-.3863V64.537h.3863Z"/>
          <path class="cls-7" d="M94.9274,64.6137a.9838.9838,0,0,1,.5254-.1449,1.176,1.176,0,0,1,.2246.0227.7159.7159,0,0,1,.2272.0882.8248.8248,0,0,1,.2047.1733.9716.9716,0,0,1,.1618.2783,1.0017,1.0017,0,0,1,.3722-.4176,1.0479,1.0479,0,0,1,.56-.1449.9347.9347,0,0,1,.7585.3011,1.1979,1.1979,0,0,1,.2529.7955v1.6308h-.3863V65.7245a1.2856,1.2856,0,0,0-.1565-.6762.5722.5722,0,0,0-.5312-.2556.6561.6561,0,0,0-.5881.31.9913.9913,0,0,0-.1277.3155,1.64,1.64,0,0,0-.04.3635v1.4149h-.3865V65.645a2.037,2.037,0,0,0-.0281-.3523.7435.7435,0,0,0-.1-.27.4669.4669,0,0,0-.1961-.17.74.74,0,0,0-.3182-.06.6719.6719,0,0,0-.2758.0625.725.725,0,0,0-.25.19.9822.9822,0,0,0-.179.3238,1.4159,1.4159,0,0,0-.0681.463v1.3638h-.3865v-2.074c0-.0719-.0017-.1648-.0056-.2783s-.0093-.216-.017-.3069h.3692c.0077.0719.0132.1515.0171.2386s.0057.1592.0057.216h.0113A.9053.9053,0,0,1,94.9274,64.6137Z"/>
          <path class="cls-7" d="M99.6008,68.56h-.3863V64.537h.3863v.46h.0171a1.0539,1.0539,0,0,1,.4405-.3949,1.27,1.27,0,0,1,.56-.1335,1.429,1.429,0,0,1,.5653.1079,1.29,1.29,0,0,1,.4317.2956,1.3313,1.3313,0,0,1,.2786.4431,1.5777,1.5777,0,0,1,0,1.1023,1.3327,1.3327,0,0,1-.2786.4432,1.29,1.29,0,0,1-.4317.2956,1.429,1.429,0,0,1-.5653.1079,1.27,1.27,0,0,1-.56-.1335,1.0791,1.0791,0,0,1-.4405-.3836h-.0171Zm1.9831-2.6933a1.2567,1.2567,0,0,0-.0683-.4177,1.0078,1.0078,0,0,0-.1959-.3408.9254.9254,0,0,0-.3155-.23,1.0832,1.0832,0,0,0-.8353-.0029.9857.9857,0,0,0-.3237.2273,1.0515,1.0515,0,0,0-.2132.341,1.2079,1.2079,0,0,0,0,.8466,1.0171,1.0171,0,0,0,.2132.338,1.0025,1.0025,0,0,0,.7331.3068,1.0456,1.0456,0,0,0,.4259-.0824.8926.8926,0,0,0,.3155-.2272,1.0083,1.0083,0,0,0,.1959-.3409A1.2561,1.2561,0,0,0,101.5839,65.8666Z"/>
          <path class="cls-7" d="M102.8168,64.8439q-.0057-.1707-.0171-.3069h.37q.0111.1078.017.2386t.0056.216h.0115a.9187.9187,0,0,1,.3408-.3779.9309.9309,0,0,1,.5114-.1449c.0493,0,.0937.002.1334.0057a.72.72,0,0,1,.1222.0227l-.051.3693a.7438.7438,0,0,0-.1137-.0226,1.1074,1.1074,0,0,0-.159-.0114.79.79,0,0,0-.2956.0566.6341.6341,0,0,0-.2471.1787.9351.9351,0,0,0-.1705.3117,1.4077,1.4077,0,0,0-.0654.4563v1.36h-.3862v-2.074C102.8226,65.05,102.82,64.9574,102.8168,64.8439Z"/>
          <path class="cls-7" d="M107.408,65.8666a1.4513,1.4513,0,0,1-.1052.5568,1.3394,1.3394,0,0,1-.2926.4432,1.3259,1.3259,0,0,1-.449.2926,1.6022,1.6022,0,0,1-1.142,0,1.3128,1.3128,0,0,1-.7416-.7358,1.5288,1.5288,0,0,1,0-1.1136,1.3126,1.3126,0,0,1,.7416-.7359,1.6036,1.6036,0,0,1,1.142,0,1.311,1.311,0,0,1,.7416.7359A1.4517,1.4517,0,0,1,107.408,65.8666Zm-.4093,0a1.2182,1.2182,0,0,0-.0708-.4177,1.0259,1.0259,0,0,0-.2019-.3408.9553.9553,0,0,0-.318-.23,1.0044,1.0044,0,0,0-.4205-.0852.985.985,0,0,0-.4178.0852.9613.9613,0,0,0-.3152.23,1.02,1.02,0,0,0-.2017.3408,1.2622,1.2622,0,0,0,0,.8353,1.0209,1.0209,0,0,0,.2017.3409.9259.9259,0,0,0,.3152.2272,1.0126,1.0126,0,0,0,.4178.0824,1.0326,1.0326,0,0,0,.4205-.0824.9207.9207,0,0,0,.318-.2272,1.0264,1.0264,0,0,0,.2019-.3409A1.2177,1.2177,0,0,0,106.9987,65.8666Z"/>
          <path class="cls-7" d="M109.3284,67.1962h-.4262L107.817,64.537h.4319l.8635,2.25h.0115l.8693-2.25h.4146Z"/>
          <path class="cls-7" d="M113.4307,65.787v.0852a.8469.8469,0,0,1-.0056.0966h-2.2046a1.0386,1.0386,0,0,0,.0794.3751.9443.9443,0,0,0,.2047.3068.9851.9851,0,0,0,.3067.2074,1.0168,1.0168,0,0,0,.9006-.0625,1.0406,1.0406,0,0,0,.3325-.321l.29.2273a1.441,1.441,0,0,1-.5256.4317,1.471,1.471,0,0,1-.6166.1308,1.4163,1.4163,0,0,1-.5483-.1052,1.2848,1.2848,0,0,1-.4347-.2926,1.3844,1.3844,0,0,1-.2868-.4432,1.4512,1.4512,0,0,1-.105-.5568,1.4872,1.4872,0,0,1,.102-.5568,1.3491,1.3491,0,0,1,.2843-.4433,1.31,1.31,0,0,1,.4259-.2926,1.3255,1.3255,0,0,1,.5285-.1051,1.3574,1.3574,0,0,1,.5512.1051,1.1384,1.1384,0,0,1,.3978.2841,1.2174,1.2174,0,0,1,.2414.4176A1.5517,1.5517,0,0,1,113.4307,65.787Zm-.3919-.125a.96.96,0,0,0-.2415-.6222.82.82,0,0,0-.6394-.2471.8923.8923,0,0,0-.3577.071.9427.9427,0,0,0-.29.1932.956.956,0,0,0-.199.2785.8985.8985,0,0,0-.0853.3266Z"/>
          <path class="cls-7" d="M114.99,64.6137a.9841.9841,0,0,1,.5257-.1449,1.1753,1.1753,0,0,1,.2243.0227.7174.7174,0,0,1,.2275.0882.8253.8253,0,0,1,.2044.1733.9672.9672,0,0,1,.162.2783,1,1,0,0,1,.3722-.4176,1.0479,1.0479,0,0,1,.56-.1449.9347.9347,0,0,1,.7585.3011,1.1973,1.1973,0,0,1,.2527.7955v1.6308h-.3863V65.7245a1.2867,1.2867,0,0,0-.1562-.6762.5728.5728,0,0,0-.5314-.2556.69.69,0,0,0-.3552.0852.68.68,0,0,0-.2328.2244.9938.9938,0,0,0-.1278.3155,1.6454,1.6454,0,0,0-.04.3635v1.4149h-.3865V65.645a2.0256,2.0256,0,0,0-.0284-.3523.7362.7362,0,0,0-.1-.27.4651.4651,0,0,0-.1959-.17.74.74,0,0,0-.3184-.06.67.67,0,0,0-.2755.0625.7194.7194,0,0,0-.25.19.9788.9788,0,0,0-.1791.3238,1.4133,1.4133,0,0,0-.0681.463v1.3638H114.26v-2.074q0-.1079-.0057-.2783c-.0039-.1138-.0094-.216-.0171-.3069h.3694q.0112.1078.0171.2386c.0036.0873.0058.1592.0058.216h.0113A.9046.9046,0,0,1,114.99,64.6137Z"/>
          <path class="cls-7" d="M121.698,65.787v.0852a.92.92,0,0,1-.0055.0966h-2.2048a1.0325,1.0325,0,0,0,.08.3751.9451.9451,0,0,0,.2044.3068.986.986,0,0,0,.3069.2074,1.0168,1.0168,0,0,0,.9006-.0625,1.0437,1.0437,0,0,0,.3325-.321l.29.2273a1.4418,1.4418,0,0,1-.5259.4317,1.4693,1.4693,0,0,1-.6163.1308,1.4166,1.4166,0,0,1-.5485-.1052,1.284,1.284,0,0,1-.4345-.2926,1.383,1.383,0,0,1-.2869-.4432,1.4476,1.4476,0,0,1-.1052-.5568,1.4833,1.4833,0,0,1,.1022-.5568,1.3475,1.3475,0,0,1,.2843-.4433,1.3062,1.3062,0,0,1,.426-.2926,1.3233,1.3233,0,0,1,.5284-.1051,1.3562,1.3562,0,0,1,.5511.1051,1.1357,1.1357,0,0,1,.3978.2841,1.2243,1.2243,0,0,1,.2416.4176A1.56,1.56,0,0,1,121.698,65.787Zm-.392-.125a.9594.9594,0,0,0-.2414-.6222.82.82,0,0,0-.6394-.2471.8933.8933,0,0,0-.3579.071.9486.9486,0,0,0-.29.1932.9594.9594,0,0,0-.1989.2785.8944.8944,0,0,0-.0852.3266Z"/>
          <path class="cls-7" d="M122.874,64.537q.0114.1078.017.2386t.0058.216h.0113a.876.876,0,0,1,.3694-.3779,1.0787,1.0787,0,0,1,.54-.1449.9345.9345,0,0,1,.7585.3011,1.197,1.197,0,0,1,.2531.7955v1.6308h-.3865V65.7245a1.9352,1.9352,0,0,0-.0342-.3807.8037.8037,0,0,0-.1163-.2926.5592.5592,0,0,0-.2217-.19.7937.7937,0,0,0-.3494-.0681.7468.7468,0,0,0-.2984.0625.7367.7367,0,0,0-.2586.19.9548.9548,0,0,0-.1818.3238,1.4159,1.4159,0,0,0-.0681.463v1.3638h-.3865v-2.074c0-.0719-.0017-.1648-.0056-.2783s-.0094-.216-.0171-.3069Z"/>
          <path class="cls-7" d="M127.0277,64.8608h-.75v1.5513a.8713.8713,0,0,0,.0286.2443.3411.3411,0,0,0,.0824.15.2786.2786,0,0,0,.1276.0738.6017.6017,0,0,0,.1592.02.6762.6762,0,0,0,.1678-.0227.85.85,0,0,0,.1675-.0626l.0171.3353a1.1494,1.1494,0,0,1-.2132.06,1.3733,1.3733,0,0,1-.2414.02.984.984,0,0,1-.2273-.0285.5721.5721,0,0,1-.2215-.1079.5887.5887,0,0,1-.1677-.2159.8337.8337,0,0,1-.0653-.3579V64.8608H125.34V64.537h.5511v-.75h.3862v.75h.75Z"/>
        </g>
      </g>
      <g>
        <g>
          <path class="cls-2" d="M263.4515,79.3316V86.437a3.1939,3.1939,0,0,0,.503,1.9629,2.1529,2.1529,0,0,0,1.8065.6543,6.4462,6.4462,0,0,0,.95-.0742,3.247,3.247,0,0,0,.8382-.2236l.0744,4.47a10.0918,10.0918,0,0,1-1.6016.391,11.3191,11.3191,0,0,1-1.9372.1678,9.1172,9.1172,0,0,1-3.129-.4671,4.8316,4.8316,0,0,1-2.03-1.3445,5.2692,5.2692,0,0,1-1.0988-2.091,10.1565,10.1565,0,0,1-.3355-2.708V79.3316h-2.98V74.7872h2.9429v-4.88h5.9973v4.88H267.81v4.5444Z"/>
          <path class="cls-2" d="M278.7241,96.1319a16.2433,16.2433,0,0,1-1.248,2.5891,7.81,7.81,0,0,1-1.6389,1.9368,6.48,6.48,0,0,1-2.2351,1.2106,10.0359,10.0359,0,0,1-3.0358.41,14.6135,14.6135,0,0,1-1.7695-.1116,10.9613,10.9613,0,0,1-1.5831-.2983l.67-5.14a6.81,6.81,0,0,0,.9873.242,5.8944,5.8944,0,0,0,.987.0932,2.762,2.762,0,0,0,2.0488-.6519,5.2848,5.2848,0,0,0,1.08-1.8437l.5958-1.5273-7.7482-18.2531h6.78l4.1347,11.92h.1118l3.6877-11.92h6.4818Z"/>
          <path class="cls-2" d="M294.1454,79.3316V86.437a3.1939,3.1939,0,0,0,.503,1.9629,2.1529,2.1529,0,0,0,1.8065.6543,6.4462,6.4462,0,0,0,.95-.0742,3.247,3.247,0,0,0,.8382-.2236l.0744,4.47a10.0918,10.0918,0,0,1-1.6016.391,11.3191,11.3191,0,0,1-1.9372.1678,9.1172,9.1172,0,0,1-3.129-.4671,4.8316,4.8316,0,0,1-2.03-1.3445,5.2706,5.2706,0,0,1-1.0989-2.091,10.1607,10.1607,0,0,1-.3354-2.708V79.3316h-2.98V74.7872h2.9429v-4.88h5.9973v4.88h4.3583v4.5444Z"/>
          <path class="cls-2" d="M321.04,83.988a10.0333,10.0333,0,0,1-.82,4.1165,9.2366,9.2366,0,0,1-2.235,3.129,10.2345,10.2345,0,0,1-3.2781,1.993,11.5253,11.5253,0,0,1-7.9529,0,9.9629,9.9629,0,0,1-3.2782-1.993,9.3488,9.3488,0,0,1-2.2163-3.129,10.022,10.022,0,0,1-.82-4.1165,9.8953,9.8953,0,0,1,.82-4.0976,9.1994,9.1994,0,0,1,2.2163-3.0915,9.6446,9.6446,0,0,1,3.2782-1.9372,12.1282,12.1282,0,0,1,7.9529,0,9.8971,9.8971,0,0,1,3.2781,1.9372,9.0907,9.0907,0,0,1,2.235,3.0915A9.9064,9.9064,0,0,1,321.04,83.988Zm-5.8857,0a5.3015,5.3015,0,0,0-.2978-1.7505A4.6461,4.6461,0,0,0,314,80.7286a4.37,4.37,0,0,0-1.3782-1.0613,4.608,4.608,0,0,0-3.8,0,4.15,4.15,0,0,0-1.36,1.0613,4.549,4.549,0,0,0-.8194,1.5089,5.6249,5.6249,0,0,0,0,3.5015,4.7856,4.7856,0,0,0,.8381,1.5458,4.1172,4.1172,0,0,0,1.3782,1.0991,4.6075,4.6075,0,0,0,3.8,0,4.1241,4.1241,0,0,0,1.3782-1.0991,4.7877,4.7877,0,0,0,.8382-1.5458A5.6143,5.6143,0,0,0,315.1545,83.988Z"/>
          <path class="cls-2" d="M331.4331,90.06a3.4471,3.4471,0,0,1-1.0991,2.6076,3.6832,3.6832,0,0,1-2.626,1.0428,3.8784,3.8784,0,0,1-1.4716-.2794,3.9222,3.9222,0,0,1-1.2106-.7634,3.5349,3.5349,0,0,1-.82-1.1365,3.3988,3.3988,0,0,1-.2981-1.4338,3.4421,3.4421,0,0,1,.2981-1.4158,3.6991,3.6991,0,0,1,.82-1.1733,4.0311,4.0311,0,0,1,1.2106-.8008,3.81,3.81,0,0,1,4.0976.745A3.4471,3.4471,0,0,1,331.4331,90.06Z"/>
        </g>
        <g>
          <path class="cls-3" d="M250.3409,82.68a11.5064,11.5064,0,0,1-19.4694,8.3075s-.6275-.68-.6564-.6828a11.4544,11.4544,0,0,1-2.89-7.6247,11.0171,11.0171,0,0,1,.06-1.1687c.0265-.2765.0625-.5482.1106-.815A11.5086,11.5086,0,0,1,250.3409,82.68Z"/>
          <path class="cls-4" d="M236.8179,90.3066v.68h-6.5138c-2.9912,0-5.4246-1.82-5.4246-4.0588v-2.76a3.9983,3.9983,0,0,1,2.6161-3.4721c-.0481.2668-.0841.5385-.1106.815a3.1567,3.1567,0,0,0-1.8226,2.6571v2.76c0,1.8419,2.0775,3.3448,4.6527,3.376.0289.0023.06.0023.089.0023Z"/>
          <path class="cls-5" d="M246.9708,82.6786a8.1377,8.1377,0,1,1-16.2754,0c0-4.4944,4.7147-8.2369,8.1377-4.8138C242.4538,74.2441,246.9708,78.1842,246.9708,82.6786Z"/>
          <path class="cls-4" d="M237.7628,83.3629a.3408.3408,0,0,1-.3036-.1855,4.16,4.16,0,0,0-3.6328-2.3864.3409.3409,0,1,1,0-.6818,4.8368,4.8368,0,0,1,4.2395,2.7573.341.341,0,0,1-.3031.4964Z"/>
          <path class="cls-4" d="M238.53,90.6468a1.8793,1.8793,0,0,1-1.9,1.6958,1.3413,1.3413,0,0,1-.3163-.0182l-.6858-.1169-.9444-.1611a1.4163,1.4163,0,0,1-1.1779-1.3961h0a1.4161,1.4161,0,0,1,1.1724-1.395l.9314-.1628.7008-.1227a1.3385,1.3385,0,0,1,.3228-.0192A1.8786,1.8786,0,0,1,238.53,90.6468Z"/>
          <path class="cls-4" d="M240.0435,83.3629a.341.341,0,0,1-.3031-.4964,4.8369,4.8369,0,0,1,4.24-2.7573.3409.3409,0,1,1,0,.6818,4.16,4.16,0,0,0-3.6329,2.3864A.3406.3406,0,0,1,240.0435,83.3629Z"/>
          <g>
            <path class="cls-6" d="M238.9338,85.5424l.7678-.5946a.24.24,0,0,1,.3092.3377l-.9692,1.6906a.24.24,0,0,1-.417,0l-.9691-1.6906a.24.24,0,0,1,.3092-.3377l.7677.5946A.24.24,0,0,0,238.9338,85.5424Z"/>
            <path class="cls-6" d="M238.8332,87.1148a.2559.2559,0,0,1-.2242-.13l-.9691-1.6907a.2583.2583,0,0,1,.3324-.3629l.7711.5967a.2225.2225,0,0,0,.181-.0012l.7662-.5934a.2579.2579,0,0,1,.3357.3609l-.9691,1.6905A.2555.2555,0,0,1,238.8332,87.1148Zm-.97-2.1724a.2212.2212,0,0,0-.1637.0735.2189.2189,0,0,0-.029.2607l.9692,1.6906a.2225.2225,0,0,0,.3859,0l.9691-1.69a.2224.2224,0,0,0-.2861-.3125l-.7677.5947a.2576.2576,0,0,1-.2165,0l-.7712-.5968A.2164.2164,0,0,0,237.8637,84.9424Zm1.07.6h0Z"/>
          </g>
        </g>
        <g>
          <path class="cls-7" d="M254.9629,63.1732h.4089v1.7445h2.1935V63.1732h.4089v4.023h-.4089V65.2927h-2.1935v1.9035h-.4089Z"/>
          <path class="cls-7" d="M261.44,65.787v.0852a.8694.8694,0,0,1-.0055.0966H259.23a1.0365,1.0365,0,0,0,.0794.3751.944.944,0,0,0,.2046.3068.9851.9851,0,0,0,.3067.2074,1.0168,1.0168,0,0,0,.9006-.0625,1.04,1.04,0,0,0,.3325-.321l.29.2273a1.4421,1.4421,0,0,1-.5257.4317,1.47,1.47,0,0,1-.6166.1308,1.4161,1.4161,0,0,1-.5482-.1052,1.2862,1.2862,0,0,1-.4348-.2926,1.3844,1.3844,0,0,1-.2868-.4432,1.4512,1.4512,0,0,1-.105-.5568,1.4872,1.4872,0,0,1,.102-.5568,1.3507,1.3507,0,0,1,.2843-.4433,1.31,1.31,0,0,1,.426-.2926,1.3247,1.3247,0,0,1,.5284-.1051,1.3579,1.3579,0,0,1,.5513.1051,1.1393,1.1393,0,0,1,.3978.2841,1.2188,1.2188,0,0,1,.2413.4176A1.5517,1.5517,0,0,1,261.44,65.787Zm-.3918-.125a.96.96,0,0,0-.2416-.6222.82.82,0,0,0-.6394-.2471.8923.8923,0,0,0-.3577.071.9438.9438,0,0,0-.29.1932.9556.9556,0,0,0-.1989.2785.8987.8987,0,0,0-.0854.3266Z"/>
          <path class="cls-7" d="M263.9119,65.4752a.6686.6686,0,0,0-.1818-.5133.7487.7487,0,0,0-.5284-.1692,1.14,1.14,0,0,0-.4433.0852,1.0626,1.0626,0,0,0-.3466.2272l-.2158-.2557a1.2766,1.2766,0,0,1,.4346-.2727,1.6364,1.6364,0,0,1,.6108-.1079,1.3286,1.3286,0,0,1,.4033.06.9581.9581,0,0,1,.3295.1791.8113.8113,0,0,1,.2218.3011,1.0553,1.0553,0,0,1,.08.4261V66.6q0,.1535.0113.3182a2.2708,2.2708,0,0,0,.0339.2784h-.3466c-.0111-.0644-.0207-.1345-.0281-.21a2.1906,2.1906,0,0,1-.0116-.2216h-.0113a1.1205,1.1205,0,0,1-.4121.3836,1.2156,1.2156,0,0,1-.5538.1165,1.2358,1.2358,0,0,1-.3152-.0427.88.88,0,0,1-.2956-.14.7928.7928,0,0,1-.2217-.2509.7467.7467,0,0,1-.088-.3762.7168.7168,0,0,1,.1563-.4875.9367.9367,0,0,1,.4176-.2679,2.4592,2.4592,0,0,1,.5995-.1141q.3381-.0255.7017-.0257Zm-.1135.3914q-.2388,0-.48.02a2.0991,2.0991,0,0,0-.4375.08.8275.8275,0,0,0-.3212.1733.3868.3868,0,0,0-.1249.3012.4852.4852,0,0,0,.0538.2386.4417.4417,0,0,0,.1451.1563.6133.6133,0,0,0,.2015.0852.9987.9987,0,0,0,.2245.0255.8831.8831,0,0,0,.3637-.0709.77.77,0,0,0,.2672-.1933.8583.8583,0,0,0,.1647-.2811.9967.9967,0,0,0,.0568-.3353v-.1989Z"/>
          <path class="cls-7" d="M265.2641,64.8439q-.0057-.1707-.017-.3069h.3692q.0114.1078.017.2386t.0058.216h.0113a.9407.9407,0,0,1,.8524-.5228c.0491,0,.0939.002.1336.0057a.7282.7282,0,0,1,.1221.0227l-.0512.3693a.7445.7445,0,0,0-.1136-.0226,1.105,1.105,0,0,0-.1592-.0114.7909.7909,0,0,0-.2954.0566.6326.6326,0,0,0-.2471.1787.9349.9349,0,0,0-.17.3117,1.4021,1.4021,0,0,0-.0655.4563v1.36H265.27v-2.074C265.27,65.05,265.268,64.9574,265.2641,64.8439Z"/>
          <path class="cls-7" d="M269.9348,64.8608h-.75v1.5513a.8713.8713,0,0,0,.0286.2443.3411.3411,0,0,0,.0824.15.2776.2776,0,0,0,.1276.0738.6011.6011,0,0,0,.1592.02.6768.6768,0,0,0,.1678-.0227.8551.8551,0,0,0,.1675-.0626l.0171.3353a1.1494,1.1494,0,0,1-.2132.06,1.3741,1.3741,0,0,1-.2414.02.984.984,0,0,1-.2273-.0285.5714.5714,0,0,1-.2215-.1079.59.59,0,0,1-.1678-.2159.8352.8352,0,0,1-.0653-.3579V64.8608h-.551V64.537h.551v-.75h.3863v.75h.75Z"/>
          <path class="cls-7" d="M270.9461,64.9745a.8014.8014,0,0,1,.3579-.3693,1.0988,1.0988,0,0,1,.5342-.1364.9347.9347,0,0,1,.7585.3011,1.1963,1.1963,0,0,1,.2527.7955v1.6308h-.3863V65.7245a1.9433,1.9433,0,0,0-.0341-.3807.7935.7935,0,0,0-.1166-.2926.5559.5559,0,0,0-.2215-.19.7923.7923,0,0,0-.3493-.0681.7479.7479,0,0,0-.2984.0625.73.73,0,0,0-.2585.19.9481.9481,0,0,0-.1818.3238,1.413,1.413,0,0,0-.0683.463v1.3638h-.3863V62.9005h.3863v2.074Z"/>
          <path class="cls-7" d="M276.27,65.787v.0852a.9217.9217,0,0,1-.0056.0966H274.06a1.0325,1.0325,0,0,0,.08.3751.9451.9451,0,0,0,.2044.3068.9872.9872,0,0,0,.3069.2074,1.017,1.017,0,0,0,.9007-.0625,1.0457,1.0457,0,0,0,.3325-.321l.29.2273a1.4418,1.4418,0,0,1-.5259.4317,1.4693,1.4693,0,0,1-.6163.1308,1.4166,1.4166,0,0,1-.5485-.1052,1.284,1.284,0,0,1-.4345-.2926,1.3847,1.3847,0,0,1-.2869-.4432,1.4476,1.4476,0,0,1-.1052-.5568,1.4833,1.4833,0,0,1,.1023-.5568,1.3473,1.3473,0,0,1,.2842-.4433,1.3062,1.3062,0,0,1,.426-.2926,1.3233,1.3233,0,0,1,.5284-.1051,1.3562,1.3562,0,0,1,.5511.1051,1.1357,1.1357,0,0,1,.3978.2841,1.2227,1.2227,0,0,1,.2416.4176A1.56,1.56,0,0,1,276.27,65.787Zm-.3921-.125a.9594.9594,0,0,0-.2414-.6222.82.82,0,0,0-.6394-.2471.8933.8933,0,0,0-.3579.071.95.95,0,0,0-.29.1932.9612.9612,0,0,0-.1989.2785.8923.8923,0,0,0-.0851.3266Z"/>
          <path class="cls-7" d="M278.9915,63.5143a.251.251,0,0,1-.0851.1959.2675.2675,0,0,1-.375,0,.2678.2678,0,0,1,0-.392.2675.2675,0,0,1,.375,0A.2514.2514,0,0,1,278.9915,63.5143Zm-.0793,3.6819h-.3863V64.537h.3863Z"/>
          <path class="cls-7" d="M280.6707,64.6137a.9838.9838,0,0,1,.5254-.1449,1.176,1.176,0,0,1,.2246.0227.7173.7173,0,0,1,.2273.0882.8262.8262,0,0,1,.2046.1733.9716.9716,0,0,1,.1618.2783,1.0017,1.0017,0,0,1,.3722-.4176,1.0479,1.0479,0,0,1,.56-.1449.9347.9347,0,0,1,.7585.3011,1.1974,1.1974,0,0,1,.2529.7955v1.6308h-.3863V65.7245a1.2856,1.2856,0,0,0-.1565-.6762.5722.5722,0,0,0-.5312-.2556.6561.6561,0,0,0-.5881.31.9913.9913,0,0,0-.1277.3155,1.64,1.64,0,0,0-.04.3635v1.4149h-.3865V65.645a2.0271,2.0271,0,0,0-.0281-.3523.7435.7435,0,0,0-.1-.27.4669.4669,0,0,0-.1961-.17.74.74,0,0,0-.3182-.06.6719.6719,0,0,0-.2758.0625.725.725,0,0,0-.25.19.9822.9822,0,0,0-.179.3238,1.4159,1.4159,0,0,0-.0681.463v1.3638H279.94v-2.074q0-.1079-.0055-.2783c-.0039-.1138-.0094-.216-.0171-.3069h.3692c.0077.0719.0132.1515.0171.2386s.0057.1592.0057.216h.0113A.9053.9053,0,0,1,280.6707,64.6137Z"/>
          <path class="cls-7" d="M285.3441,68.56h-.3863V64.537h.3863v.46h.0171a1.0539,1.0539,0,0,1,.44-.3949,1.27,1.27,0,0,1,.56-.1335,1.429,1.429,0,0,1,.5653.1079,1.29,1.29,0,0,1,.4318.2956,1.3326,1.3326,0,0,1,.2785.4431,1.5777,1.5777,0,0,1,0,1.1023,1.3341,1.3341,0,0,1-.2785.4432,1.29,1.29,0,0,1-.4318.2956,1.429,1.429,0,0,1-.5653.1079,1.27,1.27,0,0,1-.56-.1335,1.0791,1.0791,0,0,1-.44-.3836h-.0171Zm1.9831-2.6933a1.2567,1.2567,0,0,0-.0683-.4177,1.0078,1.0078,0,0,0-.1959-.3408.926.926,0,0,0-.3154-.23,1.0835,1.0835,0,0,0-.8354-.0029.9857.9857,0,0,0-.3237.2273,1.0515,1.0515,0,0,0-.2132.341,1.2079,1.2079,0,0,0,0,.8466,1.0171,1.0171,0,0,0,.2132.338,1.0025,1.0025,0,0,0,.7331.3068,1.0464,1.0464,0,0,0,.426-.0824.8932.8932,0,0,0,.3154-.2272,1.0083,1.0083,0,0,0,.1959-.3409A1.2561,1.2561,0,0,0,287.3272,65.8666Z"/>
          <path class="cls-7" d="M288.56,64.8439q-.0057-.1707-.0171-.3069h.37q.0111.1078.017.2386t.0056.216h.0115a.9194.9194,0,0,1,.3408-.3779.9309.9309,0,0,1,.5114-.1449c.0493,0,.0937.002.1334.0057a.723.723,0,0,1,.1223.0227l-.0511.3693a.7438.7438,0,0,0-.1137-.0226,1.1063,1.1063,0,0,0-.159-.0114.79.79,0,0,0-.2956.0566.6341.6341,0,0,0-.2471.1787.9351.9351,0,0,0-.1705.3117,1.4079,1.4079,0,0,0-.0653.4563v1.36h-.3863v-2.074C288.5659,65.05,288.5637,64.9574,288.56,64.8439Z"/>
          <path class="cls-7" d="M293.1514,65.8666a1.4514,1.4514,0,0,1-.1053.5568,1.3394,1.3394,0,0,1-.2926.4432,1.3259,1.3259,0,0,1-.449.2926,1.6022,1.6022,0,0,1-1.142,0,1.3128,1.3128,0,0,1-.7416-.7358,1.5288,1.5288,0,0,1,0-1.1136,1.3126,1.3126,0,0,1,.7416-.7359,1.6036,1.6036,0,0,1,1.142,0,1.311,1.311,0,0,1,.7416.7359A1.4517,1.4517,0,0,1,293.1514,65.8666Zm-.4094,0a1.2182,1.2182,0,0,0-.0708-.4177,1.0259,1.0259,0,0,0-.2019-.3408.9553.9553,0,0,0-.318-.23,1.0044,1.0044,0,0,0-.4205-.0852.985.985,0,0,0-.4178.0852.9613.9613,0,0,0-.3152.23,1.02,1.02,0,0,0-.2017.3408,1.2622,1.2622,0,0,0,0,.8353,1.0209,1.0209,0,0,0,.2017.3409.9259.9259,0,0,0,.3152.2272,1.0126,1.0126,0,0,0,.4178.0824,1.0326,1.0326,0,0,0,.4205-.0824.9207.9207,0,0,0,.318-.2272,1.0264,1.0264,0,0,0,.2019-.3409A1.2177,1.2177,0,0,0,292.742,65.8666Z"/>
          <path class="cls-7" d="M295.0717,67.1962h-.4262L293.56,64.537h.4319l.8635,2.25h.0115l.8693-2.25h.4146Z"/>
          <path class="cls-7" d="M299.174,65.787v.0852a.8469.8469,0,0,1-.0056.0966h-2.2046a1.0386,1.0386,0,0,0,.0794.3751.9443.9443,0,0,0,.2047.3068.9851.9851,0,0,0,.3067.2074,1.0168,1.0168,0,0,0,.9006-.0625,1.0406,1.0406,0,0,0,.3325-.321l.29.2273a1.441,1.441,0,0,1-.5256.4317,1.471,1.471,0,0,1-.6166.1308,1.4163,1.4163,0,0,1-.5483-.1052,1.2858,1.2858,0,0,1-.4347-.2926,1.3844,1.3844,0,0,1-.2868-.4432,1.4512,1.4512,0,0,1-.105-.5568,1.4872,1.4872,0,0,1,.102-.5568,1.3491,1.3491,0,0,1,.2843-.4433,1.31,1.31,0,0,1,.4259-.2926,1.3255,1.3255,0,0,1,.5285-.1051,1.3574,1.3574,0,0,1,.5512.1051,1.1384,1.1384,0,0,1,.3978.2841,1.2174,1.2174,0,0,1,.2414.4176A1.5517,1.5517,0,0,1,299.174,65.787Zm-.3919-.125a.96.96,0,0,0-.2415-.6222.82.82,0,0,0-.6394-.2471.8923.8923,0,0,0-.3577.071.9438.9438,0,0,0-.29.1932.9538.9538,0,0,0-.1989.2785.8987.8987,0,0,0-.0854.3266Z"/>
          <path class="cls-7" d="M300.7336,64.6137a.9841.9841,0,0,1,.5257-.1449,1.1753,1.1753,0,0,1,.2243.0227.7174.7174,0,0,1,.2275.0882.8253.8253,0,0,1,.2044.1733.9672.9672,0,0,1,.162.2783,1,1,0,0,1,.3722-.4176,1.0479,1.0479,0,0,1,.56-.1449.9347.9347,0,0,1,.7585.3011,1.1973,1.1973,0,0,1,.2527.7955v1.6308h-.3863V65.7245a1.2867,1.2867,0,0,0-.1562-.6762.5728.5728,0,0,0-.5314-.2556.69.69,0,0,0-.3552.0852.68.68,0,0,0-.2328.2244.9938.9938,0,0,0-.1278.3155,1.6454,1.6454,0,0,0-.04.3635v1.4149h-.3865V65.645a2.0256,2.0256,0,0,0-.0284-.3523.7362.7362,0,0,0-.1-.27.4651.4651,0,0,0-.1959-.17.74.74,0,0,0-.3184-.06.67.67,0,0,0-.2755.0625.7194.7194,0,0,0-.25.19.9788.9788,0,0,0-.1791.3238,1.4133,1.4133,0,0,0-.0681.463v1.3638h-.3865v-2.074q0-.1079-.0057-.2783c-.0039-.1138-.0094-.216-.0171-.3069h.3694q.0113.1078.0171.2386c.0036.0873.0058.1592.0058.216h.0113A.9046.9046,0,0,1,300.7336,64.6137Z"/>
          <path class="cls-7" d="M307.4413,65.787v.0852a.92.92,0,0,1-.0055.0966H305.231a1.0325,1.0325,0,0,0,.08.3751.9451.9451,0,0,0,.2044.3068.986.986,0,0,0,.3069.2074,1.0168,1.0168,0,0,0,.9006-.0625,1.0451,1.0451,0,0,0,.3326-.321l.29.2273a1.4418,1.4418,0,0,1-.5259.4317,1.4693,1.4693,0,0,1-.6163.1308,1.4166,1.4166,0,0,1-.5485-.1052,1.284,1.284,0,0,1-.4345-.2926,1.383,1.383,0,0,1-.2869-.4432,1.4476,1.4476,0,0,1-.1052-.5568,1.4853,1.4853,0,0,1,.1022-.5568,1.3475,1.3475,0,0,1,.2843-.4433,1.3062,1.3062,0,0,1,.426-.2926,1.3233,1.3233,0,0,1,.5284-.1051,1.3562,1.3562,0,0,1,.5511.1051,1.1357,1.1357,0,0,1,.3978.2841,1.2243,1.2243,0,0,1,.2416.4176A1.56,1.56,0,0,1,307.4413,65.787Zm-.392-.125a.9594.9594,0,0,0-.2414-.6222.82.82,0,0,0-.6394-.2471.8933.8933,0,0,0-.3579.071.9486.9486,0,0,0-.29.1932.9612.9612,0,0,0-.1989.2785.8944.8944,0,0,0-.0852.3266Z"/>
          <path class="cls-7" d="M308.6173,64.537c.0077.0719.0132.1515.017.2386s.0058.1592.0058.216h.0113a.876.876,0,0,1,.3694-.3779,1.0787,1.0787,0,0,1,.54-.1449.9345.9345,0,0,1,.7585.3011,1.1964,1.1964,0,0,1,.2531.7955v1.6308h-.3865V65.7245a1.9352,1.9352,0,0,0-.0342-.3807.8037.8037,0,0,0-.1163-.2926.5592.5592,0,0,0-.2217-.19.7937.7937,0,0,0-.3494-.0681.7468.7468,0,0,0-.2984.0625.7367.7367,0,0,0-.2586.19.9548.9548,0,0,0-.1818.3238,1.4159,1.4159,0,0,0-.0681.463v1.3638h-.3865v-2.074c0-.0719-.0017-.1648-.0056-.2783s-.0094-.216-.017-.3069Z"/>
          <path class="cls-7" d="M312.771,64.8608h-.75v1.5513a.8713.8713,0,0,0,.0286.2443.3411.3411,0,0,0,.0824.15.2786.2786,0,0,0,.1276.0738.6019.6019,0,0,0,.1593.02.676.676,0,0,0,.1677-.0227.85.85,0,0,0,.1675-.0626l.0171.3353a1.1494,1.1494,0,0,1-.2132.06,1.3733,1.3733,0,0,1-.2414.02.984.984,0,0,1-.2273-.0285.5721.5721,0,0,1-.2215-.1079.5887.5887,0,0,1-.1677-.2159.8337.8337,0,0,1-.0653-.3579V64.8608h-.5511V64.537h.5511v-.75h.3862v.75h.75Z"/>
        </g>
      </g>
      <g>
        <g>
          <path class="cls-2" d="M263.4515,185.1094v7.1053a3.1937,3.1937,0,0,0,.503,1.9629,2.1526,2.1526,0,0,0,1.8065.6544,6.4469,6.4469,0,0,0,.95-.0743,3.239,3.239,0,0,0,.8382-.2236l.0744,4.47a10.0809,10.0809,0,0,1-1.6016.391,11.3191,11.3191,0,0,1-1.9372.1678,9.1172,9.1172,0,0,1-3.129-.4671,4.8316,4.8316,0,0,1-2.03-1.3445,5.2692,5.2692,0,0,1-1.0988-2.091,10.156,10.156,0,0,1-.3355-2.708v-7.843h-2.98v-4.5445h2.9429v-4.88h5.9973v4.88H267.81v4.5445Z"/>
          <path class="cls-2" d="M278.7241,201.91a16.2487,16.2487,0,0,1-1.248,2.5892,7.81,7.81,0,0,1-1.6389,1.9367,6.4813,6.4813,0,0,1-2.2351,1.2107,10.0392,10.0392,0,0,1-3.0358.41,14.613,14.613,0,0,1-1.7695-.1115,10.975,10.975,0,0,1-1.5831-.2983l.67-5.1405a6.797,6.797,0,0,0,.9873.2421,5.8936,5.8936,0,0,0,.987.0931,2.762,2.762,0,0,0,2.0488-.6519,5.2842,5.2842,0,0,0,1.08-1.8436l.5958-1.5274-7.7482-18.2531h6.78l4.1347,11.92h.1118l3.6877-11.92h6.4818Z"/>
          <path class="cls-2" d="M294.1454,185.1094v7.1053a3.1937,3.1937,0,0,0,.503,1.9629,2.1526,2.1526,0,0,0,1.8065.6544,6.4469,6.4469,0,0,0,.95-.0743,3.239,3.239,0,0,0,.8382-.2236l.0744,4.47a10.0809,10.0809,0,0,1-1.6016.391,11.3191,11.3191,0,0,1-1.9372.1678,9.1172,9.1172,0,0,1-3.129-.4671,4.8316,4.8316,0,0,1-2.03-1.3445,5.2706,5.2706,0,0,1-1.0989-2.091,10.16,10.16,0,0,1-.3354-2.708v-7.843h-2.98v-4.5445h2.9429v-4.88h5.9973v4.88h4.3583v4.5445Z"/>
          <path class="cls-2" d="M321.04,189.7657a10.0338,10.0338,0,0,1-.82,4.1166,9.2362,9.2362,0,0,1-2.235,3.1289,10.2345,10.2345,0,0,1-3.2781,1.993,11.5253,11.5253,0,0,1-7.9529,0,9.9629,9.9629,0,0,1-3.2782-1.993,9.3484,9.3484,0,0,1-2.2163-3.1289,10.0225,10.0225,0,0,1-.82-4.1166,9.8957,9.8957,0,0,1,.82-4.0976,9.2,9.2,0,0,1,2.2163-3.0915,9.6462,9.6462,0,0,1,3.2782-1.9372,12.13,12.13,0,0,1,7.9529,0,9.8988,9.8988,0,0,1,3.2781,1.9372,9.0917,9.0917,0,0,1,2.235,3.0915A9.9068,9.9068,0,0,1,321.04,189.7657Zm-5.8857,0a5.3015,5.3015,0,0,0-.2978-1.7505A4.6481,4.6481,0,0,0,314,186.5063a4.3719,4.3719,0,0,0-1.3782-1.0613,4.609,4.609,0,0,0-3.8,0,4.1513,4.1513,0,0,0-1.36,1.0613,4.5509,4.5509,0,0,0-.8194,1.5089,5.6249,5.6249,0,0,0,0,3.5015,4.7856,4.7856,0,0,0,.8381,1.5458,4.1147,4.1147,0,0,0,1.3782,1.0991,4.6075,4.6075,0,0,0,3.8,0,4.1216,4.1216,0,0,0,1.3782-1.0991,4.7877,4.7877,0,0,0,.8382-1.5458A5.6138,5.6138,0,0,0,315.1545,189.7657Z"/>
          <path class="cls-2" d="M331.4331,195.8379a3.447,3.447,0,0,1-1.0991,2.6076,3.6832,3.6832,0,0,1-2.626,1.0428,3.8784,3.8784,0,0,1-1.4716-.2794,3.92,3.92,0,0,1-1.2106-.7634,3.5349,3.5349,0,0,1-.82-1.1365,3.3986,3.3986,0,0,1-.2981-1.4337,3.4426,3.4426,0,0,1,.2981-1.4159,3.6991,3.6991,0,0,1,.82-1.1733,4.0329,4.0329,0,0,1,1.2106-.8008,3.81,3.81,0,0,1,4.0976.7451A3.4467,3.4467,0,0,1,331.4331,195.8379Z"/>
        </g>
        <g>
          <path class="cls-3" d="M250.3409,188.4573a11.5065,11.5065,0,0,1-19.4694,8.3076s-.6275-.6805-.6564-.6829a11.4544,11.4544,0,0,1-2.89-7.6247,11.0171,11.0171,0,0,1,.06-1.1687c.0265-.2765.0625-.5481.1106-.815a11.5086,11.5086,0,0,1,22.8453,1.9837Z"/>
          <path class="cls-4" d="M236.8179,196.0844v.6805h-6.5138c-2.9912,0-5.4246-1.82-5.4246-4.0588v-2.76a3.9984,3.9984,0,0,1,2.6161-3.4721c-.0481.2669-.0841.5385-.1106.815a3.1569,3.1569,0,0,0-1.8226,2.6571v2.76c0,1.8419,2.0775,3.3447,4.6527,3.3759.0289.0024.06.0024.089.0024Z"/>
          <path class="cls-5" d="M246.9708,188.4563a8.1377,8.1377,0,0,1-16.2754,0c0-4.4943,4.7147-8.2368,8.1377-4.8138C242.4538,180.0218,246.9708,183.962,246.9708,188.4563Z"/>
          <path class="cls-4" d="M237.7628,189.1407a.3408.3408,0,0,1-.3036-.1856,4.16,4.16,0,0,0-3.6328-2.3864.3409.3409,0,0,1,0-.6818,4.837,4.837,0,0,1,4.2395,2.7573.3412.3412,0,0,1-.3031.4965Z"/>
          <path class="cls-4" d="M238.53,196.4245a1.8793,1.8793,0,0,1-1.9,1.6958,1.3413,1.3413,0,0,1-.3163-.0182l-.6858-.1168-.9444-.1612a1.4161,1.4161,0,0,1-1.1779-1.396h0a1.4162,1.4162,0,0,1,1.1724-1.3951l.9314-.1627.7008-.1228a1.3385,1.3385,0,0,1,.3228-.0192A1.8786,1.8786,0,0,1,238.53,196.4245Z"/>
          <path class="cls-4" d="M240.0435,189.1407a.3412.3412,0,0,1-.3031-.4965,4.8371,4.8371,0,0,1,4.24-2.7573.3409.3409,0,0,1,0,.6818,4.16,4.16,0,0,0-3.6329,2.3864A.3407.3407,0,0,1,240.0435,189.1407Z"/>
          <g>
            <path class="cls-6" d="M238.9338,191.32l.7678-.5947a.24.24,0,0,1,.3092.3378l-.9692,1.6905a.24.24,0,0,1-.417,0l-.9691-1.6905a.24.24,0,0,1,.3092-.3378l.7677.5947A.241.241,0,0,0,238.9338,191.32Z"/>
            <path class="cls-6" d="M238.8332,192.8926a.2558.2558,0,0,1-.2242-.13l-.9691-1.6906a.2583.2583,0,0,1,.3324-.363l.7711.5968a.223.223,0,0,0,.181-.0013l.7662-.5934a.258.258,0,0,1,.3357.361l-.9691,1.69A.2554.2554,0,0,1,238.8332,192.8926Zm-.97-2.1725a.2216.2216,0,0,0-.1637.0735.219.219,0,0,0-.029.2608l.9692,1.6905a.2225.2225,0,0,0,.3859,0l.9691-1.69a.2225.2225,0,0,0-.2861-.3126l-.7677.5947a.2576.2576,0,0,1-.2165,0l-.7712-.5967A.215.215,0,0,0,237.8637,190.72Zm1.07.6h0Z"/>
          </g>
        </g>
        <g>
          <path class="cls-7" d="M254.9629,168.951h.4089v1.7445h2.1935V168.951h.4089v4.0229h-.4089V171.07h-2.1935v1.9035h-.4089Z"/>
          <path class="cls-7" d="M261.44,171.5647v.0853a.8676.8676,0,0,1-.0055.0965H259.23a1.036,1.036,0,0,0,.0794.3751.944.944,0,0,0,.2046.3068.9851.9851,0,0,0,.3067.2074,1.0159,1.0159,0,0,0,.9006-.0625,1.0374,1.0374,0,0,0,.3325-.321l.29.2273a1.4435,1.4435,0,0,1-.5257.4318,1.4718,1.4718,0,0,1-.6166.1307,1.4161,1.4161,0,0,1-.5482-.1051,1.2877,1.2877,0,0,1-.4348-.2926,1.386,1.386,0,0,1-.2868-.4433,1.4512,1.4512,0,0,1-.105-.5568,1.4872,1.4872,0,0,1,.102-.5568,1.3518,1.3518,0,0,1,.2843-.4433,1.31,1.31,0,0,1,.9544-.3977,1.3579,1.3579,0,0,1,.5513.1051,1.1406,1.1406,0,0,1,.3978.2841,1.2192,1.2192,0,0,1,.2413.4177A1.5515,1.5515,0,0,1,261.44,171.5647Zm-.3918-.125a.96.96,0,0,0-.2416-.6222.82.82,0,0,0-.6394-.2471.8923.8923,0,0,0-.3577.0711.9418.9418,0,0,0-.29.1931.9569.9569,0,0,0-.1989.2785.8992.8992,0,0,0-.0854.3266Z"/>
          <path class="cls-7" d="M263.9119,171.2529a.6688.6688,0,0,0-.1818-.5133.7487.7487,0,0,0-.5284-.1692,1.14,1.14,0,0,0-.4433.0853,1.0608,1.0608,0,0,0-.3466.2271l-.2158-.2556a1.2783,1.2783,0,0,1,.4346-.2728,1.6364,1.6364,0,0,1,.6108-.1079,1.3255,1.3255,0,0,1,.4033.06.9562.9562,0,0,1,.3295.179.8117.8117,0,0,1,.2218.3012,1.0546,1.0546,0,0,1,.08.4261v1.1648q0,.1535.0113.3182a2.2708,2.2708,0,0,0,.0339.2784h-.3466c-.0111-.0643-.0207-.1345-.0281-.21a2.1926,2.1926,0,0,1-.0116-.2217h-.0113a1.1208,1.1208,0,0,1-.4121.3837,1.2169,1.2169,0,0,1-.5538.1164,1.2358,1.2358,0,0,1-.3152-.0427.88.88,0,0,1-.2956-.14.7918.7918,0,0,1-.2217-.2509.7467.7467,0,0,1-.088-.3762.7169.7169,0,0,1,.1563-.4875.9367.9367,0,0,1,.4176-.2679,2.4592,2.4592,0,0,1,.5995-.1141q.3381-.0253.7017-.0257Zm-.1135.3914q-.2388,0-.48.02a2.0926,2.0926,0,0,0-.4375.08.8262.8262,0,0,0-.3212.1733.3864.3864,0,0,0-.1249.3011.4852.4852,0,0,0,.0538.2386.4417.4417,0,0,0,.1451.1563.6156.6156,0,0,0,.2015.0853,1.0045,1.0045,0,0,0,.2245.0255.8831.8831,0,0,0,.3637-.071.7708.7708,0,0,0,.2672-.1932.8577.8577,0,0,0,.1647-.2812.9967.9967,0,0,0,.0568-.3353v-.1989Z"/>
          <path class="cls-7" d="M265.2641,170.6216q-.0057-.1705-.017-.3069h.3692q.0114.1079.017.2386t.0058.216h.0113a.9407.9407,0,0,1,.8524-.5228c.0491,0,.0939.0021.1336.0057a.7282.7282,0,0,1,.1221.0227l-.0512.3693a.7572.7572,0,0,0-.1136-.0226,1.105,1.105,0,0,0-.1592-.0114.791.791,0,0,0-.2954.0567.6324.6324,0,0,0-.2471.1786.9349.9349,0,0,0-.17.3117,1.4024,1.4024,0,0,0-.0655.4564v1.36H265.27V170.9C265.27,170.828,265.268,170.7352,265.2641,170.6216Z"/>
          <path class="cls-7" d="M269.9348,170.6386h-.75V172.19a.8725.8725,0,0,0,.0286.2444.3407.3407,0,0,0,.0824.15.2786.2786,0,0,0,.1276.0739.6053.6053,0,0,0,.1592.02.6768.6768,0,0,0,.1678-.0227.8612.8612,0,0,0,.1675-.0625l.0171.3352a1.1417,1.1417,0,0,1-.2132.06,1.3741,1.3741,0,0,1-.2414.02.9891.9891,0,0,1-.2273-.0284.5728.5728,0,0,1-.2215-.1079.5912.5912,0,0,1-.1678-.216.8346.8346,0,0,1-.0653-.3579v-1.6592h-.551v-.3239h.551v-.75h.3863v.75h.75Z"/>
          <path class="cls-7" d="M270.9461,170.7522a.8019.8019,0,0,1,.3579-.3693,1.0988,1.0988,0,0,1,.5342-.1364.9345.9345,0,0,1,.7585.3012,1.1961,1.1961,0,0,1,.2527.7955v1.6307h-.3863v-1.4716a1.9443,1.9443,0,0,0-.0341-.3808.7942.7942,0,0,0-.1166-.2926.5549.5549,0,0,0-.2215-.19.7909.7909,0,0,0-.3493-.0682.7479.7479,0,0,0-.2984.0625.73.73,0,0,0-.2585.19.9477.9477,0,0,0-.1818.3239,1.413,1.413,0,0,0-.0683.463v1.3637h-.3863v-4.2957h.3863v2.074Z"/>
          <path class="cls-7" d="M276.27,171.5647v.0853a.92.92,0,0,1-.0056.0965H274.06a1.032,1.032,0,0,0,.08.3751.9451.9451,0,0,0,.2044.3068.9872.9872,0,0,0,.3069.2074,1.0161,1.0161,0,0,0,.9007-.0625,1.0436,1.0436,0,0,0,.3325-.321l.29.2273a1.4432,1.4432,0,0,1-.5259.4318,1.4708,1.4708,0,0,1-.6163.1307,1.4165,1.4165,0,0,1-.5485-.1051,1.2854,1.2854,0,0,1-.4345-.2926,1.3863,1.3863,0,0,1-.2869-.4433,1.4476,1.4476,0,0,1-.1052-.5568,1.4833,1.4833,0,0,1,.1023-.5568,1.3483,1.3483,0,0,1,.2842-.4433,1.3093,1.3093,0,0,1,.426-.2926,1.3233,1.3233,0,0,1,.5284-.1051,1.3562,1.3562,0,0,1,.5511.1051,1.1369,1.1369,0,0,1,.3978.2841,1.2231,1.2231,0,0,1,.2416.4177A1.5593,1.5593,0,0,1,276.27,171.5647Zm-.3921-.125a.9594.9594,0,0,0-.2414-.6222.82.82,0,0,0-.6394-.2471.8933.8933,0,0,0-.3579.0711.9478.9478,0,0,0-.29.1931.9626.9626,0,0,0-.1989.2785.8928.8928,0,0,0-.0851.3266Z"/>
          <path class="cls-7" d="M278.9915,169.292a.251.251,0,0,1-.0851.1959.2673.2673,0,0,1-.375,0,.2678.2678,0,0,1,0-.392.2678.2678,0,0,1,.375,0A.2514.2514,0,0,1,278.9915,169.292Zm-.0793,3.6819h-.3863v-2.6592h.3863Z"/>
          <path class="cls-7" d="M280.6707,170.3914a.9847.9847,0,0,1,.5254-.1449,1.1683,1.1683,0,0,1,.2246.0228.717.717,0,0,1,.2273.0881.8283.8283,0,0,1,.2046.1733.9729.9729,0,0,1,.1618.2783,1.0023,1.0023,0,0,1,.3722-.4176,1.0488,1.0488,0,0,1,.56-.1449.9345.9345,0,0,1,.7585.3012,1.1972,1.1972,0,0,1,.2529.7955v1.6307h-.3863v-1.4716a1.2854,1.2854,0,0,0-.1565-.6762.5723.5723,0,0,0-.5312-.2557.6883.6883,0,0,0-.3551.0853.68.68,0,0,0-.233.2244.99.99,0,0,0-.1277.3154,1.64,1.64,0,0,0-.04.3635v1.4149h-.3865v-1.5511a2.0275,2.0275,0,0,0-.0281-.3524.7429.7429,0,0,0-.1-.27.4664.4664,0,0,0-.1961-.1705.74.74,0,0,0-.3182-.06.6719.6719,0,0,0-.2758.0625.725.725,0,0,0-.25.19.9818.9818,0,0,0-.179.3239,1.4159,1.4159,0,0,0-.0681.463v1.3637H279.94V170.9q0-.1078-.0055-.2783c-.0039-.1137-.0094-.216-.0171-.3069h.3692c.0077.0719.0132.1515.0171.2386s.0057.1592.0057.216h.0113A.9053.9053,0,0,1,280.6707,170.3914Z"/>
          <path class="cls-7" d="M285.3441,174.3376h-.3863v-4.0229h.3863v.46h.0171a1.0535,1.0535,0,0,1,.44-.395,1.27,1.27,0,0,1,.56-.1335,1.429,1.429,0,0,1,.5653.1079,1.2917,1.2917,0,0,1,.4318.2956,1.3331,1.3331,0,0,1,.2785.4432,1.5777,1.5777,0,0,1,0,1.1023,1.3326,1.3326,0,0,1-.2785.4431,1.2873,1.2873,0,0,1-.4318.2956,1.429,1.429,0,0,1-.5653.1079,1.27,1.27,0,0,1-.56-.1335,1.0789,1.0789,0,0,1-.44-.3835h-.0171Zm1.9831-2.6933a1.2561,1.2561,0,0,0-.0683-.4176,1.0073,1.0073,0,0,0-.1959-.3409.9244.9244,0,0,0-.3154-.23,1.0178,1.0178,0,0,0-.426-.0853,1.0073,1.0073,0,0,0-.4094.0824.9828.9828,0,0,0-.3237.2273,1.051,1.051,0,0,0-.2132.3409,1.2079,1.2079,0,0,0,0,.8466,1.0185,1.0185,0,0,0,.2132.3381,1.0025,1.0025,0,0,0,.7331.3068,1.0481,1.0481,0,0,0,.426-.0824.8934.8934,0,0,0,.3154-.2273,1.0078,1.0078,0,0,0,.1959-.3408A1.2571,1.2571,0,0,0,287.3272,171.6443Z"/>
          <path class="cls-7" d="M288.56,170.6216q-.0057-.1705-.0171-.3069h.37q.0111.1079.017.2386t.0056.216h.0115a.9194.9194,0,0,1,.3408-.3779.9317.9317,0,0,1,.5114-.1449c.0493,0,.0937.0021.1334.0057a.723.723,0,0,1,.1223.0227l-.0511.3693a.7564.7564,0,0,0-.1137-.0226,1.1063,1.1063,0,0,0-.159-.0114.79.79,0,0,0-.2956.0567.6338.6338,0,0,0-.2471.1786.9351.9351,0,0,0-.1705.3117,1.4081,1.4081,0,0,0-.0653.4564v1.36h-.3863V170.9C288.5659,170.828,288.5637,170.7352,288.56,170.6216Z"/>
          <path class="cls-7" d="M293.1514,171.6443a1.4514,1.4514,0,0,1-.1053.5568,1.3409,1.3409,0,0,1-.2926.4433,1.3274,1.3274,0,0,1-.449.2926,1.6036,1.6036,0,0,1-1.142,0,1.3126,1.3126,0,0,1-.7416-.7359,1.5288,1.5288,0,0,1,0-1.1136,1.3126,1.3126,0,0,1,.7416-.7359,1.6036,1.6036,0,0,1,1.142,0,1.311,1.311,0,0,1,.7416.7359A1.4517,1.4517,0,0,1,293.1514,171.6443Zm-.4094,0a1.2177,1.2177,0,0,0-.0708-.4176,1.0254,1.0254,0,0,0-.2019-.3409.9536.9536,0,0,0-.318-.23,1.0044,1.0044,0,0,0-.4205-.0853.9851.9851,0,0,0-.4178.0853.96.96,0,0,0-.3152.23,1.02,1.02,0,0,0-.2017.3409,1.2622,1.2622,0,0,0,0,.8353,1.02,1.02,0,0,0,.2017.3408.9261.9261,0,0,0,.3152.2273,1.0142,1.0142,0,0,0,.4178.0824,1.0342,1.0342,0,0,0,.4205-.0824.921.921,0,0,0,.318-.2273,1.0259,1.0259,0,0,0,.2019-.3408A1.2186,1.2186,0,0,0,292.742,171.6443Z"/>
          <path class="cls-7" d="M295.0717,172.9739h-.4262l-1.0852-2.6592h.4319l.8635,2.25h.0115l.8693-2.25h.4146Z"/>
          <path class="cls-7" d="M299.174,171.5647v.0853a.8452.8452,0,0,1-.0056.0965h-2.2046a1.0381,1.0381,0,0,0,.0794.3751.9443.9443,0,0,0,.2047.3068.9851.9851,0,0,0,.3067.2074,1.0159,1.0159,0,0,0,.9006-.0625,1.0385,1.0385,0,0,0,.3325-.321l.29.2273a1.4424,1.4424,0,0,1-.5256.4318,1.4725,1.4725,0,0,1-.6166.1307,1.4162,1.4162,0,0,1-.5483-.1051,1.2872,1.2872,0,0,1-.4347-.2926,1.386,1.386,0,0,1-.2868-.4433,1.4512,1.4512,0,0,1-.105-.5568,1.4872,1.4872,0,0,1,.102-.5568,1.35,1.35,0,0,1,.2843-.4433,1.31,1.31,0,0,1,.9544-.3977,1.3574,1.3574,0,0,1,.5512.1051,1.14,1.14,0,0,1,.3978.2841,1.2178,1.2178,0,0,1,.2414.4177A1.5515,1.5515,0,0,1,299.174,171.5647Zm-.3919-.125a.96.96,0,0,0-.2415-.6222.82.82,0,0,0-.6394-.2471.8923.8923,0,0,0-.3577.0711.9418.9418,0,0,0-.29.1931.9551.9551,0,0,0-.1989.2785.8992.8992,0,0,0-.0854.3266Z"/>
          <path class="cls-7" d="M300.7336,170.3914a.9849.9849,0,0,1,.5257-.1449,1.1677,1.1677,0,0,1,.2243.0228.7171.7171,0,0,1,.2275.0881.8275.8275,0,0,1,.2044.1733.9686.9686,0,0,1,.162.2783,1.0009,1.0009,0,0,1,.3722-.4176,1.0488,1.0488,0,0,1,.56-.1449.9345.9345,0,0,1,.7585.3012,1.1971,1.1971,0,0,1,.2527.7955v1.6307h-.3863v-1.4716a1.2864,1.2864,0,0,0-.1562-.6762.5729.5729,0,0,0-.5314-.2557.69.69,0,0,0-.3552.0853.678.678,0,0,0-.2328.2244.9922.9922,0,0,0-.1278.3154,1.6461,1.6461,0,0,0-.04.3635v1.4149h-.3865v-1.5511a2.026,2.026,0,0,0-.0284-.3524.7357.7357,0,0,0-.1-.27.4647.4647,0,0,0-.1959-.1705.74.74,0,0,0-.3184-.06.67.67,0,0,0-.2755.0625.7194.7194,0,0,0-.25.19.9783.9783,0,0,0-.1791.3239,1.4133,1.4133,0,0,0-.0681.463v1.3637h-.3865V170.9q0-.1078-.0057-.2783c-.0039-.1137-.0094-.216-.0171-.3069h.3694q.0113.1079.0171.2386c.0036.0873.0058.1592.0058.216h.0113A.9046.9046,0,0,1,300.7336,170.3914Z"/>
          <path class="cls-7" d="M307.4413,171.5647v.0853a.9187.9187,0,0,1-.0055.0965H305.231a1.032,1.032,0,0,0,.08.3751.9451.9451,0,0,0,.2044.3068.986.986,0,0,0,.3069.2074,1.0159,1.0159,0,0,0,.9006-.0625,1.043,1.043,0,0,0,.3326-.321l.29.2273a1.4432,1.4432,0,0,1-.5259.4318,1.4708,1.4708,0,0,1-.6163.1307,1.4165,1.4165,0,0,1-.5485-.1051,1.2854,1.2854,0,0,1-.4345-.2926,1.3846,1.3846,0,0,1-.2869-.4433,1.4476,1.4476,0,0,1-.1052-.5568,1.4853,1.4853,0,0,1,.1022-.5568,1.3485,1.3485,0,0,1,.2843-.4433,1.3093,1.3093,0,0,1,.426-.2926,1.3233,1.3233,0,0,1,.5284-.1051,1.3562,1.3562,0,0,1,.5511.1051,1.1369,1.1369,0,0,1,.3978.2841,1.2247,1.2247,0,0,1,.2416.4177A1.5593,1.5593,0,0,1,307.4413,171.5647Zm-.392-.125a.9594.9594,0,0,0-.2414-.6222.82.82,0,0,0-.6394-.2471.8933.8933,0,0,0-.3579.0711.9466.9466,0,0,0-.29.1931.9626.9626,0,0,0-.1989.2785.8949.8949,0,0,0-.0852.3266Z"/>
          <path class="cls-7" d="M308.6173,170.3147c.0077.0719.0132.1515.017.2386s.0058.1592.0058.216h.0113a.876.876,0,0,1,.3694-.3779,1.08,1.08,0,0,1,.54-.1449.9342.9342,0,0,1,.7585.3012,1.1962,1.1962,0,0,1,.2531.7955v1.6307h-.3865v-1.4716a1.9363,1.9363,0,0,0-.0342-.3808.8044.8044,0,0,0-.1163-.2926.5582.5582,0,0,0-.2217-.19.7922.7922,0,0,0-.3494-.0682.7468.7468,0,0,0-.2984.0625.7367.7367,0,0,0-.2586.19.9543.9543,0,0,0-.1818.3239,1.4159,1.4159,0,0,0-.0681.463v1.3637h-.3865V170.9c0-.0719-.0017-.1647-.0056-.2783s-.0094-.216-.017-.3069Z"/>
          <path class="cls-7" d="M312.771,170.6386h-.75V172.19a.8725.8725,0,0,0,.0286.2444.3407.3407,0,0,0,.0824.15.28.28,0,0,0,.1276.0739.6061.6061,0,0,0,.1593.02.676.676,0,0,0,.1677-.0227.8564.8564,0,0,0,.1675-.0625l.0171.3352a1.1417,1.1417,0,0,1-.2132.06,1.3733,1.3733,0,0,1-.2414.02.9891.9891,0,0,1-.2273-.0284.5735.5735,0,0,1-.2215-.1079.59.59,0,0,1-.1677-.216.8331.8331,0,0,1-.0653-.3579v-1.6592h-.5511v-.3239h.5511v-.75h.3862v.75h.75Z"/>
        </g>
      </g>
      <g>
        <g>
          <path class="cls-2" d="M77.7082,185.1094v7.1053a3.1937,3.1937,0,0,0,.503,1.9629,2.1526,2.1526,0,0,0,1.8065.6544,6.4469,6.4469,0,0,0,.95-.0743,3.239,3.239,0,0,0,.8382-.2236l.0744,4.47a10.0809,10.0809,0,0,1-1.6016.391,11.3191,11.3191,0,0,1-1.9372.1678,9.1172,9.1172,0,0,1-3.129-.4671,4.8316,4.8316,0,0,1-2.03-1.3445,5.2706,5.2706,0,0,1-1.0989-2.091,10.16,10.16,0,0,1-.3354-2.708v-7.843h-2.98v-4.5445h2.9429v-4.88h5.9973v4.88h4.3583v4.5445Z"/>
          <path class="cls-2" d="M92.9808,201.91a16.2487,16.2487,0,0,1-1.248,2.5892,7.81,7.81,0,0,1-1.6389,1.9367,6.4813,6.4813,0,0,1-2.2351,1.2107,10.0392,10.0392,0,0,1-3.0358.41,14.613,14.613,0,0,1-1.7695-.1115,10.975,10.975,0,0,1-1.5831-.2983l.67-5.1405a6.797,6.797,0,0,0,.9873.2421,5.8936,5.8936,0,0,0,.987.0931,2.762,2.762,0,0,0,2.0488-.6519,5.2842,5.2842,0,0,0,1.0805-1.8436l.5958-1.5274-7.7482-18.2531h6.78l4.1347,11.92h.1118l3.6877-11.92h6.4818Z"/>
          <path class="cls-2" d="M108.4021,185.1094v7.1053a3.1937,3.1937,0,0,0,.503,1.9629,2.1526,2.1526,0,0,0,1.8065.6544,6.4469,6.4469,0,0,0,.95-.0743,3.239,3.239,0,0,0,.8382-.2236l.0744,4.47a10.0809,10.0809,0,0,1-1.6016.391,11.3191,11.3191,0,0,1-1.9372.1678,9.1172,9.1172,0,0,1-3.129-.4671,4.8316,4.8316,0,0,1-2.03-1.3445,5.2706,5.2706,0,0,1-1.0989-2.091,10.16,10.16,0,0,1-.3354-2.708v-7.843h-2.98v-4.5445h2.9429v-4.88h5.9973v4.88H112.76v4.5445Z"/>
          <path class="cls-2" d="M135.2969,189.7657a10.0338,10.0338,0,0,1-.82,4.1166,9.2362,9.2362,0,0,1-2.235,3.1289,10.2345,10.2345,0,0,1-3.2781,1.993,11.5253,11.5253,0,0,1-7.9529,0,9.9629,9.9629,0,0,1-3.2782-1.993,9.35,9.35,0,0,1-2.2164-3.1289,10.0241,10.0241,0,0,1-.82-4.1166,9.8972,9.8972,0,0,1,.82-4.0976,9.202,9.202,0,0,1,2.2164-3.0915,9.6462,9.6462,0,0,1,3.2782-1.9372,12.13,12.13,0,0,1,7.9529,0,9.8988,9.8988,0,0,1,3.2781,1.9372,9.0917,9.0917,0,0,1,2.235,3.0915A9.9068,9.9068,0,0,1,135.2969,189.7657Zm-5.8857,0a5.3015,5.3015,0,0,0-.2978-1.7505,4.6481,4.6481,0,0,0-.8568-1.5089,4.3719,4.3719,0,0,0-1.3782-1.0613,4.609,4.609,0,0,0-3.8,0,4.1513,4.1513,0,0,0-1.36,1.0613,4.553,4.553,0,0,0-.8195,1.5089,5.6268,5.6268,0,0,0,0,3.5015,4.7877,4.7877,0,0,0,.8382,1.5458,4.1147,4.1147,0,0,0,1.3782,1.0991,4.6075,4.6075,0,0,0,3.8,0,4.1216,4.1216,0,0,0,1.3782-1.0991,4.7856,4.7856,0,0,0,.8381-1.5458A5.611,5.611,0,0,0,129.4112,189.7657Z"/>
          <path class="cls-2" d="M145.69,195.8379a3.447,3.447,0,0,1-1.0991,2.6076,3.6832,3.6832,0,0,1-2.626,1.0428,3.8784,3.8784,0,0,1-1.4716-.2794,3.92,3.92,0,0,1-1.2106-.7634,3.5349,3.5349,0,0,1-.82-1.1365,3.3986,3.3986,0,0,1-.2981-1.4337,3.4426,3.4426,0,0,1,.2981-1.4159,3.6991,3.6991,0,0,1,.82-1.1733,4.0329,4.0329,0,0,1,1.2106-.8008,3.81,3.81,0,0,1,4.0976.7451A3.4467,3.4467,0,0,1,145.69,195.8379Z"/>
        </g>
        <g>
          <path class="cls-3" d="M64.5976,188.4573a11.5065,11.5065,0,0,1-19.4694,8.3076s-.6275-.6805-.6564-.6829a11.4544,11.4544,0,0,1-2.89-7.6247,11.0171,11.0171,0,0,1,.06-1.1687c.0265-.2765.0625-.5481.1106-.815a11.5086,11.5086,0,0,1,22.8453,1.9837Z"/>
          <path class="cls-4" d="M51.0746,196.0844v.6805H44.5608c-2.9912,0-5.4246-1.82-5.4246-4.0588v-2.76a3.9984,3.9984,0,0,1,2.6161-3.4721c-.0481.2669-.0841.5385-.1106.815a3.1569,3.1569,0,0,0-1.8226,2.6571v2.76c0,1.8419,2.0775,3.3447,4.6527,3.3759.0289.0024.06.0024.089.0024Z"/>
          <path class="cls-5" d="M61.2275,188.4563a8.1377,8.1377,0,0,1-16.2754,0c0-4.4943,4.7147-8.2368,8.1377-4.8138C56.7105,180.0218,61.2275,183.962,61.2275,188.4563Z"/>
          <path class="cls-4" d="M52.02,189.1407a.3408.3408,0,0,1-.3036-.1856,4.16,4.16,0,0,0-3.6328-2.3864.3409.3409,0,0,1,0-.6818,4.837,4.837,0,0,1,4.24,2.7573.3412.3412,0,0,1-.3031.4965Z"/>
          <path class="cls-4" d="M52.7866,196.4245a1.8793,1.8793,0,0,1-1.9,1.6958,1.3413,1.3413,0,0,1-.3163-.0182l-.6858-.1168-.9444-.1612a1.4161,1.4161,0,0,1-1.1779-1.396h0a1.4162,1.4162,0,0,1,1.1724-1.3951l.9314-.1627.7008-.1228a1.338,1.338,0,0,1,.3227-.0192A1.8786,1.8786,0,0,1,52.7866,196.4245Z"/>
          <path class="cls-4" d="M54.3,189.1407a.3412.3412,0,0,1-.3031-.4965,4.8371,4.8371,0,0,1,4.24-2.7573.3409.3409,0,1,1,0,.6818,4.16,4.16,0,0,0-3.6329,2.3864A.3407.3407,0,0,1,54.3,189.1407Z"/>
          <g>
            <path class="cls-6" d="M53.1905,191.32l.7678-.5947a.24.24,0,0,1,.3092.3378l-.9692,1.6905a.24.24,0,0,1-.417,0l-.9691-1.6905a.24.24,0,0,1,.3092-.3378l.7677.5947A.241.241,0,0,0,53.1905,191.32Z"/>
            <path class="cls-6" d="M53.09,192.8926a.2557.2557,0,0,1-.2242-.13l-.9691-1.6906a.2583.2583,0,0,1,.3324-.363L53,191.306a.223.223,0,0,0,.181-.0013l.7662-.5934a.258.258,0,0,1,.3357.361l-.9691,1.69A.2554.2554,0,0,1,53.09,192.8926Zm-.97-2.1725a.2216.2216,0,0,0-.1637.0735.219.219,0,0,0-.029.2608l.9692,1.6905a.2225.2225,0,0,0,.3859,0l.9691-1.69a.2225.2225,0,0,0-.2861-.3126l-.7677.5947a.2576.2576,0,0,1-.2165,0L52.21,190.74A.215.215,0,0,0,52.12,190.72Zm1.07.6h0Z"/>
          </g>
        </g>
        <g>
          <path class="cls-7" d="M69.22,168.951h.4089v1.7445H71.822V168.951h.4089v4.0229H71.822V171.07H69.6285v1.9035H69.22Z"/>
          <path class="cls-7" d="M75.6968,171.5647v.0853a.8676.8676,0,0,1-.0055.0965H73.4867a1.036,1.036,0,0,0,.0794.3751.944.944,0,0,0,.2046.3068.9851.9851,0,0,0,.3067.2074,1.0159,1.0159,0,0,0,.9006-.0625,1.0374,1.0374,0,0,0,.3325-.321l.29.2273a1.4424,1.4424,0,0,1-.5256.4318,1.4718,1.4718,0,0,1-.6166.1307,1.4161,1.4161,0,0,1-.5482-.1051,1.2877,1.2877,0,0,1-.4348-.2926,1.386,1.386,0,0,1-.2868-.4433,1.4512,1.4512,0,0,1-.105-.5568,1.4872,1.4872,0,0,1,.102-.5568,1.3518,1.3518,0,0,1,.2843-.4433,1.31,1.31,0,0,1,.9544-.3977,1.357,1.357,0,0,1,.5512.1051,1.141,1.141,0,0,1,.3979.2841,1.2192,1.2192,0,0,1,.2413.4177A1.5515,1.5515,0,0,1,75.6968,171.5647Zm-.3918-.125a.96.96,0,0,0-.2416-.6222.82.82,0,0,0-.6394-.2471.8923.8923,0,0,0-.3577.0711.9418.9418,0,0,0-.29.1931.9569.9569,0,0,0-.1989.2785.8992.8992,0,0,0-.0854.3266Z"/>
          <path class="cls-7" d="M78.1686,171.2529a.6688.6688,0,0,0-.1818-.5133.7487.7487,0,0,0-.5284-.1692,1.1392,1.1392,0,0,0-.4433.0853,1.06,1.06,0,0,0-.3466.2271l-.2158-.2556a1.2783,1.2783,0,0,1,.4346-.2728,1.6364,1.6364,0,0,1,.6108-.1079,1.326,1.326,0,0,1,.4033.06.9562.9562,0,0,1,.33.179.8117.8117,0,0,1,.2218.3012,1.0546,1.0546,0,0,1,.08.4261v1.1648q0,.1535.0113.3182a2.2708,2.2708,0,0,0,.0339.2784h-.3466c-.0111-.0643-.0207-.1345-.0281-.21a2.1926,2.1926,0,0,1-.0116-.2217H78.18a1.1208,1.1208,0,0,1-.4121.3837,1.2169,1.2169,0,0,1-.5538.1164,1.2358,1.2358,0,0,1-.3152-.0427.88.88,0,0,1-.2956-.14.7918.7918,0,0,1-.2217-.2509.7467.7467,0,0,1-.088-.3762.7174.7174,0,0,1,.1562-.4875.9376.9376,0,0,1,.4177-.2679,2.4592,2.4592,0,0,1,.5995-.1141q.3381-.0253.7017-.0257Zm-.1135.3914q-.2388,0-.48.02a2.0926,2.0926,0,0,0-.4375.08.8262.8262,0,0,0-.3212.1733.3864.3864,0,0,0-.1249.3011.4852.4852,0,0,0,.0538.2386.4417.4417,0,0,0,.1451.1563.6156.6156,0,0,0,.2015.0853,1.0038,1.0038,0,0,0,.2245.0255.8831.8831,0,0,0,.3637-.071.7717.7717,0,0,0,.2672-.1932.8577.8577,0,0,0,.1647-.2812.9967.9967,0,0,0,.0568-.3353v-.1989Z"/>
          <path class="cls-7" d="M79.5208,170.6216q-.0057-.1705-.0171-.3069h.3693q.0114.1079.017.2386t.0058.216h.0113a.94.94,0,0,1,.8524-.5228c.0491,0,.0939.0021.1336.0057a.7282.7282,0,0,1,.1221.0227l-.0513.3693a.7525.7525,0,0,0-.1135-.0226,1.105,1.105,0,0,0-.1592-.0114.791.791,0,0,0-.2954.0567.6324.6324,0,0,0-.2471.1786.9349.9349,0,0,0-.17.3117,1.4024,1.4024,0,0,0-.0655.4564v1.36h-.3865V170.9C79.5264,170.828,79.5247,170.7352,79.5208,170.6216Z"/>
          <path class="cls-7" d="M84.1915,170.6386h-.75V172.19a.8725.8725,0,0,0,.0286.2444.3407.3407,0,0,0,.0824.15.2786.2786,0,0,0,.1276.0739.6053.6053,0,0,0,.1592.02.6774.6774,0,0,0,.1678-.0227.8612.8612,0,0,0,.1675-.0625l.0171.3352a1.1417,1.1417,0,0,1-.2132.06,1.3741,1.3741,0,0,1-.2414.02.9891.9891,0,0,1-.2273-.0284.5728.5728,0,0,1-.2215-.1079.5912.5912,0,0,1-.1678-.216.8346.8346,0,0,1-.0653-.3579v-1.6592h-.551v-.3239h.551v-.75h.3863v.75h.75Z"/>
          <path class="cls-7" d="M85.2028,170.7522a.8014.8014,0,0,1,.3579-.3693,1.0988,1.0988,0,0,1,.5342-.1364.9345.9345,0,0,1,.7585.3012,1.1961,1.1961,0,0,1,.2527.7955v1.6307H86.72v-1.4716a1.9443,1.9443,0,0,0-.0341-.3808.7942.7942,0,0,0-.1166-.2926.5556.5556,0,0,0-.2215-.19.791.791,0,0,0-.3494-.0682.7478.7478,0,0,0-.2983.0625.73.73,0,0,0-.2585.19.9477.9477,0,0,0-.1818.3239,1.413,1.413,0,0,0-.0683.463v1.3637H84.805v-4.2957h.3863v2.074Z"/>
          <path class="cls-7" d="M90.5267,171.5647v.0853a.9187.9187,0,0,1-.0055.0965H88.3164a1.032,1.032,0,0,0,.08.3751.9451.9451,0,0,0,.2044.3068.9872.9872,0,0,0,.3069.2074,1.0161,1.0161,0,0,0,.9007-.0625,1.0436,1.0436,0,0,0,.3325-.321l.29.2273a1.4432,1.4432,0,0,1-.5259.4318,1.4708,1.4708,0,0,1-.6163.1307,1.4165,1.4165,0,0,1-.5485-.1051,1.2854,1.2854,0,0,1-.4345-.2926,1.3863,1.3863,0,0,1-.2869-.4433,1.4476,1.4476,0,0,1-.1052-.5568,1.4833,1.4833,0,0,1,.1023-.5568,1.3467,1.3467,0,0,1,.2842-.4433,1.3093,1.3093,0,0,1,.426-.2926,1.3233,1.3233,0,0,1,.5284-.1051,1.3562,1.3562,0,0,1,.5511.1051,1.1369,1.1369,0,0,1,.3978.2841,1.2247,1.2247,0,0,1,.2416.4177A1.5593,1.5593,0,0,1,90.5267,171.5647Zm-.392-.125a.9594.9594,0,0,0-.2414-.6222.82.82,0,0,0-.6394-.2471.8933.8933,0,0,0-.3579.0711.9478.9478,0,0,0-.29.1931.9626.9626,0,0,0-.1989.2785.8949.8949,0,0,0-.0852.3266Z"/>
          <path class="cls-7" d="M93.2482,169.292a.251.251,0,0,1-.0851.1959.2673.2673,0,0,1-.375,0,.2676.2676,0,0,1,0-.392.2678.2678,0,0,1,.375,0A.2514.2514,0,0,1,93.2482,169.292Zm-.0793,3.6819h-.3863v-2.6592h.3863Z"/>
          <path class="cls-7" d="M94.9274,170.3914a.9847.9847,0,0,1,.5254-.1449,1.1683,1.1683,0,0,1,.2246.0228.7156.7156,0,0,1,.2272.0881.8269.8269,0,0,1,.2047.1733.9729.9729,0,0,1,.1618.2783,1.0023,1.0023,0,0,1,.3722-.4176,1.0488,1.0488,0,0,1,.56-.1449.9345.9345,0,0,1,.7585.3012,1.1978,1.1978,0,0,1,.2529.7955v1.6307h-.3863v-1.4716a1.2854,1.2854,0,0,0-.1565-.6762.5723.5723,0,0,0-.5312-.2557.6883.6883,0,0,0-.3551.0853.68.68,0,0,0-.233.2244.99.99,0,0,0-.1277.3154,1.64,1.64,0,0,0-.04.3635v1.4149h-.3865v-1.5511a2.0373,2.0373,0,0,0-.0281-.3524.7429.7429,0,0,0-.1-.27.4664.4664,0,0,0-.1961-.1705.74.74,0,0,0-.3182-.06.6719.6719,0,0,0-.2758.0625.725.725,0,0,0-.25.19.9818.9818,0,0,0-.179.3239,1.4159,1.4159,0,0,0-.0681.463v1.3637h-.3865V170.9c0-.0719-.0017-.1647-.0056-.2783s-.0093-.216-.017-.3069h.3692c.0077.0719.0132.1515.0171.2386s.0057.1592.0057.216h.0113A.9053.9053,0,0,1,94.9274,170.3914Z"/>
          <path class="cls-7" d="M99.6008,174.3376h-.3863v-4.0229h.3863v.46h.0171a1.0535,1.0535,0,0,1,.4405-.395,1.27,1.27,0,0,1,.56-.1335,1.429,1.429,0,0,1,.5653.1079,1.2913,1.2913,0,0,1,.4317.2956,1.3317,1.3317,0,0,1,.2786.4432,1.5777,1.5777,0,0,1,0,1.1023,1.3313,1.3313,0,0,1-.2786.4431,1.2869,1.2869,0,0,1-.4317.2956,1.429,1.429,0,0,1-.5653.1079,1.27,1.27,0,0,1-.56-.1335,1.0789,1.0789,0,0,1-.4405-.3835h-.0171Zm1.9831-2.6933a1.2561,1.2561,0,0,0-.0683-.4176,1.0073,1.0073,0,0,0-.1959-.3409.9239.9239,0,0,0-.3155-.23,1.082,1.082,0,0,0-.8353-.0029.9828.9828,0,0,0-.3237.2273,1.051,1.051,0,0,0-.2132.3409,1.2079,1.2079,0,0,0,0,.8466,1.0185,1.0185,0,0,0,.2132.3381,1.0025,1.0025,0,0,0,.7331.3068,1.0473,1.0473,0,0,0,.4259-.0824.8929.8929,0,0,0,.3155-.2273,1.0078,1.0078,0,0,0,.1959-.3408A1.2571,1.2571,0,0,0,101.5839,171.6443Z"/>
          <path class="cls-7" d="M102.8168,170.6216q-.0057-.1705-.0171-.3069h.37q.0111.1079.017.2386t.0056.216h.0115a.9187.9187,0,0,1,.3408-.3779.9317.9317,0,0,1,.5114-.1449c.0493,0,.0937.0021.1334.0057a.72.72,0,0,1,.1222.0227l-.051.3693a.7564.7564,0,0,0-.1137-.0226,1.1074,1.1074,0,0,0-.159-.0114.79.79,0,0,0-.2956.0567.6338.6338,0,0,0-.2471.1786.9351.9351,0,0,0-.1705.3117,1.4079,1.4079,0,0,0-.0654.4564v1.36h-.3862V170.9C102.8226,170.828,102.82,170.7352,102.8168,170.6216Z"/>
          <path class="cls-7" d="M107.408,171.6443a1.4513,1.4513,0,0,1-.1052.5568,1.3409,1.3409,0,0,1-.2926.4433,1.3274,1.3274,0,0,1-.449.2926,1.6036,1.6036,0,0,1-1.142,0,1.3126,1.3126,0,0,1-.7416-.7359,1.5288,1.5288,0,0,1,0-1.1136,1.3126,1.3126,0,0,1,.7416-.7359,1.6036,1.6036,0,0,1,1.142,0,1.311,1.311,0,0,1,.7416.7359A1.4517,1.4517,0,0,1,107.408,171.6443Zm-.4093,0a1.2177,1.2177,0,0,0-.0708-.4176,1.0254,1.0254,0,0,0-.2019-.3409.9536.9536,0,0,0-.318-.23,1.0044,1.0044,0,0,0-.4205-.0853.9851.9851,0,0,0-.4178.0853.96.96,0,0,0-.3152.23,1.02,1.02,0,0,0-.2017.3409,1.2622,1.2622,0,0,0,0,.8353,1.02,1.02,0,0,0,.2017.3408.9261.9261,0,0,0,.3152.2273,1.0142,1.0142,0,0,0,.4178.0824,1.0342,1.0342,0,0,0,.4205-.0824.921.921,0,0,0,.318-.2273,1.0259,1.0259,0,0,0,.2019-.3408A1.2186,1.2186,0,0,0,106.9987,171.6443Z"/>
          <path class="cls-7" d="M109.3284,172.9739h-.4262l-1.0852-2.6592h.4319l.8635,2.25h.0115l.8693-2.25h.4146Z"/>
          <path class="cls-7" d="M113.4307,171.5647v.0853a.8452.8452,0,0,1-.0056.0965h-2.2046a1.0381,1.0381,0,0,0,.0794.3751.9443.9443,0,0,0,.2047.3068.9851.9851,0,0,0,.3067.2074,1.0159,1.0159,0,0,0,.9006-.0625,1.0385,1.0385,0,0,0,.3325-.321l.29.2273a1.4424,1.4424,0,0,1-.5256.4318,1.4725,1.4725,0,0,1-.6166.1307,1.4162,1.4162,0,0,1-.5483-.1051,1.2863,1.2863,0,0,1-.4347-.2926,1.386,1.386,0,0,1-.2868-.4433,1.4512,1.4512,0,0,1-.105-.5568,1.4872,1.4872,0,0,1,.102-.5568,1.35,1.35,0,0,1,.2843-.4433,1.31,1.31,0,0,1,.9544-.3977,1.3574,1.3574,0,0,1,.5512.1051,1.14,1.14,0,0,1,.3978.2841,1.2178,1.2178,0,0,1,.2414.4177A1.5515,1.5515,0,0,1,113.4307,171.5647Zm-.3919-.125a.96.96,0,0,0-.2415-.6222.82.82,0,0,0-.6394-.2471.8923.8923,0,0,0-.3577.0711.9406.9406,0,0,0-.29.1931.9573.9573,0,0,0-.199.2785.899.899,0,0,0-.0853.3266Z"/>
          <path class="cls-7" d="M114.99,170.3914a.9849.9849,0,0,1,.5257-.1449,1.1677,1.1677,0,0,1,.2243.0228.7171.7171,0,0,1,.2275.0881.8275.8275,0,0,1,.2044.1733.9686.9686,0,0,1,.162.2783,1.0009,1.0009,0,0,1,.3722-.4176,1.0488,1.0488,0,0,1,.56-.1449.9345.9345,0,0,1,.7585.3012,1.1971,1.1971,0,0,1,.2527.7955v1.6307h-.3863v-1.4716a1.2864,1.2864,0,0,0-.1562-.6762.5729.5729,0,0,0-.5314-.2557.69.69,0,0,0-.3552.0853.678.678,0,0,0-.2328.2244.9922.9922,0,0,0-.1278.3154,1.6461,1.6461,0,0,0-.04.3635v1.4149h-.3865v-1.5511a2.026,2.026,0,0,0-.0284-.3524.7357.7357,0,0,0-.1-.27.4647.4647,0,0,0-.1959-.1705.74.74,0,0,0-.3184-.06.67.67,0,0,0-.2755.0625.7194.7194,0,0,0-.25.19.9783.9783,0,0,0-.1791.3239,1.4133,1.4133,0,0,0-.0681.463v1.3637H114.26V170.9q0-.1078-.0057-.2783c-.0039-.1137-.0094-.216-.0171-.3069h.3694q.0112.1079.0171.2386c.0036.0873.0058.1592.0058.216h.0113A.9046.9046,0,0,1,114.99,170.3914Z"/>
          <path class="cls-7" d="M121.698,171.5647v.0853a.9187.9187,0,0,1-.0055.0965h-2.2048a1.032,1.032,0,0,0,.08.3751.9451.9451,0,0,0,.2044.3068.986.986,0,0,0,.3069.2074,1.0159,1.0159,0,0,0,.9006-.0625,1.0416,1.0416,0,0,0,.3325-.321l.29.2273a1.4432,1.4432,0,0,1-.5259.4318,1.4708,1.4708,0,0,1-.6163.1307,1.4165,1.4165,0,0,1-.5485-.1051,1.2854,1.2854,0,0,1-.4345-.2926,1.3846,1.3846,0,0,1-.2869-.4433,1.4476,1.4476,0,0,1-.1052-.5568,1.4833,1.4833,0,0,1,.1022-.5568,1.3485,1.3485,0,0,1,.2843-.4433,1.3093,1.3093,0,0,1,.426-.2926,1.3233,1.3233,0,0,1,.5284-.1051,1.3562,1.3562,0,0,1,.5511.1051,1.1369,1.1369,0,0,1,.3978.2841,1.2247,1.2247,0,0,1,.2416.4177A1.5593,1.5593,0,0,1,121.698,171.5647Zm-.392-.125a.9594.9594,0,0,0-.2414-.6222.82.82,0,0,0-.6394-.2471.8933.8933,0,0,0-.3579.0711.9466.9466,0,0,0-.29.1931.9607.9607,0,0,0-.1989.2785.8949.8949,0,0,0-.0852.3266Z"/>
          <path class="cls-7" d="M122.874,170.3147q.0114.1079.017.2386t.0058.216h.0113a.876.876,0,0,1,.3694-.3779,1.08,1.08,0,0,1,.54-.1449.9342.9342,0,0,1,.7585.3012,1.1968,1.1968,0,0,1,.2531.7955v1.6307h-.3865v-1.4716a1.9363,1.9363,0,0,0-.0342-.3808.8044.8044,0,0,0-.1163-.2926.5582.5582,0,0,0-.2217-.19.7922.7922,0,0,0-.3494-.0682.7468.7468,0,0,0-.2984.0625.7367.7367,0,0,0-.2586.19.9543.9543,0,0,0-.1818.3239,1.4159,1.4159,0,0,0-.0681.463v1.3637h-.3865V170.9c0-.0719-.0017-.1647-.0056-.2783s-.0094-.216-.0171-.3069Z"/>
          <path class="cls-7" d="M127.0277,170.6386h-.75V172.19a.8725.8725,0,0,0,.0286.2444.3407.3407,0,0,0,.0824.15.28.28,0,0,0,.1276.0739.6059.6059,0,0,0,.1592.02.6762.6762,0,0,0,.1678-.0227.8564.8564,0,0,0,.1675-.0625l.0171.3352a1.1417,1.1417,0,0,1-.2132.06,1.3733,1.3733,0,0,1-.2414.02.9891.9891,0,0,1-.2273-.0284.5735.5735,0,0,1-.2215-.1079.59.59,0,0,1-.1677-.216.8331.8331,0,0,1-.0653-.3579v-1.6592H125.34v-.3239h.5511v-.75h.3862v.75h.75Z"/>
        </g>
      </g>
    </g>
  </g>
</svg>
