<svg id="Livello_1" data-name="Livello 1" xmlns="http://www.w3.org/2000/svg" viewBox="0 0 366.84 570.28">
  <defs>
    <style>
      .cls-1 {
        fill: #1d1d1b;
      }

      .cls-2 {
        fill: #fdc31e;
      }

      .cls-3 {
        fill: #19171c;
      }

      .cls-4 {
        fill: #fff;
      }

      .cls-5 {
        fill: #221e20;
      }
    </style>
  </defs>
  <title>tyto</title>
  <g>
    <g>
      <path class="cls-1" d="M213.39,273v12.73a5.71,5.71,0,0,0,.9,3.51,3.83,3.83,0,0,0,3.23,1.17,11.38,11.38,0,0,0,1.7-.13,5.68,5.68,0,0,0,1.5-.4l.14,8a17.91,17.91,0,0,1-2.87.71,20.33,20.33,0,0,1-3.47.3,16.23,16.23,0,0,1-5.6-.84,8.65,8.65,0,0,1-3.64-2.41,9.46,9.46,0,0,1-2-3.74,18.25,18.25,0,0,1-.6-4.85V273h-5.23l-11.71,30.09a29,29,0,0,1-2.24,4.64,13.93,13.93,0,0,1-2.93,3.46,11.54,11.54,0,0,1-4,2.17,18,18,0,0,1-5.44.73,26.78,26.78,0,0,1-3.17-.19,19.31,19.31,0,0,1-2.83-.54l1.2-9.2a12.76,12.76,0,0,0,1.77.43,10.53,10.53,0,0,0,1.76.17,4.93,4.93,0,0,0,3.67-1.17,9.53,9.53,0,0,0,1.94-3.3l1.06-2.74L166.14,273h-7.72v12.73a5.71,5.71,0,0,0,.9,3.51,3.84,3.84,0,0,0,3.24,1.17,11.48,11.48,0,0,0,1.7-.13,5.79,5.79,0,0,0,1.5-.4l.13,8a17.38,17.38,0,0,1-2.87.71,20.3,20.3,0,0,1-3.46.3,16.25,16.25,0,0,1-5.61-.84,8.68,8.68,0,0,1-3.63-2.41,9.33,9.33,0,0,1-2-3.74,18.25,18.25,0,0,1-.6-4.85V273h-5.34V264.9h5.27v-8.74h10.74v8.74h16.41l7.41,21.34h.19L189,264.9h13.61v-8.74h10.74v8.74h7.8V273Z"/>
      <path class="cls-1" d="M258.89,281.37a17.9,17.9,0,0,1-1.47,7.37,16.64,16.64,0,0,1-4,5.61,18.53,18.53,0,0,1-5.87,3.57,20.78,20.78,0,0,1-14.25,0,18.1,18.1,0,0,1-5.87-3.57,17,17,0,0,1-4-5.61,19.26,19.26,0,0,1,0-14.71,16.65,16.65,0,0,1,4-5.53A17.36,17.36,0,0,1,233.3,265a21.75,21.75,0,0,1,14.25,0,17.76,17.76,0,0,1,5.87,3.47,16.32,16.32,0,0,1,4,5.53A17.72,17.72,0,0,1,258.89,281.37Zm-10.54,0a9.37,9.37,0,0,0-.54-3.13,8.07,8.07,0,0,0-1.53-2.7,7.83,7.83,0,0,0-2.47-1.91,8.28,8.28,0,0,0-6.8,0,7.49,7.49,0,0,0-2.44,1.91,8.29,8.29,0,0,0-1.47,2.7,10.08,10.08,0,0,0,0,6.27,8.79,8.79,0,0,0,1.51,2.77,7.17,7.17,0,0,0,2.46,2,8.2,8.2,0,0,0,6.81,0,7.31,7.31,0,0,0,2.47-2,9,9,0,0,0,1.5-2.77A10.16,10.16,0,0,0,248.35,281.37Z"/>
      <path class="cls-1" d="M277.5,292.25a6.2,6.2,0,0,1-2,4.67,6.6,6.6,0,0,1-4.7,1.86,6.82,6.82,0,0,1-2.64-.5,7.24,7.24,0,0,1-2.17-1.36,6.31,6.31,0,0,1-1.46-2,6.29,6.29,0,0,1,0-5.1,6.56,6.56,0,0,1,1.46-2.1,7.47,7.47,0,0,1,2.17-1.44,6.66,6.66,0,0,1,2.64-.53,6.57,6.57,0,0,1,4.7,1.87A6.17,6.17,0,0,1,277.5,292.25Z"/>
    </g>
    <g>
      <path class="cls-2" d="M134.94,279a20.6,20.6,0,0,1-34.86,14.88s-1.13-1.22-1.18-1.23a20.75,20.75,0,0,1-5.07-15.74c0-.5.11-1,.2-1.46A20.61,20.61,0,0,1,134.94,279Z"/>
      <path class="cls-3" d="M110.73,292.69v1.22H99.06c-5.36,0-9.71-3.26-9.71-7.27v-4.95c0-2.63,1.87-4.94,4.68-6.21-.09.47-.15,1-.2,1.46a5.65,5.65,0,0,0-3.26,4.75v4.95c0,3.3,3.72,6,8.33,6h11.83Z"/>
      <path class="cls-4" d="M128.91,279a14.58,14.58,0,0,1-29.15,0c0-8,8.44-14.75,14.57-8.62C120.82,263.92,128.91,271,128.91,279Z"/>
      <path class="cls-3" d="M112.42,280.25a.62.62,0,0,1-.55-.33,7.43,7.43,0,0,0-6.5-4.27.61.61,0,0,1-.61-.61.61.61,0,0,1,.61-.61,8.66,8.66,0,0,1,7.59,4.93.62.62,0,0,1-.26.83A.71.71,0,0,1,112.42,280.25Z"/>
      <path class="cls-3" d="M113.79,293.3a3.37,3.37,0,0,1-3.4,3,2.18,2.18,0,0,1-.57,0l-1.23-.21-1.69-.29a2.53,2.53,0,0,1-2.11-2.5h0a2.55,2.55,0,0,1,2.1-2.5l1.67-.29,1.26-.22a2.73,2.73,0,0,1,.57,0A3.36,3.36,0,0,1,113.79,293.3Z"/>
      <path class="cls-3" d="M116.5,280.25a.71.71,0,0,1-.28-.06.62.62,0,0,1-.26-.83,8.66,8.66,0,0,1,7.59-4.93.61.61,0,0,1,.61.61.61.61,0,0,1-.61.61,7.43,7.43,0,0,0-6.5,4.27A.62.62,0,0,1,116.5,280.25Z"/>
      <g>
        <path class="cls-5" d="M114.51,284.16l1.38-1.07a.43.43,0,0,1,.55.61l-1.73,3a.43.43,0,0,1-.75,0l-1.73-3a.43.43,0,0,1,.55-.61l1.37,1.07A.45.45,0,0,0,114.51,284.16Z"/>
        <path class="cls-5" d="M114.33,287a.48.48,0,0,1-.4-.23l-1.73-3a.45.45,0,0,1,.06-.54.46.46,0,0,1,.53-.11l1.38,1.07a.42.42,0,0,0,.33,0l1.37-1.06a.46.46,0,0,1,.6.64l-1.73,3A.49.49,0,0,1,114.33,287Zm-1.73-3.89a.43.43,0,0,0-.3.13.43.43,0,0,0,0,.47l1.74,3a.4.4,0,0,0,.69,0l1.74-3a.41.41,0,0,0-.06-.47.4.4,0,0,0-.46-.09l-1.37,1.06a.45.45,0,0,1-.39,0l-1.38-1.06A.32.32,0,0,0,112.6,283.08Zm1.91,1.08h0Z"/>
      </g>
    </g>
  </g>
</svg>
