<svg xmlns="http://www.w3.org/2000/svg" viewBox="0 0 376.7046 298.4459">
  <defs>
    <style>
      .cls-1 {
        fill: #fff;
      }

      .cls-2 {
        fill: #231f20;
      }
    </style>
  </defs>
  <g id="Layer_2" data-name="Layer 2">
    <g id="Layer_1-2" data-name="Layer 1">
      <g>
        <rect class="cls-1" width="376.7046" height="298.4459"/>
        <g>
          <g>
            <path class="cls-2" d="M18.9937,257.9989h3.2788v6.1741c0,1.3587.4875,1.89,1.8318,1.89h3.2494c1.344,0,1.8315-.5318,1.8315-1.89v-6.1741h3.2791v6.8832c0,2.6585-1.3737,3.9287-4.3869,3.9287H23.3806c-3.0134,0-4.3869-1.27-4.3869-3.9287Z"/>
            <path class="cls-2" d="M34.68,257.9991h9.8958c2.526,0,3.2053,1.2555,3.2053,3.1755v.68c0,1.4325-.3249,2.2744-1.8315,2.6288v.03c.9747.1772,1.7871.6055,1.7871,2.3631v1.8169H44.4578v-1.285c0-1.1228-.3249-1.492-1.3442-1.492H37.9588v2.777H34.68Zm3.2788,5.258H43.38c.8863,0,1.2112-.3544,1.2112-1.1226V261.78c0-.9452-.4727-1.1224-1.5066-1.1224H37.9588Z"/>
            <polygon class="cls-2" points="49.996 257.999 53.276 257.999 53.276 265.945 60.646 265.945 60.646 268.693 49.996 268.693 49.996 257.999"/>
            <path class="cls-2" d="M61.7978,261.7505c0-3.1312,1.7576-3.87,4.7116-3.87h5.2583c2.9543,0,4.7119.7385,4.7119,3.87v3.19c0,3.1314-1.7576,3.87-4.7119,3.87H66.5094c-2.954,0-4.7116-.7386-4.7116-3.87Zm3.3676,2.1713c0,1.551.3251,2.1418,1.8759,2.1418h4.1948c1.551,0,1.8759-.5908,1.8759-2.1418V262.77c0-1.3291-.3249-2.1415-2.0531-2.1415h-3.84c-1.728,0-2.0531.8124-2.0531,2.1415Z"/>
            <path class="cls-2" d="M40.5052,274.047c0-3.1314,1.7577-3.87,4.7119-3.87H50.15c3.7222,0,4.2392,1.344,4.2392,3.4269v.34H51.17c0-1.0634-.6057-1.1965-1.6543-1.1965h-3.56c-1.6545,0-2.0828.3988-2.0828,2.2305v1.3294c0,1.8313.4283,2.23,2.0828,2.23h3.5005c.8567,0,1.7135-.1331,1.7135-1.1671v-.31H47.093v-2.2157h7.3557v3.0427c0,3.0724-1.5953,3.22-5.2878,3.22H45.2171c-2.9542,0-4.7119-.7386-4.7119-3.87Z"/>
            <path class="cls-2" d="M56.4279,270.2955h9.8963c2.5257,0,3.205,1.2553,3.205,3.1755v.6793c0,1.4328-.3249,2.2747-1.8312,2.6293v.0295c.9745.1772,1.7869.6055,1.7869,2.3631v1.8169H66.206v-1.285c0-1.1225-.3249-1.4917-1.3443-1.4917H59.707v2.7767H56.4279Zm3.2791,5.2581h5.4207c.8862,0,1.2111-.3544,1.2111-1.1225v-.3546c0-.9453-.4726-1.1225-1.5063-1.1225H59.707Z"/>
            <path class="cls-2" d="M76.486,270.2953h4.2687l5.8787,10.6939H82.9853l-1.0194-1.8907H75.3192l-.96,1.8907H70.696Zm.0592,6.499H80.74l-2.127-4.0176Z"/>
            <polygon class="cls-2" points="87.8 270.295 98.967 270.295 98.967 272.865 91.079 272.865 91.079 274.859 98.598 274.859 98.598 277.341 91.079 277.341 91.079 280.989 87.8 280.989 87.8 270.295"/>
            <path class="cls-2" d="M100.71,274.047c0-3.1312,1.7577-3.87,4.7119-3.87H110.68c2.9539,0,4.7116.7386,4.7116,3.87v3.19c0,3.1315-1.7577,3.87-4.7116,3.87h-5.2584c-2.9542,0-4.7119-.7385-4.7119-3.87Zm3.3676,2.1712c0,1.551.3249,2.1418,1.8759,2.1418h4.1952c1.5507,0,1.8756-.5908,1.8756-2.1418v-1.1521c0-1.3294-.3249-2.1419-2.0531-2.1419h-3.84c-1.7282,0-2.0531.8125-2.0531,2.1419Z"/>
            <path class="cls-2" d="M140.1534,257.9989h3.2789v6.1741c0,1.3587.4875,1.89,1.8315,1.89h3.25c1.344,0,1.8314-.5318,1.8314-1.89v-6.1741h3.2789v6.8832c0,2.6585-1.3735,3.9287-4.3867,3.9287H144.54c-3.0135,0-4.387-1.27-4.387-3.9287Z"/>
            <path class="cls-2" d="M155.84,257.9991h9.8959c2.5256,0,3.2052,1.2555,3.2052,3.1755v.68c0,1.4325-.3249,2.2744-1.8315,2.6288v.03c.9747.1772,1.7872.6055,1.7872,2.3631v1.8169h-3.2792v-1.285c0-1.1228-.3249-1.492-1.344-1.492h-5.1547v2.777H155.84Zm3.2789,5.258h5.4207c.8862,0,1.2111-.3544,1.2111-1.1226V261.78c0-.9452-.4726-1.1224-1.5066-1.1224h-5.1252Z"/>
            <polygon class="cls-2" points="171.156 257.999 174.435 257.999 174.435 265.945 181.806 265.945 181.806 268.693 171.156 268.693 171.156 257.999"/>
            <path class="cls-2" d="M182.9577,261.7505c0-3.1312,1.7574-3.87,4.7113-3.87h5.2586c2.954,0,4.7116.7385,4.7116,3.87v3.19c0,3.1314-1.7576,3.87-4.7116,3.87H187.669c-2.9539,0-4.7113-.7386-4.7113-3.87Zm3.3673,2.1713c0,1.551.3252,2.1418,1.8759,2.1418h4.1949c1.5509,0,1.8758-.5908,1.8758-2.1418V262.77c0-1.3291-.3249-2.1415-2.053-2.1415h-3.8405c-1.7279,0-2.0531.8124-2.0531,2.1415Z"/>
            <path class="cls-2" d="M161.6649,274.047c0-3.1314,1.7576-3.87,4.7118-3.87H171.31c3.7222,0,4.239,1.344,4.239,3.4269v.34h-3.22c0-1.0634-.6055-1.1965-1.6543-1.1965h-3.56c-1.6543,0-2.0828.3988-2.0828,2.2305v1.3294c0,1.8313.4285,2.23,2.0828,2.23h3.5007c.8565,0,1.7133-.1331,1.7133-1.1671v-.31h-4.0767v-2.2157h7.3558v3.0427c0,3.0724-1.5953,3.22-5.2878,3.22h-3.9439c-2.9542,0-4.7118-.7386-4.7118-3.87Z"/>
            <path class="cls-2" d="M177.5876,270.2955h9.8961c2.5257,0,3.2053,1.2553,3.2053,3.1755v.6793c0,1.4328-.3249,2.2747-1.8315,2.6293v.0295c.9747.1772,1.7871.6055,1.7871,2.3631v1.8169h-3.2788v-1.285c0-1.1225-.3252-1.4917-1.3443-1.4917h-5.1547v2.7767h-3.2792Zm3.2792,5.2581h5.4206c.8863,0,1.2112-.3544,1.2112-1.1225v-.3546c0-.9453-.4726-1.1225-1.5063-1.1225h-5.1255Z"/>
            <path class="cls-2" d="M197.6456,270.2953h4.269l5.8784,10.6939h-3.6481l-1.0194-1.8907h-6.6464l-.96,1.8907h-3.663Zm.0593,6.499H201.9l-2.1267-4.0176Z"/>
            <polygon class="cls-2" points="208.96 270.295 220.126 270.295 220.126 272.865 212.239 272.865 212.239 274.859 219.757 274.859 219.757 277.341 212.239 277.341 212.239 280.989 208.96 280.989 208.96 270.295"/>
            <path class="cls-2" d="M221.8694,274.047c0-3.1312,1.7577-3.87,4.7116-3.87H231.84c2.954,0,4.7116.7386,4.7116,3.87v3.19c0,3.1315-1.7576,3.87-4.7116,3.87H226.581c-2.9539,0-4.7116-.7385-4.7116-3.87Zm3.3676,2.1712c0,1.551.3249,2.1418,1.8759,2.1418h4.1948c1.551,0,1.8759-.5908,1.8759-2.1418v-1.1521c0-1.3294-.3249-2.1419-2.0531-2.1419h-3.84c-1.7282,0-2.0531.8125-2.0531,2.1419Z"/>
            <path class="cls-2" d="M261.313,257.9989h3.2791v6.1741c0,1.3587.4875,1.89,1.8315,1.89h3.2493c1.3443,0,1.8318-.5318,1.8318-1.89v-6.1741h3.2789v6.8832c0,2.6585-1.3735,3.9287-4.3867,3.9287H265.7c-3.0132,0-4.3869-1.27-4.3869-3.9287Z"/>
            <path class="cls-2" d="M276.9992,257.9991h9.8961c2.5257,0,3.2053,1.2555,3.2053,3.1755v.68c0,1.4325-.3249,2.2744-1.8318,2.6288v.03c.975.1772,1.7874.6055,1.7874,2.3631v1.8169h-3.2791v-1.285c0-1.1228-.3249-1.492-1.344-1.492h-5.1547v2.777h-3.2792Zm3.2792,5.258h5.4206c.8863,0,1.2109-.3544,1.2109-1.1226V261.78c0-.9452-.4723-1.1224-1.5063-1.1224h-5.1252Z"/>
            <polygon class="cls-2" points="292.316 257.999 295.595 257.999 295.595 265.945 302.965 265.945 302.965 268.693 292.316 268.693 292.316 257.999"/>
            <path class="cls-2" d="M304.1174,261.7505c0-3.1312,1.7574-3.87,4.7114-3.87h5.2586c2.9537,0,4.7116.7385,4.7116,3.87v3.19c0,3.1314-1.7579,3.87-4.7116,3.87h-5.2586c-2.954,0-4.7114-.7386-4.7114-3.87Zm3.3674,2.1713c0,1.551.3249,2.1418,1.8759,2.1418h4.1948c1.5507,0,1.8759-.5908,1.8759-2.1418V262.77c0-1.3291-.3252-2.1415-2.0531-2.1415h-3.8405c-1.7281,0-2.053.8124-2.053,2.1415Z"/>
            <path class="cls-2" d="M282.8246,274.047c0-3.1314,1.7577-3.87,4.7119-3.87H292.47c3.7223,0,4.239,1.344,4.239,3.4269v.34h-3.22c0-1.0634-.6054-1.1965-1.6546-1.1965H288.275c-1.6543,0-2.0828.3988-2.0828,2.2305v1.3294c0,1.8313.4285,2.23,2.0828,2.23h3.5007c.8565,0,1.7133-.1331,1.7133-1.1671v-.31h-4.0767v-2.2157h7.3558v3.0427c0,3.0724-1.5953,3.22-5.2881,3.22h-3.9435c-2.9542,0-4.7119-.7386-4.7119-3.87Z"/>
            <path class="cls-2" d="M298.7474,270.2955h9.8961c2.5257,0,3.2053,1.2553,3.2053,3.1755v.6793c0,1.4328-.325,2.2747-1.8316,2.6293v.0295c.9748.1772,1.7872.6055,1.7872,2.3631v1.8169h-3.2791v-1.285c0-1.1225-.3249-1.4917-1.344-1.4917h-5.1548v2.7767h-3.2791Zm3.2791,5.2581h5.4207c.8863,0,1.2112-.3544,1.2112-1.1225v-.3546c0-.9453-.4727-1.1225-1.5066-1.1225h-5.1253Z"/>
            <path class="cls-2" d="M318.8054,270.2953h4.269l5.8784,10.6939h-3.6482l-1.0193-1.8907h-6.6465l-.96,1.8907h-3.663Zm.0592,6.499h4.1947l-2.127-4.0176Z"/>
            <polygon class="cls-2" points="330.12 270.295 341.286 270.295 341.286 272.865 333.399 272.865 333.399 274.859 340.917 274.859 340.917 277.341 333.399 277.341 333.399 280.989 330.12 280.989 330.12 270.295"/>
            <path class="cls-2" d="M343.0292,274.047c0-3.1312,1.7576-3.87,4.7116-3.87h5.2583c2.9542,0,4.7119.7386,4.7119,3.87v3.19c0,3.1315-1.7577,3.87-4.7119,3.87h-5.2583c-2.954,0-4.7116-.7385-4.7116-3.87Zm3.3676,2.1712c0,1.551.3249,2.1418,1.8756,2.1418h4.1951c1.551,0,1.8759-.5908,1.8759-2.1418v-1.1521c0-1.3294-.3249-2.1419-2.0534-2.1419h-3.84c-1.7281,0-2.053.8125-2.053,2.1419Z"/>
          </g>
          <g>
            <path class="cls-2" d="M18.9937,73.4567h3.2788v6.1741c0,1.3586.4875,1.8905,1.8318,1.8905h3.2494c1.344,0,1.8315-.5319,1.8315-1.8905V73.4567h3.2791V80.34c0,2.6585-1.3737,3.9287-4.3869,3.9287H23.3806c-3.0134,0-4.3869-1.27-4.3869-3.9287Z"/>
            <path class="cls-2" d="M34.68,73.4568h9.8958c2.526,0,3.2053,1.2555,3.2053,3.1755v.68c0,1.4325-.3249,2.2744-1.8315,2.6287v.03c.9747.1772,1.7871.6055,1.7871,2.3631V84.15H44.4578v-1.285c0-1.1227-.3249-1.492-1.3442-1.492H37.9588V84.15H34.68Zm3.2788,5.2581H43.38c.8863,0,1.2112-.3544,1.2112-1.1227v-.3544c0-.9453-.4727-1.1225-1.5066-1.1225H37.9588Z"/>
            <polygon class="cls-2" points="49.996 73.457 53.276 73.457 53.276 81.403 60.646 81.403 60.646 84.15 49.996 84.15 49.996 73.457"/>
            <path class="cls-2" d="M61.7978,77.2082c0-3.1311,1.7576-3.87,4.7116-3.87h5.2583c2.9543,0,4.7119.7386,4.7119,3.87v3.19c0,3.1314-1.7576,3.87-4.7119,3.87H66.5094c-2.954,0-4.7116-.7386-4.7116-3.87ZM65.1654,79.38c0,1.551.3251,2.1418,1.8759,2.1418h4.1948c1.551,0,1.8759-.5908,1.8759-2.1418V78.2273c0-1.3291-.3249-2.1415-2.0531-2.1415h-3.84c-1.728,0-2.0531.8124-2.0531,2.1415Z"/>
            <path class="cls-2" d="M40.5052,89.5047c0-3.1314,1.7577-3.87,4.7119-3.87H50.15c3.7222,0,4.2392,1.3441,4.2392,3.4269v.34H51.17c0-1.0635-.6057-1.1966-1.6543-1.1966h-3.56c-1.6545,0-2.0828.3988-2.0828,2.23v1.3294c0,1.8313.4283,2.23,2.0828,2.23h3.5005c.8567,0,1.7135-.1331,1.7135-1.1671v-.31H47.093V90.3022h7.3557v3.0427c0,3.0725-1.5953,3.22-5.2878,3.22H45.2171c-2.9542,0-4.7119-.7386-4.7119-3.87Z"/>
            <path class="cls-2" d="M56.4279,85.7532h9.8963c2.5257,0,3.205,1.2553,3.205,3.1755v.6794c0,1.4327-.3249,2.2746-1.8312,2.6293v.0294c.9745.1773,1.7869.6055,1.7869,2.3631v1.8169H66.206v-1.285c0-1.1224-.3249-1.4917-1.3443-1.4917H59.707v2.7767H56.4279Zm3.2791,5.2581h5.4207c.8862,0,1.2111-.3544,1.2111-1.1224v-.3547c0-.9453-.4726-1.1224-1.5063-1.1224H59.707Z"/>
            <path class="cls-2" d="M76.486,85.7531h4.2687l5.8787,10.6938H82.9853l-1.0194-1.8907H75.3192l-.96,1.8907H70.696Zm.0592,6.499H80.74l-2.127-4.0177Z"/>
            <polygon class="cls-2" points="87.8 85.753 98.967 85.753 98.967 88.323 91.079 88.323 91.079 90.317 98.598 90.317 98.598 92.799 91.079 92.799 91.079 96.447 87.8 96.447 87.8 85.753"/>
            <path class="cls-2" d="M100.71,89.5047c0-3.1312,1.7577-3.87,4.7119-3.87H110.68c2.9539,0,4.7116.7385,4.7116,3.87v3.19c0,3.1314-1.7577,3.87-4.7116,3.87h-5.2584c-2.9542,0-4.7119-.7385-4.7119-3.87Zm3.3676,2.1713c0,1.5509.3249,2.1418,1.8759,2.1418h4.1952c1.5507,0,1.8756-.5909,1.8756-2.1418V90.5238c0-1.3294-.3249-2.1418-2.0531-2.1418h-3.84c-1.7282,0-2.0531.8124-2.0531,2.1418Z"/>
            <path class="cls-2" d="M140.1534,73.4567h3.2789v6.1741c0,1.3586.4875,1.8905,1.8315,1.8905h3.25c1.344,0,1.8314-.5319,1.8314-1.8905V73.4567h3.2789V80.34c0,2.6585-1.3735,3.9287-4.3867,3.9287H144.54c-3.0135,0-4.387-1.27-4.387-3.9287Z"/>
            <path class="cls-2" d="M155.84,73.4568h9.8959c2.5256,0,3.2052,1.2555,3.2052,3.1755v.68c0,1.4325-.3249,2.2744-1.8315,2.6287v.03c.9747.1772,1.7872.6055,1.7872,2.3631V84.15h-3.2792v-1.285c0-1.1227-.3249-1.492-1.344-1.492h-5.1547V84.15H155.84Zm3.2789,5.2581h5.4207c.8862,0,1.2111-.3544,1.2111-1.1227v-.3544c0-.9453-.4726-1.1225-1.5066-1.1225h-5.1252Z"/>
            <polygon class="cls-2" points="171.156 73.457 174.435 73.457 174.435 81.403 181.806 81.403 181.806 84.15 171.156 84.15 171.156 73.457"/>
            <path class="cls-2" d="M182.9577,77.2082c0-3.1311,1.7574-3.87,4.7113-3.87h5.2586c2.954,0,4.7116.7386,4.7116,3.87v3.19c0,3.1314-1.7576,3.87-4.7116,3.87H187.669c-2.9539,0-4.7113-.7386-4.7113-3.87ZM186.325,79.38c0,1.551.3252,2.1418,1.8759,2.1418h4.1949c1.5509,0,1.8758-.5908,1.8758-2.1418V78.2273c0-1.3291-.3249-2.1415-2.053-2.1415h-3.8405c-1.7279,0-2.0531.8124-2.0531,2.1415Z"/>
            <path class="cls-2" d="M161.6649,89.5047c0-3.1314,1.7576-3.87,4.7118-3.87H171.31c3.7222,0,4.239,1.3441,4.239,3.4269v.34h-3.22c0-1.0635-.6055-1.1966-1.6543-1.1966h-3.56c-1.6543,0-2.0828.3988-2.0828,2.23v1.3294c0,1.8313.4285,2.23,2.0828,2.23h3.5007c.8565,0,1.7133-.1331,1.7133-1.1671v-.31h-4.0767V90.3022h7.3558v3.0427c0,3.0725-1.5953,3.22-5.2878,3.22h-3.9439c-2.9542,0-4.7118-.7386-4.7118-3.87Z"/>
            <path class="cls-2" d="M177.5876,85.7532h9.8961c2.5257,0,3.2053,1.2553,3.2053,3.1755v.6794c0,1.4327-.3249,2.2746-1.8315,2.6293v.0294c.9747.1773,1.7871.6055,1.7871,2.3631v1.8169h-3.2788v-1.285c0-1.1224-.3252-1.4917-1.3443-1.4917h-5.1547v2.7767h-3.2792Zm3.2792,5.2581h5.4206c.8863,0,1.2112-.3544,1.2112-1.1224v-.3547c0-.9453-.4726-1.1224-1.5063-1.1224h-5.1255Z"/>
            <path class="cls-2" d="M197.6456,85.7531h4.269l5.8784,10.6938h-3.6481l-1.0194-1.8907h-6.6464l-.96,1.8907h-3.663Zm.0593,6.499H201.9l-2.1267-4.0177Z"/>
            <polygon class="cls-2" points="208.96 85.753 220.126 85.753 220.126 88.323 212.239 88.323 212.239 90.317 219.757 90.317 219.757 92.799 212.239 92.799 212.239 96.447 208.96 96.447 208.96 85.753"/>
            <path class="cls-2" d="M221.8694,89.5047c0-3.1312,1.7577-3.87,4.7116-3.87H231.84c2.954,0,4.7116.7385,4.7116,3.87v3.19c0,3.1314-1.7576,3.87-4.7116,3.87H226.581c-2.9539,0-4.7116-.7385-4.7116-3.87Zm3.3676,2.1713c0,1.5509.3249,2.1418,1.8759,2.1418h4.1948c1.551,0,1.8759-.5909,1.8759-2.1418V90.5238c0-1.3294-.3249-2.1418-2.0531-2.1418h-3.84c-1.7282,0-2.0531.8124-2.0531,2.1418Z"/>
            <path class="cls-2" d="M261.313,73.4567h3.2791v6.1741c0,1.3586.4875,1.8905,1.8315,1.8905h3.2493c1.3443,0,1.8318-.5319,1.8318-1.8905V73.4567h3.2789V80.34c0,2.6585-1.3735,3.9287-4.3867,3.9287H265.7c-3.0132,0-4.3869-1.27-4.3869-3.9287Z"/>
            <path class="cls-2" d="M276.9992,73.4568h9.8961c2.5257,0,3.2053,1.2555,3.2053,3.1755v.68c0,1.4325-.3249,2.2744-1.8318,2.6287v.03c.975.1772,1.7874.6055,1.7874,2.3631V84.15h-3.2791v-1.285c0-1.1227-.3249-1.492-1.344-1.492h-5.1547V84.15h-3.2792Zm3.2792,5.2581h5.4206c.8863,0,1.2109-.3544,1.2109-1.1227v-.3544c0-.9453-.4723-1.1225-1.5063-1.1225h-5.1252Z"/>
            <polygon class="cls-2" points="292.316 73.457 295.595 73.457 295.595 81.403 302.965 81.403 302.965 84.15 292.316 84.15 292.316 73.457"/>
            <path class="cls-2" d="M304.1174,77.2082c0-3.1311,1.7574-3.87,4.7114-3.87h5.2586c2.9537,0,4.7116.7386,4.7116,3.87v3.19c0,3.1314-1.7579,3.87-4.7116,3.87h-5.2586c-2.954,0-4.7114-.7386-4.7114-3.87Zm3.3674,2.1713c0,1.551.3249,2.1418,1.8759,2.1418h4.1948c1.5507,0,1.8759-.5908,1.8759-2.1418V78.2273c0-1.3291-.3252-2.1415-2.0531-2.1415h-3.8405c-1.7281,0-2.053.8124-2.053,2.1415Z"/>
            <path class="cls-2" d="M282.8246,89.5047c0-3.1314,1.7577-3.87,4.7119-3.87H292.47c3.7223,0,4.239,1.3441,4.239,3.4269v.34h-3.22c0-1.0635-.6054-1.1966-1.6546-1.1966H288.275c-1.6543,0-2.0828.3988-2.0828,2.23v1.3294c0,1.8313.4285,2.23,2.0828,2.23h3.5007c.8565,0,1.7133-.1331,1.7133-1.1671v-.31h-4.0767V90.3022h7.3558v3.0427c0,3.0725-1.5953,3.22-5.2881,3.22h-3.9435c-2.9542,0-4.7119-.7386-4.7119-3.87Z"/>
            <path class="cls-2" d="M298.7474,85.7532h9.8961c2.5257,0,3.2053,1.2553,3.2053,3.1755v.6794c0,1.4327-.325,2.2746-1.8316,2.6293v.0294c.9748.1773,1.7872.6055,1.7872,2.3631v1.8169h-3.2791v-1.285c0-1.1224-.3249-1.4917-1.344-1.4917h-5.1548v2.7767h-3.2791Zm3.2791,5.2581h5.4207c.8863,0,1.2112-.3544,1.2112-1.1224v-.3547c0-.9453-.4727-1.1224-1.5066-1.1224h-5.1253Z"/>
            <path class="cls-2" d="M318.8054,85.7531h4.269l5.8784,10.6938h-3.6482l-1.0193-1.8907h-6.6465l-.96,1.8907h-3.663Zm.0592,6.499h4.1947l-2.127-4.0177Z"/>
            <polygon class="cls-2" points="330.12 85.753 341.286 85.753 341.286 88.323 333.399 88.323 333.399 90.317 340.917 90.317 340.917 92.799 333.399 92.799 333.399 96.447 330.12 96.447 330.12 85.753"/>
            <path class="cls-2" d="M343.0292,89.5047c0-3.1312,1.7576-3.87,4.7116-3.87h5.2583c2.9542,0,4.7119.7385,4.7119,3.87v3.19c0,3.1314-1.7577,3.87-4.7119,3.87h-5.2583c-2.954,0-4.7116-.7385-4.7116-3.87Zm3.3676,2.1713c0,1.5509.3249,2.1418,1.8756,2.1418h4.1951c1.551,0,1.8759-.5909,1.8759-2.1418V90.5238c0-1.3294-.3249-2.1418-2.0534-2.1418h-3.84c-1.7281,0-2.053.8124-2.053,2.1418Z"/>
          </g>
        </g>
      </g>
    </g>
  </g>
</svg>
