<?xml version="1.0" encoding="utf-8"?>
<!-- Generator: Adobe Illustrator 20.1.0, SVG Export Plug-In . SVG Version: 6.00 Build 0)  -->
<svg version="1.1" id="Layer_1" xmlns="http://www.w3.org/2000/svg" xmlns:xlink="http://www.w3.org/1999/xlink" x="0px" y="0px"
	 viewBox="0 0 770.8 411.7" style="enable-background:new 0 0 770.8 411.7;" xml:space="preserve">
<style type="text/css">
	.st0{fill:#00FFFF;}
	.st1{fill:none;stroke:#000000;stroke-width:6;stroke-miterlimit:10;}
	.st2{fill:#00FFFF;stroke:#00FFFF;stroke-width:4;stroke-miterlimit:10;}
	.st3{enable-background:new    ;}
</style>
<g>
	<path class="st0" d="M350.1,196.4c0.4,12.2,4.3,21,11.6,26.5c7.3,5.5,16.4,8.2,27.2,8.2c11,0,20-2.7,26.7-8s10.2-11.9,10.2-19.5
		V184c0-12.8-6.8-19.2-20.5-19.2h-45.2v-33.3h42.8c7.1,0,12-1.7,14.8-5.2c2.8-3.4,4.1-7.9,4.1-13.4V95.6c0-8.3-3-14.5-9.1-18.5
		s-13.6-6-22.6-6c-10,0-18.2,2.2-24.5,6.7s-9.8,11.7-10.4,21.7h-40.6c0-9.6,1.8-18.2,5.5-25.9c3.6-7.7,8.8-14.2,15.4-19.5
		s14.6-9.4,23.8-12.3c9.3-2.9,19.5-4.3,30.8-4.3c11,0,21.2,1.4,30.4,4.1c9.2,2.8,17.1,6.7,23.6,11.8s11.5,11.3,15.1,18.5
		s5.3,15.2,5.3,24c0,12.8-2.6,23.4-7.9,31.9s-13.2,15.1-23.8,20c11.8,4.9,20.6,11.4,26.6,19.5c5.9,8.1,8.9,19.2,8.9,33.3
		c0,10-1.9,19-5.8,27s-9.3,14.7-16.3,20.2c-7,5.4-15.4,9.6-25.1,12.5s-20.3,4.4-31.9,4.4c-11.4,0-21.8-1.4-31.4-4.2
		c-9.6-2.8-18-7-25.2-12.7c-7.2-5.6-12.9-12.7-17-21.3c-4.1-8.5-6.1-18.6-6.1-30.2h40.6V196.4z"/>
	<path class="st0" d="M505.2,106.2c2.3-13.9,6.6-25.9,12.7-36c6.1-10.2,14.3-18.2,24.7-24s23.5-8.8,39.5-8.8s29.3,2.9,39.6,8.8
		c10.4,5.8,18.6,13.8,24.6,24s10.2,22.2,12.6,36s3.5,28.8,3.5,44.9s-1.2,31-3.5,44.9s-6.5,25.8-12.6,35.9c-6,10.1-14.2,18.1-24.6,24
		c-10.4,5.9-23.6,8.8-39.6,8.8s-29.2-2.9-39.5-8.8c-10.3-5.9-18.5-13.9-24.6-24c-6.1-10.1-10.3-22.1-12.7-36
		c-2.3-13.9-3.5-28.8-3.5-44.8C501.7,135,502.9,120,505.2,106.2z M582,231.1c24.8,0,37.2-12.6,37.2-37.8v-84.6
		c0-25.2-12.4-37.8-37.2-37.7c-24.8,0-37.1,12.6-37,37.7v84.6C544.9,218.5,557.2,231.1,582,231.1z"/>
</g>
<g>
	<path d="M698.9,55.8h3.5c0.9,0,1.6,0.2,2,0.7c0.5,0.5,0.7,1.1,0.7,2.1c0,0.9-0.3,1.6-0.7,2c-0.5,0.5-1.1,0.7-2,0.7h-1.9v3.1h-1.6
		V55.8z M702.5,59.9c0.3,0,0.5-0.1,0.6-0.2c0.1-0.1,0.2-0.3,0.2-0.7v-1c0-0.3-0.1-0.5-0.2-0.6c-0.1-0.1-0.3-0.2-0.6-0.2h-2v2.7
		H702.5L702.5,59.9z"/>
	<path d="M706.6,55.8h3.5c0.9,0,1.6,0.2,2,0.7c0.5,0.4,0.7,1.1,0.7,2c0,0.7-0.1,1.2-0.5,1.6c-0.3,0.4-0.8,0.7-1.3,0.9l2,3.4h-1.8
		l-1.8-3.3h-1.1v3.3h-1.6v-8.6C706.7,55.8,706.6,55.8,706.6,55.8z M710.3,59.7c0.5,0,0.7-0.3,0.7-0.9V58c0-0.3-0.1-0.5-0.2-0.6
		c-0.1-0.1-0.3-0.2-0.6-0.2h-2.1v2.6C708.1,59.7,710.3,59.7,710.3,59.7z"/>
	<path d="M715.2,56.7c0.7-0.7,1.6-1.1,2.8-1.1s2.2,0.4,2.8,1.1c0.7,0.7,1,1.9,1,3.4s-0.3,2.6-1,3.4c-0.7,0.7-1.6,1.1-2.8,1.1
		s-2.2-0.4-2.8-1.1c-0.6-0.7-1-1.9-1-3.4C714.2,58.6,714.6,57.5,715.2,56.7z M716.1,62.1c0.1,0.2,0.3,0.4,0.5,0.5s0.4,0.3,0.7,0.3
		c0.3,0.1,0.5,0.1,0.8,0.1s0.5-0.1,0.8-0.1c0.3-0.1,0.5-0.2,0.7-0.3s0.3-0.3,0.5-0.5c0.1-0.2,0.1-0.5,0.1-0.7v-2.6
		c0-0.3-0.1-0.5-0.1-0.7c-0.1-0.2-0.3-0.4-0.5-0.5s-0.4-0.3-0.7-0.3c-0.3-0.1-0.5-0.1-0.8-0.1s-0.5,0.1-0.8,0.1
		c-0.3,0.1-0.5,0.2-0.7,0.3s-0.3,0.3-0.5,0.5c-0.1,0.2-0.1,0.5-0.1,0.7v2.6C716,61.7,716.1,61.9,716.1,62.1z"/>
	<path d="M722.8,62.9h2.6v-7.2h1.6v8.6h-4.2L722.8,62.9L722.8,62.9z"/>
	<path d="M736.1,70.9h5.9v1.4h-4.2v2.1h3.7v1.4h-3.7v2.3h4.2v1.4h-5.9V70.9z"/>
	<path d="M743.7,73.4c0.1-0.5,0.4-1,0.7-1.4s0.7-0.7,1.1-0.9c0.5-0.2,1-0.3,1.6-0.3c0.4,0,0.8,0.1,1.2,0.2s0.7,0.3,1,0.5
		c0.3,0.3,0.5,0.5,0.7,0.9c0.1,0.3,0.3,0.7,0.3,1.1h-1.6c-0.1-0.5-0.2-0.8-0.5-1s-0.7-0.3-1.1-0.3c-0.3,0-0.5,0.1-0.7,0.1
		c-0.2,0.1-0.4,0.2-0.6,0.3c-0.1,0.1-0.3,0.3-0.4,0.5c-0.1,0.2-0.1,0.5-0.1,0.7v2.6c0,0.3,0.1,0.5,0.1,0.7c0.1,0.2,0.2,0.4,0.4,0.5
		c0.1,0.1,0.3,0.3,0.6,0.3c0.2,0.1,0.5,0.1,0.7,0.1c0.5,0,0.9-0.1,1.2-0.3c0.3-0.2,0.5-0.6,0.5-1.1h1.6c-0.1,0.5-0.2,0.9-0.4,1.3
		c-0.2,0.3-0.4,0.7-0.7,0.9c-0.3,0.2-0.6,0.4-1,0.5s-0.8,0.1-1.3,0.1c-0.6,0-1.1-0.1-1.6-0.3c-0.5-0.2-0.8-0.5-1.1-0.9
		s-0.5-0.9-0.7-1.4s-0.2-1.1-0.2-1.8C743.5,74.5,743.5,73.9,743.7,73.4z"/>
	<path d="M751.2,70.9h6.6v1.4h-2.5v7.2h-1.6v-7.2h-2.5V70.9L751.2,70.9z"/>
	<path d="M760.2,76.9c0.1,0.5,0.3,0.9,0.6,1.1s0.7,0.3,1.2,0.3s0.9-0.1,1.2-0.3c0.3-0.2,0.5-0.5,0.5-0.9c0-0.3-0.1-0.5-0.3-0.7
		s-0.5-0.3-0.9-0.4l-1.7-0.5c-0.7-0.2-1.2-0.5-1.5-0.9s-0.5-0.9-0.5-1.5c0-0.3,0.1-0.7,0.2-0.9c0.1-0.3,0.3-0.5,0.6-0.7
		s0.6-0.4,1-0.5s0.8-0.2,1.3-0.2c0.4,0,0.8,0.1,1.2,0.1c0.4,0.1,0.7,0.3,1,0.5s0.5,0.5,0.7,0.8s0.3,0.7,0.3,1.1h-1.6
		c0-0.2-0.1-0.4-0.2-0.6c-0.1-0.1-0.2-0.3-0.3-0.4s-0.3-0.1-0.5-0.2S762.2,72,762,72c-0.5,0-0.8,0.1-1.1,0.3
		c-0.3,0.2-0.4,0.4-0.4,0.7s0.1,0.6,0.3,0.7c0.2,0.2,0.5,0.3,0.9,0.4l1.5,0.4c0.7,0.2,1.3,0.5,1.7,0.9s0.5,0.9,0.5,1.6
		c0,0.4-0.1,0.7-0.3,1.1c-0.1,0.3-0.4,0.6-0.7,0.8c-0.3,0.2-0.7,0.4-1.1,0.5c-0.4,0.1-0.9,0.2-1.3,0.2s-0.9-0.1-1.3-0.1
		c-0.4-0.1-0.7-0.3-1.1-0.5c-0.3-0.2-0.5-0.5-0.7-0.9c-0.2-0.3-0.3-0.7-0.3-1.3L760.2,76.9L760.2,76.9z"/>
</g>
<path d="M-1621.9,533.4c1.4,13.6,6.5,23.7,15.3,30.3s19.9,9.7,33.3,9.7c6.6,0,12.7-0.8,18.5-2.3s10.6-3.7,14.7-6.7
	c4.1-2.9,7.3-6.5,9.6-10.7c2.4-4.2,3.6-9.1,3.6-14.5c0-5.1-0.7-9.4-2.1-12.9s-3.5-6.4-6.2-8.7s-6-4.2-9.8-5.7s-8.1-3-13-4.3
	l-35.8-9.8c-14.5-4.1-25-10-31.5-17.7s-9.6-18-9.6-30.9c0-6.7,1.4-13,4.1-18.8s6.6-10.9,11.8-15.1c5.1-4.2,11.4-7.5,18.7-9.9
	c7.3-2.4,15.9-3.9,25.2-3.9c8.5-0.1,16.5,1,23.8,3.2s13.6,5.5,19,10s9.8,10.1,13.1,16.7c3.3,6.6,5.5,14.3,6.4,22.9h-18.6
	c-0.5-6.6-2.1-12.2-4.6-16.8c-2.5-4.6-5.8-8.4-9.8-11.3c-4-2.8-8.5-4.9-13.6-6.2c-5.1-1.3-10.4-1.9-15.8-1.9
	c-12.5,0-22.5,2.6-30,7.8c-7.5,5.2-11.1,12.9-11.1,23c0,5.4,0.8,9.9,2.3,13.4s3.7,6.3,6.5,8.5s6.2,4,10.2,5.4s8.5,2.8,13.5,4.2
	l30,8.4c15.7,4.4,27.3,10.3,34.7,17.8c7.3,7.5,11,18,11,31.6c0,7.9-1.6,15.1-4.9,21.5c-3.2,6.4-7.7,11.8-13.3,16.2
	c-5.7,4.4-12.5,7.8-20.5,10.2s-16.6,3.6-25.8,3.6c-9.4,0-18-1.1-25.9-3.3s-14.6-5.7-20.4-10.4s-10.7-10.5-14.4-17.6
	c-3.7-7.1-6.1-15.5-7.1-25.4h18.5C-1621.9,533.1-1621.9,533.4-1621.9,533.4z"/>
<path d="M-1464.6,405.3h113.1v17.2h-94.6v62.8h82.4v17.3h-82.4v66.1h94.6v17.2h-113.1V405.3z"/>
<path d="M-1304.9,405.3h18.5v163.5h81.9V586h-100.4V405.3z"/>
<path d="M-1161.9,405.3h113.1v17.2h-94.6v62.8h82.4v17.3h-82.4v66.1h94.6v17.2h-113.1V405.3z"/>
<path d="M-1032.3,719c0,30.3-6.1,53.3-18.3,69.2c-12.2,15.9-30.2,23.7-53.4,23.7c-9.2,0-17.6-1.4-25.2-4.1
	c-7.7-2.7-14.2-6.7-19.8-11.5c-5.7-4.8-10.1-10.8-13.3-17.9c-3.3-7.1-5.2-14.9-6-23.2h18.7c1.4,13.7,6.2,23.8,14.6,30.2
	c8.4,6.2,19.6,9.4,33.5,9.4c6.7,0,12.8-1.3,18.6-3.8c5.8-2.6,10.9-6,15.3-10.5s7.8-9.8,10.3-16.2c2.6-6.2,3.8-13,3.8-20.3v-53.2
	c0-6.9-1.1-13.5-3.5-19.6c-2.4-6.2-5.7-11.5-10.1-16.2c-4.3-4.5-9.4-8.1-15.3-10.8c-6-2.7-12.5-4-19.7-4c-6,0-11.5,0.9-16.6,2.3
	c-5.1,1.6-9.8,3.8-13.7,6.7c-4,3-7.4,6.9-9.8,11.8c-2.6,5-4.3,10.6-5,17.2h-18.6c0.9-8.6,3-16.6,6.2-23.2
	c3.3-6.7,7.8-12.6,13.3-17.4s11.8-8.4,19-10.9c7.2-2.6,14.9-3.7,23.2-3.7c12.2,0,22.8,2.3,31.9,6.9c9.1,4.7,16.6,11.2,22.4,19.6
	c6,8.4,10.3,18.6,13.2,30.3C-1033.9,691.9-1032.3,704.9-1032.3,719z"/>
<path d="M-1184,644.3h-54V808h-18.6V644.3h-54v-17.2h126.7L-1184,644.3L-1184,644.3z"/>
<path d="M757.9,152.3v24.1H707v-24.1H757.9z"/>
<g>
	<path d="M-1128.9,359.8h-63.9v-99.2h63.9v14h-49.2v27.7h42.9v14h-42.9v29.4h49.2V359.8z"/>
</g>
<g>
	<path d="M-1069.5,359.8h-31.5v-99.2h31.5c14.2,0,24.8,4.2,31.6,12.4c6.7,8.2,10,20.4,10,37.3s-3.3,29-10,37.2
		C-1044.7,355.6-1055.3,359.8-1069.5,359.8z M-1086.3,345.9h16.4c8.4,0,14.9-1.9,19.3-5.8c4.5-3.9,6.6-9.1,6.6-16v-27.7
		c0-7-2.1-12.2-6.5-16c-4.5-3.8-11-5.8-19.2-5.8h-16.7L-1086.3,345.9L-1086.3,345.9z"/>
</g>
<g>
	<path d="M708.3,31.6l12.3-11.9c0.9-0.9,1.6-1.8,2.2-2.6c0.5-0.9,0.8-1.8,0.8-2.8c0-1.3-0.4-2.4-1.2-3.1c-0.8-0.7-1.9-1.1-3.2-1.1
		c-1.5,0-2.8,0.4-3.6,1.3c-0.9,0.9-1.3,2.1-1.3,3.6h-5.7c0-1.5,0.3-2.8,0.8-4s1.3-2.2,2.3-3c0.9-0.8,2.1-1.5,3.4-2
		c1.3-0.5,2.8-0.7,4.3-0.7s3,0.2,4.2,0.7c1.2,0.4,2.3,1,3.2,1.8s1.5,1.8,2,2.8c0.5,1.1,0.7,2.3,0.7,3.6c0,0.9-0.1,1.8-0.4,2.6
		c-0.3,0.8-0.6,1.6-1,2.4c-0.4,0.7-0.9,1.4-1.4,2s-1.1,1.2-1.6,1.8l-9.3,8.7v0.1h14.1v4.7h-21.3v-4.8h-0.3V31.6z"/>
	<path d="M735.2,15.1c0.4-2,1.1-3.8,2-5.3s2.1-2.6,3.6-3.4s3.2-1.2,5.4-1.2c3.1,0,5.5,0.7,7.3,2.2c1.8,1.4,2.8,3.4,3,6.1h-5.7
		c-0.1-1.3-0.6-2.2-1.5-2.7c-0.8-0.5-1.9-0.8-3.2-0.8c-1.7,0-3,0.5-4,1.7c-0.9,1.1-1.4,2.6-1.4,4.4v3.3c0.7-0.9,1.6-1.7,2.7-2.2
		s2.4-0.7,3.9-0.7s2.8,0.3,4,0.7c1.2,0.5,2.3,1.1,3.2,2s1.5,1.9,2,3.2c0.5,1.2,0.7,2.6,0.7,4s-0.2,2.8-0.7,4
		c-0.5,1.3-1.1,2.4-2.1,3.4c-0.9,1-2.1,1.8-3.5,2.4c-1.4,0.6-3,0.9-5,0.9c-4,0-6.9-1.3-8.7-3.8s-2.7-6.3-2.7-11.5
		C734.6,19.3,734.8,17.1,735.2,15.1z M742,31c0.9,0.9,2.2,1.3,4,1.3c1.7,0,3-0.4,3.8-1.3c0.9-0.9,1.3-2,1.3-3.4V25
		c0-1.4-0.5-2.4-1.3-3.1c-0.9-0.7-2.2-1-3.8-1s-3,0.3-4,1c-0.9,0.7-1.4,1.8-1.4,3.1v2.6C740.6,29.1,741.1,30.2,742,31z"/>
	<path d="M715.3,80.3l29.8-29.8l3.2,3.2l-29.8,29.8L715.3,80.3z"/>
	<path d="M713.4,117.9c0.1,1.7,0.6,3,1.6,3.7s2.3,1.1,3.8,1.1s2.8-0.4,3.7-1.1s1.4-1.7,1.4-2.7v-2.8c0-1.8-0.9-2.7-2.8-2.7h-6.3
		v-4.6h6c1,0,1.7-0.3,2.1-0.7s0.6-1.1,0.6-1.9v-2.4c0-1.1-0.4-2-1.3-2.6c-0.9-0.5-1.9-0.8-3.2-0.8c-1.4,0-2.6,0.3-3.4,0.9
		c-0.9,0.6-1.3,1.6-1.5,3h-5.7c0-1.3,0.3-2.6,0.7-3.6c0.5-1.1,1.2-2,2.2-2.8c0.9-0.7,2-1.3,3.3-1.7c1.3-0.4,2.8-0.6,4.3-0.6
		s3,0.2,4.2,0.6c1.3,0.4,2.4,0.9,3.3,1.6c0.9,0.7,1.6,1.5,2.1,2.6c0.5,1,0.7,2.2,0.7,3.4c0,1.8-0.3,3.3-1.1,4.4
		c-0.7,1.2-1.8,2.1-3.3,2.8c1.6,0.7,2.9,1.6,3.7,2.8c0.8,1.1,1.2,2.7,1.2,4.6c0,1.4-0.3,2.6-0.8,3.8c-0.5,1.1-1.3,2.1-2.3,2.8
		c-1,0.7-2.2,1.3-3.5,1.8c-1.3,0.4-2.8,0.6-4.4,0.6c-1.6,0-3-0.2-4.4-0.6c-1.3-0.4-2.5-1-3.5-1.8c-1-0.7-1.8-1.8-2.4-3
		c-0.5-1.2-0.9-2.6-0.9-4.2L713.4,117.9L713.4,117.9z"/>
	<path d="M735,105.3c0.3-2,0.9-3.6,1.8-5c0.9-1.4,2-2.6,3.4-3.4s3.3-1.2,5.5-1.2s4.1,0.4,5.5,1.2c1.5,0.8,2.6,2,3.4,3.4
		c0.9,1.4,1.4,3.1,1.8,5c0.3,2,0.5,4,0.5,6.3s-0.1,4.3-0.5,6.3c-0.3,2-0.9,3.6-1.8,5c-0.9,1.4-2,2.6-3.4,3.4
		c-1.5,0.8-3.3,1.2-5.5,1.2s-4.1-0.4-5.5-1.2c-1.4-0.8-2.6-2-3.4-3.4s-1.4-3.1-1.8-5c-0.3-2-0.5-4-0.5-6.3
		C734.6,109.3,734.7,107.2,735,105.3z M745.7,122.7c3.4,0,5.2-1.8,5.2-5.3v-11.8c0-3.5-1.8-5.3-5.2-5.3s-5.2,1.8-5.2,5.3v11.8
		C740.6,121,742.3,122.7,745.7,122.7z"/>
</g>
<g>
	<path d="M-1154.9,80.5h3.5c0.9,0,1.6,0.2,2,0.7c0.5,0.5,0.7,1.1,0.7,2.1c0,0.9-0.3,1.6-0.7,2c-0.5,0.5-1.1,0.7-2,0.7h-1.9v3.1h-1.6
		V80.5z M-1151.3,84.6c0.3,0,0.5-0.1,0.6-0.2s0.2-0.3,0.2-0.7v-1c0-0.3-0.1-0.5-0.2-0.6s-0.3-0.2-0.6-0.2h-2v2.7L-1151.3,84.6
		L-1151.3,84.6z"/>
	<path d="M-1147.2,80.5h3.5c0.9,0,1.6,0.2,2,0.7c0.5,0.4,0.7,1.1,0.7,2c0,0.7-0.1,1.2-0.5,1.6c-0.3,0.4-0.8,0.7-1.3,0.9l2,3.4h-1.8
		l-1.8-3.3h-1.1v3.3h-1.6L-1147.2,80.5L-1147.2,80.5z M-1143.5,84.4c0.5,0,0.7-0.3,0.7-0.9v-0.8c0-0.3-0.1-0.5-0.2-0.6
		s-0.3-0.2-0.6-0.2h-2.1v2.6C-1145.7,84.4-1143.5,84.4-1143.5,84.4z"/>
	<path d="M-1138.6,81.4c0.7-0.7,1.6-1.1,2.8-1.1s2.2,0.4,2.8,1.1c0.7,0.7,1,1.9,1,3.4s-0.3,2.6-1,3.4c-0.7,0.7-1.6,1.1-2.8,1.1
		s-2.2-0.4-2.8-1.1s-1-1.9-1-3.4S-1139.2,82.2-1138.6,81.4z M-1137.7,86.8c0.1,0.2,0.3,0.4,0.5,0.5s0.4,0.3,0.7,0.3
		c0.3,0.1,0.5,0.1,0.8,0.1s0.5-0.1,0.8-0.1c0.3-0.1,0.5-0.2,0.7-0.3c0.2-0.1,0.3-0.3,0.5-0.5c0.1-0.2,0.1-0.5,0.1-0.7v-2.6
		c0-0.3-0.1-0.5-0.1-0.7c-0.1-0.2-0.3-0.4-0.5-0.5s-0.4-0.3-0.7-0.3c-0.3-0.1-0.5-0.1-0.8-0.1s-0.5,0.1-0.8,0.1
		c-0.3,0.1-0.5,0.2-0.7,0.3c-0.2,0.1-0.3,0.3-0.5,0.5c-0.1,0.2-0.1,0.5-0.1,0.7v2.6C-1137.8,86.4-1137.7,86.6-1137.7,86.8z"/>
	<path d="M-1131,87.6h2.6v-7.2h1.6V89h-4.2V87.6L-1131,87.6z"/>
	<path d="M-1117.7,95.6h5.9V97h-4.2v2.1h3.7v1.4h-3.7v2.3h4.2v1.4h-5.9V95.6z"/>
	<path d="M-1110.1,98.1c0.1-0.5,0.4-1,0.7-1.4s0.7-0.7,1.1-0.9c0.5-0.2,1-0.3,1.6-0.3c0.4,0,0.8,0.1,1.2,0.2c0.4,0.1,0.7,0.3,1,0.5
		c0.3,0.3,0.5,0.5,0.7,0.9c0.1,0.3,0.3,0.7,0.3,1.1h-1.6c-0.1-0.5-0.2-0.8-0.5-1s-0.7-0.3-1.1-0.3c-0.3,0-0.5,0.1-0.7,0.1
		c-0.2,0.1-0.4,0.2-0.6,0.3c-0.1,0.1-0.3,0.3-0.4,0.5s-0.1,0.5-0.1,0.7v2.6c0,0.3,0.1,0.5,0.1,0.7c0.1,0.2,0.2,0.4,0.4,0.5
		c0.1,0.1,0.3,0.3,0.6,0.3c0.2,0.1,0.5,0.1,0.7,0.1c0.5,0,0.9-0.1,1.2-0.3c0.3-0.2,0.5-0.6,0.5-1.1h1.6c-0.1,0.5-0.2,0.9-0.4,1.3
		c-0.2,0.3-0.4,0.7-0.7,0.9c-0.3,0.2-0.6,0.4-1,0.5s-0.8,0.1-1.3,0.1c-0.6,0-1.1-0.1-1.6-0.3c-0.5-0.2-0.8-0.5-1.1-0.9
		c-0.3-0.4-0.5-0.9-0.7-1.4s-0.2-1.1-0.2-1.8C-1110.3,99.2-1110.3,98.6-1110.1,98.1z"/>
	<path d="M-1102.6,95.6h6.6V97h-2.5v7.2h-1.6V97h-2.5V95.6L-1102.6,95.6z"/>
	<path d="M-1093.6,101.6c0.1,0.5,0.3,0.9,0.6,1.1c0.3,0.2,0.7,0.3,1.2,0.3s0.9-0.1,1.2-0.3c0.3-0.2,0.5-0.5,0.5-0.9
		c0-0.3-0.1-0.5-0.3-0.7c-0.2-0.2-0.5-0.3-0.9-0.4l-1.7-0.5c-0.7-0.2-1.2-0.5-1.5-0.9s-0.5-0.9-0.5-1.5c0-0.3,0.1-0.7,0.2-0.9
		c0.1-0.3,0.3-0.5,0.6-0.7c0.3-0.2,0.6-0.4,1-0.5s0.8-0.2,1.3-0.2c0.4,0,0.8,0.1,1.2,0.1c0.4,0.1,0.7,0.3,1,0.5s0.5,0.5,0.7,0.8
		s0.3,0.7,0.3,1.1h-1.6c0-0.2-0.1-0.4-0.2-0.6c-0.1-0.1-0.2-0.3-0.3-0.4c-0.1-0.1-0.3-0.1-0.5-0.2s-0.3-0.1-0.5-0.1
		c-0.5,0-0.8,0.1-1.1,0.3c-0.3,0.2-0.4,0.4-0.4,0.7c0,0.3,0.1,0.6,0.3,0.7c0.2,0.2,0.5,0.3,0.9,0.4l1.5,0.4c0.7,0.2,1.3,0.5,1.7,0.9
		c0.4,0.4,0.5,0.9,0.5,1.6c0,0.4-0.1,0.7-0.3,1.1c-0.1,0.3-0.4,0.6-0.7,0.8c-0.3,0.2-0.7,0.4-1.1,0.5s-0.9,0.2-1.3,0.2
		s-0.9-0.1-1.3-0.1c-0.4-0.1-0.7-0.3-1.1-0.5c-0.3-0.2-0.5-0.5-0.7-0.9c-0.2-0.3-0.3-0.7-0.3-1.3L-1093.6,101.6L-1093.6,101.6z"/>
</g>
<g>
	<path d="M-1145.5,56.3l12.3-11.9c0.9-0.9,1.6-1.8,2.2-2.6c0.5-0.9,0.8-1.8,0.8-2.8c0-1.3-0.4-2.4-1.2-3.1c-0.8-0.7-1.9-1.1-3.2-1.1
		c-1.5,0-2.8,0.4-3.6,1.3c-0.9,0.9-1.3,2.1-1.3,3.6h-5.7c0-1.5,0.3-2.8,0.8-4s1.3-2.2,2.3-3c0.9-0.8,2.1-1.5,3.4-2s2.8-0.7,4.3-0.7
		s3,0.2,4.2,0.7c1.2,0.4,2.3,1,3.2,1.8s1.5,1.8,2,2.8c0.5,1.1,0.7,2.3,0.7,3.6c0,0.9-0.1,1.8-0.4,2.6s-0.6,1.6-1,2.4
		c-0.4,0.7-0.9,1.4-1.4,2s-1.1,1.2-1.6,1.8l-9.3,8.7v0.1h14.1v4.7h-21.3v-4.8h-0.3V56.3z"/>
	<path d="M-1118.6,39.8c0.4-2,1.1-3.8,2-5.3s2.1-2.6,3.6-3.4s3.2-1.2,5.4-1.2c3.1,0,5.5,0.7,7.3,2.2c1.8,1.4,2.8,3.4,3,6.1h-5.7
		c-0.1-1.3-0.6-2.2-1.5-2.7c-0.8-0.5-1.9-0.8-3.2-0.8c-1.7,0-3,0.5-4,1.7c-0.9,1.1-1.4,2.6-1.4,4.4v3.3c0.7-0.9,1.6-1.7,2.7-2.2
		s2.4-0.7,3.9-0.7s2.8,0.3,4,0.7c1.2,0.5,2.3,1.1,3.2,2s1.5,1.9,2,3.2c0.5,1.2,0.7,2.6,0.7,4s-0.2,2.8-0.7,4
		c-0.5,1.3-1.1,2.4-2.1,3.4c-0.9,1-2.1,1.8-3.5,2.4c-1.4,0.6-3,0.9-5,0.9c-4,0-6.9-1.3-8.7-3.8c-1.8-2.5-2.7-6.3-2.7-11.5
		C-1119.2,44-1119,41.8-1118.6,39.8z M-1111.8,55.7c0.9,0.9,2.2,1.3,4,1.3c1.7,0,3-0.4,3.8-1.3c0.9-0.9,1.3-2,1.3-3.4v-2.6
		c0-1.4-0.5-2.4-1.3-3.1c-0.9-0.7-2.2-1-3.8-1s-3,0.3-4,1c-0.9,0.7-1.4,1.8-1.4,3.1v2.6C-1113.2,53.8-1112.7,54.9-1111.8,55.7z"/>
	<path d="M-1138.5,105l29.8-29.8l3.2,3.2l-29.8,29.8L-1138.5,105z"/>
	<path d="M-1140.4,142.6c0.1,1.7,0.6,3,1.6,3.7s2.3,1.1,3.8,1.1s2.8-0.4,3.7-1.1s1.4-1.7,1.4-2.7v-2.8c0-1.8-0.9-2.7-2.8-2.7h-6.3
		v-4.6h6c1,0,1.7-0.3,2.1-0.7s0.6-1.1,0.6-1.9v-2.4c0-1.1-0.4-2-1.3-2.6c-0.9-0.5-1.9-0.8-3.2-0.8c-1.4,0-2.6,0.3-3.4,0.9
		c-0.9,0.6-1.3,1.6-1.5,3h-5.7c0-1.3,0.3-2.6,0.7-3.6c0.5-1.1,1.2-2,2.2-2.8c0.9-0.7,2-1.3,3.3-1.7c1.3-0.4,2.8-0.6,4.3-0.6
		s3,0.2,4.2,0.6c1.3,0.4,2.4,0.9,3.3,1.6s1.6,1.5,2.1,2.6c0.5,1,0.7,2.2,0.7,3.4c0,1.8-0.3,3.3-1.1,4.4c-0.7,1.2-1.8,2.1-3.3,2.8
		c1.6,0.7,2.9,1.6,3.7,2.8c0.8,1.1,1.2,2.7,1.2,4.6c0,1.4-0.3,2.6-0.8,3.8c-0.5,1.1-1.3,2.1-2.3,2.8s-2.2,1.3-3.5,1.8
		c-1.3,0.4-2.8,0.6-4.4,0.6s-3-0.2-4.4-0.6c-1.3-0.4-2.5-1-3.5-1.8c-1-0.7-1.8-1.8-2.4-3c-0.5-1.2-0.9-2.6-0.9-4.2L-1140.4,142.6
		L-1140.4,142.6z"/>
	<path d="M-1118.8,130c0.3-2,0.9-3.6,1.8-5s2-2.6,3.4-3.4s3.3-1.2,5.5-1.2s4.1,0.4,5.5,1.2c1.5,0.8,2.6,2,3.4,3.4
		c0.9,1.4,1.4,3.1,1.8,5c0.3,2,0.5,4,0.5,6.3s-0.1,4.3-0.5,6.3c-0.3,2-0.9,3.6-1.8,5s-2,2.6-3.4,3.4c-1.5,0.8-3.3,1.2-5.5,1.2
		s-4.1-0.4-5.5-1.2s-2.6-2-3.4-3.4s-1.4-3.1-1.8-5c-0.3-2-0.5-4-0.5-6.3C-1119.2,134-1119.1,131.9-1118.8,130z M-1108.1,147.4
		c3.4,0,5.2-1.8,5.2-5.3v-11.8c0-3.5-1.8-5.3-5.2-5.3c-3.4,0-5.2,1.8-5.2,5.3v11.8C-1113.2,145.7-1111.5,147.4-1108.1,147.4z"/>
</g>
<rect x="-1171.8" y="11.5" class="st1" width="98" height="159.4"/>
<path class="st2" d="M-1556.9,629.1h87.5v13.3h-73.1v48.5h63.7v13.3h-63.7v51.1h73.1v13.3h-87.5V629.1L-1556.9,629.1z"/>
<path class="st2" d="M-1433,629.1h43.1c20,0,34.6,5.7,43.9,16.9s14,28.9,14,53c0,23.9-4.7,41.5-14,52.9
	c-9.3,11.2-23.9,16.9-43.9,16.9h-43.1V629.1z M-1390.4,755.4c13.3,0,23.7-3.2,31-9.5c7.4-6.3,11-15.2,11-26.5v-40.9
	c0-11.4-3.7-20.2-11-26.5s-17.7-9.5-30.9-9.5h-28.4v113L-1390.4,755.4L-1390.4,755.4z"/>
<path d="M286.5,44.3c0.1,3.6,1.4,6.3,3.8,8c2.4,1.8,5.3,2.7,8.6,2.7c3.2,0,5.9-0.7,8.3-2.1c2.3-1.4,3.5-3.5,3.5-6.1
	c0-2.2-0.7-3.9-2.1-5.2s-3.9-2.3-7.5-3l-8.9-1.8c-4.4-0.9-7.9-2.6-10.2-5.1c-2.4-2.5-3.6-5.9-3.6-10.1c0-2.1,0.5-4.1,1.4-6
	c0.9-1.9,2.3-3.5,4.1-4.9s3.9-2.5,6.2-3.3c2.4-0.8,5.1-1.2,8-1.2c2.5,0,5,0.3,7.5,1c2.4,0.7,4.6,1.7,6.5,3.1s3.4,3.2,4.6,5.4
	s1.8,4.8,1.8,7.8H309c-0.1-3.6-1.2-6.1-3.3-7.6c-2.1-1.5-4.6-2.2-7.5-2.2c-3,0-5.5,0.7-7.5,2.1s-3.1,3.2-3.1,5.5
	c0,2.1,0.6,3.7,1.8,4.9c1.2,1.2,3.1,2,5.8,2.6l9.1,1.9c5.4,1.1,9.3,3,11.9,5.5s3.9,6,3.9,10.3c0,2.3-0.5,4.4-1.5,6.3s-2.5,3.6-4.4,5
	s-4.2,2.5-6.8,3.4c-2.6,0.9-5.5,1.3-8.7,1.3c-3,0-5.9-0.4-8.5-1.2s-4.9-1.9-6.9-3.5c-2-1.5-3.5-3.4-4.7-5.7c-1.1-2.3-1.7-4.9-1.8-8
	h9.7V44.3z"/>
<path d="M332.9,23c1-3.5,2.5-6.5,4.5-8.9c2-2.5,4.4-4.4,7.3-5.8s6.1-2.1,9.9-2.1c3.9,0,7.3,0.7,10.2,2s5.3,3.2,7.2,5.5
	c1.9,2.3,3.3,5,4.3,8.2s1.4,6.5,1.4,10.1v5h-36.3v5.7c0,2,0.4,3.7,1.1,5.2s1.7,2.8,3,3.8s2.7,1.8,4.3,2.4c1.6,0.5,3.2,0.8,4.9,0.8
	c3.4,0,6.3-0.9,8.8-2.6s3.9-4.5,4.2-8.2h9.5c-0.2,2.9-1,5.5-2.3,7.7c-1.3,2.3-3,4.2-5.1,5.8s-4.4,2.8-7,3.7s-5.4,1.3-8.3,1.3
	c-3.9,0-7.3-0.7-10.2-2.1c-2.9-1.4-5.3-3.4-7.3-5.8c-1.9-2.5-3.4-5.4-4.3-8.9c-0.9-3.4-1.4-7.2-1.4-11.4
	C331.4,30.3,331.9,26.5,332.9,23z M367.8,29.4v-3c0-2-0.4-3.7-1.1-5.3s-1.7-2.9-2.9-4c-1.2-1.1-2.6-1.9-4.2-2.5s-3.3-0.9-5-0.9
	c-1.8,0-3.4,0.3-5,0.9s-3,1.4-4.2,2.5s-2.2,2.4-2.9,4s-1.1,3.4-1.1,5.3v3C341.4,29.4,367.8,29.4,367.8,29.4z"/>
<path d="M397.3,51.4h145.3v7.7H397.3V51.4z"/>
<g>
	<path d="M669.3,104.5h9.2v71.9h-9.2L669.3,104.5L669.3,104.5z"/>
	<path d="M656.6,149.5c0,4.2-0.5,8-1.4,11.4c-0.9,3.5-2.4,6.4-4.3,8.9c-2,2.4-4.4,4.4-7.3,5.8c-2.9,1.4-6.3,2.1-10.2,2.1
		c-2.9,0-5.7-0.4-8.3-1.3c-2.6-0.9-4.9-2.1-7-3.7c-2.1-1.6-3.8-3.5-5.1-5.8c-1.3-2.2-2.1-4.8-2.3-7.7h9.5c0.3,3.7,1.7,6.5,4.2,8.2
		c2.5,1.7,5.4,2.6,8.8,2.6c1.7,0,3.3-0.3,4.9-0.8c1.6-0.6,3-1.4,4.3-2.4s2.3-2.3,3-3.8s1.1-3.2,1.1-5.2v-5.7h-36.3V147
		c0-3.6,0.4-6.9,1.4-10.1s2.4-5.9,4.3-8.2c1.9-2.3,4.3-4.2,7.2-5.5s6.3-2,10.2-2c3.8,0,7,0.7,9.9,2.1c2.9,1.4,5.3,3.3,7.3,5.8
		c2,2.4,3.5,5.4,4.5,8.9S656.6,145.3,656.6,149.5z M646.5,144.5v-3c0-1.9-0.4-3.7-1.1-5.3c-0.7-1.6-1.7-2.9-2.9-4s-2.6-1.9-4.2-2.5
		c-1.6-0.6-3.3-0.9-5-0.9s-3.4,0.3-5,0.9c-1.6,0.6-3,1.4-4.2,2.5c-1.2,1.1-2.2,2.4-2.9,4s-1.1,3.3-1.1,5.3v3H646.5z"/>
	<path d="M598.7,149.7c0,4-0.5,7.8-1.4,11.1s-2.3,6.3-4.2,8.8c-1.9,2.5-4.3,4.4-7.1,5.8c-2.8,1.4-6.2,2.1-10.2,2.1
		c-2.8,0-5.4-0.4-7.9-1.2s-4.7-2-6.7-3.6s-3.7-3.6-5-6c-1.3-2.4-2.2-5.3-2.5-8.6h9.5c0.3,4.1,1.6,7,4,8.9c2.4,1.9,5.3,2.8,8.8,2.8
		c1.8,0,3.4-0.3,4.9-0.9s2.8-1.4,4-2.5c1.2-1.1,2.1-2.4,2.8-4c0.7-1.6,1-3.3,1-5.2v-15.8c0-2.1-0.4-3.9-1.1-5.5
		c-0.7-1.6-1.7-2.9-2.9-4c-1.2-1.1-2.5-1.9-4-2.4c-1.4-0.5-3-0.8-4.6-0.8c-1.6,0-3.1,0.1-4.5,0.5c-1.5,0.4-2.7,1-3.9,1.9
		c-1.2,0.9-2.1,2-2.8,3.5c-0.7,1.4-1.2,3.2-1.4,5.4H554c0.3-3.3,1-6.1,2.2-8.5c1.2-2.4,2.7-4.4,4.6-5.9s4.1-2.7,6.6-3.4
		s5.2-1.1,8-1.1c3.6,0,6.9,0.7,9.8,2.1c2.9,1.4,5.3,3.3,7.3,5.8c2,2.4,3.5,5.4,4.5,9C598.1,141.6,598.6,145.5,598.7,149.7z"/>
	<path d="M544.6,122.5l0,8.1h-9.1v45.8h-21.8v-8.2h12.4v-37.6h-12.4v-8.1h12.4l0-18h9.4l0,18H544.6L544.6,122.5z"/>
	<path d="M503.5,149.5c0,4.2-0.5,8-1.4,11.4c-0.9,3.5-2.4,6.4-4.3,8.9c-2,2.4-4.4,4.4-7.3,5.8c-2.9,1.4-6.3,2.1-10.2,2.1
		c-2.9,0-5.7-0.4-8.3-1.3s-4.9-2.1-7-3.7s-3.8-3.5-5.1-5.8c-1.3-2.2-2.1-4.8-2.3-7.7h9.5c0.3,3.7,1.7,6.5,4.2,8.2
		c2.5,1.7,5.4,2.6,8.8,2.6c1.7,0,3.3-0.3,4.9-0.8c1.6-0.6,3-1.4,4.3-2.4s2.3-2.3,3-3.8c0.7-1.5,1.1-3.2,1.1-5.2v-5.7h-36.3V147
		c0-3.6,0.4-6.9,1.4-10.1s2.4-5.9,4.3-8.2s4.3-4.2,7.2-5.5s6.3-2,10.2-2c3.8,0,7,0.7,9.9,2.1s5.3,3.3,7.3,5.8c2,2.4,3.5,5.4,4.5,8.9
		S503.4,145.3,503.5,149.5z M493.4,144.5v-3c0-1.9-0.4-3.7-1.1-5.3s-1.7-2.9-2.9-4s-2.6-1.9-4.2-2.5s-3.3-0.9-5-0.9s-3.4,0.3-5,0.9
		c-1.6,0.6-3,1.4-4.2,2.5s-2.2,2.4-2.9,4s-1.1,3.3-1.1,5.3v3H493.4z"/>
	<path d="M445.4,149.5c0,3.9-0.4,7.6-1.3,11c-0.9,3.5-2.2,6.5-4,9s-4,4.5-6.7,6s-5.9,2.2-9.5,2.2c-4,0-7.3-0.8-10.2-2.6
		s-5.1-4.3-6.8-7.5v8.8h-9.6v-71.9h9.5v26.8c1.7-3.3,4-5.8,6.9-7.5c2.9-1.7,6.4-2.6,10.4-2.6c3.6,0,6.7,0.7,9.4,2.2s4.9,3.5,6.7,6
		c1.7,2.6,3,5.5,3.9,9C445,141.9,445.4,145.5,445.4,149.5z M435.5,157.8v-16.7c0-1.8-0.4-3.5-1.1-5s-1.7-2.8-2.9-3.9
		c-1.3-1.1-2.8-1.9-4.4-2.5s-3.4-0.9-5.4-0.9c-4.8,0-8.5,1.6-11,4.6s-3.8,6.9-3.8,11.5v9.1c0,4.6,1.3,8.5,3.8,11.5
		c2.6,3,6.2,4.5,11,4.5c2,0,3.8-0.3,5.5-0.9c1.6-0.6,3.1-1.5,4.3-2.5s2.2-2.3,2.9-3.8S435.4,159.6,435.5,157.8z"/>
</g>
<g>
	<path d="M7.1,190.2h27.1v14.9c3.5-5.5,7.8-9.8,13.2-12.9c5.3-3.1,11.7-4.7,19.1-4.7c7.3,0,13.7,1.5,19.2,4.5s10,7.1,13.6,12.3
		s6.3,11.3,8,18.4c1.7,7.1,2.6,14.6,2.6,22.6c0,8.1-0.9,15.6-2.6,22.6s-4.4,13.1-8,18.3s-8.1,9.3-13.6,12.4
		c-5.5,3-11.9,4.5-19.2,4.5s-13.7-1.6-19-4.7s-9.8-7.4-13.2-12.9v51.7H7.1V190.2z M40.1,274.4c3.9,5.2,10.3,7.8,18.9,7.8
		c7,0,12.6-1.9,16.7-5.8c4.1-3.8,6.1-9,6.1-15.5v-31.2c0-6.5-2-11.6-6-15.4c-4-3.8-9.6-5.7-16.7-5.7c-8.7,0-15,2.6-18.9,7.8
		s-5.9,12.1-5.9,20.8v16.5C34.2,262.3,36.2,269.2,40.1,274.4z"/>
	<path d="M137.8,190.2h61.6v21.1h-34.6v89.2h-27.1V190.2H137.8z"/>
	<path d="M219.3,221.7c2.3-7.1,5.7-13.2,10.1-18.3c4.4-5.1,9.8-9,16.2-11.8s13.7-4.1,22-4.1c8.2,0,15.6,1.4,22,4.1
		s11.8,6.7,16.2,11.8c4.4,5.1,7.8,11.2,10,18.3c2.3,7.1,3.4,15,3.4,23.6c0,8.7-1.1,16.5-3.4,23.6c-2.3,7-5.6,13.1-10,18.3
		c-4.4,5.1-9.8,9.1-16.2,11.8s-13.7,4.1-22,4.1c-8.2,0-15.6-1.4-22-4.1s-11.8-6.7-16.2-11.8c-4.4-5.1-7.8-11.2-10.1-18.3
		c-2.3-7-3.5-14.9-3.5-23.6C215.9,236.7,217,228.8,219.3,221.7z M250.8,276.7c4.5,3.6,10.1,5.4,16.9,5.4s12.4-1.8,16.9-5.3
		s6.7-8.7,6.7-15.5v-32c0-6.8-2.2-11.9-6.7-15.4s-10.1-5.3-16.9-5.3s-12.4,1.8-16.9,5.4c-4.5,3.6-6.7,8.7-6.7,15.3v32
		C244.1,268,246.3,273.1,250.8,276.7z"/>
	<path d="M349.6,366.4V190.2h27.1v197.2h-56.9v-20.9h29.8V366.4z M349.2,153.3h27.9v24.1h-27.9V153.3z"/>
</g>
<g>
	<g>
		<path d="M592.2,358.6c0,4.2-0.5,8-1.4,11.4s-2.4,6.4-4.3,8.9c-1.9,2.5-4.4,4.4-7.3,5.8s-6.3,2.1-10.2,2.1c-2.9,0-5.6-0.4-8.3-1.3
			c-2.6-0.9-5-2.1-7-3.7c-2.1-1.6-3.8-3.5-5.1-5.8s-2.1-4.8-2.3-7.7h9.5c0.3,3.7,1.8,6.5,4.2,8.2c2.5,1.7,5.4,2.6,8.8,2.6
			c1.7,0,3.3-0.3,4.9-0.8s3-1.3,4.3-2.4s2.3-2.3,3-3.8s1.1-3.3,1.1-5.2v-5.7H546v-5.1c0-3.6,0.5-7,1.4-10.1c1-3.1,2.4-5.9,4.3-8.2
			s4.3-4.2,7.2-5.5s6.3-2,10.2-2c3.7,0,7,0.7,9.9,2.1s5.3,3.3,7.3,5.8s3.5,5.4,4.5,8.9S592.2,354.5,592.2,358.6z M582.2,353.7v-3
			c0-2-0.4-3.7-1.1-5.3s-1.7-2.9-2.9-4s-2.6-1.9-4.2-2.5s-3.2-0.9-5-0.9s-3.4,0.3-5,0.9s-3,1.4-4.2,2.5s-2.2,2.4-2.9,4
			s-1.1,3.4-1.1,5.3v3H582.2z"/>
		<path d="M534.2,359c0,4-0.5,7.7-1.4,11.1s-2.3,6.3-4.2,8.8s-4.3,4.5-7.1,5.8c-2.8,1.4-6.2,2.1-10.2,2.1c-2.8,0-5.4-0.4-7.9-1.2
			c-2.5-0.8-4.7-2-6.7-3.6s-3.6-3.6-5-6c-1.3-2.4-2.2-5.3-2.5-8.6h9.5c0.3,4,1.7,7,4,8.9s5.3,2.8,8.8,2.8c1.8,0,3.4-0.3,4.9-0.9
			s2.9-1.4,4-2.5s2.1-2.4,2.8-4s1-3.3,1-5.2v-15.8c0-2.1-0.4-3.9-1.1-5.5s-1.7-2.9-2.9-4s-2.5-1.9-4-2.4s-3-0.8-4.6-0.8
			c-1.5,0-3,0.2-4.5,0.5c-1.4,0.4-2.7,1-3.9,1.9s-2.1,2-2.8,3.5c-0.7,1.5-1.2,3.3-1.4,5.4h-9.5c0.3-3.3,1-6.1,2.2-8.5
			s2.8-4.4,4.6-5.9c1.9-1.5,4.1-2.7,6.6-3.4c2.5-0.7,5.2-1.1,8-1.1c3.6,0,6.9,0.7,9.8,2.1c2.9,1.4,5.3,3.3,7.3,5.8s3.5,5.5,4.5,9
			S534.2,354.7,534.2,359z"/>
		<path d="M480.3,339.8h-9.1v45.8h-21.8v-8.2h12.4v-37.6h-12.4v-8.1h12.4v-18h9.4v18h9.1V339.8z"/>
		<path d="M439.8,368.5c-0.1,3-0.7,5.7-1.8,8c-1.1,2.3-2.7,4.2-4.7,5.7s-4.3,2.7-6.9,3.5s-5.5,1.2-8.5,1.2c-3.2,0-6.1-0.4-8.7-1.3
			s-4.9-2-6.8-3.4s-3.4-3.1-4.4-5s-1.5-4-1.5-6.3c0-4.4,1.3-7.8,3.9-10.3s6.6-4.4,11.9-5.5l9.1-1.9c2.7-0.5,4.6-1.4,5.8-2.6
			c1.2-1.2,1.8-2.8,1.8-4.9c0-2.3-1-4.1-3.1-5.5c-2-1.4-4.5-2.1-7.5-2.1c-2.9,0-5.4,0.7-7.5,2.2s-3.2,4-3.3,7.6h-9.5
			c0.1-3,0.7-5.6,1.8-7.8c1.2-2.2,2.7-4,4.6-5.4s4.1-2.5,6.5-3.1s4.9-1,7.5-1c3,0,5.6,0.4,8,1.2c2.4,0.8,4.5,1.9,6.2,3.3
			s3.1,3,4.1,4.9c0.9,1.9,1.4,3.9,1.4,6c0,4.2-1.2,7.6-3.6,10.1s-5.8,4.2-10.2,5.1l-8.9,1.8c-3.6,0.7-6.1,1.7-7.5,3s-2.1,3-2.1,5.2
			c0,2.7,1.2,4.7,3.5,6.1s5.1,2.1,8.3,2.1c3.3,0,6.2-0.9,8.6-2.7c2.4-1.8,3.7-4.4,3.8-8h9.7L439.8,368.5L439.8,368.5z"/>
	</g>
</g>
<text transform="matrix(1 0 0 1 -1509.0052 -196.2186)" class="st0" style="font-family:'PxGrotesk-Bold'; font-size:320.0991px;">30</text>
<g>
	<path d="M-1104.2-400.2h3.5c0.9,0,1.6,0.2,2,0.7c0.5,0.5,0.7,1.1,0.7,2.1c0,0.9-0.3,1.6-0.7,2c-0.5,0.5-1.1,0.7-2,0.7h-1.9v3.1
		h-1.6V-400.2z M-1100.6-396.1c0.3,0,0.5-0.1,0.6-0.2s0.2-0.3,0.2-0.7v-1c0-0.3-0.1-0.5-0.2-0.6s-0.3-0.2-0.6-0.2h-2v2.7
		L-1100.6-396.1L-1100.6-396.1z"/>
	<path d="M-1096.5-400.2h3.5c0.9,0,1.6,0.2,2,0.7c0.5,0.4,0.7,1.1,0.7,2c0,0.7-0.1,1.2-0.5,1.6c-0.3,0.4-0.8,0.7-1.3,0.9l2,3.4h-1.8
		l-1.8-3.3h-1.1v3.3h-1.6L-1096.5-400.2C-1096.4-400.2-1096.5-400.2-1096.5-400.2z M-1092.8-396.3c0.5,0,0.7-0.3,0.7-0.9v-0.8
		c0-0.3-0.1-0.5-0.2-0.6s-0.3-0.2-0.6-0.2h-2.1v2.6C-1095-396.3-1092.8-396.3-1092.8-396.3z"/>
	<path d="M-1087.9-399.3c0.7-0.7,1.6-1.1,2.8-1.1c1.2,0,2.2,0.4,2.8,1.1c0.7,0.7,1,1.9,1,3.4s-0.3,2.6-1,3.4
		c-0.7,0.7-1.6,1.1-2.8,1.1c-1.2,0-2.2-0.4-2.8-1.1c-0.6-0.7-1-1.9-1-3.4S-1088.5-398.5-1087.9-399.3z M-1087-393.9
		c0.1,0.2,0.3,0.4,0.5,0.5s0.4,0.3,0.7,0.3c0.3,0.1,0.5,0.1,0.8,0.1s0.5-0.1,0.8-0.1c0.3-0.1,0.5-0.2,0.7-0.3
		c0.2-0.1,0.3-0.3,0.5-0.5c0.1-0.2,0.1-0.5,0.1-0.7v-2.6c0-0.3-0.1-0.5-0.1-0.7c-0.1-0.2-0.3-0.4-0.5-0.5s-0.4-0.3-0.7-0.3
		c-0.3-0.1-0.5-0.1-0.8-0.1s-0.5,0.1-0.8,0.1c-0.3,0.1-0.5,0.2-0.7,0.3c-0.2,0.1-0.3,0.3-0.5,0.5c-0.1,0.2-0.1,0.5-0.1,0.7v2.6
		C-1087.1-394.3-1087-394.1-1087-393.9z"/>
	<path d="M-1080.3-393.1h2.6v-7.2h1.6v8.6h-4.2V-393.1L-1080.3-393.1z"/>
	<path d="M-1067-385.1h5.9v1.4h-4.2v2.1h3.7v1.4h-3.7v2.3h4.2v1.4h-5.9V-385.1z"/>
	<path d="M-1059.4-382.6c0.1-0.5,0.4-1,0.7-1.4c0.3-0.4,0.7-0.7,1.1-0.9c0.5-0.2,1-0.3,1.6-0.3c0.4,0,0.8,0.1,1.2,0.2
		c0.4,0.1,0.7,0.3,1,0.5c0.3,0.3,0.5,0.5,0.7,0.9c0.1,0.3,0.3,0.7,0.3,1.1h-1.6c-0.1-0.5-0.2-0.8-0.5-1s-0.7-0.3-1.1-0.3
		c-0.3,0-0.5,0.1-0.7,0.1c-0.2,0.1-0.4,0.2-0.6,0.3c-0.1,0.1-0.3,0.3-0.4,0.5s-0.1,0.5-0.1,0.7v2.6c0,0.3,0.1,0.5,0.1,0.7
		c0.1,0.2,0.2,0.4,0.4,0.5c0.1,0.1,0.3,0.3,0.6,0.3c0.2,0.1,0.5,0.1,0.7,0.1c0.5,0,0.9-0.1,1.2-0.3c0.3-0.2,0.5-0.6,0.5-1.1h1.6
		c-0.1,0.5-0.2,0.9-0.4,1.3c-0.2,0.3-0.4,0.7-0.7,0.9c-0.3,0.2-0.6,0.4-1,0.5s-0.8,0.1-1.3,0.1c-0.6,0-1.1-0.1-1.6-0.3
		s-0.8-0.5-1.1-0.9c-0.3-0.4-0.5-0.9-0.7-1.4s-0.2-1.1-0.2-1.8C-1059.6-381.5-1059.6-382.1-1059.4-382.6z"/>
	<path d="M-1051.9-385.1h6.6v1.4h-2.5v7.2h-1.6v-7.2h-2.5V-385.1L-1051.9-385.1z"/>
	<path d="M-1042.9-379.1c0.1,0.5,0.3,0.9,0.6,1.1c0.3,0.2,0.7,0.3,1.2,0.3s0.9-0.1,1.2-0.3c0.3-0.2,0.5-0.5,0.5-0.9
		c0-0.3-0.1-0.5-0.3-0.7c-0.2-0.2-0.5-0.3-0.9-0.4l-1.7-0.5c-0.7-0.2-1.2-0.5-1.5-0.9s-0.5-0.9-0.5-1.5c0-0.3,0.1-0.7,0.2-0.9
		c0.1-0.3,0.3-0.5,0.6-0.7c0.3-0.2,0.6-0.4,1-0.5s0.8-0.2,1.3-0.2c0.4,0,0.8,0.1,1.2,0.1c0.4,0.1,0.7,0.3,1,0.5s0.5,0.5,0.7,0.8
		s0.3,0.7,0.3,1.1h-1.6c0-0.2-0.1-0.4-0.2-0.6c-0.1-0.1-0.2-0.3-0.3-0.4s-0.3-0.1-0.5-0.2s-0.3-0.1-0.5-0.1c-0.5,0-0.8,0.1-1.1,0.3
		c-0.3,0.2-0.4,0.4-0.4,0.7c0,0.3,0.1,0.6,0.3,0.7c0.2,0.2,0.5,0.3,0.9,0.4l1.5,0.4c0.7,0.2,1.3,0.5,1.7,0.9s0.5,0.9,0.5,1.6
		c0,0.4-0.1,0.7-0.3,1.1c-0.1,0.3-0.4,0.6-0.7,0.8c-0.3,0.2-0.7,0.4-1.1,0.5s-0.9,0.2-1.3,0.2s-0.9-0.1-1.3-0.1
		c-0.4-0.1-0.7-0.3-1.1-0.5c-0.3-0.2-0.5-0.5-0.7-0.9c-0.2-0.3-0.3-0.7-0.3-1.3L-1042.9-379.1L-1042.9-379.1z"/>
</g>
<path d="M-1045.3-287.4v16.7h-50.9v-16.7H-1045.3z"/>
<g>
	<path d="M-1094.8-424.4l12.3-11.9c0.9-0.9,1.6-1.8,2.2-2.6c0.5-0.9,0.8-1.8,0.8-2.8c0-1.3-0.4-2.4-1.2-3.1
		c-0.8-0.7-1.9-1.1-3.2-1.1c-1.5,0-2.8,0.4-3.6,1.3c-0.9,0.9-1.3,2.1-1.3,3.6h-5.7c0-1.5,0.3-2.8,0.8-4s1.3-2.2,2.3-3
		c0.9-0.8,2.1-1.5,3.4-2s2.8-0.7,4.3-0.7s3,0.2,4.2,0.7c1.2,0.4,2.3,1,3.2,1.8s1.5,1.8,2,2.8c0.5,1.1,0.7,2.3,0.7,3.6
		c0,0.9-0.1,1.8-0.4,2.6c-0.3,0.8-0.6,1.6-1,2.4c-0.4,0.7-0.9,1.4-1.4,2s-1.1,1.2-1.6,1.8l-9.3,8.7v0.1h14.1v4.7h-21.3v-4.8h-0.3
		V-424.4z"/>
	<path d="M-1067.9-440.9c0.4-2,1.1-3.8,2-5.3s2.1-2.6,3.6-3.4s3.2-1.2,5.4-1.2c3.1,0,5.5,0.7,7.3,2.2c1.8,1.4,2.8,3.4,3,6.1h-5.7
		c-0.1-1.3-0.6-2.2-1.5-2.7c-0.8-0.5-1.9-0.8-3.2-0.8c-1.7,0-3,0.5-4,1.7c-0.9,1.1-1.4,2.6-1.4,4.4v3.3c0.7-0.9,1.6-1.7,2.7-2.2
		s2.4-0.7,3.9-0.7s2.8,0.3,4,0.7c1.2,0.5,2.3,1.1,3.2,2s1.5,1.9,2,3.2c0.5,1.2,0.7,2.6,0.7,4s-0.2,2.8-0.7,4
		c-0.5,1.3-1.1,2.4-2.1,3.4c-0.9,1-2.1,1.8-3.5,2.4s-3,0.9-5,0.9c-4,0-6.9-1.3-8.7-3.8c-1.8-2.5-2.7-6.3-2.7-11.5
		C-1068.5-436.7-1068.3-438.9-1067.9-440.9z M-1061.1-425c0.9,0.9,2.2,1.3,4,1.3c1.7,0,3-0.4,3.8-1.3c0.9-0.9,1.3-2,1.3-3.4v-2.6
		c0-1.4-0.5-2.4-1.3-3.1c-0.9-0.7-2.2-1-3.8-1s-3,0.3-4,1c-0.9,0.7-1.4,1.8-1.4,3.1v2.6C-1062.5-426.9-1062-425.8-1061.1-425z"/>
	<path d="M-1087.8-375.7l29.8-29.8l3.2,3.2l-29.8,29.8L-1087.8-375.7z"/>
	<path d="M-1089.7-338.1c0.1,1.7,0.6,3,1.6,3.7s2.3,1.1,3.8,1.1s2.8-0.4,3.7-1.1c0.9-0.7,1.4-1.7,1.4-2.7v-2.8
		c0-1.8-0.9-2.7-2.8-2.7h-6.3v-4.6h6c1,0,1.7-0.3,2.1-0.7c0.4-0.4,0.6-1.1,0.6-1.9v-2.4c0-1.1-0.4-2-1.3-2.6
		c-0.9-0.5-1.9-0.8-3.2-0.8c-1.4,0-2.6,0.3-3.4,0.9c-0.9,0.6-1.3,1.6-1.5,3h-5.7c0-1.3,0.3-2.6,0.7-3.6c0.5-1.1,1.2-2,2.2-2.8
		c0.9-0.7,2-1.3,3.3-1.7c1.3-0.4,2.8-0.6,4.3-0.6s3,0.2,4.2,0.6c1.3,0.4,2.4,0.9,3.3,1.6s1.6,1.5,2.1,2.6c0.5,1,0.7,2.2,0.7,3.4
		c0,1.8-0.3,3.3-1.1,4.4c-0.7,1.2-1.8,2.1-3.3,2.8c1.6,0.7,2.9,1.6,3.7,2.8c0.8,1.1,1.2,2.7,1.2,4.6c0,1.4-0.3,2.6-0.8,3.8
		c-0.5,1.1-1.3,2.1-2.3,2.8s-2.2,1.3-3.5,1.8c-1.3,0.4-2.8,0.6-4.4,0.6s-3-0.2-4.4-0.6c-1.3-0.4-2.5-1-3.5-1.8c-1-0.7-1.8-1.8-2.4-3
		c-0.5-1.2-0.9-2.6-0.9-4.2L-1089.7-338.1L-1089.7-338.1z"/>
	<path d="M-1068.1-350.7c0.3-2,0.9-3.6,1.8-5s2-2.6,3.4-3.4s3.3-1.2,5.5-1.2s4.1,0.4,5.5,1.2c1.5,0.8,2.6,2,3.4,3.4
		c0.9,1.4,1.4,3.1,1.8,5c0.3,2,0.5,4,0.5,6.3s-0.1,4.3-0.5,6.3c-0.3,2-0.9,3.6-1.8,5s-2,2.6-3.4,3.4c-1.5,0.8-3.3,1.2-5.5,1.2
		s-4.1-0.4-5.5-1.2c-1.4-0.8-2.6-2-3.4-3.4s-1.4-3.1-1.8-5c-0.3-2-0.5-4-0.5-6.3C-1068.5-346.7-1068.4-348.8-1068.1-350.7z
		 M-1057.4-333.3c3.4,0,5.2-1.8,5.2-5.3v-11.8c0-3.5-1.8-5.3-5.2-5.3s-5.2,1.8-5.2,5.3v11.8C-1062.5-335-1060.8-333.3-1057.4-333.3z
		"/>
</g>
<text transform="matrix(1 0 0 1 -1669.8978 -357.7547)" style="font-family:'PxGroteskRegular'; font-size:105.6592px;">   se</text>
<text transform="matrix(1 0 0 1 -1669.8978 -269.7547)" style="font-family:'PxGroteskRegular'; font-size:105.6592px;">   l — ected</text>
<text transform="matrix(1 0 0 1 -1812.6968 -155.4754)" style="font-family:'PxGrotesk-Bold'; font-size:216.5341px;">proj</text>
<g>
	<text transform="matrix(-1 0 0 1 -1199.9805 -120.4881)" style="font-family:'PxGroteskRegular'; font-size:105.6592px;">ects</text>
</g>
</svg>
